<svg width="34" height="18" viewBox="0 0 34 18" fill="none" xmlns="http://www.w3.org/2000/svg">
<path d="M33.01 8.08H32.84C29.29 7.94 27.03 3.55 27.03 0.5C27.03 0.22 26.81 0 26.53 0C26.25 0 26.03 0.22 26.03 0.5C26.03 3.1 27.43 6.44 29.84 8.08H1.01C0.73 8.08 0.5 8.31 0.5 8.59C0.5 8.87 0.73 9.1 1.01 9.1H29.84C27.43 10.74 26.03 14.08 26.03 16.68C26.03 16.96 26.25 17.18 26.53 17.18C26.81 17.18 27.03 16.96 27.03 16.68C27.03 13.63 29.29 9.23 32.84 9.1H33.01C33.29 9.1 33.52 8.87 33.52 8.59C33.52 8.31 33.29 8.08 33.01 8.08Z" fill="#303F5D"/>
</svg>
