<?xml version="1.0" encoding="UTF-8"?>
<svg id="_レイヤー_1" data-name="レイヤー_1" xmlns="http://www.w3.org/2000/svg" version="1.1" viewBox="0 0 1440 61">
  <!-- Generator: Adobe Illustrator 29.4.0, SVG Export Plug-In . SVG Version: 2.1.0 Build 152)  -->
  <defs>
    <style>
      .st0 {
        fill: #f5f3ed;
      }

      .st1 {
        fill: #fff;
      }
    </style>
  </defs>
  <path class="st0" d="M1440,10.4l-2.2,1-1.6-1.5h-2c0,.1-1.5-1.6-1.5-1.6h-2c0,.1-2,.3-2,.3l-1.9-.2-1.8-.6-1.6-1.4-2,.3-1.9-.3-2,.5-1.4-2.9-2.3,2.3-1.5-2.6-2,.3-2,.6-1.8-.6-1.8-1.3-1.9-.2-2,1.1-2,.5-1.8-.6-1.8-1.6-1.9.5-1.8-1-1.9-.5-2,1.7-1.8-1.1-1.8-1-1.9.8-1.9.9-1.9-.6-1.9-1.1-1.9.7-1.9.5-1.9.3h-1.9c0,0-1.9-1.9-1.9-1.9l-1.9,2.8-1.9-2-1.9-.4-1.9,1.8-1.9-1.6-1.9-.2-1.8,1.5-1.9.3-1.9-1.3-1.8,2-1.9-.2-2-2-1.7,2.4-2-1.4-1.9.2h-1.9c0,.1-1.9.2-1.9.2l-1.8,1.4-1.8.7-2-.8-1.7,1.6-2.1-1.5-1.8.7-1.9.2-2-.2h-1.9s-1.9.4-1.9.4l-1.7,1.1h-1.9c0,0-1.8.8-1.8.8h-1.9c0,.1-1.9.3-1.9.3l-1.7.9-1.7.9-1.6,1.3-2.2-1.1-1.4,2.1h-1.9c0,.1-1.7,1.1-1.7,1.1l-2.5-1.9-1.2,2.5h-2c0,0-1.5,1.5-1.5,1.5l-2.3-1.1-1.4,1.8-1.9.2-2.3-1-1.6,1.2-1.5,1.5-1.7,1-2.1-.5-1.8.4-1.7,1-2.1-.3-1.7.8-1.6,1.3-2.2-.6-1.8.7-1.3,2.5-2.4-1.6-1.1,3.1-2.1-.7-1.7,1.2-1.9.4-1.8.6-1.8.8-2-.2-1.8.4h-1.9c0,.1-2.2-1.1-2.2-1.1l-1.8.4-1.5,2.6-2-.8-2.1-1.3-1.5,2.7-1.9.3-2.1-1.3-1.8,1.2-2.1-1.7-1.6,2.8-2.1-2.2-1.7,2.6-2.1-2.6-1.9.5-1.8.6-1.8,1.2-1.9.9-2-1.4-1.9-.5-1.8,1.2h-1.9c0,0-1.9.6-1.9.6l-1.9-.3-1.9-1.6-1.9,1.9-1.9-.6-1.9,1.2-1.9-2.8h-1.9s-1.9,2-1.9,2l-1.9.9-1.9-.2-1.9-1.4-1.9.4-1.9-.8-1.9.5-1.9,1.1-1.9-.4-1.8-1-2,.8-1.7-2.7-1.9.3-2,1.4-1.8-1.2-1.8-.6-2,1.3-1.7-1.9-1.9.4-1.8-.8-1.8-.9h-1.9s-2.3,2.2-2.3,2.2l-1.7-1.4-1.7-1.3-1.8-.8-2.3,1.8-1.8-.4-1.5-1.9-2.1.6-1.6-1.4-1.9-.3-2.3,1.3-1.7-1.1-1.5-1.9-2.2,1-1.3-2.4-1.7-.8-2.1.5-2.2.6-1.6-1.4-2,.2-1.2-2.5-2.2.7-1.8-.4-1.5-1.4-1.7-.9-2.4,1.4-1.1-2.6h-2s-1.6-1-1.6-1l-2,.2h-1.9c0,0-2.1.3-2.1.3l-1.2-2.4-2.4,1.4-1.4-2.1h-1.9s-2,.2-2,.2l-1.6-1.2-1.9-.2-1.4-2.1-2.2,1-2,.3-1.8-.6-1.7-1-2,.5-1.4-2.7-2,.7h-1.9l-2,.7-1.7-1.5h-1.9s-1.8-1.1-1.8-1.1l-2.1,1.5-1.6-2.2-2.1,1.4-1.7-1.8-2,1.1-1.8-1-2,1.2-1.9.3-1.8-1-1.8-1.5-2,1.4-1.9-.4-1.8-1.4-2,1.6h-1.9s-1.9-1.5-1.9-1.5l-1.9,2.2-1.9-1.3-1.9,1.2-1.9-1.2h-1.9s-1.9,1.2-1.9,1.2l-1.9-1-1.9.5-1.9.5-1.9.3h-1.9s-1.9-.1-1.9-.1l-2-2.2-1.9.3-1.8,1.3-1.9.2-1.8.8-2-2.3-1.8,1.3h-1.9c0-.1-1.8.7-1.8.7l-1.8,1.2h-1.9s-2.1-1.9-2.1-1.9l-1.8,1-2-.3-1.6,2-2.1-1.3-1.8.7-1.8.5-2-.6-1.8.7-2-.2-1.5,2.3-2.3-1.9-1.8.8-1.5,2-2-.4-2.1-.7-1.7.9-1.9.2-1.7,1.1-1.8.4-1.6,1.3-1.7.9-2.3-1.2-1.8.7-1.4,2-2.4-1.3-1,3-2.4-1.3-1.4,1.9-1.8.7-2.3-1-1.3,2.1-1.8.7-2.1-.3h-1.9c0,.1-1.7,1-1.7,1l-1.7.9-2.2-.7-1.5,1.7h-2s-1.5,1.6-1.5,1.6l-1.9.3-2.2-1.2-1.7.9-1.3,2.6-2.3-1.7-1.4,2.4-2.2-1-1.6,1.4-1.7,1.3h-1.9c0,0-1.9,0-1.9,0l-2.2-1.6h-1.9c0,0-1.7,1.5-1.7,1.5l-1.8.8-1.9-.3-2-.4-1.7,1.6-1.9-.2-1.9.4-2-1.3-1.8.9-1.9-.2-1.8.6-1.8.6-2-1.1-1.8,1.6-1.8,1-2-2.4-1.9.5-1.8,1.5-1.9.7-1.9-1.7-1.9-.6-1.9,2.1-1.9-1.8-1.9,1-1.9.6h-1.9c0-.1-1.9-1.1-1.9-1.1l-1.9-.5-1.9,2.4-1.8-2.6-1.9,2.4-1.8-1.9-1.9,1.1-1.9-.6h-1.9c0-.1-1.9.9-1.9.9l-1.8-1.3-2,1.2-1.9-.5-1.9.2-1.7-2.2-2,1.5-1.8-.8-1.8-1.3-2,1.2-2,.5-1.8-.8-1.5-2.6-2,.5-2.2,1.6-1.8-.7-1.6-1.8-1.8-.5h-1.9c0,.1-2.2,1.2-2.2,1.2l-1.6-1.5-1.6-1.6-2.1.9-1.5-1.9-1.8-.5-1.9-.3h-1.9s-2.4,1.5-2.4,1.5l-1.2-2.6-1.8-.7-1.8-.5-2.2.9-1.6-1.3h-2c0,0-2.2.5-2.2.5l-1.4-1.9-2.1.3-1.5-1.5-1.7-.7-2.2.8-1.8-.5-1.1-2.8-2.3,1.1-1.7-.9-1.6-1.2-1.8-.5-2,.3-1.8-.7-2,.3-1.4-1.9-1.7-.9-1.8-.7-1.8-.5-2.2,1-2.1.5-1.5-1.8-1.9-.3h-1.9c0,0-1.9-.1-1.9-.1l-1.5-2.2-1.9-.2-1.9-.2-2.1,1.3h-1.9c0,0-1.6-1.9-1.6-1.9l-2.1,1.2-1.8-.7-1.9-.2-2,.6-1.8-1.3-2,.8-1.9.2h-1.9s-1.9-.2-1.9-.2l-1.8-1.2h-1.9c0,.1-1.9-.3-1.9-.3l-1.9.2-1.9.2-1.8-1.8-2,2.1-1.8-1.6-1.9-.5-1.9-.6-1.9.3-1.9-.2-1.9,2.3-1.9-.4-1.9.6-1.9-.7-1.9.2-1.9-1.2-1.9.5-1.9.5-1.9.2-1.9.3-1.9-.5-1.8.8-1.9-.2-2-.9-1.8.8h-1.9c0,0-1.9-.2-1.9-.2l-1.9.2-1.8,1.2-2.1-1.8-1.7,1.6-1.7,1.3-2.1-1.7-1.6,2.1-2-.5-2-.5-1.5,2.2-2.2-1.9-1.8.8-2-.6-1.5,2.2-1.6,1.4-1.9.3-1.9.2-2.2-1-1.7,1.2-1.8.4-2.2-1-1.9.3-1.1,3.2-2.5-1.9-1.9.2-1.7,1.1-1.4,1.8-2.3-1-1.6,1.1-1.7,1-2.1-.5-1.2,2.5h-2c0-.1-1.4,1.6-1.4,1.6l-1.7.9-1.8.5-1.8.6-1.9.4-1.8.5-2.1-.4-2.2-.8-1.2,2.8-2.2-.9-2.1-.5-1.5,1.7-1.9.2-1.5,1.9h-2c0-.1-2.1-.8-2.1-.8h-1.9c0,.1-1.8.9-1.8.9l-2-.5-1.5,2-2.1-1.2-1.6,2.1-2.2-1.7-1.6,1.8-2-.5-1.6,1.8-2.1-1.8-1.6,2.5h-1.9s-2.1-2-2.1-2l-1.7,1.9-2-1.6-1.7,2-2-1.1-1.9-.2-1.7,2.4-2-2.2-1.9.2-1.8,1.1-1.9.2-1.9-.7-1.8,1.2-1.9.2-1.9-1.7-1.9,1.1-1.9,1.6-1.9-2.4-1.9.3-1.9.7-1.9,1.1h-1.9c0-.1-1.9-.9-1.9-.9l-1.9-.4-1.9-1.3-2,2.3-1.8-2.3-1.9,1.3-1.9.8-1.8-2.6-2,2.3-1.7-2.2-2,1.7-1.7-2-2,.9-1.9.4-1.7-1.9-1.8-.6-2.1,1.8-1.8-1-1.8-.5-1.9-.4-1.7-1.2-1.8-.3-2,.8-1.9-.3-2,.4h-1.9s-1.9-.3-1.9-.3l-1.8-.8-1.9-.4h-1.9s-1.4-2.4-1.4-2.4l-2.1.5-2,.3-1.9-.2-1.6-1.2-1.7-1-1.6-1.2-2.1.3-1.8-.7-1.4-1.8h-2s-1.8-.6-1.8-.6l-1.8-.7-2.5,1.7-1.3-2.2-2.1.3-1.5-1.6-2.2.8-1.1-2.8-2.5,1.7-1.1-2.7-2.4,1.4-1.2-2.4-2.5,1.9-1.2-2.5-1.8-.6-1.8-.5-2.1.4-1.7-.9-2.1.6-2,.3-1.3-2.8-2.3,1.5-1.4-2.5-2.3,1.9-1.8-.8-1.6-1.9-2.1,1.1h-1.9c0,0-1.8-.2-1.8-.2l-1.9-.2-1.8-.5-1.9.2-1.6-2-1.8-.7-2,.6-1.8-1.1-1.9-.4-2,1.7h-1.9s-1.9.5-1.9.5l-1.8-1.1-1.9-.3-1.8-1.6-1.9.7-2,1.5-1.8-1.7-1.9.9h-1.9c0,.1-1.9-.3-1.9-.3l-1.9.9-1.9-2.4-1.9.6-1.9-.4-1.9,1.4-1.9.3-1.9.8-1.9-.5-1.9-2.2-1.8,2.2-1.9-.6-1.9.7-2-1.7-1.8,1.8-2-2-1.9.2-1.8,1-1.8,1-1.9-.6h-1.9s-1.8.7-1.8.7h-1.9l-1.9-.4-1.7,1.5-1.8,1.2-2.1-1.8-1.8.6-1.8.7-2.1-1.3-1.7,1.2-1.7,1.1-2.1-.8-1.8.5-1.4,2.5-2.1-.9-1.6,1.6-2.3-1.8-1.8.5-1.7.8-1.4,2.2-2.5-2-1.6,1.3-1.4,2.1-2.2-1-1.4,1.9-2.1-.4-2.2-.6-1.7.8-1.3,2.3-1.7,1-2.3-.9-1.7.9-1.5,1.6-2.5-1.6-1.2,2.3-1.7.8-1.7.7h-1.9c0,.1-2,.2-2,.2l-2.1-.4-1.6,1.2-1.8.6-2-.3-1.6,1.2-1.7.8-1.7.9-2.2-1.2-1.8.6-1.3,2.6-2.4-2-1.7.8-1.5,2.1-2.1-1.1-1.9.2-1.6,2-2.3-2-1.5,2.7-2.2-1.8-1.7,1.4-2-.6-1.7,1.8h-1.9c0,0-1.8.6-1.8.6l-1.9.3-2-.6h-1.9s-2-1.1-2-1.1l-1.8,1.5-1.8.9-1.9-.5-1.9-.6h-1.9c0,0-1.9.5-1.9.5l-1.9-1.4-1.9.2-1.9,1.1-1.9-.2-1.9,1.9-1.9-2.1-1.9-.4-1.9.8-1.9,1.4-1.9-1.8-1.9.2-1.9.3-1.9.7-1.8-1.8-1.9,2-1.8-1.4-1.9.9-1.8-1.8-2,2.6-1.7-2.7-2,2.2-1.7-2.1-1.9.4-1.9.5h-1.9c0-.1-1.9-.2-1.9-.2l-1.7-2.2-2,.7-2.1,1.5-1.8-1-1.7-1.2-1.9-.2-2.1,1.4-1.4-3-2,.8-2,.4-1.9-.2-1.8-.6-1.7-1.1-2,.5-1.7-1.2-2.2.9-1.3-2.7-1.9-.3-2.3,1.4-1.8-.5-1.9-.3-1.9-.4-1.5-1.6-1.6-1.1-2.3,1.1-1.8-.7-1.4-1.9h-2c0,0-1.8-.5-1.8-.5l-1.9-.3h-2s-1.5-1.6-1.5-1.6l-2.1.3-1.8-.4-1.5-1.6-1.6-1-2.2.7-1.7-.9-1.8-.5H0s.4,0,.4,0v49h1439.5V10.4h0Z"/>
  <path class="st0" d="M143.7,7.7l4.3,2.2h0c-.5.3-4.4,1.5-4.5,1.7,0,0,0,.2,0,.3.1.5.4,1.2.6,1.6.4,1,.9,2.1,1.3,3.1,0,0,.2.5.1.6,0,0-.1,0-.2,0-.2,0-.9-.7-1.1-.9-.6-.5-1.3-.9-1.9-1.4-.3-.2-.7-.5-1-.7-.4-.2-.5.2-.7.4-1.1,1.5-2,3.2-3.1,4.7-.3.3-.3-.2-.3-.4-.2-1.5-.2-3-.3-4.4,0-.4,0-1.6-.2-1.9-.3-.4-1-.3-1.4-.3-1.3,0-2.5.3-3.8.3-.2,0-.6.1-.5-.3,0-.1.3-.1.4-.2.9-.5,3.7-2,4.3-2.7,0,0,.2-.2.2-.3,0-.1-.4-.5-.5-.7-.9-1-2-1.8-2.9-2.7,0,0-.5-.5-.5-.6,0,0,.1,0,.2,0,.4,0,1,.3,1.5.4.7.2,1.5.4,2.2.5.2,0,1.1.3,1.3.2,0,0,.2-.5.2-.6.3-1.3.5-2.8.9-4.1,0-.2.1-.6.3-.4.6,1.2,1.1,2.5,1.6,3.7.1.3.4.8.5,1.1,0,.1.2.2.3,0l3.1-3.3c.2-.1.5-.5.5,0-.2.6-.4,1.1-.6,1.7-.2.8-.4,1.6-.5,2.4,0,.2-.1.9,0,1h0Z"/>
  <path class="st1" d="M1297.6,19v.2c-.5.6-.9,1.1-1.4,1.6-.3.3-.8.6-1.1.9-.2.2-.6.6-.5.9.4.5.7,1.1,1.1,1.7.1.2,1.3,1.8,1.2,1.9-1.2-.1-2.4-.5-3.6-.7-.2,0-.3.1-.4.2-.1.1-.3.5-.4.7-.6,1-1.1,2.6-1.7,3.5-.3.4-.3-.1-.4-.3-.3-.8-.5-1.6-.8-2.4,0-.2-.5-1.4-.6-1.4,0,0-.2,0-.3,0-.4,0-1,.3-1.4.5-.8.2-1.7.5-2.5.7,0-.1,0-.2,0-.4.4-.9,1.2-1.9,1.6-2.9.1-.3.2-.6,0-.9,0-.2-.7-.8-.8-.9-.2-.2-1.8-1.4-1.8-1.6s.3,0,.4,0c1,0,2-.1,3-.2.2,0,.4,0,.6,0,.5,0,.4-.7.4-1.1,0-.5,0-.9,0-1.4,0-.4,0-.8,0-1.3,0,0,.1,0,.2,0,.7.5,1.3,1.5,2,2,.3.2.4.2.5-.1.4-.7.7-1.6,1-2.4,0-.1.4-.8.5-.8.2,0,.2.4.2.5.4.9.5,1.7.8,2.7,0,.4,0,.9.6.9.5,0,3.4-.3,3.6-.1h0Z"/>
  <path class="st0" d="M1178,10.2v.2c-.4.4-.7.9-1.1,1.3-.3.2-.6.5-.9.7-.2.1-.5.5-.4.7.3.4.6.9.8,1.3.1.2,1.1,1.4.9,1.5-1,0-1.9-.4-2.9-.6-.1,0-.2,0-.3.2,0,.1-.2.4-.3.6-.5.8-.8,2.1-1.3,2.8-.2.3-.2-.1-.3-.2-.3-.6-.4-1.3-.7-1.9,0-.2-.4-1.1-.4-1.1,0,0-.2,0-.2,0-.3,0-.8.3-1.1.4-.7.2-1.3.4-2,.5,0-.1,0-.2,0-.3.3-.8,1-1.5,1.3-2.3,0-.3.2-.5,0-.7,0-.1-.6-.6-.7-.7-.2-.2-1.5-1.1-1.5-1.3s.2,0,.3,0c.8,0,1.6,0,2.4-.2.2,0,.3,0,.5,0,.4,0,.3-.5.3-.9,0-.4,0-.7,0-1.1,0-.3,0-.7,0-1,0,0,0,0,.1,0,.6.4,1,1.2,1.6,1.6.2.2.3.2.4,0,.3-.6.5-1.3.8-1.9,0-.1.3-.7.4-.7.1,0,.2.3.2.4.3.7.4,1.4.6,2.1,0,.3,0,.7.5.8.4,0,2.8-.2,2.8,0h0Z"/>
  <path class="st1" d="M704.8,23v.2c-.5.6-.9,1.1-1.4,1.6-.3.3-.8.6-1.1.9-.2.2-.6.6-.5.9.4.5.7,1.1,1.1,1.7.1.2,1.3,1.8,1.2,1.9-1.2-.1-2.4-.5-3.6-.7-.2,0-.3.1-.4.2-.1.1-.3.5-.4.7-.6,1-1.1,2.6-1.7,3.5-.3.4-.3-.1-.4-.3-.3-.8-.5-1.6-.8-2.4,0-.2-.5-1.4-.6-1.4-.1,0-.2,0-.3,0-.4,0-1,.3-1.4.5-.8.2-1.7.5-2.5.7,0-.1,0-.2,0-.4.4-.9,1.2-1.9,1.6-2.9.1-.3.2-.6,0-.9-.1-.2-.7-.8-.8-.9-.2-.2-1.8-1.4-1.8-1.6s.3,0,.4,0c1,0,2-.1,3-.2.2,0,.4,0,.6,0,.5,0,.4-.7.4-1.1,0-.5,0-.9,0-1.4,0-.4,0-.8,0-1.3.1,0,.1,0,.2,0,.7.5,1.3,1.5,2,2,.3.2.4.2.5-.1.4-.7.7-1.6,1-2.4,0-.1.4-.8.5-.8.2,0,.2.4.2.5.4.9.5,1.7.8,2.7.1.4,0,.9.6.9.5,0,3.4-.3,3.6-.1h0Z"/>
</svg>