<?xml version="1.0" encoding="UTF-8"?>
<svg id="_レイヤー_1" data-name="レイヤー_1" xmlns="http://www.w3.org/2000/svg" version="1.1" viewBox="0 0 375 19.9">
  <!-- Generator: Adobe Illustrator 29.5.0, SVG Export Plug-In . SVG Version: 2.1.0 Build 137)  -->
  <defs>
    <style>
      .st0 {
        fill: #f5f3ed;
      }

      .st1 {
        fill: #fafafa;
      }
    </style>
  </defs>
  <polygon class="st0" points="375 4.9 374.9 4.9 374.2 4.6 373.6 5 373.1 5.5 372.6 5.8 371.9 5.6 371.2 5.8 370.7 6.1 370 6 369.4 6.3 368.9 6.7 368.2 6.5 367.6 6.7 367.2 7.5 366.4 7 366 8 365.3 7.8 364.7 8.2 364.1 8.3 363.5 8.5 362.9 8.8 362.2 8.7 361.6 8.8 361 8.9 360.2 8.5 359.6 8.6 359.1 9.5 358.4 9.2 357.7 8.8 357.2 9.7 356.6 9.8 355.9 9.4 355.3 9.7 354.6 9.2 354.1 10.1 353.4 9.4 352.8 10.2 352.1 9.4 351.5 9.5 350.9 9.7 350.3 10.2 349.7 10.5 349 10 348.4 9.8 347.7 10.2 347.1 10.3 346.5 10.4 345.8 10.3 345.2 9.8 344.6 10.4 343.9 10.2 343.3 10.6 342.7 9.7 342 9.7 341.4 10.3 340.8 10.6 340.1 10.5 339.5 10.1 338.9 10.2 338.3 10 337.6 10.1 337 10.5 336.3 10.3 335.7 10 335.1 10.3 334.5 9.4 333.9 9.5 333.2 9.9 332.6 9.6 332 9.4 331.3 9.8 330.7 9.2 330.1 9.3 329.5 9 328.9 8.7 328.2 8.7 327.5 9.5 326.9 9 326.3 8.6 325.7 8.3 325 8.9 324.4 8.8 323.9 8.1 323.2 8.3 322.6 7.9 322 7.7 321.2 8.2 320.7 7.8 320.2 7.2 319.4 7.5 319 6.7 318.4 6.4 317.7 6.6 317 6.8 316.5 6.3 315.8 6.4 315.4 5.6 314.7 5.8 314 5.7 313.5 5.2 313 4.9 312.2 5.4 311.8 4.5 311.1 4.5 310.6 4.1 309.9 4.2 309.2 4.2 308.5 4.3 308.1 3.5 307.3 4 306.9 3.3 306.2 3.3 305.5 3.4 305 2.9 304.4 2.9 303.9 2.2 303.1 2.5 302.5 2.6 301.9 2.4 301.3 2.1 300.6 2.2 300.2 1.3 299.5 1.5 298.8 1.5 298.2 1.8 297.6 1.3 297 1.2 296.4 .9 295.7 1.4 295.1 .6 294.4 1.1 293.9 .5 293.2 .9 292.6 .5 291.9 .9 291.3 1 290.7 .7 290.1 .2 289.4 .7 288.8 .5 288.2 0 287.5 .6 286.9 .6 286.3 0 285.6 .8 285 .4 284.3 .8 283.7 .4 283.1 .4 282.4 .8 281.8 .5 281.2 .7 280.6 .8 279.9 .9 279.3 1 278.7 .9 278 .2 277.4 .3 276.8 .7 276.1 .8 275.5 1.1 274.8 .3 274.2 .7 273.6 .7 273 1 272.4 1.4 271.8 1.4 271 .7 270.4 1.1 269.8 1 269.2 1.7 268.5 1.2 267.9 1.5 267.3 1.6 266.7 1.4 266 1.6 265.4 1.6 264.9 2.4 264.1 1.7 263.5 2 263 2.7 262.4 2.5 261.6 2.3 261.1 2.6 260.4 2.7 259.9 3.1 259.3 3.2 258.7 3.6 258.1 3.9 257.4 3.5 256.8 3.7 256.3 4.4 255.5 4 255.2 5 254.4 4.5 253.9 5.2 253.3 5.4 252.5 5.1 252.1 5.8 251.5 6 250.8 5.9 250.2 5.9 249.6 6.2 249 6.5 248.3 6.3 247.8 6.8 247.1 6.8 246.6 7.4 246 7.5 245.3 7.1 244.7 7.4 244.3 8.3 243.5 7.7 243 8.5 242.3 8.2 241.7 8.6 241.2 9.1 240.5 9.1 239.9 9.1 239.2 8.5 238.5 8.5 238 9 237.4 9.3 236.7 9.2 236.1 9 235.5 9.6 234.8 9.5 234.2 9.7 233.5 9.2 232.9 9.5 232.3 9.5 231.7 9.7 231.1 9.9 230.4 9.5 229.8 10.1 229.2 10.4 228.5 9.6 227.9 9.8 227.3 10.3 226.7 10.5 226 9.9 225.4 9.7 224.8 10.4 224.1 9.8 223.5 10.1 222.9 10.3 222.2 10.3 221.6 10 221 9.8 220.3 10.6 219.7 9.8 219 10.6 218.4 9.9 217.8 10.3 217.2 10.1 216.5 10.1 215.9 10.4 215.3 9.9 214.6 10.4 214 10.2 213.3 10.3 212.8 9.5 212.1 10 211.5 9.7 210.9 9.3 210.2 9.7 209.5 9.9 208.9 9.6 208.4 8.7 207.8 8.9 207 9.4 206.4 9.2 205.9 8.6 205.3 8.4 204.6 8.5 203.9 8.8 203.4 8.3 202.8 7.8 202.1 8.1 201.6 7.4 201 7.3 200.4 7.2 199.7 7.2 198.9 7.7 198.5 6.8 198 6.5 197.3 6.4 196.6 6.7 196.1 6.2 195.4 6.2 194.7 6.4 194.2 5.8 193.5 5.8 193 5.3 192.5 5.1 191.7 5.3 191.1 5.2 190.7 4.2 190 4.6 189.4 4.3 188.8 3.9 188.2 3.7 187.6 3.8 187 3.6 186.3 3.7 185.8 3 185.2 2.7 184.6 2.5 184 2.3 183.3 2.7 182.6 2.8 182.1 2.2 181.5 2.1 180.8 2.1 180.2 2.1 179.7 1.3 179.1 1.3 178.4 1.2 177.7 1.6 177.1 1.7 176.5 1 175.8 1.4 175.2 1.2 174.6 1.1 174 1.3 173.4 .9 172.7 1.2 172.1 1.2 171.4 1.2 170.8 1.2 170.2 .8 169.6 .8 168.9 .7 168.3 .7 167.7 .8 167.1 .2 166.4 .9 165.8 .4 165.2 .2 164.5 0 163.9 .1 163.3 0 162.6 .8 162 .7 161.4 .9 160.7 .7 160.1 .7 159.5 .3 158.8 .5 158.2 .6 157.6 .7 156.9 .8 156.3 .7 155.7 .9 155 .9 154.4 .6 153.8 .8 153.1 .8 152.5 .8 151.9 .8 151.3 1.2 150.6 .6 150 1.2 149.4 1.6 148.7 1 148.2 1.7 147.5 1.6 146.8 1.4 146.3 2.1 145.6 1.5 145 1.8 144.3 1.6 143.8 2.3 143.2 2.8 142.6 2.8 142 2.9 141.3 2.6 140.7 3 140.1 3.1 139.3 2.8 138.7 2.9 138.3 3.9 137.5 3.3 136.9 3.4 136.3 3.8 135.8 4.4 135.1 4 134.5 4.4 134 4.7 133.2 4.6 132.9 5.4 132.2 5.4 131.7 6 131.1 6.3 130.5 6.4 129.9 6.6 129.3 6.7 128.7 6.9 128 6.8 127.3 6.5 126.9 7.5 126.1 7.2 125.4 7 124.9 7.6 124.3 7.6 123.8 8.3 123.1 8.2 122.4 8 121.8 8.1 121.2 8.3 120.5 8.2 120 8.8 119.3 8.4 118.8 9.1 118.1 8.6 117.5 9.2 116.9 9 116.3 9.6 115.6 9 115.1 9.8 114.4 9.8 113.7 9.2 113.1 9.8 112.5 9.3 111.9 9.9 111.2 9.6 110.6 9.5 110 10.3 109.3 9.6 108.7 9.6 108.1 10 107.5 10.1 106.8 9.8 106.2 10.3 105.6 10.3 104.9 9.7 104.3 10.1 103.7 10.7 103 9.9 102.4 10 101.8 10.2 101.1 10.6 100.5 10.5 99.9 10.3 99.2 10.2 98.6 9.7 98 10.5 97.3 9.7 96.7 10.2 96 10.4 95.5 9.5 94.8 10.3 94.2 9.6 93.5 10.2 92.9 9.5 92.3 9.8 91.6 10 91.1 9.3 90.4 9.2 89.7 9.8 89.1 9.4 88.5 9.3 87.9 9.1 87.3 8.7 86.7 8.6 86 8.9 85.4 8.7 84.7 8.9 84.1 8.9 83.5 8.8 82.9 8.5 82.2 8.3 81.6 8.3 81.1 7.5 80.4 7.7 79.8 7.8 79.1 7.7 78.6 7.3 78 7 77.5 6.6 76.8 6.7 76.2 6.5 75.7 5.9 75.1 5.9 74.5 5.7 73.9 5.4 73 6 72.6 5.2 71.9 5.3 71.4 4.8 70.7 5.1 70.3 4.1 69.5 4.7 69.1 3.8 68.3 4.3 67.9 3.5 67 4.1 66.6 3.2 66 3 65.4 2.9 64.7 3 64.1 2.7 63.4 2.9 62.8 3 62.3 2.1 61.6 2.6 61.1 1.7 60.3 2.4 59.7 2.1 59.2 1.4 58.5 1.8 57.9 1.8 57.2 1.7 56.6 1.6 56 1.5 55.4 1.5 54.8 .9 54.2 .7 53.5 .9 52.9 .5 52.3 .4 51.6 1 51 1 50.3 1.1 49.7 .8 49.1 .7 48.5 .1 47.9 .4 47.2 .9 46.6 .3 46 .6 45.3 .7 44.7 .5 44.1 .8 43.4 0 42.8 .2 42.2 0 41.5 .5 40.9 .6 40.3 .9 39.6 .8 39 0 38.4 .7 37.7 .5 37.1 .8 36.5 .2 35.9 .8 35.2 .1 34.5 .2 33.9 .5 33.3 .9 32.7 .7 32 .7 31.4 .9 30.8 .9 30.1 .8 29.6 1.3 29 1.7 28.3 1.1 27.6 1.3 27 1.5 26.3 1.1 25.7 1.5 25.2 1.8 24.5 1.6 23.9 1.7 23.4 2.6 22.7 2.3 22.1 2.8 21.4 2.2 20.8 2.4 20.2 2.7 19.7 3.4 18.9 2.7 18.3 3.2 17.9 3.9 17.1 3.6 16.6 4.2 15.9 4.1 15.2 3.8 14.6 4.1 14.2 4.9 13.7 5.2 12.9 4.9 12.3 5.2 11.8 5.7 11 5.2 10.6 5.9 10 6.2 9.4 6.5 8.8 6.5 8.1 6.5 7.4 6.4 6.9 6.8 6.3 7 5.6 6.9 5 7.3 4.5 7.6 3.9 7.9 3.2 7.5 2.6 7.7 2.1 8.6 1.3 7.9 .7 8.2 .2 8.9 0 8.8 0 19.9 375 19.9 375 4.9"/>
  <path class="st0" d="M340.3,3.3h0c-.1.2-.2.4-.4.5,0,0-.2.2-.3.2,0,0-.2.2-.1.2.1.1.2.3.3.4,0,0,.4.5.3.5-.3,0-.6-.1-1-.2,0,0,0,0-.1,0,0,0,0,.1-.1.2-.2.3-.3.7-.5.9,0,.1,0,0,0,0,0-.2-.1-.4-.2-.7,0,0-.1-.4-.1-.4,0,0,0,0,0,0-.1,0-.3,0-.4.1-.2,0-.4.1-.7.2,0,0,0,0,0,0,.1-.3.3-.5.4-.8,0,0,0-.2,0-.2,0,0-.2-.2-.2-.2,0,0-.5-.4-.5-.4s0,0,.1,0c.3,0,.5,0,.8,0,0,0,.1,0,.2,0,.1,0,0-.2.1-.3,0-.1,0-.2,0-.4,0-.1,0-.2,0-.3,0,0,0,0,0,0,.2.1.3.4.5.5,0,0,0,0,.1,0,.1-.2.2-.4.3-.6,0,0,.1-.2.1-.2,0,0,0,0,0,.1,0,.2.1.5.2.7,0,.1,0,.2.2.3.1,0,.9,0,1,0h0Z"/>
  <path class="st1" d="M181.9,7.6h0c-.2.3-.3.4-.5.6-.1.1-.3.2-.4.3,0,0-.2.2-.2.3.1.2.2.4.4.6,0,0,.4.6.4.6-.4,0-.8-.2-1.2-.3,0,0-.1,0-.1,0,0,0,0,.2-.1.2-.2.3-.4.9-.6,1.2-.1.1,0,0-.1-.1-.1-.3-.2-.5-.3-.8,0,0-.2-.5-.2-.5,0,0,0,0-.1,0-.1,0-.3.1-.5.2-.3,0-.6.2-.8.2,0,0,0,0,0-.1.1-.3.4-.6.5-1,0-.1,0-.2,0-.3,0,0-.2-.3-.3-.3,0,0-.6-.5-.6-.5s.1,0,.1,0c.3,0,.7,0,1,0,0,0,.1,0,.2,0,.2,0,.1-.2.1-.4,0-.2,0-.3,0-.5,0-.1,0-.3,0-.4,0,0,0,0,0,0,.2.2.4.5.7.7,0,0,.1,0,.2,0,.1-.2.2-.5.3-.8,0,0,.1-.3.2-.3,0,0,0,.1,0,.2.1.3.2.6.3.9,0,.1,0,.3.2.3.2,0,1.2,0,1.2,0h0Z"/>
</svg>