<svg width="33" height="28" viewBox="0 0 33 28" fill="none" xmlns="http://www.w3.org/2000/svg">
<path d="M8.26064 20.367L11.0988 21.7872L11.0607 21.8522C10.7404 21.9955 8.15535 22.7347 8.11727 22.8893C8.10607 22.9386 8.12624 23.0035 8.13743 23.0528C8.20912 23.3575 8.40848 23.8055 8.5272 24.1124C8.78256 24.7821 9.11409 25.4653 9.34705 26.1374C9.36721 26.1978 9.46577 26.489 9.43441 26.5204C9.39633 26.5249 9.36497 26.5204 9.32913 26.5047C9.19473 26.4442 8.76464 26.041 8.60112 25.9178C8.2024 25.6199 7.77903 25.3108 7.36686 25.0308C7.19438 24.9143 6.89198 24.6813 6.72174 24.6029C6.49101 24.4954 6.41261 24.7127 6.28269 24.8852C5.55692 25.8596 4.94763 26.9505 4.25322 27.9495C4.08298 28.1198 4.08074 27.8151 4.06506 27.6875C3.94858 26.7332 3.92618 25.7476 3.85001 24.7889C3.82761 24.5156 3.84553 23.745 3.71561 23.5546C3.54761 23.3082 3.08616 23.3418 2.81512 23.353C1.99527 23.3933 1.1799 23.53 0.344365 23.5412C0.218923 23.5412 -0.0633209 23.624 0.0128402 23.3709C0.0397205 23.2791 0.185323 23.2791 0.259244 23.241C0.850612 22.9453 2.69416 21.9059 3.07048 21.4602C3.11304 21.4086 3.20041 21.3078 3.20489 21.2429C3.21161 21.1555 2.95848 20.8957 2.88456 20.815C2.30887 20.1901 1.6055 19.6592 1.02085 19.0275C0.967094 18.9693 0.70053 18.6915 0.70949 18.6422C0.747571 18.5862 0.794611 18.6019 0.850612 18.6086C1.13286 18.6422 1.53382 18.8192 1.82727 18.8953C2.29319 19.0163 2.79048 19.1305 3.26089 19.2336C3.40649 19.2649 4.0001 19.415 4.09418 19.368C4.14346 19.3433 4.2241 19.0521 4.24202 18.9805C4.46602 18.1091 4.56234 17.1526 4.79979 16.2902C4.82667 16.1894 4.88267 15.8713 5.01707 16.0572C5.39788 16.8524 5.70924 17.6812 6.08333 18.4787C6.17517 18.6736 6.32077 19.0096 6.43277 19.1776C6.48877 19.2627 6.56493 19.2806 6.64557 19.2089L8.67056 17.0742C8.77808 16.998 9.02449 16.7449 9.02225 17.0204C8.89681 17.4012 8.74 17.7708 8.62352 18.1539C8.46448 18.6713 8.36816 19.191 8.28976 19.7241C8.27184 19.8429 8.19568 20.2998 8.26288 20.367H8.26064Z" fill="#FAFAFA"/>
<path d="M32.6251 3.9578L32.5959 4.18604C32.1395 4.73965 31.7655 5.29811 31.2314 5.78858C30.8963 6.09452 30.4252 6.37618 30.095 6.68698C29.8959 6.87152 29.4831 7.28429 29.6337 7.55624C30.0076 8.10013 30.3378 8.67802 30.6923 9.23163C30.8332 9.45015 32.0181 11.0236 31.8724 11.1644C30.6486 11.0478 29.4783 10.6739 28.2788 10.4165C28.1137 10.3971 27.9826 10.5234 27.8903 10.6399C27.7786 10.7856 27.6086 11.1595 27.4969 11.3538C26.9142 12.393 26.4432 13.947 25.8118 14.8454C25.5108 15.2679 25.5205 14.7094 25.4428 14.5346C25.098 13.7333 24.9086 12.9223 24.6269 12.0919C24.5589 11.8977 24.151 10.7031 24.0733 10.6642C23.9713 10.6156 23.8694 10.6302 23.7674 10.6496C23.3546 10.7273 22.801 10.9944 22.3737 11.1207C21.5481 11.3684 20.7177 11.6209 19.8824 11.8006C19.863 11.6597 19.897 11.5577 19.9456 11.4266C20.3243 10.4797 21.1645 9.489 21.5238 8.52262C21.6404 8.20697 21.7229 7.93988 21.5141 7.63879C21.4073 7.4834 20.8294 6.88123 20.674 6.73554C20.4263 6.51701 18.8335 5.35638 18.8335 5.14757C18.8335 4.99217 19.1491 5.10872 19.2123 5.10872C20.2175 5.0553 21.1742 4.99702 22.1843 4.89019C22.3882 4.86591 22.6213 4.91932 22.8204 4.89019C23.3595 4.80278 23.1798 4.21032 23.1992 3.81697C23.2186 3.35077 23.2575 2.88458 23.2623 2.42324C23.2672 2.00561 23.2526 1.58798 23.2623 1.17034C23.3643 1.14606 23.3789 1.21405 23.4372 1.25775C24.1413 1.79679 24.6998 2.75346 25.4136 3.29736C25.6759 3.49646 25.7779 3.49646 25.9527 3.19052C26.3557 2.47666 26.618 1.56855 26.9773 0.840122C27.0308 0.704148 27.3998 0 27.4775 0C27.6378 0 27.6766 0.373927 27.7106 0.461338C28.0797 1.37916 28.2545 2.16586 28.4828 3.12253C28.5847 3.55959 28.4002 3.99665 29.0509 4.06949C29.5705 4.12777 32.4988 3.79754 32.6299 3.9578H32.6251Z" fill="#FAFAFA"/>
</svg>
