<svg width="413" height="240" viewBox="0 0 413 240" fill="none" xmlns="http://www.w3.org/2000/svg">
<g clip-path="url(#clip0_4503_2617)">
<path d="M166.351 129.799L154.5 122.952L121.847 104.103L1.23535 173.736L33.8886 192.586L88.138 161.265L99.5263 167.842L146.57 140.676L158.29 147.447L177.608 136.293L166.351 129.799Z" fill="#E1E5E4"/>
<path d="M388.643 64.5679L176.573 187.009L167.324 181.674L115.628 211.518L125.305 217.108L111.197 225.253L133.87 238.346L411.75 77.9094L388.643 64.5679Z" fill="#E1E5E4"/>
<path d="M167.324 181.674L176.573 187.009L264.69 136.135L221.505 111.198L111.453 174.73L145.403 194.332L167.324 181.674Z" fill="#E1E5E4"/>
<path d="M346.61 39.5897L352.311 35.2415L279.295 0L176.145 72.0289L0 173.729L66.6523 212.208L77.6333 205.872C77.9715 205.679 77.9646 205.361 77.6195 205.161C77.2744 204.961 76.7223 204.961 76.3841 205.161L66.6247 210.793L2.4709 173.743L165.537 79.5935L220.055 111.066L154.404 148.972C154.066 149.165 154.073 149.483 154.418 149.683C154.763 149.883 155.315 149.883 155.653 149.683L221.305 111.777L263.462 136.114L179.782 184.428L179.168 184.78L176.428 186.36L167.186 181.025L114.4 211.504L137.991 225.122L154.1 215.825C154.438 215.631 154.432 215.314 154.086 215.114C153.741 214.914 153.189 214.914 152.851 215.114L137.963 223.707L116.864 211.525L167.207 182.46L176.449 187.796L179.803 185.863L191.661 192.71L161.126 210.337C160.788 210.531 160.795 210.848 161.14 211.048C161.485 211.249 162.038 211.249 162.376 211.048L194.132 192.717L181.032 185.152L388.664 65.2788L410.529 77.9025L133.871 237.635L131.945 236.524C131.6 236.323 131.048 236.323 130.709 236.524C130.371 236.724 130.378 237.034 130.723 237.234L133.898 239.063L413 77.9232L346.624 39.6035L346.61 39.5897ZM344.795 39.2929L239.74 99.9474L211.255 83.5L209.413 66.0656L291.898 7.38511L349.916 35.3933L344.788 39.2998L344.795 39.2929ZM264.684 135.417L166.765 78.8826L177.45 72.7122L279.55 1.42181L290.552 6.72942L207.839 65.5687L207.632 65.7206L209.551 83.9348L239.761 101.376L345.471 40.342L387.414 64.561L264.684 135.417Z" fill="#787E88"/>
<path d="M111.812 224.901L100.927 218.62C100.582 218.42 100.03 218.42 99.692 218.62C99.3538 218.82 99.3607 219.131 99.7058 219.331L110.59 225.612C110.935 225.812 111.488 225.812 111.826 225.612C112.164 225.411 112.157 225.101 111.812 224.901Z" fill="#787E88"/>
<path d="M130.944 185.277L112.688 174.737L133.746 162.576C134.085 162.383 134.078 162.065 133.733 161.865C133.387 161.665 132.835 161.665 132.497 161.865L130.592 162.963L125.74 160.16L127.9 158.911L127.003 158.393L124.843 159.643L119.901 156.792L121.806 155.695C122.144 155.502 122.137 155.184 121.792 154.984C121.447 154.784 120.895 154.784 120.557 154.984L99.4988 167.145L88.1105 160.568L54.6636 179.879C54.3254 180.073 54.3323 180.39 54.6774 180.59C55.0225 180.79 55.5746 180.79 55.9128 180.59L88.1381 161.982L129.709 185.988C130.054 186.188 130.606 186.188 130.944 185.988C131.282 185.787 131.275 185.477 130.93 185.277H130.944ZM125.305 166.02L120.453 163.218L122.22 162.196L127.072 164.999L125.305 166.02ZM119.556 162.7L114.614 159.85L116.381 158.828L121.323 161.679L119.556 162.7ZM113.738 160.354L118.679 163.204L116.912 164.226L111.971 161.375L113.738 160.354ZM119.57 163.729L124.422 166.531L122.655 167.552L117.803 164.75L119.57 163.729ZM129.716 163.466L127.949 164.488L123.097 161.686L124.864 160.664L129.716 163.466ZM123.973 160.153L122.206 161.175L117.264 158.324L119.031 157.303L123.973 160.153ZM111.087 161.886L116.029 164.736L112.081 167.014L110.293 165.986L108.727 169.471L114.759 168.567L112.971 167.539L116.919 165.261L121.771 168.063L111.439 174.026L100.755 167.856L111.087 161.893V161.886Z" fill="#787E88"/>
<path d="M282.441 171.829C282.441 172.1 282.306 172.451 282.117 172.451C280.091 172.383 277.566 172.383 275.338 172.451H275.297C274.932 172.451 275.203 171.465 275.5 171.438C276.688 171.37 277.728 171.249 277.728 170.56V162.525C277.728 162.092 277.701 162.025 277.39 162.025C277.093 162.025 276.54 162.119 275.486 162.214C275.189 162.241 275 161.944 275 161.66C275 161.471 275.068 161.323 275.23 161.269C276.729 160.783 277.89 160.08 278.93 159.229C278.997 159.162 279.132 159.108 279.268 159.108C279.727 159.108 280.348 159.405 280.307 159.702C280.213 160.431 280.145 161.107 280.145 161.836V170.587C280.145 171.276 280.929 171.316 282.171 171.411C282.36 171.411 282.441 171.6 282.441 171.829Z" fill="#303F5D"/>
<path d="M291.949 166.63C292.138 166.63 292.205 166.927 292.205 167.252C292.205 167.67 292.07 168.129 291.868 168.129H286.101C285.912 168.129 285.844 167.832 285.844 167.508C285.844 167.09 285.979 166.63 286.182 166.63H291.949Z" fill="#303F5D"/>
<path d="M309.329 169.993C309.329 170.128 309.302 170.25 309.194 170.385C308.208 171.573 306.439 172.721 303.333 172.721C299.768 172.721 296.257 170.533 296.257 166.09C296.257 162.444 298.647 159 304.022 159C306.048 159 307.695 159.567 308.357 159.959C308.586 160.094 308.708 160.323 308.789 160.648C308.924 161.134 309.086 162.295 309.127 163.011C309.154 163.308 308.438 163.511 308.316 163.308C307.128 161.147 305.521 160.202 303.212 160.202C300.902 160.202 299.268 161.904 299.268 165.212C299.268 169.574 301.699 171.276 304.292 171.276C306.034 171.276 307.533 170.493 308.654 169.318C308.776 169.196 309.302 169.547 309.302 169.979L309.329 169.993Z" fill="#303F5D"/>
<path d="M280.334 187.793H285.164C285.458 187.107 285.57 187.037 285.724 187.037C285.92 187.037 286.074 187.107 286.592 187.485C287.082 187.849 287.138 187.975 287.138 188.143C287.138 188.325 287.026 188.465 286.662 188.633V189.053C286.662 189.795 286.732 190.663 286.732 190.985C286.732 191.867 286.158 192.343 285.15 192.343C284.912 192.343 284.856 192.315 284.8 192.049C284.688 191.461 284.45 191.167 283.82 190.971L283.834 190.761C284.324 190.817 284.506 190.831 284.772 190.831C285.122 190.831 285.206 190.747 285.206 190.383V188.185H283.442C283.414 188.353 283.33 188.451 283.176 188.479V189.501C283.176 192.189 283.232 193.015 283.232 193.281C283.232 193.603 282.742 193.827 282.07 193.827C281.804 193.827 281.678 193.729 281.678 193.505C281.678 193.057 281.734 191.811 281.734 189.473V188.185H280.334L278.934 188.255V187.723L280.334 187.793ZM278.64 187.261L278.514 187.093C280.138 185.511 281.524 183.299 282.476 180.919C284.142 181.409 284.38 181.577 284.38 181.731C284.38 181.871 284.268 181.969 283.806 182.025C284.856 183.579 286.592 184.685 288.678 185.301L288.622 185.525C288.202 185.637 287.838 185.931 287.586 186.351C287.46 186.561 287.404 186.659 287.306 186.659C287.236 186.659 287.152 186.617 287.026 186.533C285.374 185.553 284.24 184.125 283.568 182.361C282.504 184.265 280.81 186.029 278.64 187.261ZM275.84 182.375L275.91 182.179C277.59 182.207 278.486 182.823 278.486 183.649C278.486 184.237 278.15 184.587 277.646 184.587C277.184 184.587 276.918 184.363 276.792 183.957C276.596 183.299 276.218 182.669 275.84 182.375ZM279.802 183.047L277.716 188.521C277.52 189.025 277.45 189.291 277.45 189.557C277.45 190.117 277.87 190.803 277.87 191.321C277.87 191.951 277.492 192.329 276.876 192.329C276.358 192.329 276.008 191.965 276.008 191.419C276.008 191.083 276.162 190.467 276.162 190.075C276.162 189.753 275.938 189.571 275.462 189.389L275.476 189.207C276.064 189.207 276.26 189.039 276.652 188.311L279.536 182.963L279.802 183.047ZM280.95 186.211V185.679L282.084 185.749H283.12C283.4 185.399 283.708 185.063 284.058 184.699C285.346 185.749 285.402 185.847 285.402 185.973C285.402 186.071 285.318 186.141 285.178 186.141H282.084L280.95 186.211ZM295.37 187.485L295.454 187.247C296.252 187.345 296.672 187.373 297.022 187.373C299.052 187.373 300.564 186.575 300.564 185.525C300.564 185.049 300.018 184.559 299.01 184.559C298.142 184.559 296.644 185.371 294.222 186.925C295.552 188.815 296.42 190.243 296.854 191.167C297.148 191.797 297.26 192.217 297.26 192.609C297.26 193.141 296.966 193.519 296.518 193.519C296.028 193.519 295.818 193.169 295.678 192.637C295.216 190.901 294.53 189.361 293.368 187.415C293.018 187.639 292.724 187.821 292.514 187.989C292.276 188.185 292.164 188.269 292.024 188.423C291.898 188.563 291.674 188.619 291.52 188.619C291.268 188.619 290.834 188.479 290.47 188.185C290.078 187.849 289.896 187.485 289.742 186.967L289.938 186.855C290.344 187.177 290.596 187.247 290.82 187.247C291.086 187.247 291.352 187.149 291.576 187.065C291.828 186.967 292.346 186.743 292.822 186.505C292.64 186.211 292.514 186.001 292.346 185.735C292.22 185.539 292.164 185.315 292.164 185.007C292.164 184.419 292.64 183.733 293.34 183.551C293.956 183.383 294.586 183.313 295.328 183.313C295.076 182.837 295.02 182.347 295.006 182.011C295.006 181.717 295.076 181.493 295.202 181.157H295.398C295.482 181.759 295.72 182.193 296.112 182.585C296.714 183.187 296.91 183.481 296.91 183.999C296.91 184.377 296.588 184.629 296.308 184.629C296.126 184.629 295.93 184.489 295.804 184.391C295.608 184.223 295.384 184.125 295.16 184.069C294.698 183.943 294.264 183.901 293.914 183.901C293.326 183.901 292.99 184.111 292.99 184.489C292.99 184.713 293.032 184.923 293.102 185.077C293.214 185.343 293.382 185.609 293.704 186.085C295.048 185.427 296.252 184.853 297.134 184.517C297.736 184.293 298.534 184.027 299.43 184.027C301.096 184.027 301.992 184.895 301.992 185.903C301.992 187.275 300.704 188.157 298.394 188.157C297.428 188.157 296.378 188.017 295.37 187.485ZM315.236 189.445L315.39 189.585C314.032 191.713 311.722 193.015 309.384 193.015C308.544 193.015 307.802 192.805 307.354 192.371C306.948 191.965 306.738 191.377 306.738 190.719C306.738 190.243 306.766 189.263 306.836 187.681C306.892 186.323 306.948 184.741 306.948 183.551C306.948 182.893 306.92 182.711 306.388 182.543C306.178 182.473 306.066 182.459 305.87 182.431L305.828 182.221C306.346 181.871 306.612 181.857 306.808 181.857C307.116 181.857 307.522 182.011 308.152 182.417C308.6 182.711 308.74 182.921 308.74 183.187C308.74 183.369 308.642 183.537 308.558 183.677C308.474 183.817 308.39 183.999 308.334 184.405C308.25 185.077 308.166 185.959 308.096 187.513C308.054 188.423 308.04 189.025 308.04 189.501C308.04 189.795 308.04 190.047 308.054 190.285C308.082 190.873 308.124 191.195 308.362 191.433C308.586 191.657 308.978 191.755 309.51 191.755C311.05 191.755 313.36 191.083 315.236 189.445ZM321.55 181.997L321.522 181.745C321.9 181.591 322.222 181.549 322.474 181.549C322.726 181.549 323.146 181.661 323.65 181.969C324.028 182.193 324.126 182.361 324.126 182.557C324.126 182.767 324.056 182.851 323.958 182.949C323.846 183.061 323.72 183.187 323.65 183.327C323.51 183.621 323.398 183.845 323.286 184.111C323.58 183.999 323.79 183.887 323.986 183.775C324.112 183.705 324.294 183.621 324.546 183.621C324.854 183.621 325.26 183.845 325.26 184.139C325.26 184.489 325.12 184.601 324.728 184.769C324.21 184.993 323.538 185.175 322.796 185.385C321.704 188.073 320.99 189.907 319.968 192.287C319.8 192.665 319.548 192.875 319.142 192.875C318.792 192.875 318.484 192.567 318.484 192.147C318.484 191.965 318.61 191.671 318.82 191.307C319.912 189.333 320.766 187.611 321.606 185.679C321.032 185.777 320.514 185.819 320.206 185.819C319.548 185.819 318.89 185.455 318.498 184.531L318.652 184.377C319.03 184.699 319.534 184.797 319.912 184.797C320.472 184.797 321.228 184.671 322.054 184.433C322.208 184.041 322.32 183.705 322.446 183.229C322.502 183.005 322.544 182.809 322.544 182.585C322.544 182.361 322.32 182.081 321.55 181.997ZM322.95 188.003L322.838 187.793C323.916 186.869 325.372 186.141 326.982 186.141C327.584 186.141 328.172 186.183 328.592 186.337C329.124 186.533 329.236 186.757 329.236 187.107C329.236 187.443 328.984 187.639 328.648 187.639C328.34 187.639 327.794 187.555 327.486 187.555C327.22 187.555 326.828 187.681 326.324 187.891C324.868 188.493 324.14 189.445 324.14 190.411C324.14 191.461 325.022 191.895 326.282 191.895C326.94 191.895 327.416 191.867 327.668 191.811C327.878 191.769 328.172 191.685 328.34 191.685C329.194 191.685 329.642 192.007 329.642 192.483C329.642 192.777 329.488 193.029 329.236 193.113C328.9 193.225 328.214 193.309 327.514 193.309C324.756 193.309 323.496 192.427 323.496 190.635C323.496 189.599 324.238 188.325 326.128 187.079C324.966 187.107 324.084 187.415 322.95 188.003ZM336.922 182.641L336.894 182.431C337.286 182.165 337.72 182.109 337.972 182.109C338.238 182.109 338.854 182.291 339.176 182.515C339.358 182.627 339.442 182.753 339.442 182.921C339.442 183.061 339.372 183.159 339.288 183.271C339.19 183.397 339.092 183.551 339.036 183.705C338.924 184.013 338.84 184.251 338.728 184.587C339.008 184.517 339.442 184.475 339.82 184.475C342.158 184.475 343.782 185.777 343.782 187.947C343.782 188.843 343.614 189.865 343.096 190.635C343.992 191.223 344.272 191.629 344.272 192.147C344.272 192.511 343.936 192.875 343.642 192.875C343.334 192.875 343.152 192.735 342.914 192.413C342.718 192.147 342.508 191.895 342.256 191.643C341.612 192.189 340.744 192.413 340.044 192.413C338.868 192.413 338.252 191.797 338.252 191.069C338.252 190.215 339.092 189.683 340.086 189.683C340.702 189.683 341.486 189.837 341.962 190.089C342.228 189.571 342.354 188.759 342.354 187.793C342.354 185.959 341.36 185.049 339.582 185.049C339.26 185.049 338.812 185.105 338.504 185.189C337.678 187.191 336.992 188.759 336.194 190.047C336.376 190.271 336.516 190.453 336.67 190.565C336.894 190.733 336.908 191.153 336.908 191.377C336.908 191.755 336.628 191.923 336.446 191.923C336.292 191.923 336.068 191.881 335.928 191.727C335.788 191.573 335.606 191.321 335.41 191.041C334.556 192.091 333.926 192.357 333.254 192.357C332.75 192.357 332.106 191.965 332.106 190.957C332.106 189.907 332.554 188.675 333.954 187.191C333.856 186.533 333.772 185.609 333.702 184.587C333.66 184.041 333.562 183.383 333.212 182.683L333.422 182.543C334.36 183.369 334.528 183.859 334.584 184.531C334.64 185.217 334.738 185.987 334.822 186.477C335.522 185.875 336.614 185.231 337.482 184.881C337.594 184.489 337.664 184.167 337.734 183.775C337.776 183.565 337.832 183.271 337.832 183.117C337.832 182.977 337.762 182.865 337.65 182.781C337.482 182.669 337.286 182.641 337.076 182.641H336.922ZM337.258 185.609C336.558 185.959 335.69 186.547 334.962 187.275C335.13 188.087 335.312 188.647 335.634 189.277C336.222 188.241 336.712 187.135 337.258 185.609ZM334.15 188.059C333.352 189.053 333.1 189.963 333.1 190.509C333.1 190.985 333.24 191.167 333.548 191.167C333.898 191.167 334.36 190.887 334.906 190.215C334.542 189.459 334.318 188.801 334.15 188.059ZM341.43 190.929C341.01 190.551 340.352 190.327 339.806 190.327C339.148 190.327 338.784 190.621 338.784 190.999C338.784 191.419 339.19 191.629 339.778 191.629C340.506 191.629 341.024 191.405 341.43 190.929ZM349.662 181.829L349.634 181.633C349.9 181.381 350.348 181.199 350.656 181.199C350.978 181.199 351.412 181.297 351.734 181.437C352.014 181.563 352.14 181.731 352.14 181.941C352.14 182.067 352.126 182.179 352.084 182.305C352.07 182.361 352.056 182.445 352.056 182.543C352.056 182.613 352.056 182.697 352.07 182.781C352.084 182.921 352.126 183.131 352.182 183.369C352.462 183.271 352.672 183.159 352.952 183.005C353.036 182.963 353.26 182.837 353.428 182.669C353.512 182.585 353.68 182.515 354.086 182.515C354.548 182.515 354.828 182.753 354.828 183.089C354.828 183.285 354.716 183.453 354.408 183.621C353.82 183.929 353.12 184.223 352.476 184.447C352.63 184.965 352.84 185.581 353.05 186.085C353.484 185.917 353.876 185.749 354.24 185.553C354.338 185.497 354.576 185.357 354.744 185.203C354.912 185.049 355.22 184.895 355.584 184.895C356.032 184.895 356.298 185.147 356.298 185.483C356.298 185.735 356.13 185.945 355.752 186.127C355.29 186.351 354.422 186.729 353.484 187.079C353.96 187.947 354.394 188.535 354.856 189.025C355.024 189.207 355.22 189.585 355.22 190.019C355.22 190.635 354.982 190.817 354.688 190.817C354.52 190.817 354.296 190.733 354.03 190.509C353.554 190.103 352.476 189.599 351.09 189.599C349.69 189.599 348.948 190.061 348.948 190.733C348.948 191.489 349.816 192.077 351.58 192.077C351.888 192.077 352.182 192.063 352.364 192.049C352.49 192.035 352.756 191.993 352.854 191.993C353.512 191.993 354.072 192.329 354.072 192.847C354.072 193.449 353.568 193.547 352.616 193.547C349.662 193.547 348.122 192.483 348.122 191.027C348.122 189.739 349.41 188.969 351.342 188.969C352.196 188.969 352.882 188.997 353.484 189.095C353.148 188.507 352.896 188.045 352.588 187.401C351.468 187.709 350.502 187.905 349.844 187.905C348.724 187.905 348.486 187.485 348.486 186.995C348.486 186.687 348.654 186.337 349.06 185.931C349.41 185.581 349.872 185.231 350.362 184.895C349.928 185.007 349.592 185.049 349.284 185.049C349.13 185.049 348.976 185.035 348.822 185.021C348.332 184.979 347.702 184.671 347.198 184.027L347.324 183.859C347.702 184.069 348.136 184.167 348.64 184.167C349.186 184.167 350.04 184.069 351.23 183.719C351.09 183.313 350.936 182.837 350.782 182.403C350.642 182.025 350.474 181.829 349.746 181.829H349.662ZM351.58 184.727C350.866 185.063 350.208 185.469 349.886 185.791C349.508 186.169 349.326 186.421 349.326 186.603C349.326 186.785 349.452 186.897 349.816 186.897C350.236 186.897 351.048 186.757 352.21 186.407C352 185.861 351.79 185.315 351.58 184.727ZM371.53 186.239H366.63C367.61 188.983 369.584 190.971 372.636 192.021L372.594 192.231C372.062 192.329 371.628 192.665 371.348 193.099C371.222 193.281 371.166 193.379 371.068 193.379C370.998 193.379 370.9 193.337 370.774 193.267C368.45 192.049 366.826 189.599 366.42 186.645C366.196 188.073 365.748 189.179 365.16 190.089C363.984 191.881 361.744 193.071 359.602 193.491L359.504 193.309C361.352 192.539 362.836 191.279 363.816 189.487C364.292 188.605 364.614 187.569 364.768 186.239H361.688L360.288 186.309V185.777L361.688 185.847H364.81C364.852 185.343 364.88 184.797 364.88 184.195V182.697H361.03L359.63 182.767V182.235L361.03 182.305H369.906C370.2 181.913 370.564 181.493 370.914 181.101C372.412 182.165 372.552 182.403 372.552 182.529C372.552 182.627 372.468 182.697 372.328 182.697H366.84C366.812 182.865 366.728 182.963 366.602 183.019V184.209C366.602 184.797 366.574 185.343 366.532 185.847H369.15C369.486 185.427 369.794 185.049 370.172 184.657C371.614 185.735 371.754 185.931 371.754 186.071C371.754 186.169 371.67 186.239 371.53 186.239ZM378.992 190.243V187.149H377.872L376.472 187.219V186.687L377.872 186.757H378.992V184.223H377.592L376.192 184.293V183.761L377.592 183.831H381.932C382.156 183.551 382.478 183.173 382.842 182.837C384.018 183.789 384.13 183.999 384.13 184.111C384.13 184.167 384.088 184.223 383.948 184.223H380.728C380.7 184.391 380.63 184.489 380.504 184.545V186.757H381.554C381.806 186.449 382.128 186.099 382.408 185.833C383.612 186.715 383.682 186.883 383.682 186.981C383.682 187.079 383.598 187.149 383.458 187.149H380.504V190.243H382.212C382.45 189.935 382.758 189.557 383.052 189.235C384.172 190.215 384.228 190.369 384.228 190.467C384.228 190.565 384.144 190.635 384.004 190.635H377.452L376.052 190.705V190.173L377.452 190.243H378.992ZM380.686 187.779L380.77 187.583C382.128 187.765 382.716 188.367 382.716 188.983C382.716 189.459 382.422 189.753 381.974 189.753C381.638 189.753 381.372 189.557 381.33 189.193C381.246 188.549 381.022 188.073 380.686 187.779ZM375.856 181.843H384.354C384.62 181.241 384.802 181.087 384.956 181.087C385.152 181.087 385.334 181.115 385.866 181.535C386.384 181.941 386.44 182.095 386.44 182.235C386.44 182.403 386.314 182.557 385.936 182.725V184.209C385.936 190.257 386.034 192.035 386.034 192.959C386.034 193.407 385.516 193.617 384.816 193.617C384.564 193.617 384.424 193.519 384.424 193.253V192.763H375.576V193.211C375.576 193.519 375.086 193.799 374.372 193.799C374.12 193.799 373.966 193.687 373.966 193.449C373.966 193.211 374.064 191.195 374.064 183.565C374.064 182.795 374.022 181.927 374.008 181.213C375.254 181.507 375.702 181.675 375.856 181.843ZM384.424 182.235H375.786L375.576 182.487V192.371H384.424V182.235ZM275.574 210.981L275.42 210.841C276.736 209.161 277.198 207.439 277.198 203.309C277.198 200.201 277.17 199.375 277.114 198.437C279.158 198.633 279.452 198.759 279.452 198.983C279.452 199.137 279.326 199.263 278.822 199.431V203.267C278.822 207.523 277.828 209.525 275.574 210.981ZM287.208 199.515V200.957C287.208 207.859 287.306 209.581 287.306 210.155C287.306 210.561 286.746 210.827 286.018 210.827C285.696 210.827 285.542 210.673 285.542 210.435C285.542 209.833 285.64 208.013 285.64 200.915C285.64 199.879 285.612 199.151 285.57 198.549C287.502 198.717 287.81 198.843 287.81 199.039C287.81 199.249 287.642 199.347 287.208 199.515ZM282.868 199.753V201.139C282.868 206.725 282.966 208.419 282.966 208.965C282.966 209.357 282.392 209.609 281.692 209.609C281.384 209.609 281.23 209.469 281.23 209.231C281.23 208.657 281.328 206.879 281.328 201.097C281.328 200.103 281.3 199.403 281.258 198.815C283.12 198.983 283.442 199.095 283.442 199.291C283.442 199.487 283.288 199.585 282.868 199.753ZM302.356 199.333H298.254C298.226 199.515 298.142 199.627 297.848 199.669C297.54 200.215 297.12 200.733 296.7 201.167H299.122C299.346 200.621 299.5 200.439 299.668 200.439C299.85 200.439 300.018 200.467 300.564 200.859C301.04 201.209 301.166 201.405 301.166 201.531C301.166 201.699 301.068 201.811 300.676 202.063V202.791C300.676 204.023 300.746 204.891 300.746 205.255C300.746 205.689 300.2 205.899 299.542 205.899C299.304 205.899 299.164 205.787 299.164 205.535V205.367H297.988C297.96 205.535 297.89 205.633 297.764 205.689V206.319C297.764 208.055 297.848 208.825 297.848 209.413C297.848 210.365 296.798 210.757 296 210.757C295.762 210.757 295.72 210.687 295.636 210.351C295.51 209.819 295.188 209.539 294.39 209.259L294.404 209.049C294.908 209.105 295.258 209.133 295.72 209.133C296.168 209.133 296.252 209.077 296.252 208.573V205.367H294.768V205.605C294.768 205.899 294.32 206.193 293.578 206.193C293.326 206.193 293.186 206.067 293.186 205.829C293.186 205.493 293.256 204.429 293.256 202.413C293.256 201.601 293.242 201.027 293.214 200.439C294.446 200.831 294.894 201.013 295.048 201.167H296.07C296.168 200.565 296.266 199.949 296.294 199.333H292.36L292.178 199.515V203.281C292.178 206.543 291.45 208.181 289.784 209.651L289.602 209.553C290.484 207.859 290.722 206.375 290.722 203.183C290.722 199.879 290.68 198.689 290.638 198.213C291.786 198.577 292.248 198.787 292.43 198.941H299.976C300.256 198.577 300.592 198.199 300.928 197.807C302.44 198.801 302.58 199.011 302.58 199.151C302.58 199.249 302.51 199.333 302.356 199.333ZM299.164 201.559H294.964L294.768 201.783V202.987H299.164V201.559ZM294.768 204.975H299.164V203.379H294.768V204.975ZM298.534 206.809L298.646 206.627C299.808 206.823 300.774 207.187 301.418 207.719C301.866 208.083 302.118 208.545 302.118 208.979C302.118 209.497 301.768 209.847 301.222 209.847C300.83 209.847 300.564 209.665 300.326 209.119C299.878 208.055 299.29 207.327 298.534 206.809ZM290.484 210.267L290.372 210.085C291.702 209.245 293.088 207.915 293.998 206.473C295.468 207.285 295.594 207.383 295.594 207.635C295.594 207.761 295.468 207.873 295.09 207.873C295.034 207.873 294.978 207.859 294.908 207.859C293.858 208.895 292.136 209.819 290.484 210.267ZM312.87 200.635H310.462V201.041C310.462 204.961 310.546 206.599 310.546 207.467C310.546 207.873 310.07 208.069 309.426 208.069C309.188 208.069 309.062 207.971 309.062 207.733V207.201H305.394V207.943C305.394 208.265 305.002 208.545 304.288 208.545C304.05 208.545 303.924 208.433 303.924 208.195C303.924 207.873 303.994 206.305 303.994 200.481C303.994 199.767 303.966 199.039 303.938 198.381C305.156 198.661 305.562 198.801 305.688 198.927H308.964C309.216 198.311 309.398 198.143 309.552 198.143C309.734 198.143 309.902 198.171 310.406 198.563C310.868 198.941 310.924 199.081 310.924 199.207C310.924 199.375 310.812 199.501 310.462 199.669V200.243H314.018C314.326 199.851 314.662 199.431 315.11 198.969C316.608 200.229 316.664 200.341 316.664 200.481C316.664 200.565 316.58 200.635 316.44 200.635H314.662C314.648 200.817 314.564 200.915 314.438 200.971V202.791C314.438 207.257 314.564 208.615 314.564 209.455C314.564 210.309 313.752 210.953 312.478 210.953C312.226 210.953 312.184 210.925 312.128 210.673C311.96 209.987 311.61 209.637 310.588 209.287L310.602 209.077C311.078 209.147 311.75 209.203 312.24 209.203C312.772 209.203 312.87 209.119 312.87 208.587V200.635ZM309.062 199.319H308.124C308.096 199.473 308.012 199.571 307.9 199.627V202.721H309.062V199.319ZM306.528 199.319H305.534L305.394 199.473V202.721H306.528V199.319ZM305.394 206.809H306.528V203.113H305.394V206.809ZM307.9 206.809H309.062V203.113H307.9V206.809ZM323.762 206.011V203.043C323.762 202.049 323.734 201.349 323.692 200.761C325.582 200.929 325.82 201.041 325.82 201.237C325.82 201.405 325.722 201.531 325.274 201.671V202.973H327.15C327.458 202.609 327.71 202.287 328.144 201.853C329.53 202.903 329.628 203.057 329.628 203.197C329.628 203.295 329.558 203.365 329.418 203.365H325.274V206.011H327.234C327.486 205.451 327.64 205.311 327.808 205.311C327.99 205.311 328.144 205.367 328.662 205.731C329.152 206.067 329.25 206.249 329.25 206.375C329.25 206.543 329.152 206.669 328.788 206.865V207.355C328.788 209.007 328.858 209.707 328.858 210.071C328.858 210.505 328.354 210.701 327.682 210.701C327.444 210.701 327.304 210.603 327.304 210.351V209.749H322.348V210.295C322.348 210.589 321.858 210.883 321.186 210.883C320.934 210.883 320.794 210.757 320.794 210.519C320.794 210.183 320.864 209.371 320.864 207.089C320.864 206.389 320.85 205.955 320.822 205.395C321.984 205.731 322.446 205.885 322.614 206.011H323.762ZM322.53 206.403L322.348 206.599V209.357H327.304V206.403H322.53ZM320.234 199.725H323.524V199.249C323.524 198.759 323.496 198.339 323.454 197.877C325.246 198.045 325.582 198.157 325.582 198.339C325.582 198.535 325.442 198.619 325.036 198.787V199.725H327.794C328.074 199.361 328.396 198.997 328.746 198.605C330.062 199.557 330.3 199.795 330.3 199.935C330.3 200.033 330.23 200.117 330.076 200.117H320.192L320.01 200.299V202.707C320.01 206.291 319.198 208.461 317.728 210.127L317.546 210.015C318.218 208.111 318.498 206.179 318.498 202.735C318.498 200.355 318.47 199.697 318.428 199.123C319.52 199.431 320.024 199.585 320.234 199.725Z" fill="#303F5D"/>
<path d="M254.979 167L254.979 167.5L254.98 167.5L254.979 167ZM234 164.333C232.527 164.333 231.333 165.527 231.333 167C231.333 168.473 232.527 169.666 234 169.666C235.473 169.666 236.667 168.473 236.667 167C236.667 165.527 235.473 164.333 234 164.333ZM268 166.991L268 166.491L254.979 166.5L254.979 167L254.98 167.5L268 167.491L268 166.991ZM254.979 167L254.979 166.5L234 166.5L234 167L234 167.5L254.979 167.5L254.979 167Z" fill="#303F5D"/>
<path d="M221.441 106.032C221.441 106.302 221.306 106.654 221.117 106.654C219.091 106.586 216.566 106.586 214.338 106.654H214.297C213.932 106.654 214.203 105.668 214.5 105.641C215.688 105.573 216.728 105.452 216.728 104.763V96.7275C216.728 96.2954 216.701 96.2278 216.39 96.2278C216.093 96.2278 215.54 96.3224 214.486 96.4169C214.189 96.4439 214 96.1468 214 95.8632C214 95.6741 214.068 95.5256 214.23 95.4716C215.729 94.9854 216.89 94.2831 217.93 93.4323C217.997 93.3648 218.132 93.3108 218.268 93.3108C218.727 93.3108 219.348 93.6079 219.307 93.905C219.213 94.6343 219.145 95.3095 219.145 96.0388V104.79C219.145 105.479 219.929 105.519 221.171 105.614C221.36 105.614 221.441 105.803 221.441 106.032Z" fill="#303F5D"/>
<path d="M230.949 100.833C231.138 100.833 231.205 101.13 231.205 101.454C231.205 101.873 231.07 102.332 230.868 102.332H225.101C224.912 102.332 224.844 102.035 224.844 101.711C224.844 101.292 224.98 100.833 225.182 100.833H230.949Z" fill="#303F5D"/>
<path d="M248.491 105.978C248.491 106.343 248.302 106.64 248.073 106.64H248.032C247.37 106.599 245.439 106.518 242.846 106.64H242.806C242.549 106.64 242.711 105.749 242.968 105.722C243.859 105.614 244.507 105.424 244.237 104.83L243.278 102.723H237.471L236.432 105.087C236.229 105.573 236.756 105.586 237.971 105.614C238.336 105.614 238.201 106.653 237.769 106.653H237.728C236.026 106.559 235.297 106.559 233.663 106.653C233.555 106.653 233.501 106.532 233.501 106.397C233.501 106.127 233.636 105.776 233.798 105.735C234.46 105.573 234.757 105.465 235.068 104.79L240.024 93.7158C240.186 93.3511 240.821 93 241.28 93C241.509 93 241.671 93.0675 241.766 93.2566L247.235 105.033C247.465 105.519 247.789 105.559 248.316 105.6C248.451 105.6 248.518 105.762 248.518 105.965L248.491 105.978ZM242.725 101.549L240.307 96.2277L237.971 101.549H242.725Z" fill="#303F5D"/>
<path d="M217.304 119.345V116.881C216.38 116.951 215.442 116.979 214.672 116.979L214.658 116.769C216.422 116.461 218.452 115.817 219.936 115.117C221.112 115.985 221.168 116.139 221.168 116.279C221.168 116.531 220.916 116.573 220.426 116.559C219.992 116.629 219.488 116.699 218.928 116.755C218.9 116.923 218.83 117.021 218.704 117.077V119.345H219.068C219.292 118.995 219.572 118.631 219.894 118.267C221.196 119.219 221.364 119.415 221.364 119.555C221.364 119.653 221.294 119.737 221.14 119.737H218.704V120.969C220.398 121.165 221.126 121.935 221.126 122.607C221.126 123.167 220.832 123.447 220.328 123.447C219.978 123.447 219.74 123.195 219.6 122.719C219.432 122.201 219.11 121.697 218.704 121.333C218.718 125.575 218.788 126.667 218.788 127.115C218.788 127.479 218.284 127.717 217.64 127.717C217.36 127.717 217.206 127.591 217.206 127.367C217.206 126.933 217.276 125.925 217.29 122.397C216.576 123.461 215.666 124.469 214.574 125.323L214.406 125.197C215.512 123.657 216.464 121.683 217.108 119.737H215.96L214.56 119.807V119.275L215.96 119.345H217.304ZM223.59 117.301H225.396C225.746 116.573 225.872 116.503 226.068 116.503C226.236 116.503 226.39 116.573 226.88 116.979C227.384 117.399 227.454 117.497 227.454 117.665C227.454 117.861 227.328 118.001 226.978 118.183V119.219C226.978 124.399 227.062 125.323 227.062 125.631C227.062 125.995 226.6 126.219 225.886 126.219C225.606 126.219 225.466 126.107 225.466 125.883V124.889H223.268V126.303C223.268 126.653 222.792 126.877 222.148 126.877C221.868 126.877 221.742 126.765 221.742 126.555C221.742 126.037 221.812 124.203 221.812 118.701C221.812 117.791 221.812 117.189 221.77 116.587C223.044 116.965 223.45 117.147 223.59 117.301ZM225.466 117.693H223.478L223.268 117.931V124.497H225.466V117.693ZM236.078 121.977L235.91 121.851C236.484 120.969 237.044 119.779 237.38 118.701C238.78 119.163 238.864 119.261 238.864 119.401C238.864 119.527 238.738 119.625 238.36 119.695C238.276 119.807 238.192 119.933 238.108 120.045C238.584 120.059 239.074 120.157 239.466 120.339C239.886 120.535 240.096 120.829 240.096 121.193C240.096 121.585 239.816 121.823 239.508 121.823C239.228 121.823 238.99 121.753 238.808 121.361C238.542 120.815 238.234 120.479 237.898 120.297C237.408 120.899 236.82 121.459 236.078 121.977ZM229.33 124.665L229.19 124.511C230.198 123.587 230.968 122.537 231.528 121.417C232.97 121.949 233.068 122.033 233.068 122.229C233.068 122.355 232.956 122.439 232.424 122.481C232.326 122.593 232.228 122.705 232.116 122.817C232.466 122.845 232.83 122.943 233.166 123.097C233.544 123.279 233.782 123.573 233.782 123.909C233.782 124.329 233.516 124.581 233.138 124.581C232.83 124.581 232.606 124.427 232.48 124.091C232.312 123.629 232.102 123.293 231.85 123.069C231.178 123.699 230.338 124.245 229.33 124.665ZM241.496 118.099L241.468 118.309C241.034 118.449 240.67 118.813 240.432 119.261C240.32 119.485 240.25 119.569 240.124 119.569C240.054 119.569 239.97 119.541 239.858 119.499C237.912 118.757 236.4 117.553 235.392 115.985C234.412 117.021 233.306 117.889 232.074 118.631C233.474 119.093 233.558 119.177 233.558 119.373C233.558 119.499 233.446 119.611 232.914 119.653C232.788 119.807 232.648 119.961 232.494 120.115C232.858 120.157 233.208 120.255 233.502 120.423C233.894 120.647 234.118 120.983 234.118 121.277C234.118 121.725 233.824 121.949 233.474 121.949C233.138 121.949 232.942 121.753 232.844 121.403C232.704 120.955 232.522 120.619 232.228 120.381C231.332 121.221 230.128 121.935 228.686 122.453L228.56 122.285C230.044 121.277 231.108 120.087 231.99 118.687C230.884 119.345 229.694 119.877 228.49 120.269L228.378 120.087C230.618 118.785 232.9 116.825 234.356 114.641C236.106 115.215 236.218 115.285 236.218 115.509C236.218 115.635 236.12 115.733 235.756 115.803C237.1 116.923 238.906 117.665 241.496 118.099ZM229.862 124.875H234.328C234.342 123.685 234.356 121.977 234.356 119.555C234.356 118.645 234.342 118.071 234.314 117.553C236.148 117.721 236.26 117.819 236.26 117.987C236.26 118.127 236.162 118.267 235.728 118.421V119.583C235.728 122.047 235.742 123.727 235.756 124.875H239.326C239.634 124.497 239.886 124.189 240.264 123.783C241.608 124.847 241.692 124.973 241.692 125.099C241.692 125.197 241.608 125.267 241.468 125.267H235.756C235.77 126.681 235.798 127.129 235.798 127.283C235.798 127.619 235.308 127.829 234.65 127.829C234.398 127.829 234.286 127.731 234.286 127.535C234.286 127.269 234.3 126.681 234.328 125.267H229.862L228.462 125.337V124.805L229.862 124.875ZM236.064 124.651L235.91 124.511C236.568 123.615 237.072 122.691 237.534 121.417C238.92 121.837 239.032 121.893 239.032 122.061C239.032 122.187 238.92 122.299 238.514 122.355C238.43 122.481 238.346 122.593 238.248 122.719C238.598 122.747 238.934 122.845 239.2 123.013C239.55 123.223 239.732 123.517 239.732 123.867C239.732 124.217 239.424 124.497 239.102 124.497C238.808 124.497 238.556 124.357 238.458 123.965C238.374 123.587 238.22 123.265 237.996 123.027C237.478 123.643 236.806 124.231 236.064 124.651ZM250.134 123.223L250.596 123.447C249.756 125.379 248.524 126.303 246.788 126.303C244.31 126.303 242.616 124.385 242.616 121.585C242.616 118.561 244.576 116.041 246.928 116.041C247.32 116.041 247.698 116.125 248.216 116.321C248.37 116.377 248.454 116.405 248.552 116.405C248.664 116.405 249.028 116.335 249.7 116.181L250.484 118.855L249.98 119.065C249.154 117.469 248.132 116.643 246.97 116.643C245.332 116.643 244.324 118.211 244.324 120.787C244.324 123.559 245.472 125.211 247.418 125.211C248.594 125.211 249.574 124.497 250.134 123.223ZM254.97 116.377L256.286 115.943L258.862 124.273C259.212 125.407 259.296 125.491 260.178 125.519V126.079H256.314V125.519H256.594C257.112 125.519 257.378 125.365 257.378 125.085C257.378 124.931 257.322 124.665 257.224 124.329L256.748 122.747H253.416L252.982 123.965C252.884 124.231 252.842 124.497 252.842 124.735C252.842 125.281 253.136 125.491 253.976 125.519V126.079H251.008V125.519C251.68 125.491 251.89 125.225 252.338 123.937L254.97 116.377ZM253.626 122.089H256.538L255.208 117.455L253.626 122.089ZM267.255 118.827L266.779 119.051C265.855 117.511 264.791 116.699 263.685 116.699C262.789 116.699 262.131 117.343 262.131 118.197C262.131 119.065 262.789 119.667 264.315 120.129C265.547 120.507 266.107 120.745 266.667 121.207C267.269 121.711 267.591 122.467 267.591 123.293C267.591 125.001 266.275 126.303 264.539 126.303C264.007 126.303 263.615 126.205 263.111 125.967C262.873 125.855 262.677 125.799 262.565 125.799C262.411 125.799 262.285 125.855 261.515 126.219L260.661 123.391L261.137 123.195C262.117 124.791 263.349 125.659 264.623 125.659C265.659 125.659 266.415 124.945 266.415 123.979C266.415 123.559 266.247 123.055 265.883 122.775C265.561 122.523 265.239 122.369 264.217 122.047C261.935 121.319 261.025 120.423 261.025 118.897C261.025 117.315 262.215 116.055 263.713 116.055C264.007 116.055 264.343 116.111 264.637 116.223C264.959 116.349 265.099 116.405 265.351 116.405C265.687 116.405 265.981 116.349 266.443 116.167L267.255 118.827ZM272.019 116.377L273.335 115.943L275.911 124.273C276.261 125.407 276.345 125.491 277.227 125.519V126.079H273.363V125.519H273.643C274.161 125.519 274.427 125.365 274.427 125.085C274.427 124.931 274.371 124.665 274.273 124.329L273.797 122.747H270.465L270.031 123.965C269.933 124.231 269.891 124.497 269.891 124.735C269.891 125.281 270.185 125.491 271.025 125.519V126.079H268.057V125.519C268.729 125.491 268.939 125.225 269.387 123.937L272.019 116.377ZM270.675 122.089H273.587L272.257 117.455L270.675 122.089Z" fill="#303F5D"/>
<path d="M197 101L197 100.5L196.5 100.5L196.5 101L197 101ZM197 140.333C195.527 140.333 194.333 141.527 194.333 143C194.333 144.473 195.527 145.667 197 145.667C198.473 145.667 199.666 144.473 199.666 143C199.666 141.527 198.473 140.333 197 140.333ZM208 101L208 100.5L197 100.5L197 101L197 101.5L208 101.5L208 101ZM197 101L196.5 101L196.5 143L197 143L197.5 143L197.5 101L197 101Z" fill="#303F5D"/>
<path d="M68.4412 55.7215C68.4412 55.9916 68.3061 56.3428 68.117 56.3428C66.0913 56.2752 63.5659 56.2752 61.3376 56.3428H61.2971C60.9325 56.3428 61.2026 55.3569 61.4997 55.3299C62.6881 55.2624 63.728 55.1408 63.728 54.4521V46.4167C63.728 45.9846 63.701 45.917 63.3904 45.917C63.0932 45.917 62.5395 46.0116 61.4862 46.1061C61.1891 46.1331 61 45.836 61 45.5524C61 45.3633 61.0675 45.2148 61.2296 45.1608C62.7286 44.6746 63.89 43.9723 64.9299 43.1215C64.9974 43.054 65.1325 43 65.2675 43C65.7267 43 66.3479 43.2971 66.3074 43.5942C66.2129 44.3235 66.1453 44.9987 66.1453 45.728V54.4791C66.1453 55.1678 66.9286 55.2084 68.1711 55.3029C68.3601 55.3029 68.4412 55.492 68.4412 55.7215Z" fill="#303F5D"/>
<path d="M77.9485 50.5356C78.1376 50.5356 78.2051 50.8327 78.2051 51.1569C78.2051 51.5755 78.0701 52.0347 77.8675 52.0347H72.101C71.9119 52.0347 71.8444 51.7376 71.8444 51.4135C71.8444 50.9948 71.9794 50.5356 72.182 50.5356H77.9485Z" fill="#303F5D"/>
<path d="M93.8573 52.6555C93.8573 54.7218 92.3853 56.4639 88.3473 56.4639C87.0373 56.4639 85.4033 56.3288 83.4586 56.3288C82.8779 56.3288 82.2431 56.3288 81.5544 56.3558C81.2573 56.3558 81.4328 55.478 81.6894 55.4375C82.3377 55.3025 82.9724 55.1674 82.9724 54.4922V44.8767C82.9724 44.2825 82.3782 44.2825 81.5544 44.2555C81.4193 44.2555 81.3518 44.1205 81.3518 43.8909C81.3518 43.5938 81.4869 43.2292 81.784 43.2292H81.8245C82.4187 43.2562 83.1615 43.2697 83.7016 43.2697C84.9846 43.2697 85.7949 43.2021 87.3074 43.2021C87.7666 43.2021 88.1582 43.2021 88.7254 43.2427C90.9807 43.3777 92.7499 44.5931 92.7499 46.7539C92.7499 47.9694 92.1962 48.9417 90.2515 49.4819C92.966 49.9411 93.8573 51.116 93.8573 52.6555ZM91.0888 52.9931C91.0888 51.8722 90.7377 50.3732 87.8746 50.3057C87.3074 50.2787 86.9563 50.3057 86.5647 50.3327C86.227 50.3597 86.4701 49.2118 86.7943 49.2118C87.1859 49.2118 87.7396 49.2118 88.0097 49.1848C89.2926 49.1443 90.0759 48.6581 90.0759 47.2536C90.0759 46.4433 89.8734 44.1475 87.1859 44.1475C86.6322 44.1475 86.065 44.215 85.6058 44.4041V54.5732C85.6058 55.2349 86.4971 55.3565 88.1582 55.3565C89.8193 55.3565 91.1023 54.6272 91.1023 52.9931H91.0888Z" fill="#303F5D"/>
<path d="M61.616 70.9899C61.616 68.1059 63.534 65.8659 65.998 65.8659C68.448 65.8659 70.366 68.1059 70.366 70.9899C70.366 73.8599 68.448 76.1139 65.998 76.1139C63.534 76.1139 61.616 73.8599 61.616 70.9899ZM63.394 70.9759C63.394 73.7899 64.388 75.5539 65.984 75.5539C67.58 75.5539 68.588 73.7899 68.588 70.9899C68.588 68.1899 67.58 66.4259 65.984 66.4259C64.402 66.4259 63.394 68.1899 63.394 70.9759ZM77.7281 75.8899L75.2921 71.1719H74.3541V74.0419C74.3541 75.1339 74.4801 75.3299 75.3761 75.3299H75.5441V75.8899H71.4841V75.3299H71.7361C72.6181 75.3299 72.7441 75.1339 72.7441 74.0419V67.9239C72.7441 66.8319 72.6181 66.6919 71.7361 66.6499L71.4841 66.6359V66.0899H75.5441C78.0501 66.0899 79.3801 66.9439 79.3801 68.5539C79.3801 69.8699 78.2881 70.8079 76.9301 70.9759L78.5261 74.0699C78.7921 74.5739 79.0161 74.8679 79.2261 75.0499C79.4501 75.2459 79.7861 75.3579 80.1921 75.3579H80.2901V75.8899H77.7281ZM74.3541 70.6119H75.4181C76.8321 70.6119 77.6441 70.0799 77.6441 68.5959C77.6441 67.3079 76.9301 66.6499 75.5301 66.6499C74.5921 66.6499 74.3541 66.9019 74.3541 67.8959V70.6119ZM88.7633 75.5819C88.7073 75.5819 88.5393 75.5679 88.4273 75.5679H88.1333C87.9093 75.5679 87.5453 75.6379 87.0693 75.7779C86.2153 76.0439 85.8373 76.1139 85.2633 76.1139C84.1013 76.1139 83.1633 75.7219 82.3373 74.8959C81.3433 73.8879 80.8113 72.5859 80.8113 71.1019C80.8113 68.2739 82.8553 65.8519 85.2493 65.8519C85.5293 65.8519 85.9773 65.9079 86.3553 66.0339C86.6773 66.1319 86.9153 66.1879 87.0413 66.1879C87.1533 66.1879 87.4193 66.1319 88.1193 65.9639L88.9173 68.6099L88.4413 68.8339C87.4053 67.0559 86.5793 66.4259 85.3053 66.4259C83.5413 66.4259 82.5893 68.1059 82.5893 71.2139C82.5893 74.1119 83.4853 75.5539 85.2633 75.5539C86.6213 75.5539 87.2653 74.8959 87.2653 73.5099V73.2719C87.2653 72.3199 87.0413 72.0819 86.1313 72.0819H85.9073V71.5359H89.9253V72.0819H89.8133C88.9173 72.0819 88.7633 72.3059 88.7633 73.5659V75.5819ZM94.3552 66.1879L95.6712 65.7539L98.2472 74.0839C98.5972 75.2179 98.6812 75.3019 99.5632 75.3299V75.8899H95.6992V75.3299H95.9792C96.4972 75.3299 96.7632 75.1759 96.7632 74.8959C96.7632 74.7419 96.7072 74.4759 96.6092 74.1399L96.1332 72.5579H92.8012L92.3672 73.7759C92.2692 74.0419 92.2272 74.3079 92.2272 74.5459C92.2272 75.0919 92.5212 75.3019 93.3612 75.3299V75.8899H90.3932V75.3299C91.0652 75.3019 91.2752 75.0359 91.7232 73.7479L94.3552 66.1879ZM93.0112 71.8999H95.9232L94.5932 67.2659L93.0112 71.8999ZM108.026 75.9739H107.312L101.894 67.8819V73.5939C101.894 74.6019 102.216 75.2599 102.972 75.3159L103.154 75.3299V75.8899H100.004V75.3299L100.186 75.3159C100.956 75.2599 101.264 74.6579 101.264 73.5239V67.2659C100.97 66.8879 100.62 66.7339 100.004 66.6779V66.0899H102.566L107.41 73.2019V68.5679C107.41 67.5179 107.214 66.7339 106.332 66.6639L106.15 66.6499V66.0899H109.3V66.6499L109.118 66.6639C108.292 66.7339 108.026 67.2519 108.026 68.7219V75.9739ZM117.997 66.4259L117.927 66.2019C118.473 65.7119 118.935 65.4879 119.327 65.4879C119.915 65.4879 120.671 65.8379 120.671 66.1739C120.671 66.3419 120.629 66.4679 120.587 66.5659C120.517 66.7199 120.475 66.8879 120.475 67.0419C120.475 67.2239 120.573 67.9519 120.629 68.3859C122.113 68.0919 122.407 67.9939 122.631 67.8819C122.743 67.8259 122.869 67.7139 123.135 67.7139C123.345 67.7139 123.653 67.7419 124.045 67.9379C124.325 68.0779 124.437 68.2179 124.437 68.4139C124.437 68.7499 124.283 68.8479 123.751 68.9179C123.317 68.9739 122.127 69.0719 120.783 69.2959C120.881 69.9679 120.965 70.5139 121.077 71.1579C121.861 71.0319 122.645 70.9199 123.289 70.7939C123.541 70.7379 123.709 70.6959 123.919 70.5839C124.017 70.5279 124.185 70.4579 124.325 70.4579C124.899 70.4579 125.725 70.7939 125.725 71.2699C125.725 71.6199 125.599 71.7319 124.997 71.7319C124.605 71.7319 124.213 71.7179 123.821 71.7179C123.513 71.7179 122.267 71.8299 121.231 71.9699C121.483 73.4819 121.651 74.4619 121.805 75.2599C121.903 75.7919 121.959 76.0299 121.959 76.4079C121.959 76.6879 121.777 77.0659 121.259 77.0659C120.559 77.0659 120.503 76.6319 120.391 76.0719C120.377 75.9879 120.335 75.4839 120.293 75.0499C120.237 74.4479 120.139 73.5099 119.943 72.2359C118.879 72.4739 117.969 72.6839 117.479 72.8239C117.129 72.9219 116.863 73.0199 116.723 73.1039C116.583 73.1879 116.415 73.2299 116.275 73.2299C115.911 73.2299 115.491 72.9919 115.099 72.5439C114.931 72.3479 114.777 72.1099 114.693 71.8439L114.833 71.7179C115.281 71.9839 115.589 72.0119 115.897 72.0119C116.191 72.0119 116.541 71.9559 116.891 71.8999C117.773 71.7599 118.795 71.5779 119.831 71.3679C119.733 70.6959 119.635 70.0799 119.523 69.5199C118.949 69.6319 118.459 69.7299 117.829 69.8979C117.563 69.9679 117.367 70.0519 117.269 70.0939C117.171 70.1359 117.059 70.1779 116.961 70.1779C116.415 70.1779 115.785 69.5339 115.491 68.8759L115.603 68.7219C116.051 68.9879 116.359 69.0019 116.821 69.0019C117.017 69.0019 117.381 68.9599 117.703 68.9179C118.277 68.8339 118.725 68.7639 119.369 68.6379C119.285 68.0779 119.173 67.4479 119.061 66.8599C119.005 66.5799 118.893 66.3559 118.599 66.3559C118.445 66.3559 118.221 66.3699 117.997 66.4259ZM132.445 69.1419V68.9319C132.669 68.8759 132.893 68.8479 133.131 68.8479C133.355 68.8479 133.579 68.8899 133.971 69.0439C134.181 69.1279 134.587 69.3379 134.587 69.6039C134.587 69.7019 134.545 69.8139 134.503 69.8839C134.447 69.9679 134.405 70.0799 134.391 70.1359C134.363 70.2759 134.349 70.4299 134.335 70.7799C135.413 70.6539 136.351 70.5419 137.247 70.3879C137.513 70.3459 137.779 70.2619 138.115 70.1079C138.213 70.0659 138.311 69.9959 138.451 69.9959C138.759 69.9959 139.165 70.0799 139.613 70.2899C139.949 70.4439 140.061 70.6679 140.061 70.9339C140.061 71.2139 139.893 71.4099 139.473 71.4099H138.563C138.269 71.4099 137.975 71.4099 137.709 71.4239C136.589 71.4799 135.427 71.5779 134.293 71.7039C134.265 72.5159 134.251 73.0619 134.251 73.4679C134.251 73.7339 134.279 73.9439 134.363 74.0559C134.503 74.2239 134.713 74.2379 135.049 74.2379C135.553 74.2379 136.029 74.2099 136.519 74.1399C136.673 74.1119 136.911 74.0559 137.037 74.0139C137.233 73.9579 137.373 73.8879 137.499 73.8879C138.269 73.8879 138.731 74.3079 138.731 74.7279C138.731 75.1759 138.535 75.3859 137.877 75.4559C137.373 75.5119 136.673 75.5399 135.875 75.5399C134.699 75.5399 134.097 75.3719 133.705 75.1479C133.327 74.9379 133.117 74.5319 133.061 74.1539C132.991 73.6359 132.991 72.8239 132.991 71.8719C132.347 71.9699 131.731 72.0819 131.171 72.1939C130.625 72.3059 130.191 72.4179 130.009 72.5159C129.883 72.5859 129.687 72.6699 129.547 72.6699C129.309 72.6699 128.945 72.4739 128.623 72.0819C128.329 71.7319 128.119 71.3119 128.077 71.0179L128.259 70.9339C128.707 71.2699 128.959 71.3539 129.365 71.3539C129.687 71.3539 130.093 71.3259 130.569 71.2839C131.311 71.2139 132.053 71.1019 132.991 70.9619C132.991 70.3879 132.991 70.0799 132.977 69.8979C132.949 69.4079 132.893 69.2539 132.445 69.1419ZM130.065 67.5319L130.205 67.4479C130.611 67.7419 131.031 67.7839 131.451 67.7839C131.787 67.7839 132.249 67.7139 132.739 67.6439C133.593 67.5039 134.321 67.3639 135.175 67.1259C135.343 67.0839 135.525 67.0419 135.763 66.9159C136.015 66.7759 136.183 66.7339 136.365 66.7339C136.505 66.7339 136.841 66.7899 137.219 66.9299C137.639 67.0839 137.751 67.3499 137.751 67.6019C137.751 67.8539 137.611 68.0359 137.093 68.0919C135.161 68.2879 133.859 68.4699 132.403 68.6939C131.899 68.7779 131.675 68.8199 131.493 68.8199C131.171 68.8199 130.779 68.6099 130.429 68.2039C130.275 68.0219 130.107 67.7279 130.065 67.5319ZM148.769 66.6359L148.783 66.3699C149.147 66.2719 149.497 66.2439 149.777 66.2439C150.043 66.2439 150.281 66.3139 150.785 66.6219C151.345 66.9579 151.681 67.3079 151.681 67.6719C151.681 67.8679 151.569 67.9799 151.415 68.1199C151.275 68.2459 151.191 68.3579 151.121 68.4979C150.939 68.8479 150.743 69.2119 150.519 69.6879C148.783 73.2859 146.501 75.3299 143.197 76.4079L143.099 76.1839C146.137 74.4339 148.307 71.3539 149.497 68.0779C149.609 67.7699 149.679 67.5459 149.679 67.3359C149.679 67.1539 149.609 66.9999 149.441 66.8879C149.287 66.7899 149.035 66.6919 148.769 66.6359Z" fill="#303F5D"/>
<path d="M44 51L44 50.5L43.5 50.5L43.5 51L44 51ZM44 164.333C42.5272 164.333 41.3333 165.527 41.3333 167C41.3333 168.473 42.5272 169.667 44 169.667C45.4728 169.667 46.6667 168.473 46.6667 167C46.6667 165.527 45.4728 164.333 44 164.333ZM55 51L55 50.5L44 50.5L44 51L44 51.5L55 51.5L55 51ZM44 51L43.5 51L43.5 167L44 167L44.5 167L44.5 51L44 51Z" fill="#303F5D"/>
</g>
<defs>
<clipPath id="clip0_4503_2617">
<rect width="413" height="239.063" fill="white"/>
</clipPath>
</defs>
</svg>
