<svg width="413" height="162" viewBox="0 0 413 162" fill="none" xmlns="http://www.w3.org/2000/svg">
<g clip-path="url(#clip0_4505_2624)">
<path d="M101.1 148.04L68.1289 129.005L112.798 103.212L145.769 122.248L101.1 148.04Z" fill="#E1E5E4"/>
<path d="M156.398 0.800781L67.8323 51.9306L45.9048 64.5888L89.6288 89.8362L110.825 77.5921L133.38 90.6161L222.671 39.0653L156.398 0.800781Z" fill="#E1E5E4"/>
<path d="M156.53 0L0 90.3744L123.518 161.686L280.047 71.3111L156.53 0ZM104.627 81.8712L109.583 84.7355L107.816 85.757L102.86 82.8926L104.627 81.8712ZM110.48 85.2531L115.139 87.938L113.372 88.9595L108.713 86.2746L110.48 85.2531ZM116.015 87.4341L111.356 84.7493L113.123 83.7278L117.782 86.4126L116.015 87.4341ZM110.459 84.2247L105.504 81.3604L107.27 80.3389L112.226 83.2032L110.459 84.2247ZM101.977 83.4034L106.932 86.2677L105.165 87.2892L100.21 84.4249L101.977 83.4034ZM107.829 86.7785L112.488 89.4633L110.721 90.4848L106.063 87.7999L107.829 86.7785ZM118.666 85.9019L114.007 83.217L115.511 82.3474L114.614 81.8297L113.109 82.6994L108.154 79.8351L110.818 78.2959L121.33 84.3628L118.666 85.9019ZM122.572 85.0806L133.387 91.3269L178.202 65.4583L187.637 70.9039L122.924 108.264C122.924 108.264 122.883 108.299 122.862 108.319L102.591 96.6138L122.572 85.0806ZM188.872 70.193H188.865L179.43 64.7474L222.837 39.6863L267.037 65.2029L223.638 90.257L188.872 70.1861V70.193ZM221.588 38.9685L133.374 89.8981L110.804 76.8672L89.6014 89.1044L47.1405 64.5886L156.557 1.42181L221.588 38.9685ZM45.9188 65.2995L89.6221 90.5331L99.3262 84.9287L104.282 87.793L99.6782 90.4503L97.8906 89.4219L96.3239 92.9074L102.356 92.0032L100.569 90.9748L105.172 88.3176L109.831 91.0025L100.127 96.6069L144.534 122.248L101.086 147.329L69.3648 129.012L80.4908 122.593C80.829 122.4 80.8221 122.082 80.477 121.882C80.1319 121.682 79.5797 121.682 79.2415 121.882L68.1155 128.301L2.47091 90.3882L45.9188 65.3064V65.2995ZM123.49 160.264L102.329 148.047L146.998 122.255L124.077 109.017C124.077 109.017 124.146 108.996 124.173 108.982L188.893 71.6148L223.658 91.6858L268.28 65.9276L277.583 71.2973L123.497 160.257L123.49 160.264Z" fill="#787E88"/>
<path d="M232.534 125.98C232.534 125.98 232.534 126.021 232.507 126.102L231.615 128.519C231.345 129.248 231.224 129.41 230.792 129.41H230.684C228.496 129.316 225.768 129.289 222.23 129.41C222.095 129.41 222 129.154 222 128.911C222 128.776 222.041 128.614 222.108 128.492C223.621 126.291 228.739 123.09 228.698 119.97C228.671 118.255 227.456 117.58 226.132 117.58C225.12 117.58 224.255 117.972 223.607 118.566C223.31 118.836 222.365 118.107 222.756 117.742C223.837 116.662 225.484 116 226.889 116C229.185 116 231.372 117.053 231.44 119.646C231.534 123.158 226.497 125.75 224.782 127.574L229.185 127.371C229.968 127.331 230.927 126.885 231.71 125.642C231.899 125.372 232.534 125.615 232.534 125.98Z" fill="#303F5D"/>
<path d="M241.798 123.604C241.987 123.604 242.055 123.901 242.055 124.225C242.055 124.643 241.92 125.103 241.717 125.103H235.95C235.761 125.103 235.694 124.805 235.694 124.481C235.694 124.063 235.829 123.604 236.031 123.604H241.798Z" fill="#303F5D"/>
<path d="M259.516 123.063C259.516 126.669 257.085 129.491 252.426 129.491H252.197C250.954 129.464 249.806 129.356 248.064 129.356C247.105 129.356 246.295 129.383 245.377 129.397C245.282 129.397 245.242 129.302 245.242 129.167C245.242 128.897 245.404 128.506 245.566 128.479C246.214 128.343 246.808 128.208 246.808 127.533L246.835 117.918C246.835 117.324 246.241 117.324 245.417 117.324C245.282 117.324 245.215 117.161 245.215 116.959C245.215 116.662 245.35 116.27 245.647 116.27H245.687C245.687 116.27 247.024 116.311 247.565 116.311C248.848 116.311 249.658 116.243 251.792 116.243C257.491 116.243 259.53 119.093 259.53 123.063H259.516ZM256.437 123.347C256.437 120.619 255.613 117.256 251.319 117.256C250.603 117.256 250.036 117.297 249.442 117.459L249.415 127.533C249.415 128.114 250.887 128.425 252.129 128.425C254.79 128.425 256.451 127.574 256.451 123.333L256.437 123.347Z" fill="#303F5D"/>
<path d="M222.616 144.017C222.616 141.133 224.534 138.893 226.998 138.893C229.448 138.893 231.366 141.133 231.366 144.017C231.366 146.887 229.448 149.141 226.998 149.141C224.534 149.141 222.616 146.887 222.616 144.017ZM224.394 144.003C224.394 146.817 225.388 148.581 226.984 148.581C228.58 148.581 229.588 146.817 229.588 144.017C229.588 141.217 228.58 139.453 226.984 139.453C225.402 139.453 224.394 141.217 224.394 144.003ZM239.414 146.019L239.862 146.271L238.952 148.917H232.512L232.372 148.567L237.692 139.761H236.586C235.018 139.761 234.332 140.167 233.058 141.861L232.638 141.637L233.478 139.117H239.54L239.708 139.453L234.374 148.273L235.354 148.259C237.09 148.231 238.07 147.713 239.414 146.019ZM248.638 146.075L249.072 146.313L248.19 148.917H240.728V148.357H240.98C241.862 148.357 241.988 148.161 241.988 147.069V140.951C241.988 139.859 241.862 139.719 240.98 139.677L240.728 139.663V139.117H247.966L248.792 141.637L248.33 141.875C247.322 140.377 246.286 139.747 244.858 139.747C243.864 139.747 243.598 139.985 243.598 140.909V143.583H244.018C245.432 143.583 245.908 143.219 246.16 141.987H246.678V145.907H246.174C246.006 144.661 245.418 144.213 244.004 144.213H243.598V147.181C243.598 148.133 243.794 148.343 244.676 148.343C245.824 148.343 246.72 148.035 247.35 147.475C247.756 147.097 248.078 146.775 248.638 146.075ZM255.356 142.603L258.142 147.321C258.688 148.231 258.828 148.329 259.668 148.357V148.917H255.678V148.357H255.902C256.406 148.357 256.686 148.245 256.686 148.035C256.686 147.937 256.546 147.741 256.336 147.391L254.208 143.807L253.018 145.053V147.069C253.018 148.161 253.158 148.357 254.04 148.357H254.208V148.917H250.148V148.357H250.4C251.282 148.357 251.408 148.161 251.408 147.069V140.951C251.408 139.859 251.282 139.719 250.4 139.677L250.148 139.663V139.117H254.208V139.663L254.04 139.677C253.158 139.747 253.018 139.859 253.018 140.951V144.185L256.28 140.825C256.588 140.503 256.7 140.321 256.7 140.139C256.7 139.789 256.476 139.677 255.706 139.663V139.117H259.276V139.663C258.408 139.719 257.876 140.013 256.896 141.021L255.356 142.603ZM264.245 148.357V148.917H260.115V148.357H260.367C261.249 148.357 261.375 148.161 261.375 147.069V140.951C261.375 139.859 261.249 139.719 260.367 139.677L260.115 139.663V139.117H264.245V139.663L264.007 139.677C263.125 139.733 262.985 139.859 262.985 140.951V147.069C262.985 148.161 263.125 148.357 264.007 148.357H264.245ZM268.99 150.751L268.836 150.611C270.152 148.931 270.614 147.209 270.614 143.079C270.614 139.971 270.586 139.145 270.53 138.207C272.574 138.403 272.868 138.529 272.868 138.753C272.868 138.907 272.742 139.033 272.238 139.201V143.037C272.238 147.293 271.244 149.295 268.99 150.751ZM280.624 139.285V140.727C280.624 147.629 280.722 149.351 280.722 149.925C280.722 150.331 280.162 150.597 279.434 150.597C279.112 150.597 278.958 150.443 278.958 150.205C278.958 149.603 279.056 147.783 279.056 140.685C279.056 139.649 279.028 138.921 278.986 138.319C280.918 138.487 281.226 138.613 281.226 138.809C281.226 139.019 281.058 139.117 280.624 139.285ZM276.284 139.523V140.909C276.284 146.495 276.382 148.189 276.382 148.735C276.382 149.127 275.808 149.379 275.108 149.379C274.8 149.379 274.646 149.239 274.646 149.001C274.646 148.427 274.744 146.649 274.744 140.867C274.744 139.873 274.716 139.173 274.674 138.585C276.536 138.753 276.858 138.865 276.858 139.061C276.858 139.257 276.704 139.355 276.284 139.523ZM295.772 139.103H291.67C291.642 139.285 291.558 139.397 291.264 139.439C290.956 139.985 290.536 140.503 290.116 140.937H292.538C292.762 140.391 292.916 140.209 293.084 140.209C293.266 140.209 293.434 140.237 293.98 140.629C294.456 140.979 294.582 141.175 294.582 141.301C294.582 141.469 294.484 141.581 294.092 141.833V142.561C294.092 143.793 294.162 144.661 294.162 145.025C294.162 145.459 293.616 145.669 292.958 145.669C292.72 145.669 292.58 145.557 292.58 145.305V145.137H291.404C291.376 145.305 291.306 145.403 291.18 145.459V146.089C291.18 147.825 291.264 148.595 291.264 149.183C291.264 150.135 290.214 150.527 289.416 150.527C289.178 150.527 289.136 150.457 289.052 150.121C288.926 149.589 288.604 149.309 287.806 149.029L287.82 148.819C288.324 148.875 288.674 148.903 289.136 148.903C289.584 148.903 289.668 148.847 289.668 148.343V145.137H288.184V145.375C288.184 145.669 287.736 145.963 286.994 145.963C286.742 145.963 286.602 145.837 286.602 145.599C286.602 145.263 286.672 144.199 286.672 142.183C286.672 141.371 286.658 140.797 286.63 140.209C287.862 140.601 288.31 140.783 288.464 140.937H289.486C289.584 140.335 289.682 139.719 289.71 139.103H285.776L285.594 139.285V143.051C285.594 146.313 284.866 147.951 283.2 149.421L283.018 149.323C283.9 147.629 284.138 146.145 284.138 142.953C284.138 139.649 284.096 138.459 284.054 137.983C285.202 138.347 285.664 138.557 285.846 138.711H293.392C293.672 138.347 294.008 137.969 294.344 137.577C295.856 138.571 295.996 138.781 295.996 138.921C295.996 139.019 295.926 139.103 295.772 139.103ZM292.58 141.329H288.38L288.184 141.553V142.757H292.58V141.329ZM288.184 144.745H292.58V143.149H288.184V144.745ZM291.95 146.579L292.062 146.397C293.224 146.593 294.19 146.957 294.834 147.489C295.282 147.853 295.534 148.315 295.534 148.749C295.534 149.267 295.184 149.617 294.638 149.617C294.246 149.617 293.98 149.435 293.742 148.889C293.294 147.825 292.706 147.097 291.95 146.579ZM283.9 150.037L283.788 149.855C285.118 149.015 286.504 147.685 287.414 146.243C288.884 147.055 289.01 147.153 289.01 147.405C289.01 147.531 288.884 147.643 288.506 147.643C288.45 147.643 288.394 147.629 288.324 147.629C287.274 148.665 285.552 149.589 283.9 150.037ZM306.286 140.405H303.878V140.811C303.878 144.731 303.962 146.369 303.962 147.237C303.962 147.643 303.486 147.839 302.842 147.839C302.604 147.839 302.478 147.741 302.478 147.503V146.971H298.81V147.713C298.81 148.035 298.418 148.315 297.704 148.315C297.466 148.315 297.34 148.203 297.34 147.965C297.34 147.643 297.41 146.075 297.41 140.251C297.41 139.537 297.382 138.809 297.354 138.151C298.572 138.431 298.978 138.571 299.104 138.697H302.38C302.632 138.081 302.814 137.913 302.968 137.913C303.15 137.913 303.318 137.941 303.822 138.333C304.284 138.711 304.34 138.851 304.34 138.977C304.34 139.145 304.228 139.271 303.878 139.439V140.013H307.434C307.742 139.621 308.078 139.201 308.526 138.739C310.024 139.999 310.08 140.111 310.08 140.251C310.08 140.335 309.996 140.405 309.856 140.405H308.078C308.064 140.587 307.98 140.685 307.854 140.741V142.561C307.854 147.027 307.98 148.385 307.98 149.225C307.98 150.079 307.168 150.723 305.894 150.723C305.642 150.723 305.6 150.695 305.544 150.443C305.376 149.757 305.026 149.407 304.004 149.057L304.018 148.847C304.494 148.917 305.166 148.973 305.656 148.973C306.188 148.973 306.286 148.889 306.286 148.357V140.405ZM302.478 139.089H301.54C301.512 139.243 301.428 139.341 301.316 139.397V142.491H302.478V139.089ZM299.944 139.089H298.95L298.81 139.243V142.491H299.944V139.089ZM298.81 146.579H299.944V142.883H298.81V146.579ZM301.316 146.579H302.478V142.883H301.316V146.579ZM312.656 148.721C311.732 148.581 311.214 148.217 311.214 147.713C311.214 147.251 311.718 146.803 312.488 146.593C311.648 146.187 311.172 145.487 311.172 144.619C311.172 143.317 312.334 142.295 313.804 142.295C314.322 142.295 314.784 142.421 315.288 142.687C315.68 142.043 316.184 141.665 316.632 141.665C316.968 141.665 317.276 142.001 317.276 142.379C317.276 142.729 317.038 142.995 316.716 142.995C316.59 142.995 316.492 142.953 316.268 142.827C316.114 142.743 316.016 142.715 315.918 142.715C315.792 142.715 315.736 142.771 315.624 142.883C316.198 143.359 316.506 143.947 316.506 144.591C316.506 145.963 315.148 146.901 313.86 146.901C313.566 146.901 313.16 146.831 312.922 146.761C312.614 146.873 312.432 147.027 312.432 147.209C312.432 147.447 312.544 147.475 314.756 147.783C316.394 148.007 317.136 148.567 317.136 149.547C317.136 150.751 315.932 151.395 313.678 151.395C311.844 151.395 310.724 150.905 310.724 150.107C310.724 149.491 311.438 148.973 312.656 148.721ZM312.53 144.689C312.53 145.767 313.048 146.439 313.874 146.439C314.616 146.439 315.148 145.697 315.148 144.675C315.148 143.499 314.658 142.799 313.832 142.799C313.02 142.799 312.53 143.499 312.53 144.689ZM314.644 149.127L313.104 148.875C312.18 149.295 311.886 149.547 311.886 149.995C311.886 150.597 312.502 150.891 313.748 150.891C315.26 150.891 316.03 150.597 316.03 150.009C316.03 149.603 315.498 149.267 314.644 149.127ZM323.882 147.993L324.19 148.329C323.672 148.889 323.308 149.113 322.902 149.113C322.44 149.113 322.132 148.833 321.908 148.217C321.11 148.847 320.508 149.113 319.864 149.113C318.828 149.113 318.058 148.413 318.058 147.461C318.058 146.621 318.632 145.949 319.766 145.431C320.228 145.221 320.802 145.053 321.852 144.815V144.059C321.852 143.163 321.628 142.855 320.97 142.855C320.452 142.855 320.13 143.121 319.934 143.695C319.738 144.283 319.486 144.521 319.08 144.521C318.688 144.521 318.366 144.185 318.366 143.751C318.366 142.925 319.5 142.295 321.012 142.295C321.964 142.295 322.678 142.603 322.986 143.135C323.126 143.387 323.168 143.709 323.168 144.199V147.097C323.168 148.021 323.21 148.175 323.49 148.175C323.616 148.175 323.714 148.133 323.882 147.993ZM321.852 147.643V145.361C320.228 145.823 319.542 146.397 319.542 147.293C319.542 147.895 319.878 148.301 320.382 148.301C320.942 148.301 321.418 148.091 321.852 147.643ZM327.077 138.963V147.349C327.077 148.231 327.161 148.343 327.917 148.399V148.917H324.809V148.399H324.837C325.649 148.399 325.747 148.287 325.747 147.349V141.287C325.747 140.405 325.607 140.237 324.795 140.167V139.719L327.077 138.963ZM330.974 138.963V147.349C330.974 148.231 331.058 148.343 331.814 148.399V148.917H328.706V148.399H328.734C329.546 148.399 329.644 148.287 329.644 147.349V141.287C329.644 140.405 329.504 140.237 328.692 140.167V139.719L330.974 138.963ZM338.776 145.487H334.198C334.198 145.851 334.282 146.397 334.478 146.943C334.772 147.769 335.472 148.231 336.41 148.231C337.194 148.231 337.782 147.937 338.496 147.195L338.86 147.489C338.02 148.595 337.054 149.113 335.892 149.113C334.072 149.113 332.714 147.727 332.714 145.865C332.714 143.905 334.156 142.295 335.92 142.295C336.928 142.295 337.824 142.827 338.314 143.681C338.692 144.339 338.776 145.039 338.776 145.333V145.487ZM334.24 144.843H337.348V144.745C337.348 143.569 336.76 142.799 335.864 142.799C335.22 142.799 334.674 143.205 334.422 143.877C334.338 144.101 334.268 144.451 334.24 144.843ZM342.09 142.267V143.933C342.818 142.799 343.476 142.295 344.204 142.295C344.694 142.295 345.058 142.673 345.058 143.163C345.058 143.639 344.708 144.031 344.288 144.031C344.148 144.031 344.008 143.975 343.812 143.863C343.56 143.709 343.434 143.667 343.308 143.667C342.944 143.667 342.678 143.891 342.09 144.619V147.349C342.09 148.301 342.188 148.399 343.098 148.399H343.364V148.917H339.766V148.399H339.836C340.648 148.399 340.76 148.273 340.76 147.349V144.605C340.76 143.639 340.634 143.485 339.808 143.429V142.981L342.09 142.267ZM348.154 148.917L346.082 143.919C345.816 143.275 345.578 143.051 345.102 143.009V142.491H348.14V143.009C347.58 143.037 347.384 143.135 347.384 143.331C347.384 143.443 347.44 143.667 347.566 143.961L348.882 147.195L350.1 144.241C350.198 144.017 350.254 143.765 350.254 143.555C350.254 143.247 349.988 143.079 349.33 143.009V142.491H351.934V143.009C351.29 143.121 351.15 143.261 350.744 144.227L348.644 149.169C348.224 150.163 348.042 150.541 347.678 150.905C347.398 151.185 346.936 151.465 346.376 151.465C345.774 151.465 345.312 151.073 345.312 150.541C345.312 150.107 345.648 149.757 346.054 149.757C346.278 149.757 346.404 149.813 346.684 150.093C346.866 150.261 347.048 150.331 347.16 150.331C347.426 150.331 347.664 150.079 347.888 149.547L348.154 148.917Z" fill="#303F5D"/>
<path d="M201.979 124L201.979 124.5L201.98 124.5L201.979 124ZM108.5 121.333C107.027 121.333 105.833 122.527 105.833 124C105.833 125.473 107.027 126.666 108.5 126.666C109.973 126.666 111.167 125.473 111.167 124C111.167 122.527 109.973 121.333 108.5 121.333ZM215 123.991L215 123.491L201.979 123.5L201.979 124L201.98 124.5L215 124.491L215 123.991ZM201.979 124L201.979 123.5L108.5 123.5L108.5 124L108.5 124.5L201.979 124.5L201.979 124Z" fill="#303F5D"/>
<path d="M251.534 15.9801C251.534 15.9801 251.534 16.0206 251.507 16.1016L250.615 18.519C250.345 19.2482 250.224 19.4103 249.792 19.4103H249.684C247.496 19.3158 244.768 19.2887 241.23 19.4103C241.095 19.4103 241 19.1537 241 18.9106C241 18.7756 241.041 18.6135 241.108 18.492C242.621 16.2907 247.739 13.09 247.698 9.97042C247.671 8.2553 246.456 7.58006 245.132 7.58006C244.12 7.58006 243.255 7.9717 242.607 8.56592C242.31 8.83601 241.365 8.10675 241.756 7.74212C242.837 6.66174 244.484 6 245.889 6C248.185 6 250.372 7.05338 250.44 9.6463C250.534 13.1576 245.497 15.7505 243.782 17.5736L248.185 17.3711C248.968 17.3305 249.927 16.8849 250.71 15.6424C250.899 15.3723 251.534 15.6154 251.534 15.9801Z" fill="#303F5D"/>
<path d="M260.785 13.5898C260.974 13.5898 261.041 13.8869 261.041 14.2111C261.041 14.6297 260.906 15.0889 260.704 15.0889H254.937C254.748 15.0889 254.68 14.7918 254.68 14.4677C254.68 14.049 254.815 13.5898 255.018 13.5898H260.785Z" fill="#303F5D"/>
<path d="M276.761 15.9531L276.734 16.0477L275.856 18.8297C275.694 19.3293 275.397 19.4104 275.1 19.4104C271.359 19.3429 266.348 19.3429 264.377 19.4104C264.08 19.4104 264.255 18.5326 264.512 18.492C265.16 18.357 265.795 18.222 265.795 17.5467V7.93128C265.795 7.33707 265.201 7.33707 264.377 7.31006C264.242 7.31006 264.174 7.148 264.174 6.94543C264.174 6.64832 264.336 6.28369 264.633 6.28369C268.05 6.35122 271.494 6.35122 274.924 6.28369C275.113 6.28369 275.262 6.44575 275.289 6.5808L275.68 8.99816C275.748 9.45732 275.032 9.82195 274.897 9.48433C274.141 7.97179 273.249 7.62067 272.642 7.55314C271.75 7.44511 270.022 7.39109 268.415 7.59366V12.3744L272.291 12.3474C272.912 12.3474 273.209 11.6991 273.398 10.9969C273.439 10.7943 274.181 10.8078 274.181 11.1049V14.4136C274.181 14.8728 273.303 14.6432 273.29 14.4811C273.155 13.6978 272.79 13.5223 271.845 13.5223H268.428V17.6142C268.428 18.0059 268.496 18.1814 269.144 18.2084C271.102 18.249 272.129 18.2355 273.087 18.1139C274.276 17.9789 275.019 17.1011 275.869 15.5615C276.004 15.3049 276.761 15.5615 276.761 15.9802V15.9531Z" fill="#303F5D"/>
<path d="M244.906 29.1342L246.222 28.7002L248.798 37.0302C249.148 38.1642 249.232 38.2482 250.114 38.2762V38.8362H246.25V38.2762H246.53C247.048 38.2762 247.314 38.1222 247.314 37.8422C247.314 37.6882 247.258 37.4222 247.16 37.0862L246.684 35.5042H243.352L242.918 36.7222C242.82 36.9882 242.778 37.2542 242.778 37.4922C242.778 38.0382 243.072 38.2482 243.912 38.2762V38.8362H240.944V38.2762C241.616 38.2482 241.826 37.9822 242.274 36.6942L244.906 29.1342ZM243.562 34.8462H246.474L245.144 30.2122L243.562 34.8462ZM255.762 32.5222L258.548 37.2402C259.094 38.1502 259.234 38.2482 260.074 38.2762V38.8362H256.084V38.2762H256.308C256.812 38.2762 257.092 38.1642 257.092 37.9542C257.092 37.8562 256.952 37.6602 256.742 37.3102L254.614 33.7262L253.424 34.9722V36.9882C253.424 38.0802 253.564 38.2762 254.446 38.2762H254.614V38.8362H250.554V38.2762H250.806C251.688 38.2762 251.814 38.0802 251.814 36.9882V30.8702C251.814 29.7782 251.688 29.6382 250.806 29.5962L250.554 29.5822V29.0362H254.614V29.5822L254.446 29.5962C253.564 29.6662 253.424 29.7782 253.424 30.8702V34.1042L256.686 30.7442C256.994 30.4222 257.106 30.2402 257.106 30.0582C257.106 29.7082 256.882 29.5962 256.112 29.5822V29.0362H259.682V29.5822C258.814 29.6382 258.282 29.9322 257.302 30.9402L255.762 32.5222ZM263.924 29.1342L265.24 28.7002L267.816 37.0302C268.166 38.1642 268.25 38.2482 269.132 38.2762V38.8362H265.268V38.2762H265.548C266.066 38.2762 266.332 38.1222 266.332 37.8422C266.332 37.6882 266.276 37.4222 266.178 37.0862L265.702 35.5042H262.37L261.936 36.7222C261.838 36.9882 261.796 37.2542 261.796 37.4922C261.796 38.0382 262.09 38.2482 262.93 38.2762V38.8362H259.962V38.2762C260.634 38.2482 260.844 37.9822 261.292 36.6942L263.924 29.1342ZM262.58 34.8462H265.492L264.162 30.2122L262.58 34.8462ZM275.816 38.8362L273.38 34.1182H272.442V36.9882C272.442 38.0802 272.568 38.2762 273.464 38.2762H273.632V38.8362H269.572V38.2762H269.824C270.706 38.2762 270.832 38.0802 270.832 36.9882V30.8702C270.832 29.7782 270.706 29.6382 269.824 29.5962L269.572 29.5822V29.0362H273.632C276.138 29.0362 277.468 29.8902 277.468 31.5002C277.468 32.8162 276.376 33.7542 275.018 33.9222L276.614 37.0162C276.88 37.5202 277.104 37.8142 277.314 37.9962C277.538 38.1922 277.874 38.3042 278.28 38.3042H278.378V38.8362H275.816ZM272.442 33.5582H273.506C274.92 33.5582 275.732 33.0262 275.732 31.5422C275.732 30.2542 275.018 29.5962 273.618 29.5962C272.68 29.5962 272.442 29.8482 272.442 30.8422V33.5582ZM282.917 38.2762V38.8362H278.787V38.2762H279.039C279.921 38.2762 280.047 38.0802 280.047 36.9882V30.8702C280.047 29.7782 279.921 29.6382 279.039 29.5962L278.787 29.5822V29.0362H282.917V29.5822L282.679 29.5962C281.797 29.6522 281.657 29.7782 281.657 30.8702V36.9882C281.657 38.0802 281.797 38.2762 282.679 38.2762H282.917ZM289.328 38.6402C288.404 38.5002 287.886 38.1362 287.886 37.6322C287.886 37.1702 288.39 36.7222 289.16 36.5122C288.32 36.1062 287.844 35.4062 287.844 34.5382C287.844 33.2362 289.006 32.2142 290.476 32.2142C290.994 32.2142 291.456 32.3402 291.96 32.6062C292.352 31.9622 292.856 31.5842 293.304 31.5842C293.64 31.5842 293.948 31.9202 293.948 32.2982C293.948 32.6482 293.71 32.9142 293.388 32.9142C293.262 32.9142 293.164 32.8722 292.94 32.7462C292.786 32.6622 292.688 32.6342 292.59 32.6342C292.464 32.6342 292.408 32.6902 292.296 32.8022C292.87 33.2782 293.178 33.8662 293.178 34.5102C293.178 35.8822 291.82 36.8202 290.532 36.8202C290.238 36.8202 289.832 36.7502 289.594 36.6802C289.286 36.7922 289.104 36.9462 289.104 37.1282C289.104 37.3662 289.216 37.3942 291.428 37.7022C293.066 37.9262 293.808 38.4862 293.808 39.4662C293.808 40.6702 292.604 41.3142 290.35 41.3142C288.516 41.3142 287.396 40.8242 287.396 40.0262C287.396 39.4102 288.11 38.8922 289.328 38.6402ZM289.202 34.6082C289.202 35.6862 289.72 36.3582 290.546 36.3582C291.288 36.3582 291.82 35.6162 291.82 34.5942C291.82 33.4182 291.33 32.7182 290.504 32.7182C289.692 32.7182 289.202 33.4182 289.202 34.6082ZM291.316 39.0462L289.776 38.7942C288.852 39.2142 288.558 39.4662 288.558 39.9142C288.558 40.5162 289.174 40.8102 290.42 40.8102C291.932 40.8102 292.702 40.5162 292.702 39.9282C292.702 39.5222 292.17 39.1862 291.316 39.0462ZM300.554 37.9122L300.862 38.2482C300.344 38.8082 299.98 39.0322 299.574 39.0322C299.112 39.0322 298.804 38.7522 298.58 38.1362C297.782 38.7662 297.18 39.0322 296.536 39.0322C295.5 39.0322 294.73 38.3322 294.73 37.3802C294.73 36.5402 295.304 35.8682 296.438 35.3502C296.9 35.1402 297.474 34.9722 298.524 34.7342V33.9782C298.524 33.0822 298.3 32.7742 297.642 32.7742C297.124 32.7742 296.802 33.0402 296.606 33.6142C296.41 34.2022 296.158 34.4402 295.752 34.4402C295.36 34.4402 295.038 34.1042 295.038 33.6702C295.038 32.8442 296.172 32.2142 297.684 32.2142C298.636 32.2142 299.35 32.5222 299.658 33.0542C299.798 33.3062 299.84 33.6282 299.84 34.1182V37.0162C299.84 37.9402 299.882 38.0942 300.162 38.0942C300.288 38.0942 300.386 38.0522 300.554 37.9122ZM298.524 37.5622V35.2802C296.9 35.7422 296.214 36.3162 296.214 37.2122C296.214 37.8142 296.55 38.2202 297.054 38.2202C297.614 38.2202 298.09 38.0102 298.524 37.5622ZM303.749 28.8822V37.2682C303.749 38.1502 303.833 38.2622 304.589 38.3182V38.8362H301.481V38.3182H301.509C302.321 38.3182 302.419 38.2062 302.419 37.2682V31.2062C302.419 30.3242 302.279 30.1562 301.467 30.0862V29.6382L303.749 28.8822ZM307.646 28.8822V37.2682C307.646 38.1502 307.73 38.2622 308.486 38.3182V38.8362H305.378V38.3182H305.406C306.218 38.3182 306.316 38.2062 306.316 37.2682V31.2062C306.316 30.3242 306.176 30.1562 305.364 30.0862V29.6382L307.646 28.8822ZM315.448 35.4062H310.87C310.87 35.7702 310.954 36.3162 311.15 36.8622C311.444 37.6882 312.144 38.1502 313.082 38.1502C313.866 38.1502 314.454 37.8562 315.168 37.1142L315.532 37.4082C314.692 38.5142 313.726 39.0322 312.564 39.0322C310.744 39.0322 309.386 37.6462 309.386 35.7842C309.386 33.8242 310.828 32.2142 312.592 32.2142C313.6 32.2142 314.496 32.7462 314.986 33.6002C315.364 34.2582 315.448 34.9582 315.448 35.2522V35.4062ZM310.912 34.7622H314.02V34.6642C314.02 33.4882 313.432 32.7182 312.536 32.7182C311.892 32.7182 311.346 33.1242 311.094 33.7962C311.01 34.0202 310.94 34.3702 310.912 34.7622ZM318.762 32.1862V33.8522C319.49 32.7182 320.148 32.2142 320.876 32.2142C321.366 32.2142 321.73 32.5922 321.73 33.0822C321.73 33.5582 321.38 33.9502 320.96 33.9502C320.82 33.9502 320.68 33.8942 320.484 33.7822C320.232 33.6282 320.106 33.5862 319.98 33.5862C319.616 33.5862 319.35 33.8102 318.762 34.5382V37.2682C318.762 38.2202 318.86 38.3182 319.77 38.3182H320.036V38.8362H316.438V38.3182H316.508C317.32 38.3182 317.432 38.1922 317.432 37.2682V34.5242C317.432 33.5582 317.306 33.4042 316.48 33.3482V32.9002L318.762 32.1862ZM324.825 38.8362L322.753 33.8382C322.487 33.1942 322.249 32.9702 321.773 32.9282V32.4102H324.811V32.9282C324.251 32.9562 324.055 33.0542 324.055 33.2502C324.055 33.3622 324.111 33.5862 324.237 33.8802L325.553 37.1142L326.771 34.1602C326.869 33.9362 326.925 33.6842 326.925 33.4742C326.925 33.1662 326.659 32.9982 326.001 32.9282V32.4102H328.605V32.9282C327.961 33.0402 327.821 33.1802 327.415 34.1462L325.315 39.0882C324.895 40.0822 324.713 40.4602 324.349 40.8242C324.069 41.1042 323.607 41.3842 323.047 41.3842C322.445 41.3842 321.983 40.9922 321.983 40.4602C321.983 40.0262 322.319 39.6762 322.725 39.6762C322.949 39.6762 323.075 39.7322 323.355 40.0122C323.537 40.1802 323.719 40.2502 323.831 40.2502C324.097 40.2502 324.335 39.9982 324.559 39.4662L324.825 38.8362Z" fill="#303F5D"/>
<path d="M220.979 13.9998L220.979 14.4998L220.98 14.4998L220.979 13.9998ZM138 13.9998L138 13.4998L137.5 13.4998L137.5 13.9998L138 13.9998ZM138 44.3333C136.527 44.3333 135.333 45.5272 135.333 47C135.333 48.4728 136.527 49.6667 138 49.6667C139.473 49.6667 140.667 48.4728 140.667 47C140.667 45.5272 139.473 44.3333 138 44.3333ZM234 13.9912L234 13.4912L220.979 13.4998L220.979 13.9998L220.98 14.4998L234 14.4912L234 13.9912ZM220.979 13.9998L220.979 13.4998L138 13.4998L138 13.9998L138 14.4998L220.979 14.4998L220.979 13.9998ZM138 13.9998L137.5 13.9998L137.5 47L138 47L138.5 47L138.5 13.9998L138 13.9998Z" fill="#303F5D"/>
</g>
<defs>
<clipPath id="clip0_4505_2624">
<rect width="413" height="162" fill="white"/>
</clipPath>
</defs>
</svg>
