<?xml version="1.0" encoding="UTF-8"?><svg id="b" xmlns="http://www.w3.org/2000/svg" viewBox="0 0 28.68 390.39"><g id="c"><path d="M27.66,23.85s-.03.09-.03.15c-.12.51-.42.99-.69,1.23-.21.54-.45.75-.96.84-.33.12-.75-.21-1.08-.24-.54-.27-1.08-.21-1.47-.57-.39-.21-.93-.33-1.44-.66-.51-.06-.66-.36-.96-.45-.6-.36-1.08-.63-1.5-.81l-1.44-.87c-.51-.33-.81-.6-1.35-.99-.48-.21-1.02-.63-1.29-1.08-.54-.27-.9-.81-1.23-1.17-.51-.54-.72-.66-1.14-1.17-.18-.42-.57-.69-.72-.99-.27-.45-.36-.66-.57-.96-.21-.3-.72-1.02-1.35-.99-.42-.06-.63-.03-.93.06-.3.12-.36.33-.51.54-.21.42-.39.78-.27,1.05,0,.51-.09,1.32,0,1.86-.12.57.06,1.23,0,1.65-.03.54.15.78.33,1.14.18.33.6.39.78.42.3.03.45-.09.84-.12.21-.03.54-.18,1.02-.21.3.09.63-.18,1.02-.24.45-.06.66-.21,1.14-.3.36-.03.75-.18.99-.21.54-.12.87.42.9.78.03.39.03.6.12.78.03.15.06.36,0,.6-.09.6-.69.45-1.11.66-.48.24-.81.15-1.23.3-.51.18-.87.12-1.23.3-.36.18-.81.12-1.2.3-.36.18-.78.06-1.23.27-.54.03-.84.3-1.23.27-.48.24-.78.12-1.17.27-.57.24-.72.09-1.26.24-.45.21-.93.12-1.23.24-.3.06-.63.09-.99.12-.27.18-.75.27-.96.39-.21.27-.21.48-.51.48h-.09c-.21,0-.33-.21-.45-.45-.15-.3-.24-.81-.33-.99-.09-.24-.12-.3-.3-.72-.12-.3-.24-.57-.18-.78.12-.45.21-.78.81-.75.72-.03,1.11,0,1.74-.09.42-.06.75-.09,1.2-.18.39-.18.78-.87.75-1.65.06-.63-.06-1.62,0-2.25.06-.54,0-1.53,0-2.01.03-.78-.45-1.68-1.05-1.71-.69,0-.78-.06-1.44,0-.63.12-1.17.12-1.77,0-.48.06-.72-.39-.81-.99.06-.27-.06-.45-.06-.72,0-.06.03-.18.06-.27-.03-.06-.03-.12-.03-.21,0-.36.33-.69.84-.78.69-.03,1.08,0,1.77,0,.48.09.63-.03,1.17.03.36.03,1.26-.51,1.32-1.68.03-.57-.12-1.32,0-1.95.06-.75.03-1.35,0-1.86-.12-.57.12-1.32,0-1.86.06-.63.12-1.38-.03-2.01.09-.75-.06-1.29,0-2.04-.12-.39.42-.78.78-.78.72.03,1.14.09,1.8,0,.54.06.99.12,1.56,0,.45.06.84-.03,1.23-.03.12,0,.21,0,.33.03.09-.03.18-.03.3-.03.39,0,.81.12,1.26.03.39.09.9-.03,1.29-.03.12,0,.21,0,.3.03h.12c.42,0,.87.15,1.44,0,.3,0,.6-.03.96-.03.21,0,.39,0,.63.03.39.12.81,0,1.32,0h.24c.24-.03.57-.06.9-.06.24,0,.48,0,.66.06.39.12.66-.03,1.08-.03.09,0,.21,0,.33.03.51.12.84.09,1.41,0h.09c.51,0,.87.45.75.99.06.42.09.57,0,.84-.06.63-.33.99-.84,1.02h-1.44c-.54.06-.99-.09-1.38-.03-.51.09-1.05-.06-1.38,0-.57.12-.9-.06-1.41,0-.42.12-.81-.06-1.38,0-.51-.03-1.08-.06-1.41,0-.39.03-.81-.06-1.41,0-.51.03-.96,0-1.38,0-.42-.06-.93-.12-1.41,0-.39-.09-.99-.09-1.38,0-.69.12-.93.36-.84.81.03.3,1.17.39,2.07.42.36.09.69.06,1.23,0,.45-.03.96,0,1.23,0,.78.03,1.53-.12,2.37,0,.84,0,1.68.03,2.31,0,.45-.12.69.12,1.2,0,.42-.15.78.09,1.2-.03.48.15.69,0,1.05,0,.69-.03.87.45.84.99,0,.39-.03.63,0,.84-.15.57-.15.87-.84.93-.45.09-.78.03-1.05,0-.27-.03-.87,0-1.2,0-.36.12-.69-.03-1.2-.03-.69-.12-1.65,0-2.31,0-.84-.03-1.5,0-2.37,0-.39-.06-.66-.12-1.23,0-.42.09-.81-.06-1.23,0-.3.12-.87-.03-1.26.09-.45.12-.84.18-.84.57-.03.51,1.11.63,2.1.66.36-.12.75.15,1.23,0,.54.09.78.03,1.23,0,.87-.12,1.44.09,2.37,0,.84.06,1.62-.06,2.31,0,.42-.12.66.06,1.2-.03.33-.06.78-.12,1.2,0,.48-.06.72.12,1.05,0,.54-.09.93.42.84.99-.03.39-.12.48,0,.81.03.66-.3.87-.84.96-.48.03-.6.09-1.05,0-.45.12-.96.03-1.2-.03-.51-.09-.93.03-1.2,0-.72.09-1.5.03-2.31,0-.93.09-1.68-.06-2.37,0-.51.03-.84,0-1.23,0-.45.03-.93.03-1.23,0-.42-.03-.81-.06-1.29.09-.33.06-.81.42-.78.75,0,.48.99.48,1.59.57.57-.09,1.29.03,1.89,0h1.8c.51-.09,1.17.06,1.83,0,.48.12,1.2-.06,1.83,0,.48.06,1.05.09,1.8,0,.69-.06,1.14.15,1.8,0,.63.03,1.14.12,1.8,0,.48.06.69.12,1.2,0,.3.06.69.09,1.23-.03.39.15.57,0,1.02,0,.6-.03.78.57.84.99,0,.27-.03.54,0,.99.06.54-.3.9-.81.87-.78.03-1.2.12-1.83.09-.54-.03-1.08-.03-1.65-.03-.63,0-1.38-.09-2.1,0-.75.03-1.59,0-2.25-.03-.48-.03-1.17,0-1.53.03-.57.06-1.02-.03-1.44.03-.72.09-.81.63-.69.84.12.18.36.51.66.81.39.36.51.57.9.9.39.33,1.11.18,1.44.06.54-.3.81-.48,1.26-.66.21-.12.66-.51,1.05-.69.36-.21.63-.42,1.02-.72.27-.18.48-.33.63-.21.24,0,.45.06.66.24.18.36.45.3.9.57.3.33.54.42.81.54.27.12.3.84-.21.75-.24.12-.39.06-.54.15s-.48.36-.66.39c-.33.12-.48.42-.84.48-.42.06-.45.21-.87.48-.33.21-.33.27-.54.3l-.3.18c-.39.24-.33.84.27,1.11.33.3.48.39.69.39.42.24.57.3,1.02.48.33.21.66.33,1.02.45.15,0,.42.15.9.33.27.12.78.12,1.05.36.36.27.66.36,1.05.36.18.12.36.24.84.39.18.09.36.18.36.42Z" style="fill:#fafafa;"/><path d="M28.17,57.45c0,.3-.69,1.23-.78,1.41-.36.33-.39.99-.93.84-.36,0-.63-.03-1.38-.21-.39-.09-.75-.3-.99-.39-.3-.18-.69-.42-1.08-.48-.39-.06-.66-.42-1.05-.42-.36-.06-.6-.48-.93-.57-.51-.12-.99-.66-1.29-.69-.36-.3-.87-.36-1.14-.66-.24-.33-.75-.48-1.05-.81-.36-.42-.69-.33-.96-.78-.33-.21-.72-.48-.93-.93-.42-.42-.66-.75-.84-.96-.36-.18-.42-.69-.78-1.02-.15-.24-.57-.6-.69-1.11-.15-.36-.51-.87-.63-1.14-.24-.33-.39-.72-.57-.93-.21-.3-1.02-.69-1.53-.57-.42.06-.69.03-.87.03-.42.06-.54.3-.78.57-.21.27-.39.72-.27,1.17,0,.54-.03,1.32,0,2.04-.03.54-.06,1.2,0,1.89-.03.54.06,1.02.39,1.23.21.27.57.57.99.51.33-.03.66-.15,1.14-.12.27,0,.57-.21,1.02-.21.39-.18.93-.18,1.23-.24.54-.21,1.11-.21,1.8-.36.42,0,.75.45.84.96.03.24,0,.66.03.84.06.75-.21,1.02-.51.99-.42.03-.84.33-1.23.33-.57.03-.93.27-1.32.24-.39,0-.84.18-1.32.24-.3-.06-.87.24-1.32.21-.39.03-.9.24-1.32.21-.57.15-.87.12-1.32.24-.33.06-.9.18-1.32.21-.51-.03-.81.15-1.32.21-.3.09-.63.09-1.17.24-.78.12-.78.48-1.29.6-.09.03-.15.03-.21.03-.24,0-.39-.12-.42-.33-.09-.24-.18-.69-.3-1.11-.15-.24-.3-.66-.3-.99-.12-.09-.18-.21-.18-.36,0-.06,0-.12.03-.18.18-.45.3-.54.6-.6.57,0,1.02-.18,1.35-.15.36.03.81-.15,1.08-.15.42.06,1.17-.69,1.29-1.44.03-.33-.12-1.29.03-1.8-.12-.3-.12-.72,0-1.23-.06-.75-.03-1.44,0-2.22-.09-.78-.03-1.59,0-2.19-.06-.6.06-1.38-.03-2.22-.09-.69.06-1.59,0-2.19-.15-.66.03-1.41-.03-2.22.06-.78.06-1.56,0-2.16.06-.33-.09-1.56,0-2.04,0-.51.54-.78,1.02-.78.3.03.81.12,1.2.12.24.03.72-.09,1.2,0,.3.03.87-.09,1.26,0,.36.15.75.03,1.26,0,.81-.03,1.05-.48,1.08-.87.09-.21-.06-.54,0-.84.12-.36-.06-.66,0-1.14,0-.54.45-.78.78-.78h.18c.3,0,.72.18,1.05.06.45.12.66.03,1.14.09.18.03.57.12.6.54.03.27-.18.33-.3.45-.33.3-.39.48-.36.81.06.27.03.6.06.78.03.45.51.9.96.9.51,0,1.05.09,1.44-.03.3.12.75.12,1.29.03.3.12.78.12,1.26,0,.12.09.6.06.87,0,.21-.09.39.15.48,0,.66-.03.87.36.84.9-.15.66.09,1.14-.03,1.8-.12.54,0,1.2,0,1.77-.03.6-.15,1.32,0,1.83-.03.54.03,1.2,0,1.8-.06.63.09,1.26,0,1.8-.12.81-.06,1.53,0,2.25,0,.42-.3.9-.87.96-.3.03-.84.06-1.11,0-.45-.03-.87,0-1.02-.33-.12-.24-.66-.72-1.11-.6-.57-.06-.96.12-1.38,0-.15-.06-.6-.06-.87,0-.75,0-1.23.78-.72,1.23.15.33.3.57.48.72.39.54.75.99.99,1.2.3.42.78.51,1.38.45.3-.03.57-.21.93-.48.33-.03.54-.3.81-.39.48-.09.48-.48.99-.6.51-.36.66-.33,1.11-.72.12-.06.54-.24.78-.6.33-.15.36-.45.78-.45.36-.06.72.03.84.3.45.33.6.54.81.63.18.3.6.45.81.66.15.12.24.33.21.54-.03.36-.54.39-.66.27-.57.03-.84.36-1.23.45-.3.24-.78.51-1.05.66-.42.18-.69.6-1.08.69-.21.27-.72.39-1.08.66-.72.39-.57,1.08.03,1.32.15.06.48.21.75.36.24.27.72.54,1.05.54.45,0,.63.33,1.08.36.54.09,1.05.42,1.68.51.63.27.96.3,1.44.45.36.03.51.42.51.66ZM8.76,40.14c.33.42.57.42,1.17.36.48,0,.93.03,1.5,0,.6-.06.87.12,1.41,0,.36-.03.87-.09,1.41,0,.42-.09.87.03,1.44,0,.57-.06.93,0,1.41,0,.36.09.99-.06,1.5,0,.39,0,1.08,0,1.23-.39.09-.21.12-.36,0-.54.03-.54-.45-.93-1.05-.87-.93-.06-1.44,0-2.16,0-.69-.12-1.56.15-2.34,0-.87.12-1.74-.03-2.37,0-.66.09-1.2.09-2.07.03-.36.06-1.14.21-1.23.78.03.21.03.48.15.63ZM15.69,45.18c.57.09.84.06,1.41,0,.45-.03.96,0,1.5,0,.63.03,1.26-.18,1.2-.63-.12-.12.06-.33,0-.6-.03-.42-.57-.66-1.2-.69-.72-.06-.99.09-1.5,0-.54-.03-.96-.12-1.41,0-.36-.06-.84.15-1.44,0-.48.03-.9-.12-1.41,0-.6.15-.9.09-1.41,0-.42.09-1.05-.06-1.5,0-.78,0-1.17.39-1.26.78-.03.33.03.63.15.78.27.3.6.42,1.11.36.51.06,1.05-.12,1.5,0,.6.06.9.12,1.41,0,.33.06.84,0,1.41,0,.48,0,.81-.12,1.44,0Z" style="fill:#fafafa;"/><path d="M7.56,67.26c-.06.48-.54.27-.54.72-.12.39,0,.87,0,1.23,0,.42-.12.9.03,1.23-.03.36.03.87,0,1.29-.06.45.09.9,0,1.26-.12.54-.12.93,0,1.29-.12.54-.06.96,0,1.26-.15.45-.09.75,0,1.26-.12.45.03.75,0,1.26.09.69-.15,1.05-.03,1.71.12.45-.12,1.29-.06,1.71-.15.48-.09,1.29-.15,1.74,0,.66-.27,1.29-.27,1.68-.06.72-.21,1.17-.39,1.65-.21.69-.45,1.08-.57,1.59-.21.54-.57,1.11-.78,1.53-.24.36-.45.45-.48.72-.06.33-.27.54-.54.69-.3.24-.36.54-.84.99-.24.36-.72.69-1.11.72-.42-.03-.78-.42-.93-.78-.24-.33-.78-.75-.87-1.35-.03-.03-.03-.09-.03-.12,0-.33.42-.66.75-.99.27-.33.66-.93,1.05-1.32.27-.6.69-.99.78-1.47.15-.51.48-.93.57-1.59.27-.54.33-1.2.36-1.65-.03-.42.18-1.26.21-1.71s0-1.05.12-1.71c-.09-.69-.03-.99.03-1.71.06-.45-.03-1.17,0-1.68-.15-.66-.03-1.41,0-2.04.03-.72.09-1.35,0-2.01.09-.66.03-1.29-.03-2.04,0-.75-.06-1.32-.03-2.01-.12-.42-.03-.87-.03-1.29,0-.45.27-.78.75-.75.54.03.75-.03,1.26.09.24.06.87.06,1.17.12.48.09.63.15.6.48ZM16.56,67.95c.03.3-.18.3-.3.39-.15.12-.06.12-.24.3-.06.18-.18.39-.06,1.02.03.51-.12,1.17,0,1.8-.09.72-.03,1.23.03,1.83.06.57,0,.81,0,1.08-.06.72.09,1.29,0,1.98-.09.69-.09,1.41,0,2.04.03.6-.12,1.32,0,2.01.09.6-.03,1.41,0,1.98-.03.48-.06.9.03,1.53-.03.63-.12.96,0,1.5.06.48,0,.96.03,1.53,0,.66-.03,1.11,0,1.56,0,.57-.48.93-1.02,1.02-.48.12-.99.03-1.26,0-.72-.09-1.05-.48-.99-1.02.06-.57-.03-1.08-.03-1.56-.06-.45.06-.87.03-1.53.03-.33-.12-.9.03-1.5l.03-1.53c-.06-.72.03-1.17,0-1.98-.15-.81.06-1.23,0-2.01-.09-.6.06-1.32,0-2.04.12-.72.09-1.41,0-1.98,0-.54-.12-1.02-.03-1.53-.12-.45.06-.93-.03-1.5.03-.42.03-.9-.03-1.53-.06-.6.06-.78,0-1.41-.09-.45-.03-1.08.51-1.11.54-.09,1.14.03,1.59.06.45-.03.72,0,1.23.09.3.03.42.21.48.51ZM26.04,67.17c0,.21-.18.3-.27.48-.39.36-.3.66-.3.96-.06.36-.03.57.03.87,0,.57-.09.99,0,1.44-.03.54.09,1.11,0,1.47,0,.57.12,1.14,0,1.47-.09.45-.09,1.02-.03,1.44-.06.66-.03,1.41,0,2.16,0,.87.12,1.59,0,2.16.06.6.03,1.56,0,2.16-.09.72-.15,1.53,0,2.16-.15.66.03,1.2,0,1.74.09.54,0,1.26.03,1.71.09.63-.06,1.2,0,1.77.06.51,0,1.26.06,1.74.09.3.09.6,0,1.08,0,.57-.48.75-.99.81-.48-.06-.78-.03-1.35,0-.09.03-.18.03-.3.03-.45,0-.81-.3-.69-.84.06-.33-.06-.75.03-1.32-.03-.42-.06-1.02.03-1.71-.12-.48-.12-1.08,0-1.68.12-.48-.03-1.05.03-1.68.06-.63.06-.96,0-1.65.09-.66.03-1.38,0-2.16.09-.81.09-1.41,0-2.16-.12-.84-.12-1.47,0-2.16-.09-.57,0-1.56,0-2.16.06-.42.09-1.14,0-1.74,0-.69-.15-1.14-.03-1.71.09-.6-.15-1.08-.03-1.74-.12-.48.12-1.11-.03-1.74.06-.24-.03-.78-.03-1.17.03-.45.24-.72.69-.72h.42c.39,0,.66.03.99.06.36.03.69.06,1.2.12.21.03.51.15.54.45v.06Z" style="fill:#fafafa;"/><path d="M7.92,101.67c0,.27-.03.54-.33.57-.24.15-.45.36-.6.57-.09.24,0,.42-.12.54-.18.75-.3,1.59-.39,2.1-.03.27-.03.66-.09,1.05s-.03.75-.15,1.05c-.06.63-.03,1.14-.21,1.5.03.39-.06,1.14-.12,1.53-.09.51-.09.96-.09,1.41,0,.54-.03,1.08,0,1.65-.12.51.09,1.05.03,1.56-.09.39.12.99.06,1.59-.06.6.3.93.24,1.5-.06.48.36.96.27,1.53-.06.36.27.72.27,1.02,0,.51.27.51.3.81.03.15.15.45.09.63.12.39-.33.72-.6.75-.15-.03-.66.24-.93.39-.21.09-.51.3-.78.3-.06,0-.12,0-.18-.03-.63-.06-.66-.6-.93-1.05-.06-.36-.3-.69-.3-1.11-.15-.42-.12-.6-.24-1.11-.21-.48-.06-.6-.18-1.11-.15-.27-.06-.69-.15-1.11-.15-.75-.21-1.41-.18-2.22.06-.66-.03-1.41-.06-2.22-.03-.12-.03-.21-.03-.33,0-.27.06-.54.06-.99,0-.33,0-.93.06-1.35.12-.33-.09-.96.09-1.32.15-.57,0-.75.12-1.35-.06-.54.24-.69.18-1.32-.06-.48.3-.84.18-1.35-.09-.39.21-.81.18-1.32-.03-.36.27-.84.21-1.32-.03-.24.12-.69.12-.84-.03-.45.03-1.62.9-1.65.63,0,.99.24,1.47.27.51.24.96.15,1.29.27.21.03.54.21.54.51ZM26.13,118.32s-.03.09-.03.12c-.09.27,0,.63-.12,1.14-.12.54-.03.9-.18,1.23-.06.27-.45.36-.69.48-.36.06-1.05.24-1.41.18-.63.12-1.59.27-2.22.15-.69-.12-1.41.21-2.22.06-.33-.06-.96.15-1.41-.03-.54-.21-.9.09-1.5-.09-.6-.18-1.11-.03-1.53-.18-.48-.15-1.14-.21-1.47-.39-.39-.21-.96-.27-1.32-.6-.42-.15-.87-.51-1.08-.9-.33-.3-.45-.63-.69-1.23-.18-.36-.3-.84-.27-1.62.03-.54.03-1.26.39-1.92.06-.33.21-.51.42-.87s.33-.66.48-.81c.06-.21.36-.39.6-.45.39-.09.51.09.81.27.33.09.51.24.69.42.33.09.57.51.54.72.12.3-.27.63-.39.96-.15.3-.39.84-.36,1.26.03.6.24.84.69,1.26.42.27.93.48,1.65.63.54.18,1.41.27,1.98.18.66.12,1.14.15,1.56.03.45-.09.9.03,1.38-.03.42.03.81-.18,1.38-.09l1.35-.15c.39.03.87-.18,1.41-.21.18-.12.69-.21.93-.15.24-.09.63.3.63.63ZM11.43,104.19c.45-.24.84-.12,1.47-.39.6-.15.96-.06,1.44-.24.45-.15.9-.27,1.38-.21.45-.09.9-.21,1.41-.15.45.09.84-.12,1.44-.06.48-.06.9-.09,1.41-.03.75.12,1.44-.06,2.22.03.24.15.78-.06,1.11.09.36.15.66.06,1.11.15s.66.54.72.78c.03.87-.18,1.08-.21,1.44-.09.48-.36,1.08-.96.96-.48-.09-1.26-.12-1.89-.18-.51-.06-.93.06-1.32-.06-.72-.21-1.02.06-1.68-.03-.6-.06-.93.15-1.41.03-.39-.03-.93.18-1.41.12-.54-.06-.9.12-1.38.18-.51.09-1.08.27-1.38.3-.42.18-1.08.36-1.59.39-.45-.12-.81-.24-.78-.81,0-.27-.03-.51-.15-.72-.09-.15.06-.48-.12-.69-.15-.3.09-.72.57-.9Z" style="fill:#fafafa;"/><path d="M12.87,139.14c-.12.27-.33.21-.48.27-.39.15-.48.39-.78.54-.39.27-.48.45-.69.57-.45.27-.69.54-1.08.9-.3.39-.63.54-.9.81-.54.39-.96.66-1.14,1.05-.15.36-.3.66-.3,1.23.09.33-.06.51-.03.93.03.57.06.87-.06,1.23,0,.6-.36,1.59-.3,2.13-.12.66.09,1.53.54,1.8.57.36.72.72,1.2.9.45.33.87.54,1.08.9.39.18.54.6.81.72.27.18.6.48.81.75.36.39.6.57.54.99-.06.39-.15.45-.33.69-.27.36-.66.78-.9,1.05-.06.21-.27.33-.63.36-.39.06-.54-.12-.69-.42-.3-.3-.39-.57-.66-.84-.33-.18-.54-.57-.72-.75-.21-.09-.66-.6-.75-.72-.21-.12-.39-.3-.78-.66-.57-.21-1.05.12-1.32.81-.33.45-.36.81-.69,1.14-.39.57-.54.96-.87,1.2-.27.45-.63.93-.93,1.17-.18.42-.66.78-1.08.84-.36-.06-.72-.33-.84-.66-.24-.33-.78-.78-.87-1.38-.03-.06-.03-.09-.03-.15,0-.36.51-.75.84-1.11.12-.12.42-.54.63-.78.24-.3.33-.36.6-.81.3-.27.42-.42.51-.81.06-.15.36-.57.42-.84.15-.24.33-.48.45-.99.06-.3.24-.66.21-.84.21-.51.33-1.2.45-1.92.09-.69.3-1.2.27-1.98-.09-.75.21-1.44.12-1.95-.06-.51-.06-1.41.06-1.98.03-.54.09-1.23.03-1.98.06-.69-.12-1.02,0-1.71l-.03-1.71c-.09-.48.03-1.11,0-1.71-.06-.42.03-1.02-.03-1.71.03-.3.03-.87-.03-1.29-.06-.72.33-.72.87-.81.45,0,.72,0,1.14.06.33.06.84.09,1.11.06.21-.03.72.09.6.42-.06.48-.66.39-.63,1.08,0,.69-.06,1.2.03,1.65-.15.54-.06,1.17-.09,1.65-.03.42.12.87.03,1.14-.03.75.03,1.17.36,1.26.45.12.75-.24,1.14-.63.27-.18.21-.39.54-.63.36-.15.24-.54.66-.57.36-.03.69.12.81.27.15.24.48.42.75.6.36.3.54.48.81.6-.03.15.36.3.24.57ZM.03,144.24v-.09c.06-.24.06-.78.24-1.14.03-.27.03-.72.24-1.11-.03-.48,0-.72.15-1.14.09-.48-.03-.66.12-1.14-.03-.45,0-.9.03-1.14.03-.57.18-.93.78-1.02.69.15,1.32.18,2.01.27.3-.03.36.06.39.33-.03.18-.51.45-.39.57-.15.42-.15.72-.09,1.11-.06.24.06.66-.12,1.11.09.51-.09.75-.09,1.11-.03.24-.21.9-.15,1.11-.06.21-.09.84-.18,1.11.03.6-.15.75-.36,1.08-.12.3-.39.21-.57.27-.39.03-.33-.03-.6-.24-.39-.15-.69-.06-.9-.39-.24-.24-.51-.39-.51-.66ZM28.2,135.18v.06c-.06.45-.3.87-.81.99-.6.03-1.2.06-1.74,0-.69-.15-.78-.06-1.38-.06-.66.15-1.02.96-1.02,1.38.03.45-.03,1.05,0,1.59-.03.51-.06.87,0,1.5.06.51.12,1.05,0,1.53.06.39.03.93,0,1.53v1.5c0,.69-.15.99,0,1.53-.06.66-.03,1.08,0,1.5.09.39-.09.84,0,1.26-.09.51.03.81,0,1.29-.12.42.12.78.03,1.26-.03.54,0,.96.03,1.29.09.6-.06,1.17.03,1.71,0,.81.06,1.26-.18,1.86-.15.48-.54,1.05-.93,1.35-.33.36-.81.51-1.29.51-.48.24-1.05.09-1.35.18-.51-.03-1.11-.06-1.8.06-.54,0-1.11-.18-1.2-.75-.15-.36-.48-1.5-.33-1.92.06-.24.18-.66.66-.66.75-.03,1.41.03,2.1.03,1.05-.03,1.02-.69,1.05-1.23.06-.87-.12-1.35.03-2.22.06-.69.06-1.59,0-2.28.06-.9-.12-1.44,0-2.31-.06-.66.06-1.56,0-2.34-.03-.81.12-1.65,0-2.31,0-.69.03-1.59,0-2.31-.03-.27-.12-.72,0-1.2,0-.45.06-.96-.03-1.35.03-.66-.15-1.08-.51-1.44-.24-.39-.72-.45-.87-.45-.42.03-.81-.06-1.11-.06-.36.06-.99.12-1.32,0-.57.09-.99.12-1.32,0-.54-.12-1.11-.03-1.71.03-.66,0-1.26.06-1.74,0-.66.12-.75-.42-.81-.99.06-.39-.03-.6,0-1.08.03-.36.27-1.05.81-.99.48.03,1.08.09,1.74,0,.54-.03,1.23.09,1.71.03.84.06,1.38-.03,2.25,0,.75.03,1.47,0,2.25,0,.6.09,1.47-.06,2.25,0,.78,0,1.44.03,2.25,0,.42.06.87-.09,1.2,0,.48,0,.69-.15,1.23-.03.39-.06.54-.06,1.02,0,.6-.03.69.42.81.99-.15.42,0,.72,0,1.02Z" style="fill:#fafafa;"/><path d="M24.33,182.31c0,.09,0,.21-.03.3,0,.69-.09,1.2-.18,1.71-.06.69-.21.99-.39,1.53-.21.63-.72,1.02-.99,1.5-.3.51-.72,1.08-1.17,1.26-.3.12-.48.48-.84.63-.3.12-.54.51-.87.51-.45.03-.36.36-.93.42-.45.06-.51.24-.96.3-.72.09-1.44.27-1.98.39-.63.06-1.41.09-2.04.12-.27.03-.51.03-.75.03-.54,0-.99-.06-1.41-.18-.3-.09-.75-.09-1.11-.24-.3-.12-.81-.06-1.08-.36-.45-.24-.63-.21-.93-.54-.21-.12-.66-.3-.75-.72-.18-.12-.36-.54-.48-.96-.15-.18-.27-.75-.18-1.17-.09-.51.15-.93.33-1.53.24-.3.39-.75.93-1.17.39-.39.78-.66,1.29-.72.45-.21,1.02-.18,1.56-.3.36-.09,1.05.09,1.47.21.57.15.96.36,1.44.57.33.15.9.63,1.23.96.33.33.66.69.87,1.23.24.3.27.45.54.75.09.27.66.54.99.57.39-.03.66-.21.99-.48.33-.24.48-.51.84-.87.15-.21.39-.66.54-.99.24-.54.39-1.23.45-1.5l.06-.45c.09-.78-.06-1.74-.42-2.25-.18-.51-.57-.87-1.08-1.26-.45-.42-1.02-.54-1.59-.72-.63-.09-1.38-.33-1.95-.24-.54.12-.87.03-1.23.12-.3.09-.72.12-1.23.27-.48.12-.75.33-1.17.36-.27.18-.72.21-1.14.54-.48.3-.66.27-1.05.6-.39.33-.78.54-1.02.69-.48.12-.75.66-1.02.75-.27.39-.69.51-.96.81-.33.3-.54.75-1.05.78-.45.03-.6-.18-.84-.48-.27-.36-.45-.54-.84-1.05-.33-.24-.39-.66-.39-.81.06-.39.06-.63.45-.75.39-.33.69-.63,1.32-1.05.66-.42.69-.69,1.2-.99.42-.24.54-.81,1.17-1.14.39-.21.66-.87,1.14-1.11.36-.18.45-.6.78-.84.3-.24.6-.51.78-.87.12-.15.39-.45.75-.81.15-.18.45-.45.75-.84.09-.24.51-.54.75-.81.21-.21.42-.51.66-.75.21-.21.27-.48.42-.57.3-.48.06-.9-.42-.81-.21.09-.3.03-.45.09-.42.24-.69.06-1.02.27-.42.03-.75.12-1.05.24-.72.24-1.2.33-1.68.39-.48.06-1.23.33-1.68.36-.57.03-.75-.45-.81-.75-.24-.45-.15-.72-.33-1.17-.18-.18-.12-.54-.12-.69.03-.45.51-.63.81-.66.42-.06.93.03,1.47-.15.6-.21,1.05-.03,1.47-.15.6-.18,1.08-.12,1.47-.24.36-.18.72-.09,1.29-.18.75-.15,1.38-.18,2.01-.42.51-.03.78-.06,1.53-.33.21-.09.39-.24.63-.24.12,0,.24.03.42.15.33.18.78.72,1.08.93.45.33.51.54.93.81.15.12.45.27.33.66-.15.39-.54.33-.84.63-.24.21-.39.51-.69.66-.39.36-.39.63-.63.81-.27.18-.48.75-.72.84-.3.12-.33.63-.66.81-.51.3-.63.72-.96,1.05-.36.36-1.02,1.23-1.29,1.53-.45.51-.36.99.3.9.24,0,.84-.15,1.08-.21.36.09.78-.12,1.26-.03.63.12.99-.06,1.38.09.45.15.93.09,1.29.3.42.24.84.21,1.29.54.36.27.93.36,1.32.81.3.33.63.69.96.96.27.45.42.78.72,1.2.18.45.45.99.48,1.35.06.45.18.9.18,1.26ZM13.8,187.83c.09-.45-.24-.75-.36-.93-.36-.42-.45-.6-.75-.72-.33-.03-.39-.3-.66-.3s-.42-.15-.63-.12c-.42.03-.66.03-1.02.27-.21.15-.33.45-.36.69-.06.39.21.9.48.99.33.12.36.42.84.45.63.12.84.36,1.53.21.63,0,.87-.24.93-.54Z" style="fill:#fafafa;"/><path d="M27.81,205.02c0,.42-.3.6-.48.69-.48.45-.69.51-.9.69-.21.33-.78.45-1.02.45-.27-.03-.42-.18-.63-.51-.33-.21-.33-.48-.63-.84-.27-.39-.51-.75-.75-1.11l-.45-.63-.39-.42c-.45-.51-.45-.78-.81-.99-.48-.27-.51-.72-1.02-.99-.39-.27-.63-.63-.63-.9v-.06c.03-.36.18-.6.39-.72.36-.33.48-.6.93-.81.24-.18.42-.36.6-.36.03,0,.09,0,.12.03h.06c.27,0,.51.15.69.39.18.12.54.36.63.6.33.24.6.57.9.9.48.54.81.66,1.05,1.11.27.48.39.33.6.78s.48.42.69.84c.21.45.45.45.63.84.18.36.36.39.42.93v.09Z" style="fill:#fafafa;"/><path d="M23.46,237.39v.12c-.03.48-.06,1.32-.15,1.71-.15.6-.27.96-.42,1.44-.21.54-.36.96-.66,1.23-.27.24-.66.87-.93.99-.45.21-.66.66-1.14.75-.42.09-.72.39-1.32.54-.54.12-.96.3-1.53.3-.36.12-.75.15-1.14.15h-.78c-.6,0-.93-.12-1.32-.09-.6-.03-1.08-.15-1.47-.39-.45-.27-.78-.15-1.11-.54s-.75-.42-.9-.72c-.21-.42-.57-.39-.69-.96-.09-.36-.42-.78-.48-1.2-.06-.39-.24-.78-.27-1.35-.03-.36-.09-.9-.06-1.56.03-.81-.36-1.62-1.29-1.92-.39-.12-.75-.18-.93-.42-.45-.18-.75-.15-.9-.45-.15-.27-.48-.24-.6-.54-.09-.21-.36-.24-.48-.63-.09-.33-.24-.39-.24-.66s-.15-.45-.15-.87v-.18c.06-.45.15-1.05.51-1.8.03-.21.12-.39.45-.72.24-.21.36-.33.66-.45.18-.06.48.06.72.3.3.15.45.24.75.48.24.21.54.36.48.66.03.45-.18.39-.18.66-.03.18-.21.27-.21.6.06.57.57.84.87.96.57.21,1.23-.12,1.32-.72.09-.36.21-.66.15-.96.24-.66.27-1.26.33-1.83.12-.39-.39-1.05-.75-1.11-.36,0-.33-.27-.63-.27-.42-.09-.42-.21-.84-.36-.54-.18-.63-.39-1.08-.63-.48-.15-.78-.51-1.23-.87-.39-.33-.6-.63-.57-1.02.03-.33.06-.48.33-.72.09-.15.39-.36.63-.6.21-.21.33-.54.87-.51.3.03.42.3.66.39.27.21.3.36.69.45.42.09.63.42.93.51.45.12.6.3.96.36.39.15.96-.21,1.05-.54.18-.54.21-1.14.33-1.44.18-.51.06-1.08.15-1.35.15-.45.03-1.11.15-1.44.15-.42,0-.87.12-1.53.06-.39.24-.75.66-.75h.06c.45.03.9.21,1.47.24.57.15.81.24,1.29.27.33.12.63.3.57.69-.03.33-.3.36-.54.63-.18.24-.09.33-.3.84-.06.39-.33,1.14-.36,1.8-.03.63-.39,1.41-.36,1.86-.21.6-.09.87-.18,1.02-.18.36-.15.84-.24,1.38-.09.6-.27.87-.27,1.35,0,.54-.21.96-.24,1.38-.03.39-.3.9-.27,1.35,0,.42-.12.54-.21,1.05-.12.36-.24.9.18,1.44.3.36.6.42,1.17.33.33.15.66-.06,1.23,0,.33-.09.9.3.81.69-.15.72-.09,1.17-.3,1.62-.03.6-.27.93-.72.93-.3,0-.45-.12-.69-.03-.24.09-.33-.09-.63-.03-.33.06-.51-.03-.69-.03-.45-.03-1.11.75-1.11,1.29-.03.51.03.51.06,1.17.03.6.3.72.51,1.23.15.36.63.63,1.11.87.45.3,1.08.18,1.83.21s1.14-.18,1.65-.3c.42-.12.96-.3,1.29-.78.33-.21.57-.75.78-1.26.18-.57.24-1.23.27-1.77-.03-.69-.09-1.17-.24-1.89-.12-.36-.21-.51-.3-.93-.06-.3-.36-.45-.39-.87-.03-.3-.39-.39-.48-.84-.09-.48-.42-.42-.51-.84s-.45-.39-.6-.78c-.12-.3-.27-.3-.54-.6-.18-.06-.39-.51-.39-.84,0-.3.42-.75.75-.93.42-.33.69-.9,1.35-.84.42.03.72.15.93.51.15.27.3.57.48.69.3.33.45.42.66.81.21.24.33.57.63.84.06.36.45.66.57.87.21.39.27.72.48.93.18.3.3.81.48,1.17.12.45.3.96.42,1.47l.12.99c-.03.45.09.72.09,1.14Z" style="fill:#fafafa;"/><path d="M26.91,263.01c0,.3-.03.66-.03,1.02,0,.33-.09.63-.12.96-.06.51-.21.93-.21,1.11-.03.36-.3.51-.33.93-.21.42-.21.66-.42.9-.06.24-.24.51-.54.87-.24.33-.3.51-.6.78-.33.27-.57.57-.72.75-.12.09-.6.6-.75.63-.39.06-.51.48-.78.54-.27.21-.36.36-.81.51-.39.12-.36.33-.87.45-.42.09-.39.3-.87.42-.3.06-.36.27-.81.39-.39.12-.54.27-.96.33-.33.06-.51.24-.96.33-.39.09-.6.21-.87.24-.09.03-.15.03-.24.03-.45,0-.69-.36-.93-.93-.15-.45-.33-.6-.48-.9-.12-.18-.39-.54-.3-.81.15-.42.3-.33.51-.45.12-.06.39-.09.54-.15.57-.15.81-.18,1.23-.3.48-.15.93-.36,1.5-.57.69-.27,1.08-.63,1.53-.72.66-.15.93-.72,1.32-.9.36-.21.63-.57,1.05-1.02.33-.42.42-.75.87-1.23.3-.33.36-.96.57-1.44.18-.42.15-1.23.21-1.68-.03-.42-.09-.9-.09-1.2-.12-.42-.21-.75-.36-1.11-.18-.33-.21-.66-.45-1.02-.3-.21-.18-.51-.6-.87-.33-.3-.3-.6-.6-.72-.42-.18-.54-.69-.9-.81-.42-.15-.6-.51-.96-.63-.36-.15-.66-.36-1.02-.45-.42-.09-.63-.33-1.26-.42-.45-.06-.81-.24-1.29-.21-.42.03-.3.36-.15.51.15.15.3.3.21.54,0,.27-.39.45-.45.6-.3.54-.48,1.08-.45,1.38-.12.63-.36,1.02-.42,1.5-.06.48-.3.99-.39,1.44-.09.54-.39.99-.48,1.44s-.45.96-.54,1.41c-.09.51-.3.57-.48,1.14-.06.36-.48.78-.57,1.2-.09.36-.54.87-.69,1.14-.24.39-.39.78-.78,1.08-.33.51-.66.66-.81.93-.24.42-.75.51-1.02.84-.27.33-.84.36-1.14.57-.3.21-.96.24-1.77.18l-.51-.06c-.45-.06-.99-.33-1.35-.63-.3-.06-.69-.39-.96-.72-.24-.33-.48-.69-.63-.9-.24-.39-.39-.81-.48-1.05-.15-.27-.36-.81-.33-1.14-.06-.42-.21-.84-.21-1.17-.03-.21-.06-.48-.06-.81v-.72c0-.36.03-.78.09-1.11.12-.51.18-.9.33-1.44.12-.36.24-.99.51-1.38.24-.39.42-1.02.66-1.32.24-.45.45-.81.84-1.2.18-.33.66-.69.96-1.14.36-.24.54-.6,1.08-.99.54-.39.66-.66,1.23-.84.3-.09.51-.42.81-.48.45-.09.66-.42.9-.45.45-.03.63-.33.93-.36.39-.03.63-.18.96-.3.6-.24,1.41-.36,1.95-.42.75-.06,1.26-.12,1.98-.12.78,0,1.17.03,2.16.12.24-.09.6.06,1.08.18.36.09.72.06,1.08.27.3.03.66.15,1.02.33.48.18.81.42,1.02.42.39.06.72.51.99.54.24.03.48.36.84.6.33.21.51.6.96.81.42.21.39.63.69.78.24.12.39.63.66.9.18.18.27.63.54.96.39.45.3.72.42,1.02.21.36.15.78.27,1.08.18.42.09.69.24,1.11.03.21.06.6.06,1.08ZM10.92,256.08c-.33,0-.54.21-.81.39-.51.12-.42.3-.78.45-.42.24-.54.36-.9.72-.3.3-.69.66-.87.81-.12.3-.48.51-.69.93-.21.45-.42.63-.63.99-.12.24-.36.72-.57,1.08-.12.39-.3.72-.39,1.11-.21.42-.09.81-.24,1.14-.18.36-.09.78-.09,1.14-.15.36.12.57.06,1.02-.03.42.18.75.24,1.14.24.48.27.63.54.84.18.24.48.42.84.39.39-.03.6-.12.87-.3.3-.21.45-.45.69-.69.36-.36.48-.78.66-.9.21-.15.21-.69.45-.87.36-.27.39-.78.69-1.32l.27-.6c.24-.39.45-1.35.69-1.77.21-.36.24-.99.42-1.26.18-.27.09-.66.3-.99.24-.39.21-.72.33-1.29.09-.39.21-.72.27-1.11.12-.66-.87-1.23-1.35-1.05Z" style="fill:#fafafa;"/><path d="M26.73,292.71c.09.6.27,1.35.18,1.92,0,.51-.06,1.02-.15,1.71-.12.54-.3,1.02-.42,1.68-.24.66-.36,1.14-.75,1.59-.24.45-.66.9-1.02,1.38-.39.21-.48.66-.75.75-.3.09-.45.54-.81.66-.48.15-.54.54-.87.6-.42.06-.75.42-.93.48-.33.27-.69.24-.9.39-.27.12-.69.3-.9.36-.36.06-.57.36-.9.33-.48,0-.57.33-.93.33-.6.3-1.29.51-1.86.57-.36.12-.54.24-.93.27-.45.21-.75.27-.96.27-.39,0-.93.36-1.17.3-.24.03-.6.18-.96.18-.09,0-.21-.03-.3-.06-.54-.06-.9-.63-.93-1.02-.24-.18-.15-.48-.39-.93-.12-.21-.42-.42-.3-.87.06-.42.21-.6.6-.69.39-.09.63-.06.99-.09.42.03.96-.21,1.5-.24.54-.03,1.02-.27,1.53-.27.48-.15.87-.24,1.44-.39.36-.06.96-.24,1.38-.51.36,0,.72-.18,1.2-.45.36-.15.72-.18,1.14-.54.42-.06.69-.42,1.05-.63.42-.09.51-.57.93-.75.42-.39.45-.39.78-.87.12-.39.45-.51.6-.99.21-.27.18-.6.39-1.17.12-.24.15-.78.12-1.32-.12-.3-.09-.69-.09-1.2-.21-.33-.27-.78-.3-1.02-.24-.27-.24-.66-.48-.84-.3-.15-.45-.54-.6-.69-.27-.3-.39-.39-.81-.51l-.93-.39c-.21-.09-.6-.27-1.02-.21-.51.06-.72-.18-1.17-.06l-1.44.06c-.45-.03-.96.18-1.38.24-.51.15-1.05.09-1.38.36l-1.35.45c-.51.09-1.02.66-1.62.66-.66,0-1.14.66-1.59.72-.69.09-.99.6-1.56.75-.48.12-.78.66-1.56.81-.45.09-.87.69-1.41.75-.45.06-.81.42-1.26.63-.24.21-.45.18-.63.18-.33.03-.66-.36-.75-.63-.12-.42-.39-.57-.42-.87s-.33-.39-.33-.75c-.18-.03-.24-.36-.24-.6,0-.45.24-.63.45-.66.39-.12.51-.24,1.02-.42l1.05-.42c.51-.09,1.02-.39,1.56-.66.6-.09,1.14-.45,1.56-.66.48-.12,1.05-.24,1.38-.6.39-.21.87-.3,1.38-.54.54-.12.93-.3,1.35-.51.57-.27,1.02-.3,1.38-.48.36-.24.84-.3,1.41-.36.39.03.96-.36,1.44-.3.42-.15.93-.18,1.47-.21.63,0,1.11.09,1.47-.06.54.09,1.32.06,1.83.12.72.03,1.26.09,1.68.36.48.21,1.14.33,1.53.6.36.24.81.57,1.29.84.42.27.63.69,1.08,1.11.39.36.54.96.81,1.38l.48,1.65ZM21.75,284.7c.03-.18.06-.27.21-.54.51-.51.57-.51.96-.63.36-.12.75.36,1.08.48.21.33.75.6.93.72.09.24.45.48.87.75.42.33.51.66.57.96.03.3-.12.33-.3.63-.12.21-.15.21-.3.3-.06.15-.24.27-.63.33-.54.06-.93-.54-1.23-.81-.33-.3-.48-.51-.9-.78-.33-.09-.6-.48-.96-.75-.27-.12-.39-.3-.3-.66ZM28.68,283.71c0,.24-.12.39-.3.63-.15.18-.18.3-.33.33-.24.36-.45.36-.72.33-.45-.06-.69-.69-1.11-.84-.3-.12-.48-.72-.87-.78-.18-.03-.33-.39-.72-.54-.42-.15-.6-.57-.6-.81s.09-.42.27-.6c.42-.45.66-.66.84-.66.03,0,.09,0,.12.03h.09c.3,0,.75.21.96.48.51.3.69.66.93.72.18.3.45.48.9.75.24.36.48.63.54.96Z" style="fill:#fafafa;"/><path d="M19.56,317.58s-.03.09-.03.12c0,.24-.27.33-.45.42-.63.3-.93.75-1.14.96-.33.3-.66.84-.96,1.11-.45.42-.63.75-1.05,1.11-.51.48-.78.93-1.08,1.11-.39.21-.6.87-1.08,1.08-.42.18-.54.69-.9.9-.45.27-.72.63-.87.87-.36.36-.66.6-.9.9-.33.24-.57.45-.9.87-.18.27-.24.48-.24.66,0,.45.6,1.08.84,1.35.39.33.66.69,1.05,1.11.33.51.63.81,1.02,1.14.39.51.75.75,1.02,1.11.36.27.54.78.99,1.17.42.36.51.87.99,1.17.21.48.81.78.99,1.14.3.54.63.78.96,1.2.3.39.48.84.93,1.23.21.3.63.84.57,1.14-.09.51-.18.66-.48.78-.21.15-.6.39-.75.54-.15.27-.54.33-.75.51-.15.3-.33.24-.6.27-.36,0-.78-.36-.84-.63-.18-.21-.45-.51-.6-.93-.36-.36-.42-.51-.63-.9-.09-.36-.51-.54-.6-.9-.09-.39-.51-.48-.63-.87-.09-.27-.57-.51-.66-.87-.09-.36-.54-.51-.66-.84-.12-.36-.51-.69-.69-.84-.24-.33-.57-.63-.69-.84-.18-.42-.63-.6-.93-1.08-.42-.27-.72-.69-.93-1.08-.45-.3-.51-.78-.93-1.08-.21-.39-.6-.75-.99-1.08-.12-.21-.42-.54-.72-.81-.24-.18-.39-.48-.39-.81,0-.09,0-.15.03-.24.06-.36-.03-.54.24-.81,0-.24.45-.45.57-.81l.72-.75c.21-.33.3-.3.63-.6.48-.39.75-.78,1.23-1.23.09-.12.33-.48.6-.63.24-.15.39-.54.57-.63.45-.48.78-.75,1.17-1.29.21-.24.24-.48.6-.63.24-.09.27-.51.57-.66.39-.21.33-.6.75-.87.42-.27.42-.48.72-.93.12-.21.48-.57.69-.96.3-.33.42-.51.69-.96.18-.3.27-.45.6-.45h.18s.06-.03.09-.03c.12,0,.24.18.42.24.45.15.81.57,1.14.69.45.12.6.45.99.6.21.06.51.27.51.54Z" style="fill:#fafafa;"/><path d="M21.51,361.59c-.03.81-.24,1.35-.24,2.01-.12.51-.06.81-.18,1.02-.12.3-.15.75-.24.99-.12.33-.06.54-.27.96-.21.48-.33.54-.33.96-.21.36-.33.54-.39.93-.12.45-.45.48-.45.9-.12.39-.42.66-.51.84-.12.3-.27.48-.57.81-.12.18-.48.6-.66.78-.12.24-.54.51-.69.75-.36.3-.48.39-.78.69-.39.21-.48.36-.87.63-.15.15-.9.6-1.35.84-.57.36-1.05.63-1.41.63h-.09c-.06.03-.12.03-.18.03-.33,0-.48-.3-.6-.63-.09-.21-.24-.51-.54-.87-.27-.24-.48-.63-.36-.9-.15-.33.09-.66.51-.75.39-.09.6-.36.84-.45.54-.18.54-.51.87-.54.36-.03.42-.39.75-.54.24-.12.75-.51.99-.87l.33-.36c.36-.42.75-.87,1.05-1.38.27-.45.66-1.08.78-1.5.33-.51.39-1.14.57-1.65.18-.57.21-.99.39-1.74.09-.72.09-1.26.21-1.83,0-.63.06-1.11.06-1.89.06-.18-.15-.75-.03-1.44,0-.54-.03-1.32-.21-1.89-.15-.51-.18-1.2-.54-1.65-.3-.39-.54-.75-1.02-.69-.39,0-.87.15-1.38.69-.27.3-.45.57-.63.75-.3.3-.42.6-.57.9-.09.45-.36.75-.51.99-.03.48-.36.6-.42.96-.15.63-.48.84-.57,1.56-.03.45-.42.93-.45,1.32-.03.57-.3.93-.39,1.32-.12.45-.06.87-.24,1.26-.12.51-.06.81-.12,1.35-.09.3,0,.42-.06.84.06.21-.09.51-.03.69.06.6-.36.81-.84.93-.42.12-.69.06-1.02.27-.15.09-.54.12-.81.12-.36-.03-.6-.24-.75-.69-.21-.45-.33-.75-.42-1.35-.06-.45-.15-.72-.15-1.29-.12-.36-.09-.69-.18-1.26.06-.42-.03-.96-.09-1.26-.03-.12-.06-.27-.06-.39,0-.33.09-.66,0-.93-.03-.09-.06-.18-.06-.3,0-.3.12-.63.06-1.02v-.6c0-.48.03-.9.06-1.35-.03-.78.06-1.2.18-1.95-.06-.72.18-1.32.24-1.95.09-.69.21-1.14.33-1.92,0-.42.21-.78.24-1.35.03-.51.18-.78.15-1.2-.06-.3.42-.75.69-.75h.06c.45.09,1.11.12,1.44.27.45.18.69.12,1.23.27.33.15.51.33.42.69,0,.33-.54.36-.66.72-.12.33-.24.63-.39,1.14-.18.51-.21,1.05-.3,1.26-.24.57-.09.93-.24,1.29-.21.51-.12,1.17-.21,1.56-.12.51-.06,1.11-.12,1.5-.06.45.33.78.63.09.18-.51.21-.78.51-1.26.24-.3.27-.78.63-1.17.21-.21.39-.84.81-1.14.27-.21.48-.81.78-.96.45-.21.57-.66,1.11-.75.33-.06.48-.39,1.02-.48.24-.03.84-.33,1.29-.27.39.09.87.09,1.47.24.39.09.84.3,1.17.66.42.27.72.63.87.96.3.45.45.72.63,1.23l.45,1.38c.15.36.21.93.24,1.41-.06.51.12.9.15,1.41v.15c0,.3.06.63.06.9,0,.09,0,.18-.03.27-.03.57-.03,1.14-.06,2.04Z" style="fill:#fafafa;"/><path d="M27.75,384c.21.66.36.99.36,1.53v.27c-.06.87-.06,1.26-.36,1.8-.18.39-.42.57-.45.78-.21.33-.42.51-.57.72-.24.15-.36.27-.69.57-.3.27-.54.3-.81.39-.6.18-1.2.33-1.77.33-.6,0-.84-.15-1.53-.27-.42-.06-.69-.24-1.08-.45-.36-.21-.21-.27-.63-.57-.3-.21-.24-.39-.63-.69-.39-.3-.36-.66-.54-1.05-.21-.48-.27-1.05-.27-1.56,0-.54.06-1.38.3-1.71.18-.24.12-.54.42-.81.42-.36.3-.54.66-.78.39-.24.21-.36.69-.57.39-.18.39-.36.81-.42.45-.06.81-.33,1.47-.33h.39c.57,0,1.14.06,1.74.33.15.15.6.27.78.42.27.18.45.39.69.57.33.24.51.54.57.72.24.21.24.54.45.78ZM25.56,384.81c-.03-.33-.33-.42-.48-.69-.24-.45-.51-.39-.75-.51-.45-.24-.66-.21-1.02-.21-.63,0-1.11.21-1.53.72-.33.36-.66.93-.66,1.71s.27,1.2.69,1.62c.48.48.84.78,1.62.66.63,0,1.26-.12,1.65-.66.3-.18.42-.6.6-.96.12-.24.06-.45.09-.66.06-.6-.18-.63-.21-1.02Z" style="fill:#fafafa;"/></g></svg>