<?xml version="1.0" encoding="UTF-8"?><svg id="b" xmlns="http://www.w3.org/2000/svg" viewBox="0 0 557.83 131.55"><g id="c"><g id="d"><path d="M63.4,28.9c-.7,0-1.13.16-1.68.05-.38-.11-1.19-.05-1.73,0-.81.11-1.08.11-1.68,0-.38-.05-1.08-.05-1.68.05-.87.16-1.51,0-2.32,0-1.08.11-1.62.32-2.05.92-.27.54-.43,1.24-.16,1.84.32.65.97,1.08,1.24,1.51.43.49.7.7,1.19,1.3.32.43.65,1.08,1.24,1.3.43.16.87.49,1.46.43.65-.11,1.24.11,1.68-.22.49-.32.87-.65,1.68-1.08.43-.16,1.19-.7,1.68-1.03.27-.16.59-.76,1.3-.87.27-.05.76-.54,1.24-.86.38-.27,1.13-.81,1.41-.87.38-.05,1.08-.92,1.51-.7.32.16.86.11,1.13.54.27.38,1.03.43,1.24.76.43.65,1.46,1.3,1.46,1.62,0,.92-1.35.54-2.05.97-.38.22-.87.43-1.51.59-.6.16-1.13.43-1.46.49-.65.11-.7.32-1.41.54-.54.16-.76.43-1.35.43-.38,0-1.03.38-1.73.59-.76.27-1.24.76-1.3,1.35-.05.38.05,1.3.7,1.57.65.27.92.54,1.4.81.38.16.81.65,1.19.65.43,0,.6.32,1.19.54.49.22.92.59,1.19.59.7.11.76.16,1.24.49.49.43.59.27,1.24.49.49.16.81.38,1.24.43.49.05.81.16,1.24.43.32.22.87.16,1.24.43.22.16.65.27,1.41.05.7-.11.92-.05,1.57-.11.49-.05.97.05,1.4.27.43.22.65.49.92,1.3.22.65-.11.97-.27,1.46-.22.54-.7.43-1.14.81-.32.32-.81.32-1.4.59-.54.22-.49.7-.92.81-.97.32-1.78-.38-2.43-.76-.7-.32-1.73-.49-2.27-.81-.54-.38-1.46-.59-2.16-.92l-2.16-.97c-.7-.32-1.14-.65-2.05-1.14-.65-.32-1.08-.65-2-1.3-.49-.32-.97-.65-1.35-.97-.27-.22-.87-.7-1.35-.97-.54-.27-2.38-.49-2.76-.32-.38.11-1.19.32-2.05.7-.81.38-1.24.59-2,.7-.7.11-1.19.32-1.51.49-.65.32-1.19.43-1.46.49-.6.11-1.19.43-1.46.49-.7.16-.97.38-1.46.49-.43.11-1.08.27-1.46.43-.38.16-1.03.32-1.46.43-.27.05-1.13.22-1.51.43-.7.38-1.03.32-1.46.43l-1.46.43c-.65.22-.76.27-1.46.43-.38.05-.81.27-1.51.43-.38.11-.97.16-1.46.38-.49.22-.54,1.78-1.41,1.78-.54,0-1.08-.65-1.46-1.62l-.81-2.05c-.16-.43-.87-1.03-.6-1.57.43-.92,1.84-.32,2.65-.38.7-.05,1.24-.27,2.16-.32.92-.05,2-.22,2.49-.43.38-.16.65-.38.92-.97.32-.65.7-1.46.7-1.78.05-.49.22-1.35.22-2.49s.32-1.62.27-2.54c-.05-.59.05-1.08.05-2,0-.7.05-1.51.05-2,0-.92-.38-1.51-.76-2.22-.32-.59-.87-1.41-1.46-1.19-.7.27-1.79-.16-2.6,0-1.08.22-2.05.27-2.7.38-.76.11-2,.05-2.87-.22-.97-.32-.97-.76-1.19-1.24-.16-.43.16-.7,1.19-1.24.97-.49,1.68-.22,2.87-.16,1.08.05,1.57.49,2.7.38.92-.05,1.57-.11,2.6,0,.65.16.65-.76,1.46-1.35.32-.22.43-.65.54-1.24.11-.49.32-.81.22-1.3-.05-.38,0-1.68,0-2.22-.11-.92.05-1.73,0-2.27-.05-.49,0-1.57,0-2.16,0-.49.11-1.51,0-2.11-.16-.76-.22-1.57,0-2.16.16-.65.05-1.51,0-2.11-.05-.7-.11-1.41,0-1.95.21-.97-.05-1.68,0-2.87.16-.92-.92-2.38-.05-3.08.7-.59,1.73.54,2.27.76.54.22,1.4.81,2,.97.92.27,1.73-.05,2.65,0,1.03.22,1.51,0,2.65,0s1.62.27,2.65,0c.7-.16,1.78,0,2.7,0h2.65c.92,0,1.84-.05,2.65,0,.87.05,1.62,0,2.65,0,.92,0,1.62.38,2.49,0,.87-.38,1.4-1.08,1.62-1.68.16-.43.7-.38.81-.81.16-.49.38-.97.81-.81.38.11.43.32,1.13.81.54.27,1.03.59,1.68,1.24s1.3.76,1.73,1.08c.7.49.92.81.49,1.51-.32.81-.76,1.24-1.46,1.35-.7.11-1.35,0-2,0s-1.68-.49-2.22-.54c-.59,0-1.35-.38-2.05-.32-.87.05-1.14-.16-1.89.05-.38.16-1.19.11-1.84.05-.65-.05-1.14,0-1.84.05-.76.11-1.41,0-1.84,0-.81,0-.97-.16-1.84.05-.7.11-1.51-.11-1.78,0-.49.16-1.3,0-1.84,0-.65,0-1.35.05-1.79.05-.65,0-1.51.16-2.11,0-.97-.22-1.57.16-2.11,0-.76-.27-1.4.16-1.95.81-.65.81-.97,1.14-1.13,1.62-.22.76-.05,1.3-.05,1.73,0,.54.27.59.76.92.43.32.87.49,1.46.49.92.11,2.05,0,2.7,0s1.78-.16,2.59,0c.65.16,1.62.05,2.6,0,.81-.05,1.95,0,2.6,0,.76.05,1.84.11,2.59,0,1.03-.11,1.84-.22,2.54,0,.65.22,1.73.16,2.43,0,.38-.11.92-.81,1.4-1.46.22-.32.97-1.41,1.41-1.41.65,0,.87.43,1.3.59.65.32.92.76,1.73,1.08.54.22,1.19.59,1.68,1.08.38.32.81.65.49,1.46-.27.7-.76,1.35-1.4,1.35-.54,0-1.3.22-1.95,0-.92-.32-1.3-.38-2.11-.59l-2.05-.27c-.54-.05-1.13.16-1.79.05-.7-.16-1.08,0-1.78.05-.76.11-1.3.16-1.78.05-.49-.16-1.41-.05-1.79,0-.32,0-1.3.11-1.78.05-.6-.05-1.3,0-1.73,0h-1.73c-.7,0-1.13.11-1.73.05-.76-.05-1.3.05-1.84,0-.81-.11-1.4-.05-1.78,0-.87.11-1.57.59-2,.86-.76.49-1.19,1.35-1.08,1.73.16.59-.16,1.3,0,1.57.32.54.16.7.76.86.65.16,1.08.43,1.51.43h2.7c1.08,0,1.89.11,2.59,0h2.6c.76,0,1.46.16,2.6,0,.81-.11,1.78-.05,2.59,0h2.54c.65,0,1.62.49,2.43,0,.65-.38.65-.7,1.4-1.46.65-.59.54-1.41,1.35-1.41.7,0,.97.38,1.35.59.6.32,1.14.7,1.73,1.08.32.22,1.24.92,1.68,1.08.65.27.76.65.49,1.46-.54,1.03-1.03,1.3-1.4,1.35-.43.05-1.24.05-1.95,0-.81-.05-1.24-.43-2.11-.59-.65-.11-1.62-.27-2.05-.27-.54,0-1.41.27-1.79.05-.54-.22-1.03.05-1.78.05-.38,0-1.03-.22-1.78.05-.54.22-1.03,0-1.79,0s-1.35.16-1.78.05c-.32-.05-1.41-.11-1.73,0-.43.16-.97-.11-1.73,0-.87,0-1.3.05-1.73.05h-3.62c-.59,0-1.62.49-2,.92-.43.43-1.24,1.41-1.08,1.78.27.7.11,1.24,0,1.68-.11.49.65.59.97.92.7.59,1.3.38,1.95.43.65.05.92.11,1.68,0,.7-.05,1.08-.27,1.73,0,.27.11,1.08.16,1.62,0,.38-.11,1.08.16,1.62,0,.59-.16.92-.16,1.62,0,.49.11,1.08.11,1.62,0h1.62c.27-.05.87-.11,1.62,0,.7.11,1.08.27,1.62,0,.38-.16.92.11,1.62,0,.59-.11,1.03-.05,1.62,0,.43.05,1.03,0,1.62,0,.81-.05,2.05.16,3.08,0,.32-.05.38-.32.76-.86.32-.38.43-.65.81-.81.6-.32.92-1.41,1.57-1.62.92-.32,1.78.38,2.11.76.16.22.27.27.97.54.27.05.92.32,1.46.81.32.32,1.03.65,1.19,1.14.11.38.43.92.22,1.41-.32.76-.54.97-1.3,1.24-.81.27-1.3.05-1.89,0-.6-.05-1.35-.38-2.16-.49l-1.89-.27c-.65-.11-1.3-.05-1.79.05-.59.11-1.41.22-1.73.05-.43-.22-1.3.05-1.78.05h-1.73ZM51.67,35.06c-.54-.76-.43-.92-.92-1.46-.38-.38-.65-.92-.92-1.51-.33-.65-.81-1.46-1.03-2.05-.16-.59-.7-1.03-1.3-1.03-.65,0-1.4-.05-1.89,0-.49.11-2.11.49-2.38.7-.38.38-.38,1.41-.27,2.22.16.54.16,1.57,0,2.32-.21.65,0,1.62,0,2.38,0,.97.22,2.11,0,3.14-.21.92.38,1.62,1.03,2,.76.49,1.3.92,1.95.81.49-.11,1.08-.27,1.4-.32.6-.11,1.08-.22,1.35-.27.32-.11.97-.27,1.51-.38.6-.22,1.03-.27,1.51-.32.7-.05.92-.43,1.68-.43.6,0,.97-.38,1.79-.43.16,0,.27-.11.27-.22,0-.27-.54-.92-.92-1.46-.38-.54-.54-.76-.97-1.19-.43-.32-.65-.7-.81-.97l-1.08-1.51Z" style="fill:#fafafa;"/><path d="M128.49,28.62c0,.97-.49,1.24-1.19,1.68-.76.49-1.51.81-1.73.54-.32-.43-.87-1.19-.81-1.46.16-.54-.76-.49-1.24-.49-.97,0-1.68-.27-2.16-.22-.7.05-1.3-.11-1.84,0-.54.11-1.24-.22-1.79,0-.87.22-2,0-2.49,0-.81.05-1.79.65-2.16.97-.7.65-.87,1.3-.16,1.95.59.54.97,1.19,1.24,1.68.16.27.76,1.08,1.19,1.41.6.38.87.86,1.24,1.41.22.43.65.76,1.24.65.27-.05.81.16,1.19.11.38-.05,1.68-.92,2-1.14.43-.32.97-.81,1.57-.97.43-.11,1.14-.49,1.46-.97.43-.65,1.03-.49,1.46-1.03.32-.38.81-.49,1.41-1.14.27-.27.97-.81,1.4-1.14.54-.43.87-1.08,1.35-1.24.38-.11,1.19.27,1.41.87.11.32.59.43.81.54.43.22.65.38,1.13.81.33.32.65.7,1.03.92.22.16.43.43.43.86.05.97-.7.76-1.51.81-.54,0-1.13.11-1.51-.05-.38-.16-1.08.27-1.46.65-.49.49-1.08.65-1.46.65-.27,0-1.13.38-1.51.65-.76.49-1.19.49-1.57.59-.54.16-1.08.43-1.89.76-.65.16-1.62,1.14-1.73,1.51-.22.7-.05,1.3.54,1.68.32.22.81.59,1.4.81.27.11.65.38,1.19.59.54.22.65.38,1.19.54.38.11.81.54,1.24.54.65,0,.92.43,1.24.49.49.11.87.22,1.24.49.43.43.87.22,1.24.43.38.22.76.32,1.24.43.65.11.92.27,1.24.38.7.22,1.13.22,1.46.05.43-.22.76.11,1.51.22.32.05,1.14.16,1.41.32.32.27.59.11.97.87.32.86-.21,1.3-.32,1.51-.22.43-.81.43-1.41.59-.54.16-.76.22-1.51.81-.43.32-.21.59-.97.76-.76.16-1.51-.32-2.43-.59-.65-.16-1.24-.38-2.16-.87-.76-.38-1.57-.54-2.16-.86-.49-.27-1.4-.49-2.11-.97-.54-.38-1.19-.65-2.05-1.08-.87-.59-1.46-.97-1.95-1.19-.7-.32-1.3-1.14-1.95-1.3-.32-.05-.32-.81-.92-1.03-.65-.27-.54-.16-.92-.43-.38-.22-.7-.27-.92-.81-.11-.32-.65-.65-.87-.86-.43-.43-.54-.43-.81-.87l-.81-.92c-.22-.38-.54-.7-.76-.97-.38-.43-.43-.76-.76-.97-.49-.32-.32-.7-.7-1.03-.27-.22-.38-.54-.59-1.03-.32-.76-.81-1.24-.92-1.95-.16-.7-.59-1.24-.92-1.84-.22-.38-.81-1.24-1.35-1.62-.54-.38-1.35-.38-1.62-.43-.65-.16-1.51-.11-2.22,0-.59.11-.87.38-1.24,1.19-.38.81-.76,1.78-.6,2.27.16.65.11,1.41,0,2.05v2c0,.65-.21,1.03,0,1.89.05.7-.05,1.41,0,1.95.05.81.16,1.95.27,2.38.21.76.27,1.03.54,1.19.49.32,1.14.11,1.95-.11.65-.22.97-.22,1.73-.16.27,0,1.19-.11,1.51-.11.49,0,1.24-.32,1.68-.32.97-.05,1.62-.38,2.7-.32.38,0,1.08.05,1.57-.22.22-.11.65-.05,1.3-.11.54-.05,1.35-.05,1.46.65.16.87-.76,1.14-1.24,1.3-.59.11-1.3.32-2.16.43-.59.11-1.3.32-2.11.43-.81,0-1.89.32-2.27.32-.7,0-1.24.22-1.68.27-.27.05-.7.16-1.13.16-.81.05-.97.38-1.62.38s-1.13.16-1.62.38c-.7.22-1.03,0-1.62.32-.38.22-1.14.27-1.57.32-.65.16-1.3.22-1.62.27-.76.22-1.3.11-1.62.32-.65.38-1.19.11-1.57.27-.65.32-1.35.22-1.62.27-.87.16-1.24.32-1.46.54-.65.65-.81,1.3-1.73,1.35-.54.05-.65-.11-.87-.54-.22-.49-.76-.59-.81-1.14-.05-.7-.76-1.84-.92-2.27-.32-.7-.7-1.3-.32-1.89.43-.65,1.3,0,2.33,0,.65,0,1.84-.16,2.49-.16l2.97-.11c.65,0,1.89-.38,2.27-.76.54-.43.43-.97.59-1.68.22-.92,0-1.46.11-2.38.05-.59.27-1.08.27-1.73,0-.7-.27-1.35-.16-2.05.05-.49-.11-.92,0-2.22.11-.54.22-1.03.05-1.78-.16-.81.21-1.14.05-1.84-.11-.32-.05-1.03.05-1.78.16-.76-.16-1.3.05-1.84.21-.65-.11-1.3-.05-1.84-.05-.81-.16-1.08,0-1.78.05-.49,0-1.19,0-1.84v-1.78c.05-.54.16-.92,0-1.78-.05-.49.05-1.14,0-1.78-.05-.7.22-1.57,0-2.22-.16-.59.05-1.3.05-1.68.05-.7-.22-1.03-.05-1.68.16-.65-.11-1.14,0-1.68.11-.49-.54-.92.16-1.51.49-.43.59-.16,1.08.16.43.27.65.43,1.19.43.38,0,.49.54,1.08.54s.65.54,1.03.59c.6.11,1.3,0,2.27.11.32.05,1.19-.11,1.89,0,.54.05,2.11-.11,2.7-.11.54,0,.81-.32,1.08-.86.38-.76,0-1.19-.05-1.95v-1.62c-.05-1.68-.7-2.32-.27-3.3.49-1.08,2.49-.11,3.3-.16.87-.05,1.14.27,1.79.32.59.11.81.65,1.13,1.24.38.7-.97,1.19-1.3,1.46-.27.22-.97,1.35-.87,1.89.16.65,0,1.08,0,1.62-.05.76.65,1.46,1.73,1.41.97-.05,2.11,0,2.7.05,1.19,0,2.05.05,2.97-.11.38-.05,1.68-.43,1.84-.81.27-.54.6-.76,1.19-1.14.38-.27.76-.05,1.19.38.43.49,1.19.76,1.46,1.03.32.32,1.08.59,1.19,1.19.11.49.76.7.54,1.03-.32.43-.81,1.14-1.3,1.3-.32.11-.32.49-.65,1.57-.32,1.08.11,2.05,0,2.81-.16.81.05,1.73,0,2.22,0,.97-.11,1.62,0,2.16.11.59,0,1.3.05,2.22-.05.7-.11,1.3.05,2.22.05.92.05,1.24.05,2l.05,2.22ZM116.76,26.68c1.13,0,1.41,0,2.43-.11.97-.05,1.95-.05,2.87,0,.76.05,1.3-.38,1.57-1.19.27-.76.97-1.57.87-2.32-.11-.54,0-1.46,0-2.11,0-.38-.59-.81-.87-1.14-.38-.43-1.03-.43-1.57-.59-.81-.11-2.05.16-2.87,0-1.08-.16-1.78-.11-2.7-.11-.81,0-2.05-.05-2.7-.05-.86,0-1.78-.05-2.76,0s-2.05.05-2.7.16c-.76.11-2.22,0-2.87,0-.6,0-1.35.7-1.62,1.19-.38.65-.7,1.62-.81,2.27-.16.81-.11,1.68,0,2.16.05.27.49.59.81,1.14.27.59.97.7,1.62.59.92-.16,1.95.22,2.87,0,.65-.22,1.68,0,2.7,0s1.84-.11,2.76,0c1.03.11,1.79.11,2.97.11ZM103.14,15.38c0,.16.38.81.76,1.14.32.27,1.03.54,1.57.59.59.05,2.16.05,2.87,0,.87-.05,1.62.11,2.7,0,.81-.11,1.89.27,2.76,0,.6-.22,1.89,0,2.7,0,.76,0,2-.05,2.7,0,.92.05,1.95-.11,2.87,0,.43.05,1.24-.43,1.57-1.14.16-.38.65-1.24.87-2.11.11-.43-.05-1.19,0-1.95,0-.32-.43-.7-.81-1.08-.6-.49-.97-.43-1.57-.49-.87-.05-2.16.05-2.76,0-.65-.11-1.57-.22-2.65-.05-1.03.11-1.62-.05-2.7,0-1.03,0-1.89.11-2.59,0-.81-.11-2,.05-2.65.05-.76-.11-2.22,0-3.13,0-.65,0-1.13.65-1.51,1.03-.76.65-1.03,1.14-.92,1.89l-.05,2.11Z" style="fill:#fafafa;"/><path d="M156.23,8.08c0-.76,0-1.57-.05-2.59,0-.76-.92-1.95-.11-2.76.38-.38,1.35.27,1.95.11.87-.27,1.3.11,2.43.32,1.03.16,2,.49,2,1.19,0,.32-.6,1.03-1.35,1.41-.22.11-.87.97-.81,1.73.05,1.14.21,2.16,0,2.87-.16.54.11,1.73,0,2.22-.16.92-.05,1.51,0,2.22.05.65.16,1.3,0,2.22-.11.86.16,1.41,0,2.22-.16.7-.16,1.57,0,2.22.05.59-.11,1.46,0,2.16.05.65,0,1.46,0,2.49,0,.81-.16,1.46-.11,2.54-.11,1.03-.16,1.57-.16,2.54,0,.76-.27,1.57-.32,2.49-.11,1.08-.43,1.78-.49,2.49-.11,1.03-.32,1.62-.65,2.43-.22.54-.54,1.68-.81,2.38-.22.54-.43.7-.54,1.14-.05.32-.38.87-.54,1.14-.38.54-.49.65-.7,1.14-.21.59-.32.7-.65,1.19-.38.54-.43.7-.7,1.08-.16.22-.27.7-.7,1.08-.38.38-.65.87-.97,1.3-.27.32-.65.65-1.19,1.3-.65.59-.81.49-1.24.86-.43.38-.81.16-1.03,0-.38-.27-.65-.76-.27-1.19.27-.32.49-.97.65-1.68.11-.65.7-1.14,1.13-1.78.32-.54.65-.81,1.03-1.46.27-.49.54-.81.7-1.3.16-.38.65-.76.7-1.3,0-.54.49-.7.6-1.41.11-.49.43-.76.54-1.46.11-.7.27-1.14.49-1.89.21-.76.43-1.41.43-2,0-.49.16-1.03.27-1.89.05-.38-.11-1.14.21-1.95.22-.49-.11-1.14.16-2,.16-.65.11-1.57.11-2,0-.76-.05-1.3.05-2,.16-.87,0-1.03,0-1.95v-2.65c0-.76-.11-1.95,0-2.6.16-.86.05-1.73.05-2.65,0-.7-.11-1.89,0-2.65s-.05-2-.05-2.65l-.05-2.65ZM172.77,32.63c0-.97.16-1.89,0-3.19,0-.92.21-1.84.05-3.19-.16-1.14-.16-2,0-3.19.11-.97,0-2,0-3.19s.16-2.05,0-3.19c-.21-1.3-.21-2.16,0-3.19.05-.54,0-1.62,0-2.32,0-.92-.21-1.24,0-2.32.22-.86.11-1.35-.05-2.27-.11-.65-.32-1.62-.11-2.43.11-.49.7-.05,1.35-.16.6-.11.97-.16,1.84-.16.7,0,1.46.11,1.84.38.59.38.92.76,1.19,1.51.27.81-.97.86-1.41,1.41-.38.43-.97,1.41-.81,2.38.11.65,0,1.46,0,2,0,.76.11,1.41,0,2-.16,1.3,0,1.84,0,3.08-.11.92,0,2,0,3.08v3.14c0,.81.05,2.27,0,3.08-.16,1.03.05,2.16.05,3.08v3.08l.05,3.08c0,1.08.05,2.16.05,3.08s.21,1.78.11,2.87c-.16,1.24.11,2.05-.05,2.87-.27.7-.43,1.19-1.3,1.35-.49.11-1.3.54-1.95.38-1.3-.38-1.14-1.19-1.03-1.73.21-1.14,0-2.27,0-3.03,0-.87.11-1.35.05-1.89-.11-1.19.05-1.95.05-3.19l.05-3.19ZM189.58,28.08c0-.38.22-1.14.05-1.89-.16-.59.16-1.57,0-1.95-.16-.43,0-1.14,0-1.89s.11-1.51,0-1.89c-.16-.43-.11-1.03,0-1.89.11-.65-.05-1.41,0-1.89.21-.87-.05-1.14,0-1.95,0-.7-.11-1.14,0-1.89.11-.65-.11-1.35,0-2.22.11-.86.21-1.24,0-2.16-.16-.59-.05-1.41-.05-2.22s-.05-1.3-.05-2.27c.05-.38.6-.43,1.35-.54.6-.11,1.24-.38,1.89-.27.81.11,1.03.11,1.89.32.7.16.92.92,1.19,1.35.54.92-1.19,1.24-1.46,1.46-.43.32-.54.65-.6.92-.11.43-.27.76-.27,1.46v7.51c0,.38-.22,1.24,0,1.68.21.49,0,1.3,0,1.73v6.7l.05,2.32c0,.97.11,1.68,0,2.38-.16,1.03.05,1.84.05,2.38.05.92-.22,1.62,0,2.38.16.87-.11,1.73.05,2.49.05.76-.05,1.84.05,2.54.11,1.08.05,1.68.05,2.49v5.14c0,.54-.87,1.03-1.35,1.3-.59.32-1.62.49-1.95.43-.97-.22-.92-1.24-.97-1.78,0-.38.05-.65-.11-1.19-.27-.54,0-1.41,0-1.95,0-.7.11-1.35.05-1.89-.16-.7-.05-1.51,0-1.95.21-.7.27-.97.05-1.89-.05-.59.11-1.51,0-1.89-.11-.38.05-1.08.05-1.89v-7.62Z" style="fill:#fafafa;"/><path d="M252.58,30.69c0,.77-.43.86-.53,1.68-.1.72-.48.86-.67,1.63-.14.62-.72.86-.96,1.39-.29.62-.72,1.06-1.06,1.34-.48.48-.96,1.01-1.34,1.34l-.48.38c-.24.14-.77.58-1.01.77-.67.48-1.29.53-1.58.82-.62.62-1.1.29-1.49.72-.34.38-.96.24-1.15.43-.43.43-1.1.1-1.68.48-.67.43-1.39.19-2.06.53-.53.29-1.82.43-2.5.53-1.2.19-1.92.14-2.45.24-.67.14-1.39.1-2.35.14-.86.05-1.34.1-2.02.1-.53,0-1.15-.05-1.68-.05h-.29c-.53,0-1.39-.05-1.49-.72-.1-.77.53-1.1,1.29-1.1,1.2,0,2.16-.19,2.79-.24.82-.05,1.78-.19,2.59-.38.53-.14,1.49-.19,2.11-.48.62-.29,1.39-.24,1.97-.58.38-.29,1.15-.19,1.78-.62.72-.34,1.2-.38,1.73-.72.43-.19,1.06-.29,1.54-.72.67-.53,1.1-.43,1.58-.96.38-.38.86-.53,1.49-1.1.38-.38,1.1-.91,1.44-1.49.38-.62.77-.58,1.01-1.34.14-.53.82-.96,1.01-1.63.29-.72.53-1.1.77-1.73.14-.53.29-1.39.48-1.87.19-.58.24-1.2.19-1.92,0-.58-.05-.82-.1-1.49,0-.34,0-.82-.19-1.44-.19-.67,0-1.01-.43-1.39-.19-.29-.14-.86-.53-1.3-.43-.53-.53-1.01-.72-1.25-.24-.34-.62-1.01-.86-1.2-.43-.38-.72-.86-1.01-1.01-.34-.14-.57-.43-1.15-.96-.43-.43-.67-.38-1.01-.62-.43-.34-.62-.43-1.01-.58-.38-.14-.86-.24-1.05-.48-.14-.24-.87-.24-1.11-.38-.67-.43-1.05-.29-1.87-.48s-1.06-.24-1.78-.24c-.58,0-1.15.53-.62,1.25.34.29.38.53.58.86.24.43.53.77.58,1.44.05.58-.1,1.34-.43,1.73l-.72.82c-.43.38-.24.62-.62,1.01-.48.48-.34.86-.62,1.15-.48.48-.38.67-.72,1.06-.43.53-.58.82-.96,1.49-.29.58-.53,1.15-1.01,1.82-.53.58-.57.96-.77,1.3-.19.34-.62,1.01-.77,1.3-.19.38-.58.91-.72,1.3-.19.34-.62,1.01-.72,1.3-.24.62-.58.96-.72,1.34-.29.58-.43.96-.67,1.34-.34.53-.38.82-.67,1.34-.14.29-.43.58-.58,1.34-.14.62-.38.67-.58,1.06-.19.43-.34.43-.62.72-.38.38-.96.53-1.58.53-.43,0-.86,0-1.49-.34-.38-.24-1.05-.53-1.39-.86-.19-.19-.87-.82-1.15-1.1-.43-.43-.58-.82-.91-1.2-.48-.53-.67-.96-.87-1.54l-.53-1.63c-.19-.58-.05-1.2-.29-1.73-.1-.24-.1-.48-.1-.77v-.96c0-.38,0-1.25.14-1.82.14-.53.14-1.1.29-1.73.14-.62.38-1.06.48-1.68.1-.77.48-.91.67-1.58.1-.38.48-.62.77-1.54.19-.67.82-.86,1.01-1.39.14-.38.77-.53,1.06-1.3.14-.43.67-.72,1.25-1.2.48-.48.72-.67,1.34-1.06.58-.34.82-.67,1.39-.96.48-.24.86-.53,1.54-.82l1.58-.72c.48-.24,1.25-.24,1.68-.53.38-.24,1.11-.05,1.68-.38.62-.34,1.2-.1,1.78-.29.24-.1.48-.1.72-.1.34,0,.62.05.86.05h.48c.43,0,.96.05,1.49.05.72,0,1.15.24,1.73.14.53-.1.91.38,1.68.43.48.05,1.25.38,1.73.43.62.1,1.05.58,1.39.67.62.14,1.01.48,1.39.58.67.29,1.06.53,1.39,1.01.29.34.91.43,1.25.96.34.58.72.72,1.15,1.1.19.14.67.96,1.01,1.25.58.48.58.82.86,1.34.43.62.34.91.91,1.49.29.34.43,1.34.58,1.63.29.53.14,1.15.29,1.49.34.67.14,1.34.29,1.73.1.29.14.58.14.82,0,.29-.05.53-.05.82l.05.62c0,.53-.29.96-.19,1.39.14.72-.19,1.1-.29,1.68ZM232.04,13.22c-.67,0-.96.1-1.63.34-.48.14-.82.34-1.06.38-.62.14-.67.43-1.01.43-.72.05-.62.48-.96.53-.29.05-.72.48-.96.58-.48.19-.67.38-.91.62-.38.24-.43.58-.86.77-.48.29-.58.58-1.01,1.01-.53.53-.67.77-.96,1.15-.34.38-.53.86-.77,1.15-.34.38-.53.67-.72,1.3-.29.67-.29,1.01-.53,1.3-.34.43-.14.77-.43,1.39-.24.58,0,.77-.24,1.39-.14.38.1.86-.05,1.49-.1.48.14,1.3.14,1.78.05.77.38,1.34.58,2.02.19.67.72,1.01,1.1,1.39.48.53,1.15.77,1.68.77.34,0,.87,0,1.3-.62.34-.48.62-.91.82-1.3.14-.38.48-.38.62-1.15.1-.43.53-.77.77-1.25.14-.34.38-.48.48-1.01.14-.77.43-.67.82-1.63.29-.67.67-1.1.96-1.78.19-.38.43-.86.96-1.63.38-.58.48-1.34.87-1.73.38-.38.34-.77.58-1.1.38-.58.19-.72.62-1.2.38-.43.19-.82.53-1.06.43-.34.1-.58.53-1.06.24-.19.19-.58.34-1.15.14-.72-.1-1.1-.24-1.34-.14-.29-.77-.77-1.34-.77Z" style="fill:#fafafa;"/><path d="M305.1,19.11c-.81-.11-2,0-2.65,0-.7.11-1.89.05-2.87.11-.54.05-.97.32-1.46.65-.59.43-.7.7-.81,1.14-.54,1.62-.16,2.38,0,3.14.11.49-.49,1.24,0,3.08.05.38.43.7.92,1.08.32.22.7.38,1.3.49.59.11,1.35-.32,2.27-.11.6.11,1.51.05,2.22.32.49.16,1.13.16,1.79-.05.81-.22,1.13-.16,1.73.05.38.11,1.03.16,1.68,0,.27-.05,1.08.38,1.62,0,.38-.27.87-1.03,1.08-1.14.54-.32.6-.65.92-1.03.27-.32.32-.49.92-.97.22-.22.05-.81.87-.87.6-.05,1.08.76,1.73,1.35.6.43.7.81,1.19,1.03.43.16.97.81,1.24.97.65.38.92.76,1.3.97.27.16.49.32.43.92-.05,1.08-.7,1.08-1.24,1.19-.49.16-.97.16-1.57,0-.59-.11-1.41-.22-2.16-.22-.87,0-1.68-.11-2.22-.16-.87-.11-1.24-.05-2.05-.11-1.08-.11-1.89.32-2.92.11-1.24-.22-1.79.05-2.81.05h-2.87c-1.08,0-2.11-.05-2.87,0-.7.05-1.35.38-1.57.54-.7.54-.97.76-.86,1.03.27.7-.05,1.51,0,1.89.05.38.05,1.24.05,1.89v1.89c0,.43-.22,1.35.05,1.84.22.54-.16,1.46,0,1.89.27.81,0,1.24.05,1.84v1.68c0,.92-.11,2.11-.27,2.54-.38.92-.87,1.08-1.57,1.57-.76.54-1.4.92-1.95.86-1.13.05-2.11.16-2.49-.16-.54-.54-.49-1.08-.87-1.41-.38-.27-.87-.97-1.46-1.19-.43-.16-1.24-.22-2-.54-.65-.27-1.51-.22-1.95-.81-.38-.54,0-1.14.43-1.46.76-.54,2.33.11,3.41.16.76.11,2.11.11,2.92.11.92,0,1.35-.32,1.51-1.14.16-.7-.11-1.19.05-1.78.16-.65-.11-1.14,0-1.62.11-.43.16-.92,0-1.62-.11-.49-.11-.92,0-1.62.05-.65-.11-.97,0-1.73.11-.65,0-1.41,0-1.73-.05-.65-.22-1.19-.65-1.89-.27-.49-.97-.97-1.3-1.03-.54-.05-1.73.05-2.32,0-.6-.05-1.3.05-2.22,0-.97-.22-1.78-.05-2.22,0-.92.16-1.51-.05-2.27,0-.81.05-1.57-.11-2.22,0-.76.16-1.24.27-2.22,0-.65-.22-1.41-.05-2.22,0-.76.05-1.95.22-2.81.38-1.03.16-2.16.16-2.87-.16-1.08-.32-1.19-.92-1.19-1.24-.05-.49.54-.92,1.19-1.24,1.19-.38,1.95-.22,2.87-.16.76.05,1.78.38,2.81.32.92-.05,1.41,0,2.22,0h4.43c.76,0,1.73.16,2.27,0,.54-.16,1.35,0,2.22,0,.92,0,1.51.05,2.22,0,.81-.11,1.51.11,2.32,0,.65-.05.92-.27,1.3-.76.32-.43.38-.81.65-1.46.21-.76.16-1.95,0-2.65-.16-.59.32-1.95,0-2.7-.05-.22-.81-1.14-1.24-1.46-.43-.27-1.41-.65-2.32-.76-.49-.11-1.35-.11-2.11,0-.87.11-1.4,0-2.05,0-.76,0-1.51.16-2,0-.65-.22-1.62.16-2,0s-1.41.11-2,0c-.81-.16-1.46-.16-1.95,0-.86.32-1.89.32-2.81.38-.92.05-2.11.22-2.87-.16-.65-.27-1.19-.81-1.19-1.24s.43-.87,1.19-1.24c1.03-.49,1.84-.22,2.87-.16,1.03,0,1.84.43,2.81.32.7-.11,1.14.11,1.95,0h2c.65-.11,1.41.16,2,0,.76-.22,1.08-.11,2,0,.65.16,1.24.22,2.05,0,.49-.11,1.46.22,2.11,0,.49-.11,1.51-.27,2.32-.65.87-.59,1.62-.59,1.51-1.24-.11-.65-.22-1.68-.22-2.32,0-.97.27-1.95.11-2.65-.16-.59-.6-.97-.7-1.03-.43-.22-.81-.38-1.46-.32-.65.05-1.3.22-1.62.22-.81,0-1.13.16-1.57.22-.87.16-1.57.11-2.65.22-.7.16-1.46.11-2.54.05-.97,0-1.84.27-2.7.32-.92.11-1.73.05-2.6.16l-1.62.16c-.65,0-1.08.05-1.84.05-.65.11-1.46.11-2.11,0-.76-.16-.76-.7-.81-1.03,0-.38.11-.92.6-1.08.38-.11.7-.27,1.4-.27.6,0,.97-.05,1.51,0,.27,0,.97-.16,1.62-.16.59,0,1.35-.05,2.22-.16l2.43-.32c.7-.11,1.89-.32,2.54-.49.97-.22,1.68-.38,2.32-.27.6.11,1.68-.43,2.43-.32.76.11,1.51.05,2.43-.32.59-.22,1.46-.22,2.43-.32.81-.11,1.51-.49,2.32-.54.92-.05,1.41-.38,2.43-.54s1.46,0,2.38-.49c.54-.32,1.51-.32,2.32-.54.87-.22,1.35-.38,2.38-.59.81-.16,1.62-.49,2.38-.59.7-.11,1.46-.92,2.43-.65.59.16.54.54.97.65.43.16.92.59,1.3.92.32.32.81.7,1.19,1.03.38.38.49.54.54.97.11.76-1.08.76-1.62.92-.81.27-1.62,0-1.95-.11-.59-.16-1.3,0-1.57.27-.27.27-1.24.27-1.51.27-.7.05-1.03.11-1.57.27-.22.05-.76.32-1.52.27-.59-.05-1.35-.05-1.95.27-.7.32-1.57.22-1.89.32-.7.27-1.13.22-1.51.43-.65.38-.92.27-1.19.7-.38.92-.16,1.68-.21,2.32.05.76.05,1.84-.05,2.22-.16.54.16.81.27,1.3.16.7.49.81.76,1.19.16.22.65.92.92.92s.38.27.97.38c.59.16,1.13-.05,1.73,0,.54.05,1.14.05,1.73,0,.38-.05.87,0,1.62,0,.81,0,1.03.05,1.68,0,.81-.05,2.54.65,3.13,0,.38-.43.59-.59.81-.92.32-.49.49-.7.87-.97.32-.22.43-.49.87-.92.32-.38.49-.97.92-.92.92.16,1.14.65,1.68,1.19.21.16.7.38.97.54.27.16.97.32,1.35.81.43.54,1.08.87,1.19,1.14.11.49.32.65.21,1.41-.05.43-.65.97-1.03,1.03-.65.16-.86.32-1.57.05-.32-.11-1.13-.38-1.68-.38-.6-.05-1.08-.11-1.62-.05-.65.05-1.57-.22-2.7-.05-1.03.16-1.68.11-2.7.11l-2.59-.05Z" style="fill:#fafafa;"/><path d="M370.24,39.71c-.49.65-.97.86-1.24,1.24-.49.65-.92.49-1.24.87-.43.49-1.14.81-1.35,1.03-.65.65-1.24.7-1.68,1.03-.65.49-1.35.65-1.84.97-.49.32-1.13.32-1.68.76-.65.49-1.4.59-1.89.87-.65.38-1.24.54-2.05.76-.54.22-1.46.38-1.89.49-.43.16-1.62.43-2,.43-.92.05-1.19.05-2.05.27-.43.11-.92.11-1.3.11h-.76c-.65,0-1.62-.05-2.11-.16-.92-.11-1.08-.43-1.95-.65-.54-.16-1.3-.7-1.78-1.03-.6-.54-1.08-.7-1.51-1.46-.43-.7-.65-.81-.87-1.57-.11-.7-.38-1.35-.54-1.78-.16-.49-.11-.97-.22-1.84-.05-.32-.05-1.08-.05-1.84v-2.65c0-.97-.11-1.62.05-2.7.11-.81-.05-1.73.05-2.65.11-.97-.16-1.68.11-2.65.16-.59.16-1.08.11-1.89,0-.59.11-1.24.05-1.89-.11-.43,0-1.08.05-1.62.05-.59.16-1.14.05-1.62-.16-.7-.16-1.89.16-3.03.11-.49-.22-1.3.05-2.16.11-.32.05-1.24.11-1.89.05-1.41.16-1.46.11-1.84-.11-.81.05-1.51.05-1.95-.05-.7.11-.86.05-1.24-.05-.54-.05-.76-.22-1.51-.11-.43-.27-.86-.43-.97-.38-.32-.49-.43-1.08-.49-.32-.05-.92-.27-1.57-.22-.81.05-1.35.11-1.46-.76v-.11c0-.32.21-.81.76-1.08.6-.22.92-.49,1.51-.49,1.03,0,1.41-.32,2.05-.32.11,0,.22.05.38.05.59.11,1.24.11,1.57.22.59.22,1.03.7,1.35.76.38.11.97.49,1.3.81.38.38.49.54.81,1.24.65,1.46.16,2,0,2.49-.16.81-.27,1.24-.43,1.57-.11.27-.11,1.3-.22,1.62-.16.54-.16,1.14-.11,1.57,0,.54,0,.92-.11,1.46-.11,1.08-.11,1.78-.16,2.49l-.22,2.81c.05.59-.27,1.3-.16,2.11.05.59-.32,1.41-.16,2.27.16,1.03-.16,1.57-.16,2.32-.11.97-.11,1.57-.11,2.27,0,.86-.11,1.35-.11,2.16,0,.65-.11,1.35-.16,2.11l-.16,3.03-.05,2.97c0,1.03.11,1.95.11,2.76,0,.7.16.7.32,1.35.05.32.38.76.65,1.14.38.49.92.81,1.3.92.32.05.92.05,1.57.22.49.11,1.3-.16,2.32-.16s1.62-.05,2.49-.43c.27-.11.92-.16,1.35-.27.22-.05.76,0,1.35-.38.54-.32,1.08-.16,1.35-.38.54-.49,1.13-.38,1.35-.43.32-.11.76-.22,1.41-.49.49-.27.65-.27,1.24-.49.6-.22.92-.54,1.41-.7.38-.16.65-.11,1.19-.59.32-.32.81-.11,1.24-.7.27-.32.81-.05,1.35-.7.32-.43.92-.11,1.46-.76.27-.27,1.03-.49,1.68-1.08.32-.27.65-.43,1.13-.81.81-.65,1.35-1.51,2.16-.97.16.11.27.27.27.49,0,.38-.43,1.03-.81,1.51-.54.81-1.08,1.3-1.57,1.89Z" style="fill:#fafafa;"/><path d="M419.81,43.11c.05.87-.54,1.46-1.03,1.73-.7.38-1.46.43-2,.65-.76.27-1.4,0-1.78.22-.22.11-.49.16-.7.16-.32,0-.65-.11-1.08-.05-.59.05-.92.05-1.3.05h-.49c-.49-.05-1.03.05-1.51.05h-.27c-.87-.05-1.57-.05-1.89-.05-.7-.05-1.08.05-1.46.05-.21,0-.38-.05-.54-.11-1.19-.38-1.24-.05-1.95-.16-1.13-.16-1.51,0-2-.27-.76-.43-1.24-.22-1.95-.38-.87-.11-1.41-.27-1.89-.54-.65-.38-1.19-.27-1.84-.7-.6-.38-1.19-.54-1.73-.87-.43-.27-1.13-.81-1.73-1.46-.54-.54-.97-1.19-1.3-1.89-.32-.7-.65-1.24-.87-2.11-.16-.7-.27-1.62-.38-2.16,0-.11-.05-.22-.05-.32,0-.54.16-1.35.21-1.78.05-.65.32-1.41.49-2.11.11-.7.32-1.03.6-1.68.43-1.08.81-1.73,1.57-1.41.38.16.49.76.27,1.57-.22.81-.38,1.41-.38,2.49,0,.76-.11,1.62.05,2.38.11.59.16,1.14.49,2.05.22.59.65,1.08.92,1.46.32.49.65.7,1.46,1.19.38.22.92.43,1.24.76.49.32.97.32,1.24.43.76.22,1.57.59,2.49.59.65,0,1.79.32,2.6.32.76,0,1.68.22,2.49.11.76-.11,1.14.05,1.84-.05.7-.11,1.46,0,1.79-.05.7-.16.97.11,1.84-.16.65-.27,1.13-.05,1.78-.22,1.03-.27,1.35-.59,1.95-.49.49.05,1.03-.11,1.57,0,.49.16.86.11,1.4.49s.92.54,1.41,1.08c.38.43.43.92.43,1.19ZM392.51,6.73c.49-.49.92-.11,1.51.38.65.54,1.19,1.24,1.89,1.51.76.32.81.76,1.62.97.76.22,1.57.43,2.38.49l1.03.05c.81.05,1.73.22,2.38.27.76.49,1.03.05,1.84.16.87.11,2.05.11,2.92.49.7.32,1.03-.22,2.27.43.81.43,1.24.05,2.05.59.43.27,1.03.32,1.62.54.38.16.97.65,1.4,1.03.49.38.65.87.92,1.46.22.54.43.97.32,1.41-.22.76-.22,1.41-.87,1.62-.38.32-1.13.59-1.57.59-1.19-.05-1.51-.38-1.78-.43-.65-.22-1.3-.32-1.68-.32-.65,0-1.13.16-1.84.22-.7.05-.81.32-1.57.43-.65.11-1.08.43-1.68.59-.76.22-1.13.49-1.84.76-.54.16-.49.32-1.03.54-.6.22-.97.49-1.41.7-.81.43-.87.76-1.19.86-.76.22-.97.59-1.24.7-.54.22-.76.49-1.19.76-1.3.81-1.84,1.41-2.27,1.84-.76.7-1.19,1.03-1.78.59-.49-.32-.11-.97.05-1.24.32-.49.87-1.24,1.3-1.68.59-.59.7-.92,1.19-1.3.65-.49,1.03-.86,1.3-1.03.65-.43.65-.59,1.35-.97.59-.32.97-.81,1.35-1.03.54-.32.7-.38,1.08-.7.43-.22.59-.27,1.08-.54.54-.32.38-.54,1.03-.65.54-.11.27-.43,1.08-.54.27-.05.7-.59.81-.97.11-.43,0-.76-.43-.97-.21-.11-.76-.43-1.51-.43-.81,0-.97-.27-1.84-.32-.7-.05-.87-.22-1.19-.22-.38,0-.7,0-1.35-.16-.32-.11-1.03-.22-1.3-.27-.54-.11-.76-.38-1.24-.49-.59-.16-.76-.43-1.24-.65-.6-.27-.38-.59-.97-.87-.49-.22-.49-.43-.81-.86-.27-.38-.65-.65-.76-1.03-.11-.54-.7-1.84-.22-2.32ZM422.9,13.81c-.27.22-1.03.65-1.41.59-.81-.11-1.51-.7-1.57-1.51-.22-.59-.11-1.14-.49-1.3-.43-.16-.54-.76-.87-1.3-.16-.27-.76-1.19-1.08-1.46-.92-1.08-1.57-1.24-1.62-1.73-.27-1.51,1.62-.81,2.05-.59.7.38,1.68.65,2,1.08.59.59,1.08.92,1.68,1.35.43.38.7,1.08,1.24,1.57.54.49.65,1.14.6,1.84-.05.43-.05,1.14-.54,1.46ZM428.73,10.78c-.38.32-.54.54-1.19.54-.76,0-1.41-.27-1.68-.86l-.38-.76c-.38-.81-.38-1.14-.87-1.46-.7-.43-.76-.86-1.24-1.08-.38-.16-.49-.81-1.46-1.41-.76-.43-1.13-.92-.81-1.41.16-.22.38-.32.65-.32.43,0,.92.16,1.46.32.38.11.97.49,1.68.59.54.05.6.54,1.19.59.38.05.6.43,1.08.76.43.32.87.76,1.13,1.19.38.54.81,1.14.81,2.05,0,.27,0,.92-.38,1.24Z" style="fill:#fafafa;"/><path d="M476.04,44.95c-.16.43-.76.87-1.03.97-.27.11-1.46.22-2.32.49-.43.16-1.19-.05-1.68.11-.43.11-.97.11-1.89.11-.32,0-1.08.16-1.57.16-.11,0-.21-.05-.32-.05-.7-.22-1.13,0-1.57,0h-.22c-1.03-.22-2.11.05-2.65.05-.33,0-.87.05-1.41.05-.43,0-.81-.05-1.13-.11-.81-.16-1.68,0-2.76-.16-1.13-.16-1.79-.22-2.76-.38-.59-.11-.81-.38-1.3-.32-.65.05-1.03-.32-1.3-.38-.76-.16-1.41-.43-2-.87-.49-.38-.81-.43-1.24-.86-.38-.38-.65-.43-.87-1.03-.11-.27-.54-.49-.7-1.03-.16-.54-.54-.81-.54-1.19,0-.43-.27-.81-.32-1.41-.05-.43-.16-.59-.16-.97,0-.11,0-.32.05-.54.05-.76.05-1.46.22-1.95.16-.43.11-1.24.59-1.84.27-.32.38-1.24.92-1.68.38-.7.54-1.03,1.19-1.51.59-.54.59-.76,1.35-1.41.27-.27,1.08-.97,1.51-1.24.38-.22.81-.76,1.62-1.14.32-.16.76-.97,1.57-1.03,1.08-.05,1.08-.7,1.03-1.14-.11-.54.05-.81-.54-1.41-.6-.59-.7-1.24-.87-1.51-.22-.54-.22-.81-.27-1.41,0-.27-.11-1.03-.11-1.35,0-.97.16-2.11.16-2.92,0-.7.27-1.84.27-2.87.16-1.03.05-1.78.21-2.38.22-.7-.11-1.35.05-1.84.11-.38-.22-.49-.22-1.14,0-.7-.43-.97-.59-1.3-.16-.38-.6-.65-1.03-.76-.6-.11-.87-.38-1.62-.32-.33,0-.6-.27-.65-.65-.05-.49.22-1.08,1.03-1.3.38-.11,1.24-.32,1.84-.32.16,0,.32.05.43.05.11.05.22.05.38.05h.43c.16.05.32.05.49.16.54.22.87.22,1.35.54.38.22.87.32,1.24.7.27.27.43.54,1.08.76.81.38.92,1.14,1.08,2,.11.54.11.92-.16,1.46-.27.49-.05.92-.32,1.24-.49.59-.22.81-.32,1.3-.32,1.08-.54,1.73-.7,2.59-.27.97-.49,1.78-.49,2.65,0,.97-.32,1.84-.22,2.65.05.43.05,1.14.11,1.84.05.81.54,1.3,1.03,1.35.6.11,2-.27,2.54-.49.32-.11.76-.43,1.24-.49s.81-.27,1.19-.54c.49-.38.87-.16,1.19-.54.22-.22.49-.22,1.13-.49,1.03-.38,1.68-.54,2.27-.49.43.05,1.35-.11,2.22.22.49.22.97.05,1.62.54.54.32,1.3.76,1.3,1.62,0,.43-.05,1.08-.43,1.3-.27.16-.87.54-1.19.7-.7.32-1.68.38-2.22.54-1.3.32-1.95.38-2.27.43-.49.11-1.08.32-1.68.32-.65,0-1.73.43-2.54.54-1.08.11-1.95.38-2.54.65-.21.11-.81.38-1.3.38-.49-.05-.65.43-1.19.43-.65,0-1.03.27-1.24.49-.32.32-.76.27-1.19.59-.49.38-.76.38-1.35.7-.65.27-1.08.7-1.35.87-.32.16-1.08.65-1.3.92-.21.27-.92.81-1.19,1.08-.43.43-.86.86-1.03,1.19-.32.49-.54.97-.81,1.35-.38.49-.43,1.14-.54,1.46-.21.54-.11,1.03-.16,1.57-.05.7.16,1.3.27,1.68.16.7.59.97.76,1.3.32.54.54.65,1.08.97.43.27.76.59,1.35.7.38.05,1.08.49,1.51.49.81,0,1.19.27,1.62.27s1.24.16,1.62.11c.76-.05,1.19-.05,1.51.05.87.32,1.35-.05,2.38-.05.49,0,1.73-.16,2.32-.22.87-.05,1.57-.16,2.38-.27.7-.11,1.24-.11,2.27-.38,1.08-.27,2.05-.32,2.65-.49.81-.22,1.35-.32,2.16-.32.49,0,1.89.16,2.49.54.6.38,1.35.97,1.41,1.78,0,.32-.16.81-.38,1.35Z" style="fill:#fafafa;"/><path d="M529.03,45.09c-.14.38-.67.77-.91.86-.24.1-1.3.19-2.06.43-.38.14-1.06-.05-1.49.1-.38.1-.86.1-1.68.1-.29,0-.96.14-1.39.14-.1,0-.19-.05-.29-.05-.62-.19-1.01,0-1.39,0h-.19c-.91-.19-1.87.05-2.35.05-.29,0-.77.05-1.25.05-.38,0-.72-.05-1.01-.1-.72-.14-1.49,0-2.45-.14-1.01-.14-1.58-.19-2.45-.34-.53-.1-.72-.34-1.15-.29-.58.05-.91-.29-1.15-.34-.67-.14-1.25-.38-1.78-.77-.43-.34-.72-.38-1.1-.77-.34-.34-.58-.38-.77-.91-.1-.24-.48-.43-.62-.91-.14-.48-.48-.72-.48-1.06,0-.38-.24-.72-.29-1.25-.05-.38-.14-.53-.14-.86,0-.1,0-.29.05-.48.05-.67.05-1.3.19-1.73.14-.38.1-1.1.53-1.63.24-.29.34-1.1.82-1.49.34-.62.48-.91,1.06-1.34.53-.48.53-.67,1.2-1.25.24-.24.96-.86,1.34-1.1.34-.19.72-.67,1.44-1.01.29-.14.67-.86,1.39-.91.96-.05.96-.62.91-1.01-.1-.48.05-.72-.48-1.25-.53-.53-.62-1.1-.77-1.34-.19-.48-.19-.72-.24-1.25,0-.24-.1-.91-.1-1.2,0-.86.14-1.87.14-2.59,0-.62.24-1.63.24-2.54.14-.91.05-1.58.19-2.11.19-.62-.1-1.2.05-1.63.1-.34-.19-.43-.19-1.01,0-.62-.38-.86-.53-1.15-.14-.34-.53-.58-.91-.67-.53-.1-.77-.34-1.44-.29-.29,0-.53-.24-.58-.58-.05-.43.19-.96.91-1.15.34-.1,1.1-.29,1.63-.29.14,0,.29.05.38.05.1.05.19.05.34.05h.38c.14.05.29.05.43.14.48.19.77.19,1.2.48.34.19.77.29,1.1.62.24.24.38.48.96.67.72.34.82,1.01.96,1.78.1.48.1.82-.14,1.3-.24.43-.05.82-.29,1.1-.43.53-.19.72-.29,1.15-.29.96-.48,1.54-.62,2.3-.24.86-.43,1.58-.43,2.35,0,.86-.29,1.63-.19,2.35.05.38.05,1.01.1,1.63.05.72.48,1.15.91,1.2.53.1,1.78-.24,2.26-.43.29-.1.67-.38,1.1-.43.43-.05.72-.24,1.06-.48.43-.34.77-.14,1.06-.48.19-.19.43-.19,1.01-.43.91-.34,1.49-.48,2.02-.43.38.05,1.2-.1,1.97.19.43.19.86.05,1.44.48.48.29,1.15.67,1.15,1.44,0,.38-.05.96-.38,1.15-.24.14-.77.48-1.06.62-.62.29-1.49.34-1.97.48-1.15.29-1.73.34-2.02.38-.43.1-.96.29-1.49.29-.58,0-1.54.38-2.26.48-.96.1-1.73.34-2.26.58-.19.1-.72.34-1.15.34-.43-.05-.58.38-1.06.38-.58,0-.91.24-1.1.43-.29.29-.67.24-1.06.53-.43.34-.67.34-1.2.62-.58.24-.96.62-1.2.77-.29.14-.96.58-1.15.82s-.82.72-1.06.96c-.38.38-.77.77-.91,1.06-.29.43-.48.86-.72,1.2-.34.43-.38,1.01-.48,1.3-.19.48-.1.91-.14,1.39-.05.62.14,1.15.24,1.49.14.62.53.86.67,1.15.29.48.48.58.96.86.38.24.67.53,1.2.62.34.05.96.43,1.34.43.72,0,1.06.24,1.44.24s1.1.14,1.44.1c.67-.05,1.06-.05,1.34.05.77.29,1.2-.05,2.11-.05.43,0,1.54-.14,2.06-.19.77-.05,1.39-.14,2.11-.24.62-.1,1.1-.1,2.02-.34.96-.24,1.82-.29,2.35-.43.72-.19,1.2-.29,1.92-.29.43,0,1.68.14,2.21.48.53.34,1.2.86,1.25,1.58,0,.29-.14.72-.34,1.2Z" style="fill:#fafafa;"/><path d="M30.6,94.59c.54,0,1.41.16,2.33.05.76-.05,1.84-.22,2.43-.05,1.03.22,1.51.05,2.38,0,.87-.16,1.35.05,2.32.05.54,0,1.19-.05,1.68,0,.33.05.97-.05,1.68-.05.27,0,1.57-.32,1.78-.65.22-.27.92-1.14,1.3-1.24.7-.22,1.35.27,1.84.97.22.27.87.54,1.35.92.32.22.81.86.76,1.41,0,.32-.81.92-1.08,1.24-.16.22-.38.54-.49,1.08-.05.43-.22,1.03-.27,1.68-.11.92-.22,1.62-.11,2.65,0,1.24-.22,1.68-.11,2.65,0,.43-.16,1.41-.11,1.95.05.81-.32,1.24-.11,1.95.22.86-.16,1.35-.11,1.95.05.7-.22,1.24-.16,1.89.11,1.03,0,1.84-.22,2.54-.32,1.14-.11,1.95-.27,2.54-.11.97-.32,2-.43,2.54l-.59,2.43c-.32.81-.32,1.24-.59,1.62-.32.43-.38,1.14-.65,1.35-.49.38-.43.65-.81,1.14-.27.38-.59.87-.97.92-.38.05-.65.27-1.08.7-.38.43-.76.43-1.3.54-.65.11-.81.32-1.51.32-.59,0-1.35.65-1.73.22-.49-.49-.49-.86-.97-1.3-.43-.54-1.3-.59-1.68-.65-.49-.11-.92-.22-1.46-.59-.59-.43-.7-.92-.43-1.3.22-.32.22-.97.86-1.03.38,0,1.14-.27,1.41-.22.59.11,1.19.11,1.57.22.54.16.97.22,1.35.16.49-.05.92.11,1.46-.22l1.13-.54c.27-.11.38-.49.92-.87.33-.22.49-.49.65-1.08.05-.22.22-1.03.43-1.3.22-.32.22-.59.38-1.35.11-.59.38-2,.43-2.76.05-.59.22-1.73.32-2.54l.27-2.59c.11-.97,0-1.41.16-2.54.22-.7,0-1.62.16-2.54.22-1.08-.16-1.57.11-2.59.16-.76.11-1.84.11-2.6,0-.86.11-1.73.05-2.65-.05-.59-.05-.87-.22-1.51-.11-.54-.54-1.03-.81-.81-.59.43-1.68.22-2.27.97-.16.22-.16,1.19-.43,1.89-.16.49-.11,1.41-.38,1.84-.38.49-.11,1.08-.33,1.84-.11.43-.32,1.08-.27,1.41.11.49-.32.76-.32,1.35,0,.49-.33.86-.38,1.41-.05.59-.16,1.03-.38,1.35-.16.27-.32.97-.43,1.3-.22.65-.22,1.03-.49,1.35-.27.27-.43,1.08-.49,1.3-.16.54-.27,1.03-.54,1.3-.49.49-.54.81-.65,1.24-.22.76-.49,1.03-.65,1.3l-.7,1.19c-.22.32-.32.81-.76,1.19-.49.43-.65.81-.97,1.19-.38.49-.76.97-.97,1.19l-.97,1.19c-.43.54-.81.65-.97,1.14-.22.59-.86.81-1.08,1.08-.32.43-.76.65-1.13,1.03-.22.22-.87.65-1.19,1.03-.49.54-.76.81-1.19.92-.59.22-1.24.81-1.84,1.24-.81.43-1.46,1.19-1.95,1.24-.49.05-.54.43-1.08.59-.54.11-1.03.43-1.35.54-.81.43-1.51.27-2.11-.22-.32-.27-.54-.7.11-1.24.38-.32.81-.81,1.19-1.19.43-.54,1.14-.87,1.62-1.14.38-.16,1.13-.54,1.57-.92.32-.27.49-.59,1.24-.86.32-.16.54-.81,1.19-.92.49-.05.76-.59,1.19-.92.33-.27.65-.43,1.14-.92.54-.49.76-.65,1.24-1.3.38-.49.81-1.08,1.19-1.3.59-.38.59-1.03,1.08-1.41.43-.32.87-1.03.97-1.46.22-.76.49-.76.92-1.51.38-.7.49-.81.81-1.57.11-.38.43-1.24.76-1.62.16-.22.43-.92.7-1.62.22-.54.49-.92.65-1.78.05-.38.32-.97.54-1.78.11-.38.27-1.14.49-1.84.22-.7.32-1.08.43-1.78.05-.49.22-1.03.32-1.84.11-.65.32-1.14.32-1.78-.05-.92.05-1.89-.05-2.38-.16-.7-.38-1.41-1.08-1.3-.76.16-1.14.16-1.57.27-.7.16-.86.38-1.24.7-.43.38-.16.92-.49,1.41-.16.27-.27.86-.32,1.51,0,.49-.16.81-.33,1.46-.27.97-.43,1.73-.54,2.16l-.65,2.11c-.22.76-.65,1.41-.76,2.11-.11.7-.54,1.35-.81,2-.54.86-.65,1.24-.92,2.05-.32.65-.97,1.35-1.08,1.95-.05.22-.43.76-.7,1.03-.16.22-.49.38-.65,1.03-.16.54-.54.76-.7,1.03-.32.43-.27.76-.65,1.03-.38.27-.43.81-.76,1.03-.43.27-.65.76-.76.97-.27.54-.76.54-.81.97-.16.54-.54.65-.81.92-.27.32-.65.81-1.03,1.19-.32.38-.76.7-1.13,1.19-.38.43-1.08,1.14-1.62,1.3-.81.22-1.24.43-1.73.05-.54-.43-.49-.59-.32-1.14.11-.32.11-.54.59-1.24.27-.43.81-.76,1.03-1.24.27-.54.7-.81.97-1.08l.81-.86c.38-.49.43-.65.76-.92.59-.54,1.08-1.35,1.46-1.78.49-.49.54-.87.92-1.24.27-.27.7-1.03.81-1.3.11-.49.27-.65.81-1.3.32-.38.27-1.03.7-1.35.32-.22.65-1.03.65-1.35,0-.49.43-1.14.59-1.41.27-.49.43-.7.59-1.46.22-.54.27-.76.49-1.46.05-.38.43-.92.43-1.24,0-.54.16-.87.38-1.3.27-.54.16-.7.38-1.35.22-.59.22-.86.27-1.3.11-.59.32-.81.38-1.3,0-.32.43-.76.43-1.35,0-.7,0-1.03-.59-1.3-.54-.16-1.19-.65-1.46-.65-.92,0-2.27-.54-2.76-.05-.49.54-.81.87-1.19,1.89-.16.38-.16.81-.76,1.08-.38.22-.38.59-.7,1.14-.16.32-.7.97-.92,1.35-.38.65-.87,1.03-1.14,1.46-.59.7-.76.87-1.19,1.03-.49.22-.76.22-1.14.05-.65-.27-.59-1.14,0-2.38l.81-1.68c.33-.65.54-1.24,1.08-1.68.27-.27.05-1.24-.7-1.57-.49-.27-.97-.49-1.41-.54-.33-.05-1.08-.22-1.78-.11-.65.11-1.19-.27-1.51,0-.54.49-.05,1.57,0,2,.16.76,0,1.03,0,1.35.11.81,0,1.51,0,2.38,0,.59.22,1.62,0,2.43-.22.81,0,1.57.05,3.03,0,.27.16.05.92,0,.49,0,1.62-.49,2-.54.87-.22,1.62-.65,2.11-.92.49-.27.7-.59,1.46-.76.38-.05,1.08-.32,1.62-.86,1.03-.81,2.11-1.19,2.32-.76.22.43-.32.76-.81,1.24-.54.49-.87.76-1.62,1.3-.27.22-.7.76-1.24.97-.7.32-.81.49-1.35.92-.43.32-1.3.76-1.89,1.19-.7.54-1.46,1.03-1.89,1.14-.76.11-.87.59-1.08,1.3-.22.7-.65,1.03-.59,1.68.05.87,0,1.73-.05,2.54-.05.92.16,1.62-.05,2.54-.16.7,0,1.3.05,1.78.05.43.16,1.08.05,1.84-.11.76.05,1.41.05,1.78-.05.49.11,1.41.16,1.78.16.81.27,1.57,0,2.7-.16.65-.54.7-1.19,1.19-.54.43-1.13.97-1.78.32-.65-.59-.76-1.35-.86-1.95-.11-.54-.05-.92-.11-1.46-.05-.65-.11-1.3.05-1.73.22-.65.22-.97.05-1.68-.11-.49-.11-1.08,0-1.73.11-.65.05-1.19.05-1.68-.05-.65.11-1.89,0-2.54-.11-.76-.22-1.68-1.08-2.11-.65-.32-1.73-.59-2.16-.38-.59.27-1.46.49-2.05.92-.7.49-.81.81-.92,1.35-.05.49-.54.76-.97.7-.49-.05-.87-.05-.92-.59-.11-.49-.59-.65-.87-1.41-.16-.49-.49-.92-.76-1.51-.11-.27-.65-.7-.65-.87,0-.11.05-.16.16-.22.7-.27,1.57-.49,2.38-.81.54-.22,1.46-.59,2.27-.7l2.27-.81c.92-.22,1.41-.49,2.27-.81,1.24-.43.97-1.41,1.03-1.89.11-.97-.11-1.73.05-2.7.11-.76.27-1.62,0-2.65-.16-.7.05-1.62,0-2.65-.05-.81.27-1.78.05-2.65-.11-.43-.76-.49-1.62-.76-.7-.22-.92,0-1.62-.16-.7-.27-1.03-.38-1.62-.11-.59.32-.22.92-.38,1.46-.27.59-.11.97-.43,1.62-.27.59-.32,1.03-.49,1.62-.16.54-.11.86-.54,1.57-.32.49-.22,1.19-.76,1.68-.32.32-.65.92-.87,1.3-.27.38-.81.59-1.03.32-.49-.54-.76-1.24-.65-2.38,0-.38,0-.97.38-1.73.22-.43.49-1.3.49-1.62.11-.76.38-1.89.7-2.49.38-.81.59-1.62.7-2.43.16-1.03.54-1.84.59-2.49-.05-.76.49-1.84.38-2.6-.16-.65.16-1.73.32-2.59.11-.54-.54-2.05.32-2.65.59-.38.92.32,1.51.32.43,0,1.24.11,2.05.54.59.32,1.78.65,1.68,1.19-.22,1.08-1.57,1.19-1.73,1.35-.65.59-.54,1.89-.59,2.38-.11.81-.05,1.3.27,2,.49.76,1.14.76,1.73,1.03.32.16.87-.38.92-.7.05-.27.27-1.14.27-1.46.16-.87,0-1.89,0-2.65,0-.49-.16-1.24,0-2.11.11-.7.05-1.57,0-2.16-.05-.87-.16-1.3-.05-2.16.11-.76-.76-1.89-.11-2.27.38-.22,1.08.22,1.73.16.92-.05,1.35.22,2.16.32.87.16,2.11.27,1.78,1.03-.27.65-.86.92-1.19,1.3-.32.43-.86,1.46-.86,2.27,0,.76-.11,1.08,0,1.84.11.81.16,1.14,0,1.78-.11,1.03-.05,1.89,0,2.65.05.76.16.86.27,1.46.05.27.16.59.81.7,1.73.32,1.51-1.3,1.68-1.46.49-.49.65-1.19,1.35-1.51.54-.27.65.65.97.81.49.27.76.54.97.76.43.43,1.03.54,1.84.7.7.05,1.19,0,1.19-.54,0-.49.43-1.08.7-1.51s.38-.76.54-1.24c.27-.92.43-1.03.76-1.78.11-.32.54-1.14.65-1.73.16-.65.59-1.41.65-1.68.05-.43.43-1.24.59-1.73.16-.43-.16-1.78.65-1.78q.38,0,1.14.11l1.78.22c.32,0,1.24.32,1.62.7.38.38.76.7.76,1.46-.05,1.41-1.51.76-1.95,1.14-.49.43-.43,1.03-.59,1.24-.16.27-.49.87-.59,1.14-.22.54-.16.7-.59,1.19-.49.49-.43.87-.59,1.14-.38.65-.7,1.24-.87,1.62-.32.86-.27,1.19-.11,1.78.32.76.97.92,1.35.92h1.68Z" style="fill:#fafafa;"/><path d="M61.68,92.91c-.22-.22.49-.7,1.19-1.24.59-.32,1.46-.49,2.16-.16.59.27,1.57.43,2.11.38,1.13-.11,1.73,0,2.7,0,.7,0,2,.05,2.76,0,1.13-.11,1.73,0,2.76,0,.76,0,1.95.22,2.65,0,.32-.11.38-.38.92-.97.22-.27.59-.54.97-.92.49-.49.7-1.03,1.08-1.03.86,0,1.03.49,1.35,1.03.16.32,1.24.81,1.95,1.08.43.16.43.54.92.92.43.38.22.97.16,1.24-.16,1.19-1.19.86-2.22.92-.76,0-2.05-.49-2.65-.49-.92.11-1.84.11-2.38.16-1.03.11-1.78-.05-2.27.05-.92.22-1.62-.11-2.22.05-.92.11-1.68,0-2.22,0-.97,0-1.19.05-2.11.05-.81,0-1.24.05-2.16,0-.54,0-1.3.05-2.11.38-.92.27-1.51.16-2.16-.22-.81-.49-.76-.76-1.19-1.24ZM64.77,98.37c.54-.11,1.73-.27,2.16-.16.87.16,1.24.38,2.11.38.92,0,1.78.22,2.92,0,.76-.22,1.78.27,2.76,0,.76-.22.87-.76,1.19-1.14.22-.27.54-.27.7-.65.11-.32.11-.27.49-.49.59-.38,1.24.16,1.62.59.54.59.97.65,1.89,1.03.81.38,1.19,1.14,1.08,2-.05.81-.76,1.03-1.19,1.24-.7.38-1.24.11-1.78.05-.86.05-1.08,0-1.95-.38-.49-.16-1.46-.27-1.84-.27-1.13,0-1.84.22-2.97.11-.92-.22-2.11,0-2.92,0-.54,0-1.41.38-2.11.38-.87,0-1.68,0-2.16-.22-.65-.43-1.41-.65-1.19-1.24.16-.54.27-1.08,1.19-1.24ZM63.58,106.59c.05-.38.54-1.03,1.19-1.24.54-.16,1.46-.27,2.16-.16.87.11,1.35.38,2.11.38,1.19-.05,2,.11,2.97,0,1.03-.16,2,.43,2.87,0,.32-.16.87-.87,1.19-1.14.27-.22.38-.38.65-.65.43-.32.65-.38.76-.38.65.11.7.32,1.35.49.43.11,1.35.38,1.89,1.03.65.59,1.46,1.08,1.08,2-.38.86-.87,1.19-1.19,1.24-.49.05-1.13.32-1.78.05-.65-.16-1.46-.32-2-.38-.87-.11-1.57-.27-1.84-.27-1.03.11-1.89.05-3.03.05s-1.89.16-2.92.05c-.65-.05-1.62.38-2.11.38-.49-.05-1.68.22-2.16-.22-.81-.7-1.24-.81-1.19-1.24ZM64.77,84.48c.87-.16,1.24-.16,2.16-.16.54,0,1.35.16,2.11.38.7.16,1.89.16,3.14,0,.92-.11,1.78.27,2.97,0,.43-.05.92-.97,1.19-1.14.49-.27.38-.38.7-.65.43-.38.22-.32.49-.49.49-.27,1.35.27,1.62.59.59.7,1.24.76,1.89,1.03.49.22,1.35,1.35,1.08,2-.32.76-.7.87-1.24,1.24-.32.22-1.35.11-1.84.11-.7-.05-1.51-.32-2-.43-.92-.05-1.41-.22-1.84-.27-1.3-.05-2.27.22-3.14.11-.97-.16-2-.05-3.03,0-.97.05-1.35.38-2.11.38-.65,0-1.68.22-2.16-.22-.59-.54-1.08-.54-1.19-1.24-.05-.32.49-1.14,1.19-1.24ZM81.09,125.3c0,.43.05,1.35.05,2.05s-.49,1.68-1.03,1.84c-.7.22-1.46.81-2.05.54s-.38-.65-.54-1.41c-.16-.59-.05-.86-.05-1.41s-.32-.76-.81-.97c-.43-.11-.7-.59-1.35-.49-.97.16-1.62,0-2.49,0-.7,0-1.84-.11-2.54,0-.49.11-.92.38-1.35.43-.59.05-.38.54-.7.97-.32.49.22,1.19,0,1.78-.16.54-.49,1.08-.87,1.41-.54.49-.81.43-1.62.49-.54.05-1.24-.22-1.24-.87,0-1.03-.05-1.62,0-1.95.11-.59.05-1.03.05-1.62,0-.7-.05-1.03.05-1.89.05-.43.22-1.08.05-1.84-.05-.32.05-1.08.05-1.84,0-.7.11-1.3,0-1.89-.05-.43.22-1.19,0-1.84-.11-.32.11-1.3,0-1.84-.11-.7-.22-1.19-.05-1.89.05-.54-.43-1.68-.05-2,.43-.38,1.41.22,2.16.65.65.38,1.24.49,1.95.92s1.68,0,2.81,0,1.84.11,2.87,0c.27-.05,1.46.05,2-.27.43-.27.76-.27,1.19-.49.38-.16.65-.54,1.19-1.03.49-.43.92.05,1.13.32.49.54.81.59,1.3.92.49.32.97.7,1.08,1.08.11.32.43.65.43.97,0,.49-.38.32-.65.7-.16.22-.87.49-1.14,1.35-.22.65-.16,1.57,0,2.32.22.76-.05,1.14,0,2-.05.49.11,1.3.05,1.68-.11.87.05,1.03.05,1.62l.05,1.46ZM76.71,115.4c-.59-.43-.81-.87-1.3-.65-.7.27-1.78.05-2.27,0-.97-.11-2.05,0-2.59,0-.59,0-.7.16-1.24.65-.32.27-.81.81-.76,1.19.11.76-.22,2.05-.22,2.7,0,.81.16,1.62-.11,2.27-.11.43.27.92.7,1.19.33.22.7.59,1.35.59.87,0,2,.05,2.54,0,.76-.11,1.57-.22,2.49,0,.49.11.81-.43,1.35-.65.76-.38.7-.87.7-1.3-.05-.7-.05-1.78,0-2.38,0-.49-.05-1.57,0-2.32,0-.54-.16-.97-.65-1.3ZM99.96,94.32c.76,0,1.89-.32,2.27-.81.32-.38.65-.92,1.24-1.08.43-.11.76.11,1.19.38.49.32,1.03.76,1.3.92.65.32.76.76,1.13,1.14.32.32.54.65.43,1.03-.05.22-.38.49-.65.76-.49.49-.65.76-1.19,1.51-.38.54-.11,1.3,0,1.68.11.97.32,1.68.81,2.38.59.65.81.87,1.41.32.49-.43.54-1.03.97-1.03s1.03.7,1.35,1.08c.43.49.59.49.97.81.43.43.65.38,1.03.87.59.7.92,1.35.92,1.68,0,.16-.05.22-.16.27-.22.05-.22.49-.43.38-1.08-.59-2,.11-3.19.11h-3.08c-1.08,0-1.89.05-3.08,0-1.24-.05-2.11.27-3.08,0-.81-.11-2,.11-3.08,0-.86-.05-2-.11-3.08,0-1.03.22-2.11-.11-3.08-.05-1.03.22-1.95-.16-3.03.05-.87.32-1.78.49-2.49.38-1.03-.11-1.78.32-2.54-.22-.43-.43-.49-.76-.97-1.3-.16-.16.43-.97.97-1.19.87-.32,1.95-.27,2.54-.16.76.11,1.78.38,2.49.38.65,0,.92.16,1.46,0,.54-.11.97-.97,1.13-1.57.27-.86.27-1.68.65-2.54.16-.32.22-1.3.43-1.95.22-.76.16-1.95-.27-2.11-.32-.11-1.08,0-1.57.16-.49.16-.97.11-1.35.22-1.03.38-1.73-.05-2.38-.22-.92-.27-1.03-.87-1.03-1.14,0-.38.43-1.19,1.03-1.35.49-.11,1.41-.27,2.43-.16.76.05,1.13.11,1.51.22.76.16,1.3.49,1.89.16.65-.38.92-.59,1.08-1.46.27-.76.22-1.51.54-2.38.16-.49.38-1.19.43-1.78,0-.32.05-.87-.32-1.3-.27-.38-.81-.59-1.14-.65-.59-.11-.97-.11-1.73,0l-2.7.38c-1.19.16-2.11.22-2.87-.22-.7-.38-.97-.65-.92-1.24.05-.43.32-1.03.92-1.24,1.08-.43,2.05-.16,2.87-.16.7,0,1.84.38,2.7.38h3.03c1.24,0,1.95.22,3.03,0h3.08c.92-.16,2.38.59,2.97,0,.22-.22.76-.59.92-1.03.11-.32.59-.38.76-.86.22-.65.76-1.35,1.51-1.57.54-.16.65.32.97.7.32.32.59.32.92.76.27.27.7.27.97.76.16.27.38.32.92.81.92.81.76,1.35.81,2.05.05.43-.11.49-.43.38-1.03-.32-2.05.27-2.92.05-.7-.16-2-.11-2.7.05s-1.24,0-1.62,0c-.81-.05-1.13.11-1.51,0-.65-.22-1.3.16-1.78.32-.38.16-1.73.49-1.78.86-.05.49-.05.59-.27,1.41-.11.43-.11.76-.33,1.46-.32.97-.11,1.68.05,2.32.38.92.49,1.19.97,1.19h1.73ZM87.58,112.48c0-.76-.7-1.57,0-2.05.81-.59,1.68.54,2.27.7.7.11,1.3.86,2.11.97,1.19.16,1.95.22,3.13,0,.81-.05,1.95.05,3.14,0,.54,0,1.19.11,2.11,0,.87-.05,1.46,0,2.11,0,.81-.05,1.46-.11,2.43-.81.49-.32.59-1.08,1.3-1.08.54,0,.7.16,1.19.38.59.27,1.14.54,1.41.97.22.32.76.49,1.14,1.19.11.22.87.65.43,1.03-.32.27-.43.43-.65.76-.38.54-.92.76-1.24,1.46-.27.59,0,.86,0,1.46.05.59,0,.92,0,1.68,0,.32-.11,1.24,0,1.68.22.65.05,1.03.05,1.68l.05,1.68c0,.38-.11.87.05,1.46.11.54.05,1.35.05,2.22,0,1.14-.59,1.46-1.08,1.95-.43.49-1.24.43-1.78.54-.54.11-1.3-.54-1.08-1.62.05-.32-.11-1.03-1.03-1.19-.76-.16-1.51-.38-2.11-.43-.54-.05-1.08.22-1.78,0-.49-.16-1.46-.11-1.78,0-.59.22-1.3.16-1.78,0-.59-.22-1.46.11-1.78,0-.49-.11-1.68.32-2.11.27-.43-.05-.76.22-.97.76-.43.92-.54,1.35-.92,1.89-.32.49-1.35.59-1.78.59-.7.05-1.3-.05-1.24-.92.11-1.24,0-1.46,0-1.89,0-.32.16-1.03.05-1.57-.11-.59-.11-1.14.05-1.95.11-.54.11-1.46.05-2-.05-.49-.27-1.35.05-1.95.22-.38.05-1.14,0-1.95-.05-.76-.16-1.08,0-1.95.05-.38,0-1.08,0-1.95l-.05-2ZM100.07,114.21c-.86,0-1.08-.16-1.68,0-.7.16-1.24-.05-1.89,0-.76.05-1.41,0-1.89,0-.76,0-1.08.38-1.78.81-.81.32-.97,1.24-1.08,1.51-.16.38-.16.92-.16,1.68,0,.65-.11,1.3-.11,1.68.11.97-.22,2.05-.11,2.76.05.27.49,1.3,1.08,1.51.76.32,1.24.97,2,.81.38-.05,1.3-.11,1.78,0,.76.27,1.46.16,1.78,0,.43-.22,1.24.27,1.78,0,.43-.22,1.46-.11,1.78,0,.43.11,1.57-.54,2.05-.87.81-.54,1.03-1.19,1.03-1.62-.05-.76-.05-1.95,0-2.92.05-1.03-.05-1.78,0-2.92,0-.65-.65-1.19-.97-1.62-.59-.76-1.46-.81-1.95-.81h-1.68ZM102.01,98.37c.05-.32-.59-1.08-.97-1.3-.43-.27-1.46-.49-1.95-.65-.59-.22-1.68.05-2.05,0-.54-.11-1.51,1.14-1.57,1.51-.16.76-.54,1.57-.65,2.6-.16.76-.43,1.24-.49,1.89-.05.43.59.65,1.24,1.41.27.32.81.49,1.35.54.43.05.97.22,1.46.22.38,0,1.3-.16,2,0,.27.05.97-.76,1.08-1.35.16-.81.65-1.78.54-2.54-.11-.76,0-1.41,0-2.32Z" style="fill:#fafafa;"/><path d="M148.56,96.24c-.62.43-.96.72-1.2,1.06-.38.48-.62,1.01-.77,1.39-.19.53-.62,1.34-.86,1.97s-.62,1.44-.72,1.87c-.14.48-.43,1.2-.67,1.92-.29.72-.48,1.49-.62,1.87-.34.77-.62,1.44-.62,1.92,0,.58-.34.67-.34,1.15,0,.58-.29.72-.34,1.15,0,.29-.43.48-.34,1.15.05.34-.24.53-.34,1.15-.05.38-.14.67-.29,1.15-.05.29-.29.82-.29,1.15,0,.91-.58,1.78-.58,2.35,0,.53-.24,1.1-.24,1.73,0,.77-.14,1.15-.1,1.73.19,1.2,0,1.39.24,1.87.38.77.19,1.01.24,1.73,0,.53-.05.91-.48,1.34s-.67.62-1.15.62h-.29c-.62,0-1.06-.29-1.49-.67-.43-.38-.67-.58-.96-1.06-.24-.34-.48-.62-.82-1.1-.24-.38-.14-.77-.53-1.2-.1-.29-.24-.67-.34-1.25-.14-.62-.19-1.1-.29-1.34-.1-.24-.19-.82-.19-1.34,0-.19-.14-.58-.14-1.06v-.29c.05-.24.05-.43.05-.67,0-.62-.1-1.34-.1-1.97,0-.91.05-1.44.05-2.11,0-.43.05-1.58.05-2.06v-.43c0-.58.05-1.1.14-1.63.1-.43.19-1.1.19-2.06,0-.86.24-1.15.29-2.02-.05-.72.24-1.2.29-2.06.05-.67.19-1.44.34-2.06.19-.77.38-1.39.43-2.02.05-.58.05-.86.29-1.39.1-.24,0-.96.29-1.44.19-.48-.05-.72.14-1.25.19-.34-.14-.77,0-1.25.14-.38.05-1.01-.24-1.73-.19-.53-.58-.96-1.06-1.34-.53-.43-1.34-.82-.86-1.54.14-.19.34-.29.62-.29.43,0,.96.24,1.34.34.62.14.91.62,1.34.72.38.1.62.62.96.82.67.38,1.01,1.1,1.25,1.63.38.58.43,1.54.48,2.02,0,.53-.14.91-.34,1.49-.19.86-.53,1.1-.77,1.87-.19.53-.62,1.34-.67,1.92-.05.53-.48,1.44-.58,1.97-.19.82-.38,1.39-.43,1.97-.05.72-.19,1.54-.34,2.02-.19.77-.05,1.63-.24,2.06-.24.58-.19,1.44-.14,2.02.1.77-.1,1.44-.1,2.06,0,.53.24,1.39,0,2.02-.14.38-.24,1.68.14,2.69.14.43.1,1.01.19,1.25.1.29.29.86.53.86.34,0,.53-.43.72-.82.24-.43.58-1.34.77-1.97.1-.43.58-1.1.77-2.02.1-.53.29-1.25.77-1.97.43-.58.38-1.25.72-1.97.29-.43.48-.72.48-1.2,0-.43.24-.58.48-1.15.24-.43.24-.91.48-1.2.34-.58.29-.62.43-1.15.24-.53.38-.67.48-1.2.05-.24.34-.82.53-1.15.29-.38.14-.72.48-1.15.34-.48.34-.86.48-1.2.14-.34.29-1.01.67-1.39.24-.24.14-.82.62-1.25.29-.29.58-.72,1.06-1.1.53-.38.43-.67,1.15-.96.48-.19.77-.67,1.15-.72.48-.05.58-.43,1.1-.48.58-.1,1.2-.48,2.21-.48.77-.05,1.25-.29,1.73-.19.58-.05,1.2-.29,1.73-.14.53.19.96-.14,1.78-.1.38,0,1.06.05,1.73,0,.86-.05,1.34-.14,2.26-.19.77,0,1.15-.14,1.54-.1.53.05.82-.14,1.15.14.19.19.77.14,1.15.48.29.24.86.48.91.82.05.29.43.86.38,1.1-.1.43-.14.91-.53,1.39-.24.29-.91.53-1.39.53-.67.05-.86.14-1.34.14-.38,0-.67.19-1.3.19-.58,0-1.01.29-1.2.24-.43-.1-.82.29-1.2.34-.48.1-.62.34-1.06.53-.58.24-.67.43-1.06.62-.62.29-.72.48-1.25.77-.77.38-.91.62-1.34.91-.53.34-.67.58-1.15.96-.62.53-.86.82-1.06,1.06-.62.62-1.06.86-1.3,1.2-.34.48-.67.72-1.15.53-.38-.14-.24-.77-.05-1.15.19-.34.48-.86.91-1.39.29-.34.62-.96,1.2-1.54.48-.48.48-.62,1.01-1.1.34-.29.62-.53,1.06-1.01.24-.29.67-.58.96-.82.43-.38.48-.62.91-.82.34-.14.43-.38.38-.77-.05-.43-.62-.38-.91-.48-.53-.19-1.3-.05-1.97,0-.72.05-1.54-.14-2.16.1-.77.29-1.63.19-2.11.34-.53.14-1.34.24-1.87.58ZM169.01,121.15c-.19.24-.62.43-1.01.62-.82.38-1.87.24-2.4.38-.53.14-1.2-.05-1.63-.05-.53-.05-1.34-.19-1.82-.19-1.01.05-1.25-.34-1.97-.29-1.06.05-1.2-.24-2.02-.43-.77-.14-1.25-.43-1.92-.58-.77-.14-.91-.48-1.63-.62-.62-.19-1.25-.48-1.63-.96-.48-.58-1.1-.72-1.44-1.3-.29-.53-.72-.72-.82-1.49-.14-.48-.53-1.3-.53-1.73,0-.67-.34-1.3-.29-2.02.05-.72-.14-1.73-.14-2.59,0-1.01-.05-1.58.58-1.58.29,0,.58.14.77,1.2.14.67.48,1.49.53,1.87.1.62.38,1.1.38,1.54,0,.53.38.67.43,1.3,0,.24.14.48.53,1.01.24.34.53.62.72.72.38.19.34.34.96.53.67.24,1.25.48,1.78.53.62,0,1.25.19,1.87.29.62.1,1.1.1,1.92.19.67.1,1.06.1,1.87.05,1.3-.05,1.39.1,2.02-.1.38-.14.96.19,1.54.14.43-.05.72.53,1.54.53.38,0,.58.43,1.49.67.43.1.77.96.77,1.34,0,.43-.19.67-.43,1.01Z" style="fill:#fafafa;"/><path d="M212.04,119.35c-.11,1.08-.05,2.05,0,2.81.05.81.76,1.14,1.3,1.62.87.65,1.46.76,2.38.81.65.05,1.08.16,2.11,0,.76-.11,1.46-.05,2.11,0,.54.05,1.3-.27,2.16,0,.65.16,1.24-.11,2.11,0,.7.16,1.62,0,2.38-.65.59-.49.92-.65,1.24-1.24s-.16-1.46,0-2.32c.11-.81.05-1.62,0-2.16-.05-.65-.16-1.24,0-2.16.05-.43.16-.92,0-1.62-.11-.49,0-.92,0-1.62,0-.65-.22-1.3-.05-1.68.16-.32-.54-1.24-.11-1.68.38-.38.7.11,1.35-.16.38-.16,1.08-.16,1.95-.16.54,0,1.13.16,1.84.38.7.16.92.76,1.19,1.57.43.81-.7.92-1.35,1.41-.38.27-1.08,1.19-.92,1.46.27.43-.11,1.41,0,2.22l.05,2.05c0,.49-.05,1.3,0,2.11.05.87-.05,1.68.05,2.11.11.49-.11,1.57.05,2.05.16.38,0,1.03.05,1.68,0,.49-.05,1.08.05,1.84.05,1.08-.81,1.46-1.19,1.68-.81.49-1.24.76-1.78.49s-.65-1.51-1.03-2.22c-.16-.32-.43-.65-.7-.81-.32-.22-.76-.27-1.35-.43-.43-.11-1.62,0-2.32,0-.54,0-1.3.05-2.22,0-.97-.11-1.51,0-2.22,0-.81-.05-1.78.11-2.22,0-.76-.16-1.46,0-2.27,0-.81.05-1.3,0-2.22,0-.97,0-1.73-.05-2.33-.05-.92,0-1.51.11-2.16.05-.92-.11-1.62-.05-2.22,0-.87.11-1.41-.16-2.22,0-.97.16-1.57,0-2.22,0h-4.43c-.92,0-1.84.16-2.32,0-.27-.11-.97.38-1.35.49-.65.22-.81.49-.59.81.32.49-.05,1.14-.05,1.73s-.59,1.14-1.03,1.3c-.49.22-1.35.49-1.73.43-.7-.11-1.14-.54-1.19-1.14-.05-.65-.32-1.73-.05-2.92.22-.81.05-1.3.05-1.95,0-.86.05-1.41.05-2.38,0-.65.27-1.57.05-2.43-.05-.54.05-1.41,0-2.43-.05-.65,0-1.51,0-2.38,0-.65-.22-1.19,0-1.68.22-.76-.11-.86,0-1.62.05-.65-.05-1.03-.05-1.68,0-.76-.27-1.08-.11-1.78.11-.43.7.16,1.35-.11.81-.32,1.19-.38,1.89-.16.49.11,1.19.11,1.89.38.27.11.97,1.03,1.19,1.51.54,1.08-1.03,1.46-1.35,1.46-.7.05-.59.76-.65.97-.16.54-.43.76-.27,1.46.11.49,0,1.3,0,2v2c0,.65.05,1.24,0,1.62-.05.49,0,1.35,0,1.62.05.43.32,1.35,1.24,1.78.54.32.7.49,1.14.7.27.16.59.32,1.24.27.54-.05,1.13-.11,2.05,0h2.11c.43.05,1.24-.11,2.05,0,.87.11,1.46-.11,2.11,0,.65.11,1.68-.59,2.38-.81.49-.22,1.3-.97,1.19-1.62-.16-.7,0-2.05,0-2.81,0-.92.11-2.05,0-2.7-.22-.7.05-2.05,0-2.76-.05-.7,0-1.62,0-2.7,0-1.14-.11-1.57,0-2.7.22-.92.11-2.05,0-2.87-.11-.76-.43-1.08-1.03-1.57-.43-.38-1.3-.92-2.05-.81-.81.11-1.24,0-1.84,0h-1.84c-.38.05-1.08.11-1.84,0-.65-.16-1.35.05-1.84,0-.49,0-1.57.05-2.16.27-.87.27-1.13.43-1.13.76,0,.92-.38,1.35-.97,1.57-.49.27-1.24.49-1.68.49-.65,0-1.19-.38-1.24-1.14-.22-1.89.05-2.6.05-3.08,0-.43-.05-1.24.05-1.84.11-.76,0-1.57,0-2,.05-.81,0-1.46.05-1.95.11-.54-.11-1.14,0-2,.16-.54,0-1.57,0-2,0-.32.11-1.24,0-1.68-.16-.54-.22-1.19,0-1.62.16-.49.11-1.19-.05-1.68-.11-.43-.43-1.3-.11-1.73.27-.38.7,0,1.35-.16.59-.16,1.13-.16,1.95-.16.59,0,1.19-.11,1.84.38.43.38,1.03.65,1.19,1.57.27.87-.87,1.19-1.35,1.41s-.59.43-.65.97c-.05.43-.27,1.08-.27,1.46v4c0,.27.05,1.3,0,1.62-.16.59-.27,1.3,0,1.68.22.32.49,1.41,1.08,1.78.65.43,1.35.97,2.05.97s1.24.11,1.84,0c.81-.16,1.51.11,1.84,0,.32-.11,1.03-.22,1.84,0,.49.11,1.24-.22,1.84,0,.43.22,1.3-.11,2.05-.76.7-.43,1.03-1.03,1.03-1.41,0-.86.11-1.89,0-2.59-.05-.59.16-1.35,0-2.43-.16-.86-.11-1.51,0-2.43.05-.87-.05-1.73,0-2.43,0-.59-.05-1.51,0-2.38.11-.54,0-1.62-.05-2.43-.05-.97-.7-1.95-.11-2.49.32-.32.87,0,1.35-.16.43-.11,1.24-.27,1.95-.16.43.05,1.41-.05,1.84.38.38.32.97.81,1.19,1.57.32,1.08-.87,1.08-1.41,1.41-.49.27-.43.7-.59,1.19-.11.43-.27,1.08-.27,1.84,0,.7-.22,1.73,0,2.65.16.87,0,2.05,0,2.7.05.81-.05,1.41,0,2.11.05.76,0,1.73,0,2.16,0,.65.32.97.32,1.19.05.49.54.81.81,1.19.22.38.32.7,1.03.92.38.11.54.32,1.03.38.38.05,1.3.05,1.89,0,.86-.11,1.46-.16,1.84,0,.43.11,1.35-.05,1.84,0,.49,0,1.19-.11,1.89,0,.59.05,1.57-.22,2.05-.7.38-.38,1.3-.59,1.08-1.3-.16-.54,0-1.68,0-2.38,0-.87.16-1.3,0-2.27-.16-.97,0-1.3,0-2.27,0-.76-.11-1.3,0-1.62.22-.59-.16-.87,0-1.62l-.05-1.62c.05-.32-.49-1.62-.11-1.73.49-.16,1.03-.16,1.35-.16.7,0,1.46-.22,1.95-.16.7.05,1.41.32,1.84.38.54.11.97.92,1.19,1.57.33,1.19-.97.76-1.35,1.41-.43.43-.97.86-.92,1.46.11.59-.16,1.57,0,2.22.22.86-.05,1.46,0,1.84.16.81-.11,1.14.05,1.89.11.43.05,1.14.05,1.84,0,.86,0,1.46.05,1.89.11.65.22,1.3.05,1.68-.27.81-.05,1.46.05,2.05.16.92-.65,1.46-1.19,1.68-.49.22-1.3.81-1.78.49-.49-.32-.49-1.14-.86-1.57-.33-.43-.65-.38-1.3-.59-.81-.27-1.57-.49-2.16-.27-.49.16-1.41,0-1.89,0-.65,0-1.24-.05-1.84,0-.59.05-1.35,0-1.84,0h-1.89c-.54-.05-1.73.49-2.05.81-.86.65-1.24,1.3-1.13,1.57.43,1.03-.05,2,0,2.87.11,1.08-.11,1.73,0,2.7.11,1.14-.27,1.62,0,2.7.22.7,0,2.11,0,2.76v2.7Z" style="fill:#fafafa;"/><path d="M251.29,101.78c.59-.49,1.3-.97,1.62-1.35.43-.49,1.08-.87,1.62-1.41.59-.59,1.13-1.19,1.51-1.46.32-.27,1.08-1.24,1.51-1.57.22-.16.65-.32.76-.87.11-.38.54-.43.76-.92.32-.65.87-.97,1.51-1.78.49-.65,1.03-1.24,1.41-1.89.38-.54.87-1.3,1.35-1.89.27-.32.27-.38.7-.97.38-.49.54-.49.65-.97.11-.43.76-1.08,1.24-1.95.22-.38.65-1.19,1.19-2,.27-.38.38-.87.65-1.08.32-.22,0-.76.59-1.03.54-.22,1.3.38,1.73.49.54.11,1.46.05,2.22.76.38.32.92.32,1.24.76.16.22.43.38.38.97-.05.49-.65.92-.59,1.35.11.76-.05,1.35.38,1.57s.49.92,1.08,1.46c.65.49.86,1.08,1.41,1.68.43.54,1.08,1.24,1.46,1.57.43.32.65.76.97.97.43.27.76.49,1.03.92.43.54.7.49,1.03.86.38.43.65.49,1.08.81.54.38.87.43,1.08.76.49.54.7.7,1.08.76.32.05.81.7,1.14.7.7,0,.92.54,1.19.7.32.22.65.22,1.13.65.27.27.65.59,1.19.65.38.05.76.22,1.19.59.27.22.97.27,1.19.59.32.43.92.38,1.19.54.38.27.81.32,1.19.38.59.11,1.24.38,1.78.38.27,0,.76.7.59.97-.22.38-.7.7-1.03.97-.32.32-.38.54-1.14.81-.27.11-.43.49-.92.86-.27.22-.38.97-.7.97-.76,0-1.46-.92-2.11-1.08-.59-.16-1.3-.76-1.95-1.08-.49-.22-1.24-.7-1.95-1.19-.7-.49-1.41-1.03-1.89-1.3-.43-.22-.7-.65-1.08-.81-.54-.22-.76-.59-1.03-.86-.32-.32-.65-.43-1.03-.87-.43-.54-.7-.65-.97-.92-.43-.38-.54-.65-.97-.92s-.59-.7-.92-.97c-.38-.32-.27-.54-.87-1.03-.27-.22-.38-.49-.86-1.03-.38-.49-.43-.76-.81-1.03-.43-.32-.54-.59-.81-1.08-.16-.22-.22-.59-.76-1.08-.32-.27-.32-.59-.7-1.14-.27-.38-.54-1.03-.92-1.57-.54-.7-1.03-1.08-1.51-1.19-.43-.05-1.19,0-1.51.43-.22.32-.54.76-.87,1.24-.49.76-.92,1.24-1.3,1.73-.65.76-1.08,1.19-1.41,1.73-.38.59-1.03,1.35-1.41,1.68-.54.49-.97,1.41-1.51,1.62-.76.32-.97,1.24-1.57,1.62-.76.54-1.08,1.03-1.62,1.51-.65.59-1.19,1.24-1.62,1.46-.59.32-1.24,1.14-1.57,1.41-.59.54-1.3.92-1.68,1.46-.43.59-1.19.81-1.57,1.3-.27.32-1.35,1.24-1.73,1.41-.81.27-1.13,1.08-1.68,1.3-.54.16-.54.65-1.03.76-.49.11-.92.49-1.3.7-.76.59-1.68.7-2.16,0-.43-.7,0-1.3.59-2.05.27-.32.54-.81,1.08-1.08.59-.32.59-.49.97-.81.32-.32,1.13-.97,1.62-1.24l1.73-1.35ZM274.64,110.81c.59,0,1.19-.22,1.89,0,.49.11,1.35,0,1.95,0,.54,0,1.19-.11,1.84,0,.65.11,1.35-.05,1.84,0,.76.05,1.19.16,1.78,0,.54-.11.7-.38.87-.92.11-.32.54-.38.87-.86.22-.38.32-.76.86-.87.43-.05.22-.81.87-.86.81-.11,1.24.54,1.95.86.54.22.59.65,1.08.92.38.16.7.7,1.03.92.87.54.97.81,1.57,1.14.43.22.38.65.22,1.14-.22.7-.7.81-1.24,1.19-.76.38-1.08.16-1.68,0-.54-.11-1.14-.16-1.84-.49l-1.62-.32c-.38-.05-1.3-.05-1.62.05-.7.22-.87.11-1.51.05-1.3-.05-2.22.11-3.08.05-.86-.05-2,.05-3.03.05-1.19,0-2.32-.27-3.03,0-.27.11-.97.11-1.73.05-.87-.11-1.24,0-1.78,0-.76,0-1.03.22-1.78.32-.54.05-1.41.16-2,.86-.22.27-.54.81-.81,1.35-.27.49-.54,1.08-.97,1.41-.32.32-.7,1.03-.97,1.41-.38.59-.76.76-1.03,1.41-.16.49-1.03.92-1.13,1.41-.05.43-.43.59-.7.87-.32.38-.43.7-.92,1.08-.92.81-.32,1.57.27,1.51,1.3-.05,2.22-.05,2.87-.16.65-.22,1.41-.27,2.38-.11.54.11,1.46-.11,2.22-.11.65,0,1.46-.27,2.22-.16.76.11,1.73.05,2.22-.16.81-.38,1.57,0,2.27-.16.54-.11,1.24.05,2.32-.16.59-.11,1.84-.16,3.03-.27.27,0,.43-.43.27-.97-.22-.59-.59-1.51-1.13-1.68-.27-.11-1.03-.81-1.3-1.08-.27-.32-.97-.65-1.41-.86l-1.68-.87c-.59-.32-.92-.65-1.3-.81-.54-.27-.38-.43-.38-.76.05-.38.76-.16,1.73-.05.87.11,1.57.7,2.38.81.76.11,1.24.43,1.84.65.65.22,1.03.54,1.73.81l1.68.92c.59.32,1.35.92,1.57,1.03.49.22.97.92,1.57,1.24.65.49.92,1.03,1.41,1.3.43.22.7.7.97,1.03.22.27.49.65.97,1.3.16.27.38.97.7,1.41.32.38.32,1.03.27,1.51-.05.59-.05,1.14-.43,1.57-.54.59-.87.81-1.41.76-.59-.11-.92-.22-1.41-.65-.22-.22-.65-.76-.97-1.19-.27-.32-.7-1.03-.92-1.46-.22-.49-.92-.97-.92-1.41-.05-1.19-1.46-.81-1.89-.81-.65,0-1.73.22-2.65.43-.87.16-1.41.32-2,.32-.54,0-1.35.32-1.95.32-.43,0-1.3.32-1.95.27-.59-.05-1.41.27-2,.27-.86,0-1.24.11-1.95.22-.49.11-1.35.27-1.95.27-.76-.11-1.19.16-2,.27-.43.11-1.13.11-1.95.22l-1.95.22c-.49-.05-1.62.27-2,.22-.49-.05-1.51,0-2.59.22-1.03.22-1.73,0-2.65.27-.65.16-1.08.32-1.73.43-.76.16-.92.22-1.14.59-.22.27-.59.97-1.35,1.14-.32.05-.65-.11-.92-.76-.27-.65-.59-1.24-.76-1.73-.16-.49-.59-.92-.65-1.73-.05-.7-.54-1.03-.22-1.46.43-.54,2.05-.11,2.76-.11.65,0,.92-.05,1.46-.05,1.03,0,2.22.22,3.08-.11.32-.11.76-.97,1.24-1.35.54-.38.92-1.19,1.24-1.51.43-.43.7-.92,1.08-1.46.22-.32.65-.92,1.03-1.51.27-.38.7-.76.92-1.51.11-.54.7-.81.86-1.57.05-.38.38-.92.59-1.19.16-.27.05-1.03-.38-1.14-.65-.05-.92-.38-1.62-.54-.49-.11-1.51,0-1.89,0-.86.05-1.78-.22-2.49,0-.87.22-1.89-.05-2.49,0-.59.05-1.78.38-2.7.38-1.13,0-2.05.11-2.81-.22-.76-.22-1.24-.92-1.24-1.24,0-.59.05-.92,1.24-1.24.97-.27,1.73-.32,2.81-.16.65.05,2,.38,2.7.38h1.89c.76-.22,1.08.16,1.95,0,.49-.11,1.13-.16,1.89,0,.7.16,1.35-.11,1.89,0,.59.11,1.03-.05,1.95,0,.7.16,1.46-.05,1.89,0h1.95c.65.11,1.14-.16,1.89,0,.81.05,1.14,0,1.95,0h3.84ZM257.29,101.51c.59-.22,1.78-.32,2.59-.32,1.03,0,1.78.43,2.7.32,1.08-.11,1.84-.11,2.76,0,.76.11,1.84,0,2.7,0,.92,0,1.57.16,2.76,0,.87-.11,1.84.32,2.59,0,.43-.16,1.19-1.24,1.46-1.57.54-.59.92-1.41,1.46-1.51.7-.16,1.73.38,1.89.76.11.27.22.38.81.43.49,0,.86.22,1.35.76.43.43.81.92,1.13,1.08.49.22.38.87.22,1.41-.16.54-.43.97-.92.92-.7-.05-.76.16-1.35.05-.43-.05-1.19-.16-1.51-.32-.27-.11-.81-.27-1.3-.22-1.08,0-1.78.16-2.49.16-.87,0-1.78.16-2.38.05-.97-.22-1.73-.11-2.32.05-.97.32-1.41-.11-2.33.05-.59.11-1.68.11-2.27,0-.54-.05-1.68-.22-2.27,0-.65.22-1.89.38-2.7.38-.81-.11-1.73.11-2.81-.22-.7-.22-1.03-.54-.97-1.14,0-.32.22-.7,1.19-1.14Z" style="fill:#fafafa;"/><path d="M336.38,109.78c0,.7-.27,1.08-.22,2,.05.92-.32,1.35-.43,2.49-.11.92-.33,1.51-.76,2.38-.22.38-.27.76-.49,1.14-.22.38-.49.76-.54,1.14-.05.38-.38.76-.59,1.08-.38.54-.49.65-.65,1.03-.16.32-.65.7-.76.97-.16.38-.43.49-.81.97-.38.54-.59.81-.87.97-.38.16-.32.65-.81.87-.32.16-.49.49-.81.76-.38.27-.59.49-1.08.81-.43.27-.65.54-.92.65-.59.27-.65.49-1.3.81-.54.27-.92.59-1.57.86-.54.22-1.13.65-1.84.87s-.92.54-1.84.76c-.87.22-1.35.54-2.05.65-.87.16-1.41.38-2,.43h-.43c-.65,0-1.08-.22-1.19-.81-.16-.92.76-1.24,1.41-1.46.65-.22.92-.22,1.46-.59.49-.32.76-.11,1.35-.59.43-.32,1.24-.54,1.62-.81.54-.38,1.03-.54,1.51-.87s1.08-.59,1.57-1.19c.38-.49,1.03-.65,1.57-1.41.49-.65.86-.38,1.13-1.08.27-.65,1.03-.76,1.19-1.3.22-.7.76-.87.97-1.57.16-.59.7-1.14.92-1.62.22-.7.49-.92.76-1.73.16-.43.43-.92.65-1.73.16-.59.54-1.08.49-1.84-.05-.59.43-.76.32-1.89-.05-.43.22-.87.27-1.89.05-.59-.05-1.19,0-2.16l.05-.81c.05-.65-.38-2.05-.27-2.92.05-.38-.32-1.08-.43-1.57l-.11-.49c-.16-.65-.76-1.3-1.73-1.68-.7-.27-1.57.05-2.05-.11-.54-.16-1.14.22-1.84.38-.54.43-.81.27-1.19.54-.54.38-.81.54-1.14.7-.65.27-.59.59-1.13.81-.32.11-.49.27-.97.86-.54.7-1.08,1.19-1.35,1.84-.27.7-.59,2-.65,2.49-.11.81-.65,1.19-1.57,1.35-.81.16-1.24-.27-1.84-.54-.59-.27-.81-.59-1.46-1.46-.59-.76-.38-.81-.76-1.41-.43-.7-.59-1.19-.7-1.57-.27-.87-.54-1.46-.59-2.11l-.11-.92c0-.16-.05-.43-.05-.76,0-.49.05-1.08.22-1.68.38-.92.22-1.35,1.19-1.51.54-.05.76.38.65.81-.11.43.16,1.08.16,1.78s.54,1.3.7,1.68,1.08,1.14,1.35,1.08c.7-.16,1.46-.7,1.78-.76.54-.11.54-.65,1.35-.86.65-.16.7-.54,1.14-.65.86-.27.81-.49,1.41-.65.81-.32,1.03-.59,1.51-.76l.43-.16c.59-.22,1.35-.59,2.38-.7.92-.05,1.3-.32,2.05-.22.22,0,1.14,0,1.84.11.43,0,1.03.27,1.41.49.54.27,1.03.54,1.24.76.49.43.59.54,1.08,1.03.43.43.59.87.81,1.08.22.27.49.76.59,1.14.32,1.03.81,1.68.81,2.49.11.92.38,1.62.38,2.65.05,1.03,0,2,.11,2.6.05.22.05.38.05.54ZM316.6,91.4c.59-.54,1.14-.59,1.41-1.03.32-.49.97-.32,1.24-.87.27-.49,1.08-.22,1.24-.92.05-.76.11-1.3-.54-1.84-.38-.32-.49-1.08-.92-1.73-.27-.54-.43-.92-.32-1.51.11-.54-.05-1.24.27-1.57.22-.43.32-.81,1.03-.87.76.11.76.43.87,1.19.05.54.32.97.59,1.46.27.49.65.65.92.92.38.38.49.27,1.13.65.54.27.65.27,1.3.22.76-.05,1.41.22,2.32.32,1.08.16,1.14.59,2,.7.38.05.81.38,1.13.38.38,0,.59.59,1.24.59.38,0,.59.43,1.03.81.27.43.38.65.38,1.14,0,.59-.16,1.03-.54,1.51-.22.32-.81.92-1.57.86-.54,0-1.3.05-1.84-.32-.59-.43-.97-.16-2-.65-.86-.43-1.19,0-1.73-.11-.81-.16-1.3.16-1.84.05-.7-.16-.92.22-1.62.38-.76-.05-1.24.49-1.84.7-.7.27-1.46.7-2,1.08-.7.49-1.68.7-2,.27-.49-.65,0-1.24.65-1.84Z" style="fill:#fafafa;"/><path d="M416.83,119.33c0,.41-.06.75-.34,1.16-2.45,3.56-6.84,6.98-14.54,6.98-8.84,0-17.56-6.5-17.56-19.77,0-10.88,5.93-21.14,19.27-21.14,5.02,0,9.12,1.71,10.77,2.87.57.41.86,1.09,1.08,2.05.34,1.44.74,4.92.85,7.05.06.89-1.71,1.5-2,.89-2.96-6.43-6.96-9.23-12.66-9.23s-9.81,5.06-9.81,14.91c0,13,6.04,18.06,12.48,18.06,4.33,0,8.04-2.33,10.83-5.81.29-.34,1.6.68,1.6,1.98Z" style="fill:#f2efd2;"/><path d="M461.41,124.66c0,1.09-.46,1.98-1.03,1.98h-.11c-1.65-.14-6.44-.34-12.88,0h-.11c-.63,0-.23-2.67.4-2.74,2.22-.34,3.82-.89,3.13-2.67l-2.39-6.29h-14.42l-2.57,7.05c-.51,1.44.8,1.5,3.82,1.57.91,0,.57,3.08-.51,3.08h-.11c-4.22-.27-6.04-.27-10.09,0-.28,0-.4-.34-.4-.75,0-.82.34-1.85.74-1.98,1.65-.48,2.39-.82,3.13-2.8l12.31-32.97c.4-1.09,2-2.12,3.14-2.12.57,0,.97.21,1.2.75l13.57,35.09c.57,1.44,1.37,1.57,2.68,1.71.34,0,.51.48.51,1.09ZM447.1,111.46l-5.99-15.87-5.81,15.87h11.8Z" style="fill:#f2efd2;"/><path d="M478.67,100.65l10.49,4.79c5.42,2.53,6.21,7.11,6.21,10.26,0,6.29-3.48,12.04-13.23,12.04-3.14,0-7.7-.89-9.58-1.98-2.85-1.64-3.59-2.05-3.59-3.97v-1.09c0-2.19.11-5.4.57-7.32.11-.75,1.71-.82,1.82-.41,1.08,4.17,2,6.43,4.73,8.62,2.34,1.92,4.56,2.46,7.47,2.46,7.07,0,7.75-8.76,3.14-10.94l-9.92-4.65c-4.28-1.98-6.84-4.99-6.84-10.67,0-6.22,4.16-11.42,12.88-11.42,3.19,0,6.84.89,9.35,2.33.86.55.91,1.57,1.31,7.73.06.75-1.48,1.78-1.88,1.03-2.68-5.06-5.07-7.59-10.32-7.59-6.27,0-7.35,8.62-2.62,10.81Z" style="fill:#f2efd2;"/><path d="M540.52,124.66c0,1.09-.46,1.98-1.03,1.98h-.11c-1.65-.14-6.44-.34-12.88,0h-.11c-.63,0-.23-2.67.4-2.74,2.22-.34,3.82-.89,3.13-2.67l-2.39-6.29h-14.42l-2.57,7.05c-.51,1.44.8,1.5,3.82,1.57.91,0,.57,3.08-.51,3.08h-.11c-4.22-.27-6.04-.27-10.09,0-.28,0-.4-.34-.4-.75,0-.82.34-1.85.74-1.98,1.65-.48,2.39-.82,3.13-2.8l12.31-32.97c.4-1.09,2-2.12,3.14-2.12.57,0,.97.21,1.2.75l13.57,35.09c.57,1.44,1.37,1.57,2.68,1.71.34,0,.51.48.51,1.09ZM526.21,111.46l-5.99-15.87-5.81,15.87h11.8Z" style="fill:#f2efd2;"/><path d="M361.55,108.51c0-.23.03-.55.11-.69.3-.49.78-.96,1.14-1.58.31-.52.4-1.22.74-1.82.31-.54.79-1.01,1.12-1.6.31-.55.4-1.24.72-1.82s1.01-.92,1.32-1.49.52-1.2.82-1.77.62-1.15.92-1.72.33-1.31.63-1.88,1.05-.94,1.34-1.5c.31-.6.51-1.24.79-1.79.32-.62.57-1.22.84-1.76.33-.67.55-1.29.77-1.78.04-.09.14-.15.26-.15.27,0,1.2.47,1.2,1.03,0,.09.05.19.01.28-.27.49-.54,1.04-.86,1.62-.28.51-.7.98-1,1.54-.28.52-.7.99-1,1.55-.29.53-.39,1.17-.69,1.72s-.67,1.02-.97,1.57-.57,1.08-.87,1.62-.63,1.06-.92,1.6-.56,1.1-.85,1.64-.42,1.18-.71,1.71-.58,1.1-.87,1.62c-.31.56-.57,1.12-.85,1.63-.31.57-.8,1-1.08,1.5-.12.19-.07.48-.07.71s.07.41.19.65c.28.5.62,1.02.93,1.59.28.51.5,1.09.81,1.65.29.52.43,1.14.73,1.69s.58,1.07.88,1.62.85.93,1.15,1.47.61,1.07.91,1.61.66,1.04.95,1.58.37,1.21.66,1.74.77,1,1.05,1.52c.3.56.29,1.27.57,1.79.31.56.55,1.13.83,1.64.32.58.93.95,1.2,1.44.04.09-.25.24-.25.33,0,.56-.75,1.06-1.06,1.06-.12,0-.36-.02-.4-.11-.23-.49-.31-1.18-.64-1.85-.26-.53-.48-1.15-.8-1.77-.28-.55-.91-.95-1.22-1.55-.29-.56-.4-1.23-.71-1.82s-.66-1.11-.97-1.69-.49-1.21-.8-1.78-.9-.99-1.21-1.56-.29-1.33-.6-1.9-.96-.97-1.27-1.52c-.33-.59-.31-1.35-.61-1.89-.34-.6-.88-1.04-1.18-1.57-.36-.62-.52-1.28-.82-1.76-.08-.19-.28-.36-.28-.59Z" style="fill:#f2efd2;"/><path d="M546.08,130.01c-.27,0-1.25-.63-1.25-1.19,0-.09.22-.07.26-.17.27-.49.32-1.16.64-1.74.28-.51.67-.99.98-1.55.28-.52.53-1.08.84-1.64.29-.53.64-1.03.94-1.58s.3-1.23.59-1.77.9-.9,1.2-1.44.34-1.22.63-1.76.65-1.05.94-1.59.49-1.15.77-1.68.77-1,1.06-1.52c.31-.56.63-1.08.92-1.6.31-.57.61-1.11.89-1.61.12-.23-.06-.44-.06-.67s.2-.5.08-.69c-.28-.5-.44-1.11-.75-1.68-.28-.51-.79-.94-1.09-1.49-.29-.52-.45-1.13-.75-1.68s-.84-.93-1.13-1.48-.61-1.06-.91-1.6-.62-1.06-.91-1.6-.5-1.13-.79-1.67-.35-1.22-.64-1.75-.92-.91-1.2-1.44c-.3-.56-.55-1.12-.83-1.64-.31-.56-.41-1.21-.69-1.72-.32-.58-.57-1.14-.84-1.63-.04-.09-.34-.14-.34-.23,0-.56,1.15-1.21,1.46-1.21.12,0,.11.29.15.38.23.49.62,1.03.95,1.7.26.53.74,1.02,1.05,1.64.28.55.53,1.15.84,1.75.29.56.4,1.23.71,1.82s.8,1.04,1.11,1.62.38,1.27.69,1.84c.31.57.89,1,1.2,1.57s.35,1.3.66,1.86.68,1.13.99,1.68c.33.59.94.99,1.25,1.53.34.6.41,1.31.71,1.83.36.62.72,1.17,1.02,1.66.12.14.43.41.43.64s-.46.36-.57.55c-.3.49-.29,1.25-.65,1.87-.31.52-.82.98-1.16,1.57-.31.54-.5,1.17-.83,1.76-.31.55-.88.98-1.2,1.56s-.65,1.12-.96,1.69-.66,1.12-.97,1.69-.45,1.24-.75,1.81-.61,1.16-.91,1.73-.53,1.21-.82,1.77c-.31.6-.64,1.17-.92,1.72-.32.62-.6,1.21-.86,1.74-.33.67-.86,1.14-1.09,1.63-.04.09.07.4-.05.4Z" style="fill:#f2efd2;"/><path d="M441.33,64.22c.38.08.71.24,1.01.47.47.34.84.69,1.2,1.24.17.26.28.52.28.77,0,.21-.06.56-.13.82-.15.49-.24,1.5-.24,2.53,0,1.26.32,2.34.75,2.77.15.15.26.21.37.21.15,0,.3-.11.45-.34,2.74-3.97,4.01-5.47,6.09-5.47,3,0,5.17,2.64,5.17,4.97,0,1.11-.38,1.57-1.05,1.57-.41,0-.64-.26-.81-.51-.24-.36-.62-.58-.94-.67-.43-.13-1.05-.23-1.74-.26v-.26c.67-.15,1.27-.3,1.84-.49.28-.09.37-.28.37-.56.02-1.22-1.69-3.07-3.09-3.07-1.31,0-2.91,1.39-4.4,5.13-.22.54-.3.9-.3,1.16,0,.13.04.24.06.34.08.28.13.51.13.67,0,.64-.41.88-.75.88-.41,0-1.11-.22-1.86-1.11-1.25-1.5-1.84-2.96-1.84-7.12v-.39c0-.52,0-1.29-.08-1.78-.08-.47-.22-.82-.62-1.29l.11-.21Z" style="fill:#f2efd2;"/><path d="M470.11,68.23c-1.27.49-2.4.86-3.13,1.18-.34.15-.64.34-.96.49-.17.08-.37.13-.51.13-.19,0-.54-.19-.88-.47-.32-.28-.51-.69-.51-1.09,0-.43.19-.86.66-1.33.99-1.03,2.23-1.97,3.95-2.9-.83-.39-1.52-1.22-1.78-2.47l.28-.13c.56.86,1.44,1.2,2.89,1.37.39.06.97.17,1.39.51.32.26.43.6.43.86,0,.58-.36.82-.77.82-.19,0-.45-.02-.88-.09-.04,0-.17-.02-.28-.02-.36,0-.75.09-1.09.19-1.24.38-2.25.96-2.98,1.72-.41.45-.53.75-.53.9,0,.32.19.39.43.39.11,0,.43-.06.73-.13.69-.17,1.99-.54,2.87-.84.45-.15.81-.3,1.07-.56.19-.19.34-.23.47-.23.22,0,.64.21,1.09.52.71.52.92.79.92,1.05,0,.19-.09.3-.38.43-.37.17-.58.24-.9.52-.9.75-1.87,1.74-3.43,3.3.22-.07.52-.11.75-.11,1.03,0,1.63.73,2.19,1.99.52,1.16,1.01,1.44,1.97,1.44.67,0,.97-.02,1.52-.17.39-.09.67-.22,1.09-.22,1.01,0,1.5.51,1.5,1.14,0,.51-.26.79-.69.9-.62.17-1.54.23-2.45.23-1.14,0-1.95-.09-2.46-.34-.79-.37-1.25-.81-1.78-2.51-.45-1.48-.86-1.78-1.33-1.78-.43,0-.81.28-1.29.81-.66.71-1.54,1.87-2.42,2.9-.56.66-.77.84-1.22.84-.52,0-.82-.45-.82-1.11,0-.36.22-.77.67-1.16,1.22-1.11,2.17-1.97,3.5-3.35,1.09-1.12,2.17-2.34,3.15-3.52l-.06-.09Z" style="fill:#f2efd2;"/></g></g></svg>