<?xml version="1.0" encoding="UTF-8"?>
<svg version="1.1" xmlns="http://www.w3.org/2000/svg" width="1200" height="631">
<path d="M0 0 C396 0 792 0 1200 0 C1200 208.23 1200 416.46 1200 631 C804 631 408 631 0 631 C0 422.77 0 214.54 0 0 Z " fill="#D00C24" transform="translate(0,0)"/>
<path d="M0 0 C17.386875 -0.061875 34.77375 -0.12375 52.6875 -0.1875 C58.15530029 -0.21481201 63.62310059 -0.24212402 69.2565918 -0.27026367 C75.98986816 -0.28381348 75.98986816 -0.28381348 79.15290833 -0.28633118 C81.33818907 -0.29090498 83.52346277 -0.30138706 85.70869446 -0.31672668 C109.20303902 -0.47324857 109.20303902 -0.47324857 120 3 C121.24136719 3.36480469 122.48273438 3.72960937 123.76171875 4.10546875 C134.93765292 8.23862465 143.37372951 14.32499009 149 25 C154.00198839 36.12647023 155.36487481 50.02979908 151.87109375 61.8046875 C150.43999369 64.7416187 148.89560008 67.34265762 147 70 C146.55527344 70.66902344 146.11054688 71.33804688 145.65234375 72.02734375 C141.57760182 77.45637309 135.74756418 80.58033466 130 84 C129.01 84.66 128.02 85.32 127 86 C127.67804688 86.21914063 128.35609375 86.43828125 129.0546875 86.6640625 C141.65126315 90.95597055 152.02900637 97.15832324 158.9375 108.81640625 C160.83428623 112.71458088 161.94494476 116.80829405 163 121 C163.185625 121.62261719 163.37125 122.24523437 163.5625 122.88671875 C166.15521939 135.41047936 163.02294536 147.61899992 156.70703125 158.4375 C147.50894973 172.2451464 131.71727336 178.72037881 116 182 C109.38780007 183.00970439 102.83299907 183.13829215 96.15600586 183.11352539 C95.09431718 183.11364593 94.0326285 183.11376646 92.93876743 183.11389065 C89.53077093 183.11314928 86.12283036 183.10555663 82.71484375 183.09765625 C80.59932481 183.09618443 78.48380551 183.0951652 76.36828613 183.09460449 C68.5580185 183.08937948 60.74775869 183.07541821 52.9375 183.0625 C26.7334375 183.0315625 26.7334375 183.0315625 0 183 C0 122.61 0 62.22 0 0 Z " fill="#FEFEFE" transform="translate(361,224)"/>
<path d="M0 0 C18.81 0 37.62 0 57 0 C103.75 59.5 103.75 59.5 105.12670898 61.25219727 C106.03765025 62.41156233 106.94862001 63.57090501 107.85961914 64.73022461 C110.23912615 67.75841685 112.61804469 70.7870689 114.99609375 73.81640625 C115.48851562 74.44353516 115.9809375 75.07066406 116.48828125 75.71679688 C117.42466414 76.90935999 118.36087423 78.10205882 119.296875 79.29492188 C121.84813287 82.5437291 124.41935744 85.77419679 127 89 C127.33 59.63 127.66 30.26 128 0 C146.15 0 164.3 0 183 0 C183 60.39 183 120.78 183 183 C166.17 183 149.34 183 132 183 C126.5 176 121 169 115.5 162 C114.98880615 161.3495874 114.4776123 160.6991748 113.95092773 160.02905273 C111.72693159 157.19937254 109.50460249 154.36840686 107.28515625 151.53515625 C102.55387244 145.4986907 97.79781792 139.48376068 93 133.5 C87.28427852 126.37144489 81.63465118 119.19270241 76 112 C74.10500484 109.58267478 72.20892999 107.16619965 70.3125 104.75 C69.89734131 104.22011475 69.48218262 103.69022949 69.05444336 103.14428711 C65.07043593 98.06787804 61.03189678 93.03987098 57 88 C56.67 119.35 56.34 150.7 56 183 C37.52 183 19.04 183 0 183 C0 122.61 0 62.22 0 0 Z " fill="#FEFDFD" transform="translate(544,224)"/>
<path d="M0 0 C0 53.46 0 106.92 0 162 C-18.81 162 -37.62 162 -57 162 C-58.53461643 145.46024517 -59.84937922 129.07586769 -60.5 112.5 C-60.54778973 111.28894844 -60.59557945 110.07789688 -60.64481735 108.83014679 C-61.6583213 79.74752474 -61.41637766 54.62826661 -40.85568237 32.38934326 C-37.1001871 28.512812 -33.14239806 24.90568696 -29.0625 21.375 C-28.06109482 20.50665024 -28.06109482 20.50665024 -27.03945923 19.62075806 C-4.16680578 0 -4.16680578 0 0 0 Z " fill="#FEFCFC" transform="translate(807,245)"/>
<path d="M0 0 C18.48 0 36.96 0 56 0 C52.32025542 4.29303534 48.801806 8.32389518 44.83666992 12.29272461 C44.3594751 12.77167175 43.88228027 13.2506189 43.390625 13.74407959 C41.83971565 15.29932977 40.28525035 16.85096543 38.73046875 18.40234375 C37.64270175 19.49078536 36.55508315 20.57937529 35.46760559 21.66810608 C33.20243515 23.93474235 30.93548679 26.19958084 28.66723633 28.46313477 C25.75391151 31.37072187 22.84515429 34.28283087 19.93767834 37.19626522 C17.69966038 39.43788416 15.45928188 41.67713156 13.21816444 43.91565132 C12.14367502 44.9894723 11.0699317 46.06404036 9.99693871 47.13935661 C8.50580975 48.63300887 7.01154177 50.12344596 5.51635742 51.61303711 C4.66619553 52.46240341 3.81603363 53.31176971 2.94010925 54.18687439 C1 56 1 56 0 56 C0 37.52 0 19.04 0 0 Z " fill="#FEFCFC" transform="translate(750,224)"/>
<path d="M0 0 C4.92650633 -0.09251655 9.84992394 -0.1719364 14.77661133 -0.21972656 C16.44761442 -0.239675 18.11854924 -0.26684401 19.78930664 -0.30175781 C41.01322113 -0.73373213 41.01322113 -0.73373213 49.6875 6.125 C51.65393515 10.43242938 51.62197177 14.34672971 51 19 C49.19652553 23.60887921 46.31029386 25.67907254 42 28 C36.85297145 28.97585418 31.87258368 29.13453706 26.66015625 29.09765625 C25.89319931 29.0962413 25.12624237 29.09482635 24.33604431 29.09336853 C21.9114881 29.08781766 19.48702781 29.07527463 17.0625 29.0625 C15.40820447 29.05747864 13.75390747 29.05291685 12.09960938 29.04882812 C8.0663405 29.03871968 4.0332763 29.01913521 0 29 C0 19.43 0 9.86 0 0 Z " fill="#D1122A" transform="translate(417,336)"/>
<path d="M0 0 C6.2184375 -0.061875 6.2184375 -0.061875 12.5625 -0.125 C13.85615479 -0.14320801 15.14980957 -0.16141602 16.48266602 -0.18017578 C31.04273424 -0.250225 31.04273424 -0.250225 36.375 4.375 C39.835136 7.835136 40.15729255 10.6021829 40.375 15.375 C40.3205594 19.05276485 39.96024015 20.06506157 37.9375 23.375 C30.48343753 30.0360771 23.14557323 29.37471039 13.5625 29.1875 C6.8490625 29.0946875 6.8490625 29.0946875 0 29 C0 19.43 0 9.86 0 0 Z " fill="#D00E26" transform="translate(418,266)"/>
<path d="M0 0 C2.92483867 1.82547936 5.43429205 3.86858411 7 7 C7.67660495 12.86390959 7.67660495 12.86390959 5.953125 15.7578125 C3.02250123 19.32627792 1.32898658 20.84665539 -3.25 21.375 C-7.01843478 20.99815652 -9.05151947 20.31126792 -11.828125 17.69140625 C-14.10569053 14.40412001 -14.43303152 10.91148143 -14 7 C-10.70758887 1.26876581 -6.55664361 -0.9179301 0 0 Z " fill="#D5283D" transform="translate(832,386)"/>
<path d="M0 0 C2.92483867 1.82547936 5.43429205 3.86858411 7 7 C7.67660495 12.86390959 7.67660495 12.86390959 5.953125 15.7578125 C3.02250123 19.32627792 1.32898658 20.84665539 -3.25 21.375 C-7.01843478 20.99815652 -9.05151947 20.31126792 -11.828125 17.69140625 C-14.10569053 14.40412001 -14.43303152 10.91148143 -14 7 C-10.70758887 1.26876581 -6.55664361 -0.9179301 0 0 Z M-8.9375 3.375 C-11.53780902 6.68448421 -11.67206204 8.74989063 -11.4140625 12.87109375 C-11.0926818 15.18239725 -11.0926818 15.18239725 -9.4375 17.5625 C-6.04481874 19.56331202 -3.87285839 19.55326548 0 19 C3.27522945 16.84524379 3.90229594 15.3358577 5 11.5625 C5.27464857 7.98594635 5.27464857 7.98594635 3.5 5.125 C-0.59203433 1.64677082 -4.0581918 1.0910685 -8.9375 3.375 Z " fill="#F6D5D9" transform="translate(832,386)"/>
<path d="M0 0 C2.64 0 5.28 0 8 0 C8.79953138 3.28696233 9.09658936 4.71023192 8 8 C8.33 8.99 8.66 9.98 9 11 C7.68 10.34 6.36 9.68 5 9 C5 8.34 5 7.68 5 7 C4.01 7 3.02 7 2 7 C2 8.32 2 9.64 2 11 C1.34 11 0.68 11 0 11 C0 7.37 0 3.74 0 0 Z " fill="#E88793" transform="translate(824,391)"/>
<path d="M0 0 C0.66 0 1.32 0 2 0 C2.03738281 0.68707031 2.07476563 1.37414062 2.11328125 2.08203125 C2.17902344 2.98308594 2.24476563 3.88414062 2.3125 4.8125 C2.37050781 5.70582031 2.42851563 6.59914063 2.48828125 7.51953125 C3.07755265 10.37592315 3.67990532 11.28141135 6 13 C8.30988315 13.74386068 10.64315944 14.42190703 13 15 C13 15.33 13 15.66 13 16 C8.66044609 16.43395539 6.45150614 16.25919797 2.625 14.0625 C-0.5233773 11.14080586 -0.81773485 8.13968633 -1.08984375 3.98828125 C-1 2 -1 2 0 0 Z " fill="#F4CACF" transform="translate(819,391)"/>
<path d="M0 0 C0.99 0 1.98 0 3 0 C3.28875 0.804375 3.5775 1.60875 3.875 2.4375 C4.73262568 5.1326468 4.73262568 5.1326468 7 6 C6 7 6 7 2.4375 7.0625 C1.303125 7.041875 0.16875 7.02125 -1 7 C-1.33 6.01 -1.66 5.02 -2 4 C-1.34 4 -0.68 4 0 4 C0 2.68 0 1.36 0 0 Z " fill="#D62A3F" transform="translate(826,398)"/>
<path d="M0 0 C0.99 0.33 1.98 0.66 3 1 C2.01 1.495 2.01 1.495 1 2 C0.53101037 4.8159849 0.53101037 4.8159849 0.375 8.0625 C0.30023437 9.16722656 0.22546875 10.27195312 0.1484375 11.41015625 C0.09945312 12.26480469 0.05046875 13.11945313 0 14 C-0.99 13.34 -1.98 12.68 -3 12 C-3.3984375 9.94140625 -3.3984375 9.94140625 -3.375 7.5625 C-3.38273438 6.78003906 -3.39046875 5.99757813 -3.3984375 5.19140625 C-2.91948725 2.5571799 -2.03446037 1.67385496 0 0 Z " fill="#D1122A" transform="translate(824,389)"/>
<path d="M0 0 C0.33 1.32 0.66 2.64 1 4 C2.65 4 4.3 4 6 4 C6.33 3.01 6.66 2.02 7 1 C8 4 8 4 7 7 C7.33 7.99 7.66 8.98 8 10 C6.68 9.34 5.36 8.68 4 8 C4 7.34 4 6.68 4 6 C3.01 6 2.02 6 1 6 C0.67 7.32 0.34 8.64 0 10 C0 6.7 0 3.4 0 0 Z " fill="#FAE9EB" transform="translate(825,392)"/>
<path d="M0 0 C0.66 0.33 1.32 0.66 2 1 C1.70980098 4.77258731 1.48342371 7.32665983 -0.75 10.4375 C-3.40732325 12.28286337 -4.8314629 12.35205968 -8 12 C-7.01 11.34 -6.02 10.68 -5 10 C-1.53930137 7.36986904 -1.00665658 4.10406145 0 0 Z " fill="#FBECEE" transform="translate(837,394)"/>
<path d="M0 0 C0.7734375 0.433125 0.7734375 0.433125 1.5625 0.875 C4.62356725 2.28780027 7.74944918 3.1248517 11 4 C11 4.33 11 4.66 11 5 C4.64948454 5.36637589 4.64948454 5.36637589 1.5625 3.625 C0 2 0 2 0 0 Z " fill="#F6D3D7" transform="translate(821,402)"/>
<path d="M0 0 C2.88575819 0.39803561 3.82189513 0.79009069 5.75 3.0625 C6.1625 3.701875 6.575 4.34125 7 5 C6.67 5.66 6.34 6.32 6 7 C1.125 2.25 1.125 2.25 0 0 Z " fill="#F8DEE1" transform="translate(832,388)"/>
</svg>
