<?xml version="1.0" encoding="UTF-8"?>
<svg id="_レイヤー_1" data-name="レイヤー_1" xmlns="http://www.w3.org/2000/svg" version="1.1" viewBox="0 0 375 66">
  <!-- Generator: Adobe Illustrator 29.5.0, SVG Export Plug-In . SVG Version: 2.1.0 Build 137)  -->
  <defs>
    <style>
      .st0 {
        fill: #bcc5c2;
      }

      .st1 {
        fill: #d3594c;
      }

      .st2 {
        fill: #fafafa;
      }

      .st3 {
        fill: #f2efd2;
      }
    </style>
  </defs>
  <polygon class="st2" points="375 16.7 374.5 16.4 373.9 16.9 373.3 16.5 372.6 16.6 372 16.3 371.4 16.4 370.7 16.3 370.1 16.5 369.5 16.8 368.8 16.8 368.2 16.4 367.5 16.9 366.9 16.2 366.3 16.6 365.7 16.6 365 16.5 364.4 16.6 363.7 17.1 363.1 16.7 362.5 16.8 361.8 16.6 361.2 17 360.6 16.1 359.9 17 359.3 16.7 358.7 16.2 358 17 357.4 16.2 356.8 16.2 356.1 16.2 355.5 16.9 354.9 16.7 354.2 16.9 353.6 17.1 353 16.2 352.3 17 351.7 16.8 351.1 16.3 350.4 16.3 349.8 16.7 349.2 16.9 348.5 16.6 347.9 17.1 347.3 17.2 346.7 17.3 346 17 345.4 17.3 344.8 17.2 344.1 17.4 343.5 17.2 342.9 17.5 342.2 16.8 341.5 16.9 340.9 17.2 340.4 17.7 339.7 17.8 339 17.3 338.5 17.8 337.8 17.7 337.2 18 336.5 17.9 335.9 17.9 335.4 18.8 334.7 18.5 334.1 18.4 333.5 19 332.8 18.5 332.1 18.6 331.6 19.2 331 19.4 330.5 19.9 329.9 19.9 329.1 19.5 328.7 20.5 327.9 19.9 327.4 20.5 326.9 21.1 326.1 20.7 325.6 21.2 325.2 21.7 324.3 21.3 323.9 21.9 323.2 21.9 322.8 22.6 322.2 22.8 321.3 22.2 321 23.2 320.1 22.7 319.6 23.1 319.1 23.6 318.5 23.7 318.1 24.5 317.4 24.4 317 25.1 316.1 24.7 315.8 25.5 314.9 25.1 314.5 25.8 314.1 26.3 313.3 26.2 312.9 26.8 312.1 26.5 311.9 27.5 311.1 27.3 310.5 27.5 309.8 27.6 309.6 28.6 308.9 28.7 308.3 28.9 307.6 28.9 307.1 29.4 306.4 29.3 306.1 30.1 305.3 30 304.9 30.6 304.5 31.2 303.6 30.9 303.3 31.6 302.7 31.9 302 31.8 301.5 32.3 300.8 32.4 300.2 32.6 299.7 32.8 299.5 33.9 298.6 33.6 298.1 34 297.7 34.5 297.1 34.9 296.5 35.1 296 35.4 295.5 35.9 294.9 36 294.1 35.9 293.9 36.9 293.2 37 292.5 37 291.8 37 291.3 37.4 290.7 37.6 290.2 38 289.6 38.1 289 38.5 288.4 38.6 288 39.2 287.4 39.6 286.8 39.8 286.3 40.1 285.7 40.5 285.2 40.7 284.4 40.6 283.7 40.5 283.5 41.7 282.9 41.9 282 41.3 281.7 42.2 280.9 42 280.5 42.7 279.7 42.5 279.2 42.8 278.6 42.9 278.1 43.5 277.3 43.2 276.9 43.8 276.3 44.2 275.5 43.6 274.8 43.6 274.4 44.3 273.8 44.7 273 44.2 272.5 44.7 272 45.2 271.3 45.1 270.6 44.9 270 45.1 269.4 45.3 268.8 45.7 268.2 45.6 267.5 45.2 266.8 45.2 266.3 46 265.6 45.9 265 46.1 264.3 45.4 263.7 46.1 263.1 46.5 262.4 45.7 261.8 45.8 261.2 46.3 260.6 46 259.9 46.4 259.3 45.7 258.7 45.7 258 46.2 257.4 46.5 256.8 46.4 256.1 46.6 255.5 46.5 254.9 45.9 254.2 45.8 253.6 46.1 253 45.9 252.3 45.8 251.7 45.5 251 46.3 250.4 45.8 249.8 45.4 249.2 45.9 248.6 45.2 247.9 45.9 247.3 45.3 246.7 45.4 246 45.4 245.3 45.8 244.8 45.4 244.1 45.3 243.5 45.3 242.9 44.8 242.3 44.5 241.6 45 241.1 44.4 240.4 44.8 239.8 44.1 239.2 44.2 238.4 44.8 237.9 44.1 237.2 44.5 236.6 44 236 44.2 235.3 44.1 234.7 43.8 234.1 43.8 233.6 43.1 232.8 43.6 232.3 43.2 231.5 43.6 231 43.2 230.4 42.8 229.8 42.7 229.2 42.3 228.5 42.4 227.9 42.3 227.2 42.9 226.6 42.5 226 42.5 225.4 42.2 224.8 41.7 224.1 42 223.4 42.1 222.8 42 222.3 41.3 221.7 41.2 221 41.3 220.3 41.5 219.8 40.7 219.1 41.1 218.5 41 217.9 40.5 217.3 40.6 216.7 40.5 216 40.4 215.4 40.3 214.8 40.3 214.1 40.5 213.5 40.1 212.9 39.7 212.3 39.6 211.6 40.4 211 39.7 210.4 39.9 209.7 40.3 209.1 39.9 208.4 40.2 207.8 39.6 207.2 40.1 206.6 39.4 205.9 40 205.3 39.2 204.7 39.2 204.1 39.6 203.4 39.6 202.8 39.6 202.1 39.3 201.5 39.9 200.9 40 200.3 39.7 199.6 39.5 199 39.8 198.4 40 197.8 40.4 197.2 40.4 196.5 40.4 195.8 39.8 195.3 40.8 194.5 40.1 194 40.8 193.3 40.5 192.7 40.8 192.1 41.1 191.6 41.4 190.9 41.3 190.4 41.9 189.7 41.6 188.9 41.4 188.4 41.8 187.8 42 187.3 42.4 186.7 42.8 185.9 42.3 185.3 42.6 184.9 43.4 184.2 43.2 183.6 43.4 182.8 43.2 182.5 44 181.8 44.2 181.1 44 180.7 44.7 180 44.7 179.5 45.2 178.8 45.1 178.3 45.6 177.7 45.8 177 45.7 176.2 45.4 175.9 46.4 175 45.9 174.7 46.7 174.1 46.9 173.4 46.8 173 47.6 172.1 47 171.8 48 171.2 48.2 170.4 47.9 169.9 48.5 169.1 48 168.6 48.5 168.1 49 167.3 48.7 166.9 49.5 166.2 49.4 165.8 50.1 165.1 50.1 164.4 50 163.8 50.2 163.1 50.2 162.6 50.5 161.9 50.6 161.4 51.1 160.9 51.4 160.4 51.9 159.6 51.7 159.2 52.5 158.5 52.3 157.8 52.2 157.3 52.8 156.6 52.7 156.2 53.5 155.4 53.2 154.8 53.4 154.3 53.8 153.8 54.2 152.9 53.5 152.3 53.9 151.9 54.7 151.2 54.7 150.6 54.8 149.9 54.5 149.3 54.8 148.8 55.3 148.1 55.4 147.6 55.8 147 56.1 146.2 55.5 145.6 55.6 145 56.2 144.4 56.4 143.8 56.3 143.2 56.9 142.5 56.2 141.9 56.9 141.2 56.6 140.6 56.4 140 56.9 139.4 56.9 138.8 57.5 138.2 57.6 137.4 56.8 136.9 57.3 136.2 57.7 135.6 57.1 135 57.6 134.3 57.8 133.7 57.1 133 57.5 132.4 58 131.8 57.2 131.2 57.5 130.5 57.4 129.9 57.5 129.3 57.1 128.6 57.8 128 57.7 127.3 57.8 126.7 57.1 126.1 57.5 125.5 57.5 124.9 57.1 124.2 57.7 123.5 57.5 123 57 122.3 57.4 121.7 57 121 57.4 120.4 57.2 119.8 56.8 119.1 56.7 118.5 56.6 117.9 56.3 117.3 56.4 116.7 55.9 116 56.4 115.3 56.4 114.7 56.3 114.2 55.4 113.5 55.7 112.9 55.6 112.3 55.6 111.6 55.6 111.2 54.6 110.6 54.5 109.8 55.2 109.3 54.5 108.6 54.5 108.1 54 107.3 54.6 106.8 53.8 106.1 54.2 105.6 53.6 104.8 53.9 104.4 53.1 103.6 53.6 103.1 53.1 102.5 52.7 102 52.5 101.2 52.8 100.6 52.8 100 52.4 99.3 52.5 98.8 51.9 98.2 51.8 97.5 51.8 96.9 51.6 96.3 51.4 95.7 51.1 95.1 51.3 94.5 50.8 93.8 51 93.3 50.3 92.6 50.6 92.1 50.1 91.4 50.2 90.7 50.5 90.1 50.1 89.6 49.5 88.9 49.6 88.3 49.7 87.7 49.5 87.1 49.1 86.5 48.8 85.9 48.8 85.3 48.5 84.5 49.1 84.1 48.1 83.4 48.1 82.7 48.6 82 48.6 81.5 48 80.9 47.7 80.3 47.5 79.6 47.7 79 47.5 78.3 47.9 77.7 47.6 77.1 47.2 76.4 47.7 75.8 47.7 75.2 47.4 74.6 47.1 74 47 73.3 47 72.7 46.5 72 47 71.4 46.9 70.8 46.8 70.1 47.2 69.5 46.3 68.9 47.1 68.2 46.9 67.6 46.5 67 46.9 66.3 46.3 65.7 46.6 65.1 46.3 64.4 46.5 63.8 47 63.2 47 62.5 46.9 61.9 46.4 61.3 46.7 60.7 47.3 60 46.6 59.3 46.6 58.8 47.3 58.1 47.3 57.5 47.5 56.8 46.9 56.3 47.8 55.6 47.5 54.9 47.4 54.4 48 53.7 47.5 53.1 47.7 52.6 48.5 51.8 48.1 51.3 48.5 50.7 48.9 50 48.5 49.4 48.7 48.8 48.9 48.2 49.1 47.5 49 47 49.7 46.3 49.4 45.7 49.6 45 49.6 44.5 50 43.9 50.4 43.1 49.8 42.7 50.9 42.1 50.7 41.5 51.2 40.8 51 40.1 50.9 39.5 50.9 38.9 51.1 38.5 52.1 37.8 51.9 37.1 51.8 36.6 52.4 35.9 52.4 35.2 52.1 34.6 52.3 34.1 52.8 33.4 52.8 32.7 52.7 32.3 53.6 31.6 53.3 31 53.4 30.4 53.8 29.9 54.3 29.1 53.9 28.5 54.1 27.9 54.1 27.5 55 26.9 55.3 26.2 55.4 25.6 55.6 24.9 55.5 24.3 55.4 23.6 55.3 23 55.5 22.6 56.4 21.9 56.4 21.2 56.1 20.6 56.5 19.9 56.3 19.4 56.9 18.7 56.7 18.2 57.1 17.4 56.7 16.9 57.2 16.3 57.5 15.7 57.8 15.1 57.9 14.4 57.8 13.8 58.1 13.1 57.7 12.5 57.9 11.9 58.1 11.3 58.8 10.7 58.8 10 58.3 9.4 58.6 8.8 58.7 8.1 58.4 7.5 58.6 6.8 58.5 6.3 59.3 5.6 59 5 59 4.4 59.3 3.7 59.6 3.1 59.4 2.4 59.4 1.8 58.8 1.2 59 .5 59.6 0 59.2 0 66 375 66 375 16.7"/>
  <path class="st1" d="M350.9,38.7l3.1,1.5h0c-.3.2-3.1,1-3.2,1.2,0,0,0,.1,0,.2,0,.3.3.8.4,1.1.3.7.6,1.5.9,2.2,0,0,.1.4,0,.4,0,0,0,0-.1,0-.1,0-.6-.5-.8-.6-.4-.3-.9-.7-1.3-1-.2-.1-.5-.4-.7-.5-.2-.1-.3.1-.5.3-.8,1.1-1.4,2.2-2.2,3.3-.2.2-.2-.1-.2-.3-.1-1-.1-2.1-.2-3.1,0-.3,0-1.1-.1-1.3-.2-.3-.7-.2-1-.2-.9,0-1.8.2-2.7.2-.1,0-.4,0-.4-.2,0,0,.2,0,.3-.1.6-.3,2.6-1.4,3-1.9,0,0,.1-.2.1-.2,0,0-.3-.4-.3-.5-.6-.7-1.4-1.2-2-1.9,0,0-.3-.4-.3-.4,0,0,0,0,.2,0,.3,0,.7.2,1.1.3.5.1,1,.3,1.5.4.2,0,.8.2.9.1,0,0,.1-.3.2-.4.2-.9.3-2,.6-2.9,0-.1,0-.5.2-.3.4.9.7,1.8,1.2,2.6.1.2.3.6.4.8,0,0,.1.1.2,0l2.2-2.3c.1,0,.4-.4.4,0-.1.4-.3.8-.4,1.2-.2.6-.3,1.1-.4,1.7,0,.1-.1.6,0,.7h0Z"/>
  <path class="st2" d="M124.9,42.7l3.1,1.5h0c-.3.2-3.1,1-3.2,1.2,0,0,0,.1,0,.2,0,.3.3.8.4,1.1.3.7.6,1.5.9,2.2,0,0,.1.4,0,.4,0,0,0,0-.1,0-.1,0-.6-.5-.8-.6-.4-.3-.9-.7-1.3-1-.2-.1-.5-.4-.7-.5-.2-.1-.3.1-.5.3-.8,1.1-1.4,2.2-2.2,3.3-.2.2-.2-.1-.2-.3-.1-1-.1-2.1-.2-3.1,0-.3,0-1.1-.1-1.3-.2-.3-.7-.2-1-.2-.9,0-1.8.2-2.7.2-.1,0-.4,0-.4-.2,0,0,.2,0,.3-.1.6-.3,2.6-1.4,3-1.9,0,0,.1-.2.1-.2,0,0-.3-.4-.3-.5-.6-.7-1.4-1.2-2-1.9,0,0-.3-.4-.3-.4,0,0,0,0,.2,0,.3,0,.7.2,1.1.3.5.1,1,.3,1.6.4.2,0,.8.2.9.1,0,0,.1-.3.2-.4.2-.9.3-2,.6-2.9,0-.1,0-.5.2-.3.4.9.7,1.8,1.2,2.6,0,.2.3.6.4.8,0,0,.1.1.2,0l2.2-2.3c.1,0,.4-.4.4,0-.1.4-.3.8-.4,1.2-.2.6-.3,1.1-.4,1.7,0,.1-.1.6,0,.7h0Z"/>
  <path class="st0" d="M364.3,0l1.6,2.1h.1c.1-.1.3-.2.4-.3.3-.3.8-.8,1.2-1,0,0,.1,0,.2,0,0,0,0,.2,0,.3,0,.5-.4,1.1-.5,1.6,0,.2,0,.2.2.2.7,0,1.6,0,2.3.2,0,0,.1,0,.1,0,0,0-.1.1-.2.2-.5.4-1.3.7-1.8,1.1-.2.1-.3.2-.1.4.3.5.8,1,1.1,1.5,0,.1.2.3.2.5,0,0-1.3-.5-1.5-.6-.2,0-.5-.2-.7-.2,0,0,0,0-.2,0l-1.3,2.3h0c0-.3,0-.6-.1-.8,0-.4,0-.8,0-1.2,0,0,0-.1,0-.1-.3,0-1.6.7-1.9.9,0,0-.1,0-.2,0,0,0,0,0,0-.2.2-.6.7-1.2.9-1.8,0-.2.2-.4,0-.5-.6-.3-1.3-.4-1.9-.7h0c.4-.2.7-.3,1.1-.4.2,0,1.1-.3,1.2-.4,0,0,0-.2,0-.2,0-.8-.3-1.6-.2-2.5,0-.2,0-.2.2-.2h0Z"/>
  <path class="st3" d="M283,53.6h0c-.3.5-.5.9-.9,1.2-.2.2-.5.4-.7.6-.1.1-.4.4-.3.6.2.4.5.7.7,1.1,0,.1.9,1.2.8,1.3-.8,0-1.6-.3-2.3-.5-.1,0-.2,0-.3.1,0,0-.2.3-.3.5-.4.7-.7,1.7-1.1,2.3-.2.3-.2,0-.2-.2-.2-.5-.3-1.1-.5-1.6,0-.1-.3-.9-.4-.9,0,0-.1,0-.2,0-.3,0-.6.2-.9.3-.5.2-1.1.3-1.6.4,0,0,0-.2,0-.2.2-.6.8-1.3,1-1.9,0-.2.1-.4,0-.6,0-.1-.4-.5-.5-.6-.2-.1-1.2-.9-1.2-1s.2,0,.2,0c.7,0,1.3,0,1.9-.1.1,0,.3,0,.4,0,.4,0,.2-.4.2-.7,0-.3,0-.6,0-.9,0-.3,0-.5,0-.8,0,0,0,0,.1,0,.5.4.8,1,1.3,1.3.2.1.2.1.4,0,.3-.5.4-1.1.7-1.5,0,0,.3-.5.3-.5.1,0,.1.2.2.3.2.6.4,1.1.5,1.7,0,.3,0,.6.4.6.3,0,2.2-.2,2.3,0h0Z"/>
  <path class="st2" d="M79,33h0c-.2.4-.4.7-.7.9-.2.2-.4.3-.6.5-.1,0-.3.3-.2.4.2.3.4.6.5.8,0,.1.7.9.6,1-.6,0-1.2-.2-1.8-.4,0,0-.2,0-.2.1,0,0-.1.3-.2.4-.3.5-.5,1.3-.9,1.8-.2.2-.1,0-.2-.2-.2-.4-.3-.8-.4-1.2,0,0-.2-.7-.3-.7,0,0-.1,0-.2,0-.2,0-.5.2-.7.2-.4.1-.8.3-1.3.3,0,0,0-.1,0-.2.2-.5.6-1,.8-1.5,0-.2.1-.3,0-.4,0,0-.3-.4-.4-.5-.1-.1-.9-.7-.9-.8s.2,0,.2,0c.5,0,1,0,1.5-.1.1,0,.2,0,.3,0,.3,0,.2-.3.2-.5,0-.2,0-.5,0-.7,0-.2,0-.4,0-.6,0,0,0,0,0,0,.4.3.6.8,1,1,.1.1.2.1.3,0,.2-.4.3-.8.5-1.2,0,0,.2-.4.3-.4,0,0,.1.2.1.2.2.5.3.9.4,1.4,0,.2,0,.4.3.5.3,0,1.7-.1,1.8,0h0Z"/>
</svg>