<svg width="360" height="93" viewBox="0 0 360 93" fill="none" xmlns="http://www.w3.org/2000/svg">
<mask id="mask0_4335_2564" style="mask-type:luminance" maskUnits="userSpaceOnUse" x="0" y="0" width="360" height="93">
<path d="M360 0H0V92.8212H360V0Z" fill="white"/>
</mask>
<g mask="url(#mask0_4335_2564)">
<path d="M-5.40641 95.871L-4.91303 95.8876L-4.89213 94.7336L-4.29841 94.2711L-3.33675 94.2753L-3.09842 93.3629L-2.11585 93.4045L-1.69774 92.7171L-1.37161 91.913L-0.48103 91.8421L0.0625178 91.3172L0.827666 91.0922L0.969824 90.0131L1.69734 89.7382L2.87642 90.1048L2.8806 88.8007L4.01787 89.1382L4.09313 87.9091L4.81647 87.6383L5.8743 87.8925L6.39694 87.3259L6.84432 86.6218L7.75581 86.6801L8.20319 85.9718L9.14395 86.1051L9.27774 84.8302L10.4066 85.3177L10.9126 84.6928L11.4603 84.1303L12.1 83.7303L12.8861 83.622L13.2498 82.6721L14.0735 82.6513L14.847 82.5304L15.3153 81.7555L16.2853 82.0805L16.7703 81.318L17.8073 81.8555L18.4512 81.4597L18.9278 80.6431L19.7724 80.7556L20.4665 80.4848L20.9473 79.6057L21.817 79.814L22.4483 79.3432L23.1675 79.1266L23.7779 78.5599L24.6476 78.8349L25.2831 78.3433L26.1779 78.7474L26.642 77.5934L27.5242 78.0058L28.1723 77.5059L29.0629 78.0225L29.6148 77.0767L30.5012 77.6225L31.0531 76.5935L31.927 77.1517L32.6168 76.7643L33.3402 76.5268L34.1346 76.7434L34.8621 76.5518L35.5227 75.8852L36.3966 76.6976L37.0238 75.7185L37.8224 76.0602L38.5959 76.206L39.3359 76.081L40.1136 76.3393L40.8662 76.3851L41.6105 76.3476L42.3129 75.731L43.0237 75.1144L43.7847 75.2102L44.5665 75.8269L45.3233 76.0102L46.0467 75.2561L46.816 75.7894L47.5602 75.8185L48.3045 75.5477L49.0613 75.9185L49.8097 75.4019L50.5581 75.3394L51.3149 75.0394L52.0549 75.9143L52.8243 75.2936L53.5643 75.8393L54.3128 75.9727L55.0654 75.9352L55.8263 75.6894L56.5831 75.5185L57.3106 76.231L58.1009 75.2352L58.8618 75.0644L59.6103 75.1811L60.3587 75.3436L61.0987 75.5644L61.8304 76.0018L62.6081 75.5519L63.3273 76.1685L64.1133 75.6144L64.8827 75.4352L65.56 76.6476L66.3753 75.7519L67.0861 76.3935L67.8178 76.7476L68.5746 76.6976L69.3816 76.0685L70.1593 75.8435L70.8533 76.5726L71.6478 76.1393L72.4171 76.0393L73.0986 76.7934L73.801 77.3267L74.6164 76.7476L75.3731 76.7643L76.155 76.5851L76.8324 77.2517L77.5432 77.635L78.2916 77.6892L79.0818 77.4184L79.8093 77.6517L80.4992 78.1433L81.2686 78.0475L81.9877 78.335L82.8156 77.8725L83.5264 78.1891L84.3835 77.5975L85.1068 77.8475L85.688 78.9474L86.5284 78.5058L87.2936 78.4933L87.9207 79.2599L88.7319 79.0099L89.5096 78.9432L90.3333 78.6516L90.9771 79.2724L91.5918 80.0223L92.4322 79.664L93.2433 79.4599L93.8454 80.264L94.5897 80.3765L95.4928 79.7515L96.0112 80.9056L96.7973 80.8389L97.7004 80.2223L98.4321 80.3973L99.1011 80.8264L99.7701 81.2805L100.481 81.5472L101.334 81.1556L101.911 82.0138L102.672 82.0513L103.55 81.568L104.085 82.6054L104.93 82.2721L105.682 82.3305L106.276 83.1346L107.175 82.5221L107.852 82.9512L108.705 82.5513L109.412 82.8263L109.951 83.9262L110.762 83.7095L111.619 83.2595L112.33 83.5429L113.058 83.722L113.689 84.4053L114.492 84.2011L115.32 83.8512L115.913 84.7677L116.637 84.9927L117.481 84.5386L118.209 84.7344L118.857 85.3885L119.71 84.8802L120.333 85.6885L121.132 85.4677L121.892 85.4927L122.566 86.0468L123.427 85.401L124.067 86.2176L124.773 86.6176L125.538 86.5676L126.287 86.6676L127.123 86.0385L127.771 86.9967L128.616 86.151L129.318 86.6634L130.071 86.6676L130.79 87.1634L131.572 86.7468L132.32 86.7634L133.06 87.0467L133.8 87.3759L134.557 87.4009L135.314 87.3092L136.067 87.4717L136.823 87.4134L137.576 87.2967L138.333 87.28L139.085 87.1717L139.788 86.201L140.553 86.5218L141.364 87.2884L142.092 86.9051L142.844 86.8509L143.488 85.9135L144.282 86.2343L145.064 86.3884L145.742 85.901L146.423 85.4635L147.318 86.1551L147.999 85.7302L148.819 85.926L149.396 85.1344L150.324 85.6927L150.751 84.4511L151.474 84.2803L152.528 85.0927L153.017 84.2053L153.966 84.5969L154.622 84.1845L155.028 83.2054L155.726 82.9429L156.767 83.3887L157.441 83.0304L157.821 82.1305L158.632 82.0388L158.891 81.0056L159.644 80.8139L160.254 80.3931L160.794 79.8682L161.755 79.9223L162.174 79.2391L162.55 78.5225L163.114 78.0517L164.185 78.1225L164.272 77.1226L165.142 76.9393L165.527 76.2726L166.246 75.9018L166.685 75.2852L166.606 74.2686L167.772 74.2145L167.362 73.0104L168.675 72.9896L168.709 72.123L168.533 71.1647L169.348 70.769L169.24 69.8899L169.716 69.3066L170.394 68.79L170.331 67.9817L170.599 66.9693L171.694 66.9943L172.309 67.715L173.099 67.5234L173.797 67.8525L174.433 68.64L175.323 67.715L176.03 68.0525L176.711 68.6358L177.431 68.9649L178.275 68.04L178.923 69.1816L179.709 68.8025L180.508 68.1192L181.194 69.0858L181.954 68.9233L182.69 69.2774L183.468 68.5483L184.212 68.4858L184.944 69.4941L185.701 68.7525L186.449 68.8441L187.198 69.0941L187.946 68.9066L188.699 69.1066L189.46 69.3482L190.179 68.6275L190.898 68.2108L191.676 68.6983L192.458 69.1024L193.122 68.1025L193.917 68.6108L194.711 68.9691L195.347 67.9525L196.116 68.0817L196.894 68.2525L197.655 68.2692L198.411 68.2608L199.034 67.4484L199.871 67.8609L200.469 67.0026L201.38 67.74L202.066 67.3651L202.885 67.5734L203.458 66.7318L204.156 66.461L204.934 66.4735L205.737 66.5735L206.452 66.3318L207.054 65.7235L207.961 66.1193L208.505 65.3611L209.182 65.0319L209.859 64.707L210.558 64.4362L211.507 64.8278L212.042 64.1237L212.581 63.4446L213.505 63.7362L214.216 63.4821L214.739 62.7905L215.671 63.0571L216.139 62.2447L217.03 62.3988L217.452 61.5031L218.117 61.1614L218.882 61.024L219.873 61.3448L220.112 60.124L221.199 60.6031L221.851 60.224L222.332 59.5157L223.093 59.3408L223.356 58.27L224.506 58.7658L224.953 58.0409L225.53 57.5451L226.521 57.7117L226.969 57.0076L227.788 56.8785L227.947 55.7702L228.67 55.4994L229.047 54.7412L230.23 55.0745L230.447 54.1204L230.966 53.5704L231.559 53.1163L232.638 53.2288L232.969 52.4538L233.6 52.0247L233.905 51.2498L234.511 50.7998L235.519 50.7498L235.214 49.3791L236.401 49.4958L236.736 48.7708L236.844 47.8376L237.693 47.6084L237.794 46.6752L239.119 46.8752L239.658 46.3502L239.876 45.5378L240.181 44.7962L240.745 44.3004L241.013 43.5171L241.991 43.4171L241.895 42.2756L242.853 42.1631L243.225 41.4715L243.856 41.0423L244.366 40.484L244.918 39.9757L245.65 39.6716L246.566 39.6008L246.842 38.7634L247.707 38.655L247.72 37.4426L248.74 37.551L248.903 36.4927L249.543 36.0802L250.199 35.7011L250.985 35.5261L251.838 35.4761L252.57 35.247L252.879 34.2929L253.686 34.1929L254.004 33.2055L254.97 33.418L255.605 33.0097L256.458 33.0305L256.914 32.2681L257.524 31.7889L258.336 31.7473L258.913 31.2015L259.607 30.9057L260.48 31.0348L261.304 31.0557L261.626 29.8724L262.621 30.3182L263.232 29.8183L264.001 29.7141L264.766 29.6016L265.264 28.7934L266.016 28.6392L266.526 27.8185L267.534 28.3767L268.107 27.7143L268.751 27.256L269.62 27.456L270.34 27.2185L271.176 27.356L271.652 26.3519L272.518 26.5852L273.045 25.6978L274.019 26.3352H274.801L275.52 26.1061L276.214 25.7895L276.749 24.8395L277.51 24.7479L278.309 24.8395L279.145 25.0979L279.806 24.6021L280.504 24.2604L281.156 23.673L282.026 24.1729L282.758 23.9688L283.506 23.873L284.275 23.9021L285.057 24.0104L285.651 22.8855L286.479 23.2897L287.227 23.1689L287.938 22.7564L288.737 23.0314L289.472 22.8106L290.279 23.2313L290.999 22.873L291.776 23.0772L292.449 22.1481L293.235 22.4147L293.992 22.3939L294.757 22.4731L295.497 22.2148L296.309 22.9105L297.036 22.4981L297.814 22.8439L298.541 22.4106L299.269 21.969L300.059 22.4397L300.757 21.6731L301.568 22.3648L302.321 22.3273L303.032 21.7565L303.826 22.1939L304.554 21.8565L305.323 21.9773L306.067 21.8523L306.82 21.7565L307.577 21.7481L308.283 21.3065L308.977 20.8066L309.809 21.3273L310.491 20.7941L311.344 21.3232L312.025 20.8191L312.803 20.8732L313.389 19.9191L314.141 19.8566L314.906 19.8441L315.613 19.5733L316.512 20.1274L317.072 19.2359L317.816 19.1234L318.627 19.2567L319.468 19.4692L320.099 18.915L320.701 18.2859L321.701 18.9942L322.391 18.6567L322.88 17.6985L323.549 17.3235L324.498 17.7901L325.154 17.3652L325.924 17.261L326.551 16.7819L327.374 16.8402L327.759 15.7153L328.829 16.4153L329.457 15.9486L330 15.2737L330.765 15.1612L331.284 14.4446L332.275 14.8779L333.098 14.8946L333.567 14.0613L334.311 13.8905L335.176 13.9821L335.444 12.7156L336.13 12.4031L337.25 13.0656L337.84 12.5281L338.212 11.5365L338.931 11.2949L339.826 11.4282L340.562 11.2157L340.888 10.17L341.737 10.1908L342.318 9.66584L343.259 9.86582L343.81 9.28254L344.245 8.49094L344.889 8.09514L346.118 8.81591L346.779 8.44511L346.967 7.21188L347.9 7.34937L348.188 6.31613L348.903 6.05365L349.861 6.2203L350.404 5.66202L351.349 5.78284L351.742 4.97041L352.097 4.09548L353.076 4.2663L353.427 3.39971L354.23 3.27472L355.296 3.55803L355.38 2.27897L356.475 2.60394L356.768 1.66652L357.428 1.30822L358.214 1.13324L358.507 0.220815L359.502 0.34997L359.95 -0.324972L360.556 -0.762435L361.037 -1.38738L361.722 -1.71652L362.237 -2.28314L362.994 -2.51229L363.646 -2.89142L364.415 -3.1164L365.159 -3.37471L365.318 -4.41212L365.899 -4.88292L366.376 -5.48703L367.484 -5.29122L368.099 -5.72868L368.166 -6.84525L369.345 -6.57861L369.374 -7.73267L370.319 -7.77017L370.754 -8.42011L370.996 -9.29087L371.715 -9.60335L372.464 -9.88666L372.736 -10.7074L373.605 -10.8574L374.362 -11.1407L375.169 -11.3699L375.177 -12.4698L376.131 -12.5531L376.089 -13.6863L377.314 -13.4947L377.515 -14.3696L378.246 -14.6946L378.146 -15.8445L378.685 -16.3611L379.63 -16.4944L380.441 -16.7652L380.696 -17.5527L381.403 -17.9235L381.779 -18.5942L382.164 -19.615L381.315 -19.3192L380.558 -19.19L379.806 -19.0234L379.057 -19.715L378.305 -19.5442L377.552 -19.5608L376.8 -19.94L376.043 -19.0192L375.294 -19.2067L374.542 -19.3858L373.785 -18.7776L373.037 -19.4525L372.284 -18.9442L371.531 -19.79L370.779 -19.4192L370.026 -19.0234L369.274 -19.2442L368.525 -19.4983L367.768 -18.9942L367.02 -19.6483L366.267 -19.9691L365.515 -19.0484L364.762 -19.0692L364.01 -19.79L363.257 -19.7566L362.504 -19.1234L361.752 -19.1109L360.999 -19.1025L360.251 -19.3983L359.498 -19.865L358.745 -19.8941L357.993 -19.1109L357.24 -19.04L356.488 -19.8858L355.735 -18.8567L354.982 -19.59L354.23 -19.6567L353.477 -19.2609L352.729 -19.94L351.976 -19.6317L351.224 -19.7816L350.467 -19.065L349.718 -19.99L348.966 -19.3108L348.213 -19.24L347.461 -19.1609L346.708 -19.3275L345.955 -19.7441L345.203 -19.6858L344.45 -19.3192L343.698 -19.665L342.945 -19.9108L342.192 -19.8108L341.436 -19.165L340.687 -19.5567L339.93 -19.2692L339.178 -18.8567L338.425 -19.49L337.673 -19.3483L336.92 -19.5983L336.167 -20.0608L335.415 -19.1734L334.662 -19.4817L333.91 -20.0066L333.153 -18.8567L332.4 -19.0317L331.648 -19.1567L330.895 -19.8691L330.142 -20.015L329.39 -19.3233L328.637 -19.2525L327.885 -19.8566L327.132 -19.7566L326.379 -19.7358L325.623 -18.9192L324.874 -19.5442L324.121 -19.5608L323.369 -19.8066L322.616 -19.7858L321.864 -19.3108L321.111 -18.9067L320.358 -19.8608L319.606 -19.7316L318.853 -19.9483L318.101 -19.9566L317.348 -19.2442L316.6 -20.1191L315.843 -19.0275L315.09 -18.9109L314.338 -19.2942L313.585 -19.6941L312.837 -19.8775L312.08 -19.5358L311.327 -19.19L310.575 -19.0525L309.826 -19.74L309.074 -19.84L308.321 -19.5983L307.568 -20.1524L306.812 -19.2109L306.063 -19.9025L305.311 -19.7108L304.558 -19.7358L303.805 -19.5233L303.053 -19.3817L302.3 -20.1483L301.548 -19.8941L300.795 -19.8191L300.042 -20.0858L299.29 -19.7983L298.537 -19.6983L297.785 -19.6483L297.032 -19.7608L296.275 -19.0775L295.523 -19.7941L294.774 -20.1233L294.017 -19.915L293.265 -20.1524H292.512L291.755 -19.0234L291.007 -20.0733L290.25 -19.1275L289.498 -19.2067L288.745 -19.4317L287.992 -20.0941L287.24 -19.5275L286.487 -19.4567L285.734 -19.7483L284.978 -19.1192L284.225 -19.5233L283.477 -19.0734L282.728 -19.6775L281.976 -19.0525L281.227 -19.7108L280.475 -19.5983L279.726 -19.99L278.974 -19.9566L278.225 -20.2483L277.473 -19.2317L276.72 -19.4567L275.972 -20.1816L275.219 -19.0484L274.47 -19.3525L273.718 -19.2109L272.969 -19.9025L272.217 -19.8816L271.464 -19.9525L270.712 -19.1984L269.963 -19.6192L269.211 -19.6025L268.458 -19.19L267.705 -19.5025L266.957 -19.7858L266.204 -19.5483L265.452 -20.2066L264.699 -19.9025L263.947 -19.44L263.194 -19.14L262.441 -19.1567L261.689 -19.2484L260.936 -19.8816L260.184 -19.19L259.435 -20.1358L258.678 -19.2275L257.926 -20.1108L257.169 -19.2067L256.421 -19.6733L255.664 -19.1234L254.915 -20.0816L254.159 -19.9525L253.406 -20.2399L252.653 -19.915L251.901 -19.64L251.148 -19.2984L250.391 -19.1317L249.639 -19.2192L248.89 -19.2984L248.138 -20.1441L247.385 -19.7941L246.633 -19.3317L245.88 -19.4442L245.127 -19.6483L244.375 -19.3733L243.626 -19.7233L242.874 -20.3149L242.121 -19.8316L241.368 -19.4983L240.62 -20.0816L239.867 -19.4525L239.115 -20.0691L238.362 -19.2234L237.614 -20.2233L236.861 -20.1149L236.109 -20.2108L235.356 -19.5483L234.603 -19.215L233.855 -19.915H233.102L232.354 -19.6692L231.601 -20.0816L230.849 -19.4192L230.1 -20.3858L229.348 -19.465L228.595 -19.8066L227.847 -19.9233L227.094 -20.3858L226.341 -19.5483L225.593 -19.9275L224.84 -20.2108L224.092 -20.2024L223.339 -19.6525L222.587 -19.8233L221.838 -20.1816L221.086 -20.4233L220.329 -19.2109L219.581 -19.2275L218.828 -19.9691L218.075 -19.2025L217.327 -19.6275L216.574 -19.6483L215.822 -19.94L215.073 -19.9316L214.316 -19.6067L213.568 -19.9358L212.815 -20.1149L212.063 -20.3941L211.31 -19.2567L210.558 -19.4025L209.805 -19.4692L209.057 -20.3858L208.3 -19.3942L207.547 -20.0316L206.795 -19.9316L206.042 -20.1358L205.289 -20.4566L204.537 -19.8983L203.784 -20.4399L203.027 -20.2233L202.275 -19.99L201.518 -19.3567L200.765 -19.7108L200.013 -20.3524L199.256 -19.3483L198.503 -19.6317L197.751 -19.3067L197.002 -20.1399L196.246 -19.8275L195.493 -20.3149L194.74 -19.3608H193.988L193.235 -20.1358L192.483 -20.4399L191.73 -19.8941L190.977 -19.4442L190.229 -20.3649L189.472 -19.6692L188.72 -19.9775L187.971 -20.0233L187.214 -19.465L186.466 -20.4399L185.713 -20.2233L184.961 -19.7566L184.208 -20.04L183.456 -20.1733L182.703 -19.6358L181.954 -20.2483L181.202 -20.0025L180.445 -19.3442L179.697 -19.7691L178.944 -19.8108L178.191 -19.94L177.439 -19.5525L176.686 -19.6775L175.934 -19.5942L175.181 -19.4442L174.428 -19.865L173.676 -19.7275L172.927 -20.1108L172.175 -19.965L171.418 -19.3275L170.67 -20.1649L169.913 -19.4483L169.164 -20.0483L168.412 -20.1983L167.655 -19.9858L166.902 -19.8983L166.15 -20.4316L165.393 -19.7316L164.64 -19.6067L163.888 -20.5732L163.135 -19.8566L162.378 -20.1316L161.626 -20.2899L160.873 -20.2524L160.121 -20.4066L159.364 -19.4692L158.611 -20.1108L157.859 -20.4816L157.102 -19.3733L156.349 -19.4567L155.597 -19.415L154.844 -19.4942L154.091 -20.2733L153.339 -20.3274L152.59 -20.5399L151.834 -19.3983L151.081 -19.9983L150.328 -20.015L149.576 -19.7816L148.823 -19.7275L148.071 -19.74L147.318 -20.3649L146.565 -20.1066L145.813 -19.8358L145.06 -20.3983L144.308 -20.0483L143.555 -20.065L142.798 -19.4317L142.05 -20.0983L141.293 -19.4525L140.54 -19.9608L139.788 -19.7525L139.035 -19.6025L138.283 -19.6733L137.526 -19.4733L136.773 -19.6817L136.025 -20.6607L135.268 -19.6692L134.515 -20.2316L133.759 -20.5566L133.006 -20.5899L132.249 -19.9441L131.497 -20.0691L130.744 -20.1941L129.987 -19.4567L129.239 -20.5316L128.482 -20.0316L127.729 -19.94L126.977 -20.5607L126.224 -20.4899L125.467 -19.4858L124.715 -20.2149L123.966 -20.6274L123.21 -20.3066L122.457 -20.4649L121.704 -19.5942L120.952 -20.4441L120.195 -19.5233L119.447 -20.4066L118.694 -20.5066L117.937 -19.7816L117.185 -19.6858L116.432 -20.5566L115.679 -20.2149L114.923 -19.8816L114.17 -19.9191L113.417 -20.5066L112.661 -20.1941L111.904 -19.8441L111.151 -20.2899L110.399 -19.9275L109.642 -20.1483L108.889 -20.1691L108.137 -20.1566L107.384 -20.3566L106.627 -19.6733L105.875 -19.8483L105.122 -20.5316L104.369 -20.6982L103.613 -20.1149L102.86 -20.1733L102.107 -20.0858L101.355 -20.5316L100.598 -19.6358L99.8495 -20.4732L99.0927 -20.0608L98.3401 -19.8275L97.5875 -20.2608L96.8307 -20.1983L96.0781 -20.3024L95.3255 -20.4732L94.5687 -19.9275L93.812 -20.0108L93.0594 -20.3108L92.3068 -20.7024L91.55 -19.5775L90.7974 -20.1024L90.0448 -20.1149L89.2921 -20.2983L88.5395 -20.7691L87.7786 -19.6067L87.026 -19.865L86.2734 -20.1899L85.5208 -20.1524L84.7682 -20.3649L84.0156 -20.3483L83.2588 -20.5691L82.5062 -20.0275L81.7494 -20.1566L80.9926 -19.7108L80.24 -19.8775L79.4874 -20.015L78.7306 -19.8691L77.978 -19.7441L77.2254 -20.0441L76.4728 -20.3941L75.716 -19.7358L74.9634 -20.8024L74.2066 -20.3274L73.4582 -20.8274L72.7014 -20.4108L71.9446 -19.9608L71.192 -20.1566L70.4394 -20.0899L69.6868 -20.1858L68.9342 -20.2274L68.1858 -20.7774L67.4332 -20.4233L66.6806 -20.4191L65.928 -20.4066L65.1754 -19.94L64.4186 -19.7233L63.6701 -20.4691L62.9134 -19.7108L62.1608 -20.5566L61.404 -20.1691L60.6514 -20.4191L59.8988 -20.4233L59.142 -20.1858L58.3894 -20.1899L57.6368 -20.4649L56.88 -20.2358L56.1274 -19.7191L55.3748 -19.7066L54.6222 -20.1733L53.8696 -20.0691L53.117 -20.5774L52.3644 -20.4691L51.6117 -20.2483L50.855 -20.2316L50.1024 -20.1649L49.3498 -20.2608L48.593 -20.0691L47.8404 -20.7316L47.0836 -19.765L46.331 -20.2149L45.5742 -19.8191L44.8174 -19.8608L44.0648 -19.7066L43.3122 -20.2941L42.5596 -20.4816L41.807 -20.5899L41.0544 -20.944L40.2976 -20.9565L39.545 -20.5732L38.7882 -20.1649L38.0356 -20.3774L37.2746 -19.7608L36.522 -20.3233L35.7652 -19.9358L35.0126 -20.3691L34.26 -20.9315L33.5074 -20.9732L32.7506 -20.7941L31.998 -20.9315L31.2413 -20.4608L30.4845 -19.8566L29.7277 -20.0525L28.9751 -20.1191L28.2225 -20.9399L27.4657 -20.2066L26.7089 -20.0691L25.9521 -19.8358L25.1995 -19.9691L24.4427 -20.1649L23.6901 -20.7357L22.9333 -20.0566L22.1765 -20.1108L21.4198 -19.7941L20.6672 -19.9066L19.9104 -19.9733L19.1578 -20.4399L18.401 -20.6774L17.6442 -20.1108L16.8874 -20.2649L16.1306 -20.2149L15.378 -20.6691L14.6254 -20.5857L13.8686 -20.0566L13.1202 -20.9482L12.3634 -20.8107L11.6066 -20.5774L10.8499 -20.2024L10.0931 -19.8525L9.34046 -20.7441L8.58367 -20.3399L7.82689 -20.2733L7.07428 -21.0065L6.3175 -20.9232L5.56071 -20.8357L4.80393 -20.8316L4.05132 -20.9607L3.29035 -20.4274L2.53775 -21.0607L1.78097 -20.8982L1.02 -20.0899L0.263213 -19.9275L-0.493573 -20.2441L-1.24618 -20.9565L-2.00714 -20.1816L-2.76393 -19.8608L-3.52072 -20.0899L-4.28168 -20.1108L-5.03847 -20.8232L-6.09211 -20.7649L-5.88306 -19.7191L-5.6071 -18.9692L-5.39387 -18.2151L-5.70327 -17.4652L-5.92905 -16.7152L-6.35971 -15.9653L-6.03776 -15.2154L-6.16319 -14.4654L-5.25589 -13.7155L-5.76599 -12.9614L-5.4524 -12.2115L-5.51512 -11.4615L-5.91233 -10.7116L-5.85379 -9.96165L-5.33115 -9.21171L-5.17226 -8.46178L-5.99595 -7.71184L-5.59874 -6.95774L-5.56111 -6.2078L-5.8747 -5.45787L-5.76181 -4.70793L-6.23427 -3.95383L-5.98341 -3.20389L-5.84125 -2.45396L-5.70327 -1.69985L-5.5862 -0.949919L-5.42731 -0.199983L-6.4057 0.549952L-5.66982 1.29989L-6.22173 2.05399L-5.38132 2.80393L-5.7409 3.55386L-5.92069 4.3038L-5.30606 5.05373L-5.18899 5.80784L-5.95414 6.55777L-5.3855 7.30771L-6.0963 8.05764L-6.26772 8.81175L-5.39805 9.56168L-5.53184 10.3116L-6.31372 11.0657L-5.82452 11.8157L-6.41406 12.5656L-6.34298 13.3155L-5.8747 14.0696L-5.18481 14.8196L-5.44404 15.5695L-5.32279 16.3194L-5.54021 17.0735L-5.674 17.8235L-5.70327 18.5734L-6.08375 19.3233L-6.38061 20.0733L-5.8287 20.8232L-5.50257 21.569L-6.06703 22.3189L-5.38132 23.0689L-5.56111 23.8188L-6.29699 24.5687L-6.31372 25.3187L-5.85379 26.0686L-5.90814 26.8185L-6.02104 27.5685L-5.26007 28.3184L-5.49839 29.0683L-6.24264 29.8224L-5.41895 30.5724L-5.78271 31.3265L-5.71999 32.0764L-5.17645 32.8264L-5.61128 33.5763L-6.17992 34.3262L-6.35971 35.0762L-5.70745 35.8261L-5.71999 36.576L-5.53184 37.326L-5.62383 38.0759L-5.79944 38.8258L-6.34298 39.5758L-5.51512 40.3257L-5.72417 41.0757L-6.32626 41.8298L-5.18481 42.5797V43.3338L-6.4057 44.0837L-6.23427 44.8337L-5.70745 45.5878L-5.8956 46.3377L-5.64055 47.0876L-5.57365 47.8376L-6.23427 48.5875L-5.38968 49.3416L-6.04612 50.0915L-6.32626 50.8415L-5.41059 51.5914L-5.69491 52.3455L-6.10048 53.0955L-5.38132 53.8496L-5.3186 54.5995L-6.32626 55.3536L-6.10048 56.1035L-5.89978 56.8535L-5.50257 57.6076L-6.23845 58.3575L-5.44822 59.1116L-6.30117 59.8615L-5.48167 60.6156L-6.03776 61.3656L-6.08793 62.1197L-5.7409 62.8696L-5.33115 63.6237L-6.3179 64.3737L-6.28445 65.1278L-5.26007 65.8777L-5.6071 66.6318L-6.17156 67.3817L-5.8287 68.1358L-5.92487 68.8858L-6.15901 69.6399L-5.30606 70.394L-5.51512 71.1439L-5.70745 71.898L-5.18063 72.648L-6.23009 73.4021L-5.79944 74.1562L-5.19317 74.9061L-5.51094 75.656L-6.15483 76.4101L-6.20919 77.1601L-6.28445 77.91L-5.75344 78.6641L-5.2308 79.414L-5.41059 80.1681L-5.24334 80.9181L-5.76181 81.6722L-5.64891 82.4263L-6.07957 83.1762L-5.63637 83.9303L-5.33951 84.6844L-5.68236 85.4385L-5.53602 86.1885L-6.05867 86.9426L-5.64473 87.6967L-5.84961 88.4508L-5.27261 89.2049L-5.8287 89.9548L-5.86633 90.7089L-6.14647 91.463L-5.22662 92.2171L-6.08375 92.9712L-6.03776 93.7253L-5.3186 94.4836L-5.8287 95.246L-5.40641 95.871Z" fill="#303F5D"/>
</g>
<path d="M219.42 59.8227L223 61.7163L222.952 61.8029C222.548 61.994 219.287 62.9797 219.239 63.1857C219.225 63.2514 219.25 63.3381 219.265 63.4038C219.355 63.81 219.606 64.4073 219.756 64.8165C220.078 65.7095 220.497 66.6205 220.79 67.5165C220.816 67.5971 220.94 67.9854 220.901 68.0272C220.853 68.0332 220.813 68.0272 220.768 68.0063C220.598 67.9256 220.056 67.388 219.849 67.2238C219.347 66.8265 218.812 66.4144 218.293 66.041C218.075 65.8857 217.694 65.5751 217.479 65.4706C217.188 65.3272 217.089 65.6169 216.925 65.8469C216.01 67.1461 215.241 68.6006 214.365 69.9327C214.15 70.1597 214.147 69.7535 214.128 69.5833C213.981 68.3109 213.952 66.9968 213.856 65.7185C213.828 65.3541 213.851 64.3267 213.687 64.0728C213.475 63.7443 212.893 63.7891 212.551 63.804C211.517 63.8578 210.488 64.0399 209.434 64.0549C209.276 64.0549 208.92 64.1654 209.016 63.8279C209.05 63.7054 209.234 63.7054 209.327 63.6547C210.073 63.2604 212.398 61.8746 212.873 61.2802C212.927 61.2115 213.037 61.0771 213.043 60.9905C213.051 60.874 212.732 60.5276 212.639 60.42C211.912 59.5868 211.025 58.8789 210.288 58.0367C210.22 57.959 209.884 57.5886 209.895 57.5229C209.943 57.4483 210.002 57.4692 210.073 57.4781C210.429 57.5229 210.935 57.7589 211.305 57.8604C211.893 58.0217 212.52 58.174 213.113 58.3114C213.297 58.3532 214.046 58.5534 214.164 58.4906C214.227 58.4578 214.328 58.0695 214.351 57.9739C214.633 56.8121 214.755 55.5368 215.054 54.3869C215.088 54.2525 215.159 53.8284 215.329 54.0763C215.809 55.1366 216.202 56.2416 216.674 57.3049C216.789 57.5648 216.973 58.0128 217.114 58.2368C217.185 58.3503 217.281 58.3742 217.383 58.2786L219.937 55.4322C220.073 55.3307 220.384 54.9932 220.381 55.3606C220.222 55.8683 220.025 56.3611 219.878 56.8718C219.677 57.5618 219.556 58.2547 219.457 58.9655C219.434 59.1238 219.338 59.7331 219.423 59.8227H219.42Z" fill="#FAFAFA"/>
<path d="M235.598 34.0082L237.376 36.2782L237.509 36.2694C237.645 36.1457 237.832 36.0515 237.97 35.9426C238.326 35.6658 238.911 35.0387 239.272 34.8503C239.345 34.812 239.426 34.7914 239.507 34.7796C239.513 34.8768 239.507 34.968 239.492 35.0622C239.387 35.6246 239.064 36.3018 238.983 36.8229C238.953 37.0261 238.986 37.0496 239.203 37.0702C240.044 37.1527 241.02 37.1262 241.837 37.2498C241.904 37.2587 241.958 37.2852 242 37.3352C241.937 37.3912 241.885 37.4589 241.819 37.5089C241.204 37.9535 240.387 38.3009 239.821 38.7337C239.622 38.8869 239.522 38.9281 239.658 39.1636C239.975 39.7083 240.514 40.2707 240.858 40.8124C240.951 40.9596 241.087 41.1716 241.096 41.3394C240.984 41.4484 239.592 40.8065 239.36 40.7241C239.161 40.6534 238.793 40.5062 238.603 40.4738C238.54 40.462 238.492 40.4503 238.431 40.4826L236.921 43L236.837 42.9411C236.816 42.6585 236.756 42.3817 236.722 42.0991C236.674 41.6898 236.674 41.2364 236.611 40.833C236.602 40.7771 236.575 40.6946 236.517 40.677C236.201 40.5769 234.73 41.4955 234.347 41.6515C234.287 41.6751 234.227 41.7045 234.157 41.6957C234.145 41.6339 234.166 41.5867 234.185 41.5308C234.408 40.889 234.941 40.1706 235.209 39.4993C235.318 39.2254 235.447 39.0694 235.14 38.9192C234.489 38.6042 233.705 38.4275 233.054 38.0978L233 37.9918C233.419 37.9329 233.796 37.7504 234.194 37.6238C234.414 37.5531 235.435 37.2911 235.526 37.1615C235.571 37.0997 235.571 36.9907 235.568 36.9171C235.535 36.0103 235.279 35.1182 235.348 34.1996C235.363 33.9994 235.381 33.9787 235.598 34.0141V34.0082Z" fill="#BCC5C2"/>
</svg>
