<?xml version="1.0" encoding="UTF-8"?><svg id="b" xmlns="http://www.w3.org/2000/svg" viewBox="0 0 1440 67.41"><g id="c"><g id="d"><polygon points="0 27.58 1.67 28.66 3.63 28.67 5.9 27.44 7.53 28.75 9.47 28.8 11.1 30.1 13.05 30.15 15.09 29.81 16.3 32.86 18.21 33.05 20.47 31.77 21.86 34.16 24.18 32.57 25.81 33.99 27.88 33.44 29.54 34.72 31.31 35.55 33.22 35.74 35.3 35.03 37.19 35.25 38.78 37.01 40.75 36.86 42.6 37.32 44.57 37.09 46.48 37.22 48.16 38.69 49.97 39.45 52.09 38.19 54.01 38.23 55.65 40.14 57.57 40.13 59.44 40.51 61.51 39.33 63.46 39.08 65.12 41.16 67.2 39.67 68.98 40.89 71 39.81 72.74 41.42 74.52 42.77 76.6 40.91 78.5 40.92 80.22 43.26 82.11 43.52 84.07 42.79 86.06 41.65 87.96 41.62 89.8 42.74 91.65 43.67 93.54 44.12 95.55 42 97.41 42.92 99.33 42.75 101.26 41.83 103.07 44.35 105.03 42.57 106.87 44.89 108.82 43.45 110.75 42.28 112.64 42.5 114.55 42.25 116.42 44.49 118.34 43.34 120.24 44.98 122.15 44.81 124.07 43.79 125.97 42.97 127.87 42.85 129.77 43.77 131.68 44.5 133.59 44.97 135.46 42.68 137.4 44.78 139.28 43.43 141.16 42.74 143.09 43.88 144.95 42.66 146.91 44.37 148.74 42.48 150.62 41.89 152.52 41.94 154.44 42.51 156.34 42.51 158.3 43.47 160.15 42.63 162.03 42.25 164.03 43.75 165.81 42.04 167.68 41.6 169.51 40.68 171.5 41.71 173.27 40.26 175.25 41.04 177.26 42.11 179.15 41.87 180.93 40.63 182.68 39.3 184.89 41.77 186.59 40.03 188.57 40.53 190.51 40.65 192.08 38.14 194.15 39.19 196.08 39.21 197.87 38.36 199.87 38.81 201.8 38.82 203.3 36.32 205.38 37.18 207.09 36.04 209.41 38.03 210.84 35.46 213.13 37.23 214.79 35.86 216.81 36.23 218.58 35.39 220.06 33.28 222.1 33.73 224.16 34.18 226.15 34.34 227.43 31.5 229.58 32.29 231.18 30.86 232.9 29.89 235.19 31.24 236.85 30.05 238.98 30.74 240.94 30.74 242.71 30 244.4 28.97 246.08 27.9 248.12 28.23 249.42 25.64 251.34 25.49 253.16 24.95 255.28 25.63 257.46 26.62 258.72 23.72 260.82 24.35 262.51 23.24 264.75 24.56 266.56 23.97 268.46 23.81 270.11 22.5 271.8 21.29 273.94 22.33 275.43 20.11 277.33 19.91 279.44 20.84 281.4 21.05 282.89 18.58 284.92 19.18 287.04 20.37 288.66 18.55 290.81 20.03 292.36 17.59 294.39 18.38 296.06 16.6 298.07 17.31 300.12 18.42 301.73 15.94 303.68 16.31 305.78 17.94 307.54 16.66 309.52 17.43 311.4 17.3 313.14 15.6 315.07 15.94 316.89 14.99 318.79 14.92 320.75 15.74 322.57 14.63 324.43 13.95 326.47 16.25 328.24 14.04 330.11 13.49 332.1 15.06 333.9 12.95 335.92 15.7 337.8 15.29 339.63 13.63 341.58 15.28 343.46 14.67 345.37 15.16 347.26 14.97 349.12 13.44 351.05 15.08 352.95 15.02 354.82 12.74 356.72 12.83 358.63 13.96 360.53 12.67 362.44 13.38 364.34 15.09 366.25 12.41 368.14 14.16 370.04 14.29 371.95 13.66 373.86 13.41 375.75 13.83 377.67 12.89 379.56 13.66 381.47 13.41 383.33 14.6 385.25 14.14 387.2 12.84 389.02 14.8 390.9 15.16 392.82 14.88 394.79 13.47 396.58 15.55 398.49 15.36 400.51 13.45 402.4 13.78 404.22 15.01 406.15 14.58 407.87 16.8 409.85 15.96 411.74 16.15 413.72 15.36 415.58 15.86 417.34 17.29 419.45 15.41 421.29 16.14 422.96 18.1 424.84 18.37 426.91 17.12 428.82 17.23 430.6 18.24 432.56 17.97 434.34 18.95 436.42 17.98 438.03 19.89 440 19.62 441.81 20.31 443.74 20.29 445.88 19.19 447.77 19.47 449.43 20.88 451.07 22.33 453.26 21.12 455.19 21.19 456.84 22.56 458.53 23.69 460.45 23.8 462.37 23.95 463.87 25.86 465.85 25.73 467.68 26.26 469.68 26.08 471.84 25.2 473.22 27.57 475.16 27.64 476.8 28.88 478.69 29.17 480.87 28.25 482.62 29.07 484.28 30.25 485.98 31.23 488.38 29.45 490.25 29.76 491.96 30.74 493.37 32.97 495.6 31.78 497.65 31.37 499.25 32.81 501 33.68 502.96 33.59 504.89 33.64 506.38 35.7 508.29 35.83 510.59 34.08 512.32 35.05 514.15 35.57 516.07 35.63 517.52 38.15 519.8 36.25 521.68 36.47 523.57 36.61 525.22 38.2 526.91 39.68 529.1 37.94 531.02 37.88 532.52 40.78 534.56 39.91 536.49 39.76 538.26 40.88 540.31 39.72 542.25 39.42 543.92 41.5 545.92 40.65 547.64 42.43 549.76 40.31 551.48 42.13 553.29 43.23 555.36 41.27 557.08 43.42 559.18 40.93 561 41.87 562.8 43.43 564.68 43.73 566.69 42.03 568.61 41.65 570.5 41.8 572.37 42.28 574.24 42.79 576.09 44.13 578.01 43.54 579.95 42.14 581.78 44.36 583.72 42.9 585.58 44.61 587.52 42.7 589.4 43.66 591.3 43.33 593.2 43.14 595.09 44.8 596.99 45.13 598.9 43.53 600.81 42.71 602.71 45.02 604.6 42.37 606.51 43.94 608.4 42.65 610.31 43.58 612.23 44.22 614.11 43.34 616.03 44.21 617.94 44.27 619.84 44.25 621.73 43.82 623.6 42.92 625.54 43.8 627.46 44.23 629.33 43.57 631.15 41.83 633.1 42.91 634.99 42.62 636.9 42.79 638.88 43.92 640.78 43.82 642.52 41.56 644.44 41.81 646.24 40.66 648.28 42.2 650.03 40.44 652.05 41.73 653.94 41.53 655.83 41.27 657.55 39.58 659.67 41.42 661.29 38.99 663.23 39.27 665.24 40.01 666.95 38.47 669.14 40.37 670.84 38.83 672.78 38.93 674.82 39.68 676.36 37.28 678.51 38.63 680.14 36.89 682.28 38.07 684.19 37.93 686.08 37.67 687.5 35.04 689.73 36.51 691.61 36.22 693.01 33.68 695.41 35.83 696.77 33.15 698.83 33.71 700.78 33.7 702.24 31.58 704.73 33.84 706.51 33.09 708.26 32.25 710.19 32.12 711.9 31.13 713.68 30.41 715.78 30.99 717.05 28.23 719.13 28.73 720.9 28.02 723.01 28.62 724.46 26.65 726.77 28.09 728.59 27.54 730.05 25.54 731.76 24.57 734.21 26.62 735.83 25.29 737.75 25.17 739.44 24.1 741.18 23.2 742.81 21.79 745.13 23.49 746.68 21.7 748.67 21.93 750.44 21.12 752.39 21.19 754.22 20.69 756.23 21.1 757.98 20.18 760.08 21.17 761.68 19.28 763.59 19.21 765.45 18.85 767.4 19.03 769.35 19.27 771.25 19.23 772.76 16.35 774.75 16.85 776.63 16.59 778.47 15.97 780.39 16.01 782.21 15.24 784.24 16.28 786.05 15.41 787.91 14.93 789.97 16.57 791.71 14.83 793.6 14.64 795.63 16.18 797.44 15.04 799.44 16.52 801.25 15.27 803.19 15.91 805.08 15.8 806.92 14.64 808.75 13.37 810.74 15.18 812.58 13.79 814.46 13.29 816.44 15.47 818.3 14.68 820.16 13.42 822.09 14.65 823.98 14.38 825.9 15.25 827.77 13.76 829.68 14.42 831.56 13.26 833.46 12.34 835.37 13.43 837.27 14.18 839.18 13.95 841.08 13.38 842.98 13.71 844.89 12.57 846.8 12.78 848.67 15.1 850.58 14.28 852.49 13.99 854.41 13 856.27 14.82 858.22 12.96 860.1 13.58 862.03 13.01 863.9 13.82 865.85 12.84 867.64 15.31 869.53 15.4 871.47 14.64 873.34 15.23 875.25 14.98 877.07 16.29 879.01 15.64 881.04 13.93 882.72 16.79 884.63 16.69 886.55 16.42 888.4 16.93 890.44 15.52 892.36 15.45 894.14 16.69 896.19 15.46 898.08 15.68 899.89 16.57 901.88 16.02 903.79 16.12 905.61 16.9 907.17 19.45 909.31 17.96 911.35 17.22 913 18.99 914.94 18.89 916.78 19.43 918.42 21.04 920.44 20.56 922.11 21.94 924.17 21.24 926.3 20.23 927.68 22.98 929.74 22.4 931.56 22.96 933.59 22.52 935.5 22.66 937.35 23.1 939.27 23.26 940.64 25.78 943.07 23.73 944.48 26 946.14 27.22 948.52 25.48 949.85 28 952.03 27.13 953.58 28.75 955.68 28.19 957.6 28.33 959.71 27.71 961.44 28.59 963.14 29.6 965.1 29.53 966.75 30.76 968.36 32.12 970.64 30.78 972.24 32.23 974.25 31.97 976.12 32.29 977.79 33.45 979.79 33.21 981.32 35.04 983.13 35.68 985.18 35.14 986.95 35.94 988.78 36.48 990.49 37.6 992.86 35.38 994.44 37.21 996.56 36.14 998.38 36.69 999.93 38.87 1001.8 39.25 1003.78 38.86 1005.76 38.47 1007.48 39.84 1009.62 38.3 1011.39 39.28 1013.35 38.92 1014.9 41.65 1017.09 39.46 1018.92 40.05 1020.83 40.08 1022.78 39.62 1024.38 42.49 1026.25 42.86 1028.26 41.8 1030.14 42.05 1032 42.54 1033.98 41.5 1035.91 41.08 1037.73 42.12 1039.7 41.06 1041.5 42.56 1043.43 42.15 1045.29 42.87 1047.2 42.61 1049.14 41.78 1050.96 43.43 1052.93 41.76 1054.73 44.25 1056.63 44.31 1058.56 43.3 1060.43 44.24 1062.33 44.31 1064.22 44.84 1066.17 42.62 1068.06 42.69 1069.93 44.46 1071.84 44.02 1073.74 44.36 1075.64 45.18 1077.55 44.55 1079.46 44.01 1081.35 42.92 1083.25 42.34 1085.16 43.45 1087.05 42.74 1088.95 42.59 1090.89 44.94 1092.73 42.19 1094.69 44.51 1096.58 43.84 1098.5 44.42 1100.41 44.6 1102.28 43.59 1104.14 42.8 1106.09 43.85 1107.95 42.93 1109.89 43.61 1111.74 42.61 1113.58 41.71 1115.59 43.42 1117.41 42.19 1119.23 41.04 1121.12 40.92 1123.06 41.43 1124.89 40.59 1126.83 41 1128.68 40.44 1130.55 40.17 1132.54 40.96 1134.28 39.41 1136.25 40.02 1138.22 40.44 1140.08 40.08 1142.13 41.05 1143.81 39.28 1145.63 38.61 1147.58 38.8 1149.36 37.89 1151.26 37.74 1153.24 38.12 1155.04 37.32 1156.77 36.21 1159.02 38 1160.73 36.84 1162.43 35.6 1164.52 36.43 1166.14 34.84 1168 34.51 1170.2 35.75 1172.22 36.11 1173.67 33.83 1175.74 34.39 1177.42 33.2 1179.14 32.19 1181.11 32.27 1183.24 33.02 1184.86 31.61 1186.51 30.38 1188.89 32.11 1190.66 31.33 1192.35 30.24 1194.14 29.6 1196.2 30.01 1197.76 28.43 1199.52 27.66 1201.37 27.27 1203.32 27.28 1204.85 25.59 1206.76 25.39 1208.65 25.12 1210.68 25.45 1212.56 25.18 1213.98 22.95 1215.87 22.7 1218.19 24.32 1219.81 22.88 1221.75 22.92 1223.54 22.22 1225.6 22.78 1227.28 21.57 1229.43 22.67 1230.88 20.19 1233.12 21.88 1234.98 21.55 1236.71 20.47 1238.25 18.23 1240.29 18.92 1242.13 18.42 1244.04 18.3 1245.74 16.86 1247.87 18.29 1249.86 18.82 1251.51 16.87 1253.28 15.8 1255.5 18.29 1257.3 17.34 1259.21 17.45 1261.06 16.91 1263.03 17.55 1264.72 15.47 1266.76 16.99 1268.47 14.95 1270.38 14.93 1272.21 14.07 1274.15 14.53 1276.01 13.88 1277.93 14.16 1279.94 15.88 1281.8 15.26 1283.7 15.14 1285.63 15.74 1287.43 13.84 1289.35 14.19 1291.3 15.58 1293.11 13.26 1295.03 14.04 1296.95 14.66 1298.86 15.33 1300.7 12.78 1302.65 15.06 1304.51 12.85 1306.42 13.41 1308.33 14.6 1310.22 13.6 1312.11 12.44 1314.02 12.36 1315.93 14.81 1317.83 14.91 1319.75 12.58 1321.66 12.67 1323.56 14 1325.47 13.16 1327.4 12.35 1329.25 15.29 1331.21 12.68 1333.11 13.18 1335 13.76 1336.93 13.02 1338.82 13.55 1340.72 13.65 1342.54 15.64 1344.56 12.99 1346.46 13.32 1348.32 14.25 1350.28 13.33 1352.14 14.11 1353.9 16.29 1355.91 14.8 1357.84 14.54 1359.73 14.7 1361.52 16.18 1363.53 15.02 1365.5 14.49 1367.25 16.14 1369.02 17.58 1371.13 15.7 1373.1 15.34 1374.85 16.77 1376.81 16.47 1378.52 18.09 1380.42 18.22 1382.26 18.76 1384.42 17.08 1386 19.44 1387.96 19.13 1389.98 18.52 1391.7 19.81 1393.75 19.05 1395.46 20.35 1397.28 20.9 1399.16 21.22 1401.12 21.07 1403.22 20.3 1404.98 21.21 1407 20.82 1408.76 21.74 1410.4 23.13 1412.62 21.91 1413.96 24.59 1416.19 23.4 1417.72 25.22 1419.7 25.11 1421.48 25.82 1423.67 24.84 1425.44 25.62 1427.2 26.42 1429.1 26.65 1430.96 27.02 1432.36 29.24 1434.69 27.76 1436.61 27.88 1437.93 30.39 1440 28.49 1440 0 0 0 0 27.58" style="fill:#303f5d;"/><path d="M1371.4,53.12l5.31,2.66-.07.12c-.6.27-5.44,1.65-5.51,1.94-.02.09.02.22.04.31.14.57.51,1.41.73,1.98.48,1.25,1.1,2.54,1.54,3.79.04.11.22.66.16.72-.07,0-.13,0-.2-.03-.25-.11-1.06-.87-1.37-1.1-.75-.56-1.54-1.14-2.31-1.66-.32-.22-.89-.66-1.21-.8-.43-.2-.58.2-.82.53-1.36,1.82-2.5,3.87-3.8,5.74-.32.32-.32-.25-.35-.49-.22-1.79-.26-3.63-.4-5.43-.04-.51,0-1.96-.25-2.31-.31-.46-1.18-.4-1.68-.38-1.54.07-3.06.33-4.63.35-.24,0-.76.16-.62-.32.05-.17.32-.17.46-.24,1.11-.55,4.56-2.5,5.26-3.33.08-.09.24-.29.25-.41.01-.16-.46-.65-.6-.8-1.08-1.17-2.39-2.16-3.49-3.35-.1-.11-.6-.63-.58-.72.07-.11.16-.08.26-.06.53.06,1.28.4,1.83.54.87.23,1.81.44,2.69.63.27.06,1.38.34,1.56.25.09-.05.24-.59.28-.73.42-1.63.6-3.42,1.04-5.04.05-.19.15-.78.41-.44.71,1.49,1.3,3.04,2,4.54.17.36.44.99.65,1.31.11.16.25.19.4.06l3.79-4c.2-.14.66-.62.66-.1-.23.71-.53,1.41-.75,2.12-.3.97-.48,1.94-.63,2.94-.03.22-.17,1.08-.05,1.2Z" style="fill:#303f5d;"/><path d="M161.67,33.8l4.31,5.64.32-.02c.33-.31.78-.54,1.12-.81.86-.69,2.28-2.24,3.15-2.71.18-.1.37-.15.57-.17.01.24,0,.47-.04.71-.25,1.4-1.04,3.08-1.24,4.37-.08.5,0,.57.53.62,2.04.2,4.41.14,6.39.44.16.02.29.09.4.21-.15.14-.28.31-.44.43-1.49,1.1-3.47,1.97-4.84,3.04-.48.38-.72.48-.39,1.06.76,1.35,2.08,2.74,2.91,4.09.23.37.55.89.58,1.31-.27.27-3.64-1.32-4.21-1.53-.48-.18-1.38-.54-1.84-.62-.15-.03-.27-.06-.42.02l-3.66,6.25-.2-.15c-.05-.7-.2-1.39-.28-2.09-.12-1.02-.12-2.14-.27-3.15-.02-.14-.09-.34-.23-.39-.76-.25-4.33,2.03-5.26,2.42-.15.06-.29.13-.46.11-.03-.15.02-.27.07-.41.54-1.59,1.83-3.38,2.49-5.04.27-.68.58-1.07-.17-1.44-1.58-.78-3.48-1.22-5.06-2.04l-.13-.26c1.01-.15,1.93-.6,2.89-.92.54-.18,3.01-.83,3.23-1.15.11-.16.11-.42.1-.61-.08-2.25-.7-4.47-.54-6.74.04-.5.08-.55.6-.46Z" style="fill:#f5f3ed;"/><path d="M881.29,22.62l4.31,5.64.32-.02c.33-.31.78-.54,1.12-.81.86-.69,2.28-2.24,3.15-2.71.18-.1.37-.15.57-.17.01.24,0,.47-.04.71-.25,1.4-1.04,3.08-1.24,4.37-.08.5,0,.57.53.62,2.04.2,4.41.14,6.39.44.16.02.29.09.4.21-.15.14-.28.31-.44.43-1.49,1.1-3.47,1.97-4.84,3.04-.48.38-.72.48-.39,1.06.76,1.35,2.08,2.74,2.91,4.09.23.37.55.89.58,1.31-.27.27-3.64-1.32-4.21-1.53-.48-.18-1.38-.54-1.84-.62-.15-.03-.27-.06-.42.02l-3.66,6.25-.2-.15c-.05-.7-.2-1.39-.28-2.09-.12-1.02-.12-2.14-.27-3.15-.02-.14-.09-.34-.23-.39-.76-.25-4.33,2.03-5.26,2.42-.15.06-.29.13-.46.11-.03-.15.02-.27.07-.41.54-1.59,1.83-3.38,2.49-5.04.27-.68.58-1.07-.17-1.44-1.58-.78-3.48-1.22-5.06-2.04l-.13-.26c1.01-.15,1.93-.6,2.89-.92.54-.18,3.01-.83,3.23-1.15.11-.16.11-.42.1-.61-.08-2.25-.7-4.47-.54-6.74.04-.5.08-.55.6-.46Z" style="fill:#f2efd2;"/><path d="M330.98,29.74c.02.15-.03.26-.1.38-.26.48-1.75,1.98-1.8,2.3-.02.11.08.74.13.88.22.67,1.17,1.52,1.44,2.15.06.14.08.27.07.41-.2.2-3.6-1.09-4.03-.83-.37.22-.93,4.59-1.62,4.86-.16.06-.13-.09-.18-.16-.5-.65-1.34-3.88-1.52-4-.12-.08-.23-.04-.35,0-.63.23-1.49,1.15-2.11,1.39-.12.05-.22.07-.34.05,0-.26-.09-.48-.09-.74.01-.94.34-2.05.35-2.99,0-.65-1.18-.74-1.68-.93-.24-.09-1.55-.58-1.55-.72l3.84-2.29c.23-.4.06-2.41.1-3.05.01-.24.1-1.33.3-1.35l.39.21,2.87,2.92c.15.04.2-.03.29-.12.38-.36.96-1.73,1.34-1.91.26-.12.41.1.5.33.32.87.28,2.24.66,3.11.05.12.19.34.31.4.36.16,2.23-.53,2.8-.31Z" style="fill:#303f5d;"/></g></g></svg>