<?xml version="1.0" encoding="UTF-8"?>
<svg id="_レイヤー_1" data-name="レイヤー_1" xmlns="http://www.w3.org/2000/svg" version="1.1" viewBox="0 0 1440 210">
  <!-- Generator: Adobe Illustrator 29.4.0, SVG Export Plug-In . SVG Version: 2.1.0 Build 152)  -->
  <defs>
    <style>
      .st0 {
        fill: #bcc5c2;
      }

      .st1 {
        fill: #d3594c;
      }

      .st2 {
        fill: #fafafa;
      }

      .st3 {
        fill: #f2efd2;
      }
    </style>
  </defs>
  <polygon class="st2" points="1439.5 .3 1438.1 1.5 1437 3.2 1434.8 3.5 1433.9 5.3 1430.9 4.7 1430.2 6.8 1428.5 7.7 1427.2 9 1426.6 11.3 1424.9 12.2 1423.5 13.5 1421.7 14.4 1420.4 15.8 1418.6 16.6 1416 16.1 1414.6 17.5 1414 19.9 1412.8 21.5 1410 20.7 1408.7 22.2 1407.2 23.4 1406.6 25.8 1404.3 25.8 1402.8 27 1400.7 27.2 1399.5 28.8 1398.2 30.3 1395.9 30.3 1394.7 31.8 1393.4 33.4 1392.2 35 1389.5 34.1 1388.4 36 1386.9 37.3 1385.2 38.1 1382.9 37.9 1382.3 40.6 1379.5 39.4 1378.8 42.1 1376.7 42.3 1374.4 41.8 1373.6 44.5 1370.9 43.2 1370.2 46.2 1367.4 44.6 1365.7 45.3 1364.2 46.6 1363 48.7 1361.2 49.2 1359 48.9 1357.6 50.6 1355.3 49.7 1354.1 52.1 1352.3 52.6 1350.3 52.7 1348.8 54.3 1346.8 54.2 1344.4 52.6 1343.2 55.7 1341.4 56.2 1339.5 56.5 1337.3 55.1 1335.8 57.4 1333.6 56.2 1331.7 56.2 1329.8 56.1 1328.2 58.2 1326.4 58.6 1324.4 58.2 1322.4 57.7 1320.7 59.3 1318.9 59.8 1316.7 57.7 1314.9 58.3 1313 58.7 1311.1 58.7 1309.5 61.2 1307.6 61.1 1305.5 59.3 1303.6 59 1301.8 59.9 1299.8 59.7 1298.1 61.9 1296.1 59.4 1294.3 62.1 1292.3 60.5 1290.5 61.5 1288.6 61 1286.7 62.8 1284.8 60.9 1282.9 61.9 1281 60.6 1279.1 61.9 1277.2 61.1 1275.3 62.5 1273.4 61.4 1271.6 61.6 1269.7 60.5 1267.8 61 1265.9 60.6 1264 61.2 1262.1 62.2 1260.2 62.3 1258.3 60.8 1256.4 62.5 1254.5 60.4 1252.6 61.7 1250.7 61.5 1248.8 61.1 1246.9 61.6 1245 63 1243.2 62 1241.3 62 1239.4 61.4 1237.5 62.7 1235.6 60.1 1233.7 62.6 1231.8 61.8 1229.9 60.3 1228 62.9 1226.1 60.3 1224.2 60.5 1222.3 60.4 1220.4 62.5 1218.5 61.8 1216.7 62.5 1214.8 63 1212.8 60.5 1211 62.6 1209.1 62 1207.1 60.7 1205.2 60.8 1203.4 61.8 1201.5 62.5 1199.6 61.4 1197.8 63 1195.9 63.2 1194 63.6 1192.1 62.7 1190.2 63.7 1188.3 63.4 1186.5 64.1 1184.5 63.3 1182.7 64.1 1180.6 62.2 1178.7 62.4 1176.9 63.4 1175.2 64.9 1173.3 65.2 1171.2 63.8 1169.5 65.3 1167.6 64.9 1165.8 65.8 1163.8 65.3 1161.8 65.4 1160.4 68.1 1158.3 67.1 1156.4 67 1154.8 68.7 1152.5 67.1 1150.7 67.6 1149.1 69.2 1147.3 69.8 1145.8 71.4 1143.8 71.3 1141.5 70.1 1140.4 73.2 1137.9 71.4 1136.5 73.2 1135.1 74.9 1132.7 73.8 1131.2 75.2 1129.8 76.9 1127.3 75.5 1125.9 77.3 1123.9 77.2 1122.7 79.3 1120.9 80.1 1118.2 78.4 1117.4 81.4 1114.7 79.9 1113.1 81 1111.7 82.5 1109.7 82.7 1108.8 85.3 1106.6 85 1105.4 86.9 1102.7 85.6 1101.8 88 1099.1 86.8 1098.1 89 1096.7 90.5 1094.4 90.1 1093.2 92.1 1090.7 91.2 1090 94.1 1087.6 93.5 1085.9 94.2 1083.9 94.5 1083.2 97.4 1081.3 97.8 1079.5 98.4 1077.3 98.3 1075.9 99.7 1073.6 99.4 1072.8 102 1070.4 101.5 1069.2 103.2 1068.1 105.1 1065.4 104.1 1064.4 106.2 1062.8 107.2 1060.4 106.9 1059.1 108.4 1057.1 108.7 1055.3 109.4 1053.6 110.1 1053.1 113.3 1050.4 112.2 1048.9 113.5 1047.6 115 1046.1 116.2 1044.2 116.8 1042.5 117.6 1041.2 119.1 1039.2 119.4 1037 119.2 1036.3 122.1 1034.4 122.5 1032.2 122.4 1030.1 122.3 1028.7 123.8 1026.8 124.1 1025.3 125.5 1023.4 125.9 1021.8 127 1020 127.4 1018.7 129.2 1017.1 130.2 1015.3 130.9 1013.6 131.7 1012 132.8 1010.3 133.5 1008.1 133.3 1005.9 132.9 1005.3 136.4 1003.5 137.1 1000.8 135.4 999.8 138 997.6 137.4 996.3 139.5 994.1 138.9 992.5 140 990.6 140.2 989.2 142 986.9 141 985.5 143 983.8 144 981.3 142.2 979.4 142.2 978 144.3 976.3 145.6 974 144 972.4 145.5 970.8 147 968.8 146.6 966.8 146.2 964.9 146.6 963.1 147.2 961.4 148.5 959.5 148.3 957.4 146.9 955.5 147.1 953.9 149.4 951.9 149.1 950.1 149.6 948 147.7 946.3 149.6 944.4 150.8 942.4 148.5 940.5 148.8 938.7 150.3 936.8 149.3 934.9 150.6 933 148.6 931.1 148.6 929.2 149.8 927.3 151 925.4 150.6 923.5 151.2 921.6 150.9 919.8 149.2 917.9 148.6 916 149.7 914.1 149 912.2 148.8 910.4 147.9 908.3 150.2 906.6 148.7 904.7 147.7 902.7 149.1 901 147.1 898.9 149.1 897.2 147.4 895.3 147.5 893.4 147.5 891.3 148.8 889.5 147.6 887.7 147.4 885.8 147.3 884 145.9 882.3 145 880.2 146.3 878.5 144.5 876.4 145.8 874.8 143.8 872.9 144 870.7 145.7 869.1 143.8 867 144.8 865.3 143.3 863.3 144 861.4 143.7 859.6 142.8 857.7 142.8 856.2 140.8 854 142.3 852.2 141 850.1 142.3 848.4 140.9 846.7 139.9 844.8 139.6 843.1 138.4 841.1 138.7 839.3 138.3 837 140.1 835.3 138.9 833.4 138.8 831.6 138.1 830 136.6 827.9 137.3 825.9 137.8 824 137.4 822.5 135.5 820.6 135.1 818.7 135.3 816.6 135.9 815.1 133.6 813 134.6 811.1 134.4 809.4 133.1 807.5 133.3 805.6 133 803.8 132.6 801.9 132.3 800 132.3 798 132.9 796.2 131.9 794.5 130.6 792.6 130.3 790.4 132.8 788.8 130.5 786.8 131.3 784.8 132.4 783 131.2 781.1 132.1 779.3 130.2 777.3 131.7 775.5 129.8 773.6 131.6 771.8 129.2 769.9 129 768 130.2 766.1 130.2 764.2 130.3 762.3 129.3 760.5 131.2 758.6 131.5 756.7 130.6 754.7 129.8 752.9 130.9 751 131.3 749.3 132.6 747.3 132.5 745.5 132.7 743.3 130.9 741.8 133.7 739.5 131.8 738 133.9 735.9 133 734.1 133.8 732.4 134.7 730.7 135.6 728.6 135.3 727.2 137.2 725 136.2 722.8 135.5 721.2 136.7 719.4 137.4 717.8 138.7 716.1 139.8 713.7 138.3 712 139.3 710.8 141.7 708.6 141.1 706.8 141.5 704.6 140.9 703.4 143.5 701.6 144 699.4 143.3 698.1 145.5 696.2 145.6 694.7 147.1 692.6 146.8 691.1 148.2 689.3 148.8 687.1 148.5 684.8 147.6 683.9 150.6 681.3 148.9 680.1 151.4 678.4 152.1 676.3 151.8 675.1 154.1 672.4 152.4 671.5 155.4 669.7 155.8 667.4 155.2 666 156.8 663.4 155.3 662 157 660.5 158.2 658.1 157.3 657.1 160 654.9 159.6 653.7 161.7 651.6 161.7 649.5 161.3 647.7 162 645.7 161.9 644 163 642.1 163.2 640.7 164.7 638.9 165.5 637.4 167 635.2 166.5 634.1 168.9 631.8 168.1 629.7 167.8 628.3 169.7 626.2 169.5 625 171.9 622.7 170.8 620.9 171.5 619.3 172.7 617.7 174 615.1 171.8 613.4 172.9 612.2 175.4 610.2 175.3 608.3 175.6 606 174.6 604.3 175.6 602.8 177.1 600.9 177.5 599.2 178.6 597.4 179.4 595.1 177.6 593.3 178.1 591.7 179.8 589.8 180.4 587.9 180.2 586.2 181.8 583.9 179.8 582.4 182 580.3 181.1 578.3 180.3 576.6 181.9 574.7 182 573 183.9 571.1 184 568.9 181.5 567.2 183.2 565.4 184.3 563.3 182.5 561.5 184 559.7 184.7 557.7 182.5 555.8 183.8 554 185.4 552 182.8 550.2 183.9 548.3 183.5 546.4 183.7 544.5 182.7 542.6 184.8 540.7 184.3 538.8 184.7 537 182.6 535 183.8 533.1 183.6 531.3 182.5 529.3 184.2 527.4 183.7 525.7 182.1 523.6 183.5 521.8 182.3 519.8 183.3 518 182.7 516.2 181.5 514.3 181.5 512.5 181 510.7 180.3 508.7 180.3 507.1 179 504.9 180.4 502.9 180.3 501.1 180 499.6 177.6 497.6 178.2 495.7 178.1 493.7 178 491.8 177.9 490.5 175.1 488.7 174.7 486.2 176.8 484.8 174.9 482.8 174.8 481.2 173.4 478.9 175 477.5 172.8 475.3 173.7 473.7 172.1 471.6 173 470.2 170.5 467.9 172.2 466.3 170.7 464.7 169.5 462.9 168.7 460.7 169.6 458.8 169.5 457.1 168.5 455.1 168.9 453.6 167 451.7 166.6 449.8 166.7 447.9 166.2 446.1 165.6 444.4 164.8 442.3 165.2 440.7 163.8 438.6 164.4 437.2 162.3 435.1 163 433.4 161.7 431.5 161.8 429.3 162.7 427.6 161.7 426.1 159.9 424 160.2 422 160.5 420.3 159.8 418.5 158.8 416.8 157.6 414.9 157.6 413.1 156.8 410.8 158.7 409.5 155.6 407.6 155.6 405.3 157.2 403.5 157.1 401.8 155.5 400.1 154.4 398.2 153.9 396.2 154.4 394.4 153.8 392.3 155.1 390.5 154.1 388.8 152.8 386.6 154.6 384.7 154.6 382.9 153.7 381.1 152.8 379.3 152.3 377.4 152.4 375.6 150.9 373.6 152.3 371.7 152.2 369.8 151.8 367.8 153 366.1 150.4 364.1 152.6 362.2 152 360.3 150.9 358.4 152.1 356.5 150.3 354.7 151.1 352.7 150.3 350.9 151 349 152.3 347.1 152.2 345.2 151.9 343.2 150.5 341.4 151.5 339.6 153.3 337.5 151.2 335.6 151.3 333.9 153.3 332 153.2 330.2 153.8 328 152 326.5 154.7 324.5 153.9 322.5 153.6 320.9 155.3 318.7 153.9 316.9 154.5 315.4 156.9 313.2 155.6 311.5 156.9 309.9 158.1 307.7 156.9 305.9 157.4 304 157.9 302.3 158.6 300.2 158.4 298.8 160.3 296.6 159.4 294.8 160 292.9 160.3 291.2 161.4 289.6 162.5 287.2 160.8 286 163.9 284 163.5 282.4 164.8 280.2 164.2 278.2 164 276.2 164 274.4 164.5 273.3 167.5 271.2 166.9 269.2 166.8 267.7 168.5 265.7 168.4 263.5 167.6 261.7 168.2 260.1 169.6 258.2 169.8 256.1 169.4 254.9 172.1 252.7 171.2 250.9 171.6 249.2 172.6 247.6 174 245.3 172.8 243.5 173.6 241.6 173.7 240.4 176.4 238.6 177 236.8 177.4 234.9 178 232.9 177.6 230.9 177.5 228.8 177 227.1 177.8 225.8 180.5 223.8 180.5 221.6 179.6 220 180.9 217.9 180.2 216.3 181.9 214.3 181.3 212.6 182.6 210.4 181.5 208.8 182.8 207 183.7 205.2 184.5 203.4 184.8 201.4 184.7 199.7 185.7 197.5 184.4 195.7 185 193.8 185.4 192.2 187.5 190.4 187.7 188.2 186.2 186.4 186.9 184.5 187.5 182.5 186.5 180.7 186.9 178.7 186.6 177.1 189.1 175.1 188.2 173.2 188.2 171.4 189.1 169.5 190 167.6 189.5 165.7 189.3 163.7 187.5 161.8 188.1 160 190.1 158 188.5 156.2 188.5 154.3 188.1 152.4 188.5 150.5 188.6 148.5 189.6 146.7 188.7 144.9 187.3 142.9 188.4 141 188.4 139 189.1 137.3 187.8 135.2 189.2 133.7 186.2 131.7 186.9 129.8 186.7 127.8 186.8 125.8 187.4 124 187 122.5 184.5 120.1 186.8 118.6 185 116.9 183.7 115 183.6 112.7 185 111.1 183.8 109 184 107.9 181 105.3 183.3 103.5 182.6 101.8 181.6 100.5 179.5 98.7 178.6 96.3 180.2 95 178 93.2 177.5 90.8 178.6 89 178.3 87.3 177.3 85.8 175.8 84.3 174.2 82.5 173.6 80.1 174.8 78.5 173.7 76.3 174.3 74.8 172.9 73.4 171.1 71.2 171.6 69.7 170.2 68.1 169.1 66.5 167.9 64.4 168.1 62.7 167.4 60.2 168.7 59.2 165.9 56.7 167.3 55.1 166.1 53.2 165.8 52 163.5 50.2 163.1 48.4 162.2 46 163.4 45.1 160.3 43.2 160.1 41.6 158.8 39.3 159.7 37.9 158.1 35.4 159.3 34.2 157.1 32.3 156.7 30.2 157 28.3 156.7 27.1 154.4 24.8 155.2 22.8 155.1 21.5 153 20.1 151.4 18.4 150.6 16.4 150.6 14.5 150.1 13 148.8 10.6 149.9 8.7 149.6 7.1 148.3 5 148.9 3.3 147.8 2 145.5 0 146.7 0 209.1 1440 209.1 1440 0 1439.6 0 1439.5 .3"/>
  <path class="st1" d="M1203.9,129.9l5.1,2.6h0c-.6.4-5.2,1.7-5.3,2,0,0,0,.2,0,.3.1.5.5,1.4.7,1.9.5,1.2,1.1,2.4,1.5,3.6,0,.1.2.6.2.7,0,0-.1,0-.2,0-.2-.1-1-.8-1.3-1.1-.7-.5-1.5-1.1-2.2-1.6-.3-.2-.9-.6-1.2-.8-.4-.2-.5.2-.8.5-1.3,1.8-2.4,3.7-3.7,5.5-.3.3-.3-.2-.3-.5-.2-1.7-.3-3.5-.4-5.2,0-.5,0-1.9-.2-2.2-.3-.4-1.1-.4-1.6-.4-1.5,0-2.9.3-4.4.3-.2,0-.7.1-.6-.3,0-.2.3-.2.4-.2,1.1-.5,4.4-2.4,5.1-3.2,0,0,.2-.3.2-.4,0-.2-.5-.6-.6-.8-1-1.1-2.3-2.1-3.4-3.2,0-.1-.6-.6-.6-.7,0-.1.2,0,.2,0,.5,0,1.2.4,1.8.5.8.2,1.7.4,2.6.6.3,0,1.3.3,1.5.2,0,0,.2-.6.3-.7.4-1.6.6-3.3,1-4.8,0-.2.2-.8.4-.4.7,1.4,1.2,2.9,1.9,4.4.2.4.4,1,.6,1.3,0,.2.2.2.4,0l3.6-3.8c.2-.1.6-.6.6,0-.2.7-.5,1.4-.7,2-.3.9-.5,1.9-.6,2.8,0,.2-.2,1,0,1.2h0Z"/>
  <path class="st2" d="M527.9,140.9l5.1,2.6h0c-.6.4-5.2,1.7-5.3,2,0,0,0,.2,0,.3.1.5.5,1.4.7,1.9.5,1.2,1.1,2.4,1.5,3.6,0,.1.2.6.2.7,0,0-.1,0-.2,0-.2-.1-1-.8-1.3-1.1-.7-.5-1.5-1.1-2.2-1.6-.3-.2-.9-.6-1.2-.8-.4-.2-.6.2-.8.5-1.3,1.8-2.4,3.7-3.7,5.5-.3.3-.3-.2-.3-.5-.2-1.7-.2-3.5-.4-5.2,0-.5,0-1.9-.2-2.2-.3-.4-1.1-.4-1.6-.4-1.5,0-2.9.3-4.5.3-.2,0-.7.1-.6-.3,0-.2.3-.2.4-.2,1.1-.5,4.4-2.4,5.1-3.2,0,0,.2-.3.2-.4,0-.2-.4-.6-.6-.8-1-1.1-2.3-2.1-3.4-3.2,0-.1-.6-.6-.6-.7,0-.1.2,0,.3,0,.5,0,1.2.4,1.8.5.8.2,1.7.4,2.6.6.3,0,1.3.3,1.5.2,0,0,.2-.6.3-.7.4-1.6.6-3.3,1-4.8,0-.2.2-.8.4-.4.7,1.4,1.2,2.9,1.9,4.4.2.4.4,1,.6,1.3.1.2.2.2.4,0l3.6-3.8c.2-.1.6-.6.6,0-.2.7-.5,1.4-.7,2-.3.9-.5,1.9-.6,2.8,0,.2-.2,1,0,1.2h0Z"/>
  <path class="st0" d="M1304.5,138l2.4,3.1h.2c.2-.2.4-.3.6-.5.5-.4,1.2-1.2,1.7-1.5,0,0,.2,0,.3,0,0,.1,0,.3,0,.4-.1.8-.6,1.7-.7,2.4,0,.3,0,.3.3.3,1.1.1,2.4,0,3.5.2,0,0,.2,0,.2.1,0,0-.2.2-.2.2-.8.6-1.9,1.1-2.7,1.7-.3.2-.4.3-.2.6.4.7,1.1,1.5,1.6,2.3.1.2.3.5.3.7-.1.1-2-.7-2.3-.8-.3,0-.8-.3-1-.3,0,0-.2,0-.2,0l-2,3.4h-.1c0-.5-.1-.8-.2-1.2,0-.6,0-1.2-.1-1.7,0,0,0-.2-.1-.2-.4-.1-2.4,1.1-2.9,1.3,0,0-.2,0-.3,0,0,0,0-.1,0-.2.3-.9,1-1.9,1.4-2.8.1-.4.3-.6,0-.8-.9-.4-1.9-.7-2.8-1.1h0c.6-.2,1.1-.5,1.6-.6.3,0,1.7-.5,1.8-.6,0,0,0-.2,0-.3,0-1.2-.4-2.5-.3-3.7,0-.3,0-.3.3-.3h0Z"/>
  <path class="st0" d="M1386.5,67l2.4,3.1h.2c.2-.2.4-.3.6-.5.5-.4,1.2-1.2,1.7-1.5,0,0,.2,0,.3,0,0,.1,0,.3,0,.4-.1.8-.6,1.7-.7,2.4,0,.3,0,.3.3.3,1.1.1,2.4,0,3.5.2,0,0,.2,0,.2.1,0,0-.2.2-.2.2-.8.6-1.9,1.1-2.7,1.7-.3.2-.4.3-.2.6.4.7,1.1,1.5,1.6,2.3.1.2.3.5.3.7-.1.1-2-.7-2.3-.8-.3,0-.8-.3-1-.3,0,0-.2,0-.2,0l-2,3.4h-.1c0-.5-.1-.8-.2-1.2,0-.6,0-1.2-.1-1.7,0,0,0-.2-.1-.2-.4-.1-2.4,1.1-2.9,1.3,0,0-.2,0-.3,0,0,0,0-.1,0-.2.3-.9,1-1.9,1.4-2.8.1-.4.3-.6,0-.8-.9-.4-1.9-.7-2.8-1.1h0c.6-.2,1.1-.5,1.6-.6.3,0,1.7-.5,1.8-.6,0,0,0-.2,0-.3,0-1.2-.4-2.5-.3-3.7,0-.3,0-.3.3-.3h0Z"/>
  <path class="st0" d="M1261.8,14l4,5.2h.3c.3-.3.7-.5,1-.8.8-.6,2.1-2.1,2.9-2.5.2,0,.3-.1.5-.2,0,.2,0,.4,0,.6-.2,1.3-1,2.8-1.1,4,0,.5,0,.5.5.6,1.9.2,4,.1,5.9.4.2,0,.3,0,.4.2-.1.1-.2.3-.4.4-1.4,1-3.2,1.8-4.4,2.8-.4.3-.7.4-.4,1,.7,1.2,1.9,2.5,2.7,3.8.2.3.5.8.5,1.2-.2.2-3.3-1.2-3.9-1.4-.4-.2-1.3-.5-1.7-.6-.1,0-.2,0-.4,0l-3.4,5.7h-.2c0-.8-.2-1.4-.3-2-.1-.9-.1-2-.2-2.9,0-.1,0-.3-.2-.4-.7-.2-4,1.9-4.8,2.2-.1,0-.3.1-.4.1,0-.1,0-.2,0-.4.5-1.5,1.7-3.1,2.3-4.6.2-.6.5-1-.2-1.3-1.4-.7-3.2-1.1-4.6-1.9v-.2c.8-.1,1.7-.5,2.5-.8.5-.2,2.8-.8,3-1.1,0-.1,0-.4,0-.6,0-2.1-.6-4.1-.5-6.2,0-.5,0-.5.6-.4h0Z"/>
  <path class="st3" d="M998,175.4v.2c-.4.5-.7,1-1.2,1.4-.3.3-.7.5-1,.8-.2.2-.5.5-.4.8.3.5.6,1,.9,1.5.1.2,1.2,1.6,1,1.7-1.1-.1-2.1-.4-3.1-.7-.1,0-.3,0-.3.2,0,.1-.2.5-.3.6-.5.9-.9,2.3-1.5,3-.3.4-.3-.1-.3-.3-.3-.7-.5-1.4-.7-2.1,0-.2-.4-1.2-.5-1.2,0,0-.2,0-.3,0-.4,0-.8.3-1.2.4-.7.2-1.4.4-2.2.6,0-.1,0-.2,0-.3.3-.8,1.1-1.7,1.4-2.5.1-.3.2-.5,0-.8,0-.1-.6-.7-.7-.8-.2-.2-1.6-1.2-1.6-1.4s.3,0,.3,0c.9,0,1.7,0,2.6-.2.2,0,.4,0,.6,0,.5,0,.3-.6.3-.9,0-.4,0-.8,0-1.2,0-.4,0-.7,0-1.1,0,0,.1,0,.2,0,.6.5,1.1,1.3,1.7,1.8.2.2.3.2.5,0,.4-.6.6-1.4.9-2,0-.1.4-.7.4-.7.1,0,.2.3.2.4.3.8.5,1.5.7,2.3,0,.4,0,.8.5.8.5,0,3-.2,3.1,0h0Z"/>
  <path class="st2" d="M413,129.4v.2c-.4.5-.7,1-1.2,1.4-.3.3-.7.5-1,.8-.2.2-.5.5-.4.8.3.5.6,1,.9,1.5.1.2,1.2,1.6,1,1.7-1.1-.1-2.1-.4-3.1-.7-.1,0-.3,0-.3.2,0,.1-.2.5-.3.6-.5.9-.9,2.3-1.5,3-.3.4-.3-.1-.3-.3-.3-.7-.5-1.4-.7-2.1,0-.2-.4-1.2-.5-1.2,0,0-.2,0-.3,0-.4,0-.8.3-1.2.4-.7.2-1.4.4-2.2.6,0-.1,0-.2,0-.3.3-.8,1.1-1.7,1.4-2.5.1-.3.2-.5,0-.8,0-.1-.6-.7-.7-.8-.2-.2-1.6-1.2-1.6-1.4s.3,0,.3,0c.9,0,1.7,0,2.6-.2.2,0,.4,0,.6,0,.5,0,.3-.6.3-.9,0-.4,0-.8,0-1.2,0-.4,0-.7,0-1.1,0,0,.1,0,.2,0,.6.5,1.1,1.3,1.7,1.8.2.2.3.2.5,0,.4-.6.6-1.4.9-2,0-.1.4-.7.4-.7.1,0,.2.3.2.4.3.8.5,1.5.7,2.3,0,.4,0,.8.5.8.5,0,3-.2,3.1,0h0Z"/>
</svg>