<svg width="375" height="70" viewBox="0 0 375 70" fill="none" xmlns="http://www.w3.org/2000/svg">
<g clip-path="url(#clip0_4335_2547)">
<mask id="mask0_4335_2547" style="mask-type:luminance" maskUnits="userSpaceOnUse" x="-54" y="0" width="483" height="70">
<path d="M428.043 0H-54V70H428.043V0Z" fill="white"/>
</mask>
<g mask="url(#mask0_4335_2547)">
<path d="M457.213 -21.5212L456.674 -21.5714L456.172 -21.1563L455.623 -20.8417L455.215 -20.2726L454.606 -20.065L453.953 -19.9311L453.739 -19.044L452.694 -19.5629L452.423 -18.7896L451.764 -18.6557L451.566 -17.7787L451.037 -17.4339L450.174 -17.6079L449.862 -16.9284L449.163 -16.8414L448.61 -16.5267L448.275 -15.894L447.536 -15.8538L447.147 -15.3049L446.444 -15.2044L446.083 -14.622L445.638 -14.1533L445.259 -13.601L444.717 -13.2729L444.319 -12.754L443.572 -12.6971L442.923 -12.5097L442.772 -11.6628L441.919 -11.7397L441.4 -11.3749L440.77 -11.1539L440.767 -10.1296L439.977 -10.1128L439.773 -9.34961L438.909 -9.42326L438.755 -8.59977L438.263 -8.20476L437.453 -8.20141L436.968 -7.79636L436.352 -7.55199L436.141 -6.80885L435.712 -6.3335L435.049 -6.14604L434.356 -5.99205L434.132 -5.26899L433.566 -4.96101L433.413 -4.15092L432.415 -4.3685L432.147 -3.70235L431.893 -3.01276L430.965 -3.14331L430.868 -2.26291L430.326 -1.92481L429.549 -1.87795L429.339 -1.13145L428.967 -0.589153L428.04 -0.726401L427.889 0.0937402L427.394 0.488748L427.042 1.06787L426.312 1.16495L425.998 1.79093L425.014 1.56665L424.759 2.26293L424.19 2.56421L423.748 3.02617L423.541 3.79275L422.975 4.10072L422.51 4.5359L421.927 4.82044L421.482 5.2824L420.886 5.5435L419.996 5.39956L419.544 5.85147L419.343 6.65823L418.951 7.20053L417.997 6.94611L417.559 7.41812L417.08 7.8399L416.856 8.63661L416.092 8.63996L415.597 9.03497L414.894 9.11865L414.482 9.64422L414.047 10.1396L413.294 10.1296L412.872 10.6485L412.46 11.1908L412.042 11.7264L411.131 11.4251L410.76 12.0444L410.284 12.493L409.705 12.7608L408.942 12.6771L408.714 13.5976L407.791 13.1926L407.543 14.1031L406.867 14.1701L406.09 14.0094L405.812 14.9065L404.922 14.478L404.664 15.4522L403.75 14.9299L403.168 15.1676L402.669 15.6128L402.26 16.2991L401.651 16.4799L400.938 16.3694L400.466 16.9385L399.703 16.6539L399.295 17.4473L398.682 17.618L398.026 17.6481L397.51 18.1637L396.848 18.1603L396.044 17.5979L395.656 18.6357L395.043 18.8231L394.414 18.9235L393.657 18.4616L393.169 19.2014L392.439 18.8064L391.796 18.8198L391.147 18.7762L390.628 19.4859L390.009 19.6299L389.342 19.4759L388.68 19.3286L388.117 19.8675L387.495 20.0249L386.768 19.3119L386.156 19.5127L385.536 19.6466L384.904 19.65L384.348 20.4768L383.705 20.4433L383.019 19.8608L382.376 19.7571L381.764 20.0383L381.128 20.0014L380.542 20.7379L379.859 19.8943L379.273 20.8015L378.614 20.2692L377.994 20.604L377.352 20.4333L376.739 21.0224L376.086 20.3965L375.46 20.7245L374.818 20.2893L374.192 20.7245L373.555 20.45L372.926 20.9187L372.29 20.5471L371.657 20.6241L371.021 20.2659L370.389 20.4199L369.756 20.2759L369.123 20.4868L368.491 20.8316L367.855 20.8417L367.222 20.3663L366.586 20.9354L365.957 20.209L365.321 20.6509L364.688 20.5873L364.052 20.4634L363.419 20.6174L362.78 21.1028L362.15 20.7412L361.514 20.7546L360.882 20.5605L360.246 21.0024L359.616 20.1086L358.98 20.9722L358.348 20.6743L357.712 20.1923L357.079 21.0459L356.443 20.2023L355.807 20.2458L355.174 20.2324L354.545 20.9086L353.909 20.6843L353.28 20.9354L352.65 21.0927L351.997 20.2391L351.382 20.9689L350.742 20.7714L350.093 20.3061L349.457 20.3395L348.837 20.7011L348.211 20.9287L347.562 20.5705L346.953 21.0927L346.323 21.1664L345.701 21.3036L345.045 21.0057L344.435 21.3237L343.793 21.2199L343.177 21.4509L342.521 21.1898L341.908 21.4543L341.208 20.835L340.572 20.8952L339.97 21.23L339.394 21.712L338.771 21.8325L338.065 21.3505L337.496 21.8493L336.84 21.7388L336.247 22.0401L335.571 21.856L334.928 21.8827L334.463 22.7933L333.75 22.4552L333.094 22.4284L332.578 23.0109L331.799 22.4719L331.183 22.6359L330.667 23.1782L330.061 23.3657L329.559 23.918L328.886 23.8578L328.11 23.4762L327.761 24.4905L326.914 23.918L326.436 24.4938L325.967 25.083L325.167 24.698L324.662 25.1734L324.196 25.7424L323.353 25.2771L322.897 25.8696L322.215 25.8563L321.813 26.5626L321.23 26.807L320.32 26.2412L320.045 27.2421L319.152 26.74L318.619 27.1082L318.144 27.6104L317.485 27.6807L317.177 28.551L316.433 28.4405L316.035 29.09L315.141 28.6615L314.823 29.4749L313.926 29.0565L313.581 29.8063L313.113 30.2951L312.346 30.1545L311.968 30.8307L311.121 30.5394L310.893 31.5069L310.083 31.2993L309.501 31.547L308.824 31.6207L308.614 32.6049L307.968 32.7254L307.372 32.9496L306.635 32.9095L306.163 33.3714L305.397 33.271L305.136 34.1447L304.325 33.9606L303.924 34.5632L303.532 35.1791L302.645 34.8544L302.3 35.5574L301.761 35.8955L300.981 35.775L300.526 36.2737L299.87 36.3809L299.281 36.6252L298.682 36.8495L298.531 37.9241L297.624 37.5625L297.132 37.9877L296.693 38.5132L296.174 38.8915L295.558 39.0823L294.993 39.3669L294.544 39.8824L293.881 39.9794L293.141 39.9192L292.91 40.8732L292.261 40.9904L291.548 40.9837L290.828 40.9569L290.356 41.4289L289.713 41.5561L289.238 42.0281L288.592 42.1386L288.066 42.5068L287.434 42.6474L287.009 43.2366L286.47 43.578L285.877 43.8124L285.305 44.0835L284.779 44.4651L284.19 44.6994L283.474 44.6325L282.734 44.4986L282.526 45.6602L281.937 45.9046L281.033 45.3288L280.689 46.1991L279.935 45.9916L279.517 46.6912L278.77 46.4904L278.228 46.8519L277.592 46.949L277.123 47.5515L276.354 47.2168L275.885 47.8528L275.323 48.1943L274.489 47.5917L273.843 47.6084L273.381 48.3215L272.835 48.7533L272.055 48.2177L271.523 48.7232L270.984 49.2219L270.308 49.0914L269.638 48.9541L269.016 49.0646L268.413 49.2822L267.837 49.7073L267.185 49.6504L266.485 49.1885L265.856 49.2353L265.31 50.0187L264.657 49.9115L264.035 50.0689L263.345 49.4462L262.763 50.0823L262.153 50.4739L261.467 49.704L260.841 49.8044L260.232 50.33L259.586 49.9919L258.963 50.407L258.317 49.7442L257.684 49.7475L257.055 50.1593L256.422 50.5442L255.786 50.4237L255.147 50.6011L254.514 50.5141L253.895 49.9417L253.269 49.7576L252.623 50.1057L252 49.8647L251.371 49.8212L250.758 49.4998L250.072 50.2697L249.473 49.7676L248.864 49.4395L248.187 49.9249L247.615 49.2521L246.915 49.9015L246.336 49.3425L245.694 49.3927L245.061 49.3759L244.371 49.8011L243.779 49.4094L243.149 49.3458L242.517 49.2989L241.938 48.8303L241.342 48.529L240.639 48.9876L240.083 48.3884L239.387 48.7968L238.845 48.144L238.195 48.2043L237.465 48.7667L236.923 48.1474L236.227 48.4855L235.668 47.9666L234.988 48.1876L234.359 48.0905L233.766 47.8026L233.12 47.816L232.598 47.1231L231.865 47.6285L231.293 47.2168L230.573 47.6419L230.01 47.1733L229.428 46.8352L228.805 46.718L228.23 46.333L227.57 46.4167L226.947 46.3029L226.198 46.8854L225.625 46.4904L224.986 46.4636L224.383 46.2326L223.828 45.7338L223.141 45.9782L222.472 46.1121L221.853 45.9815L221.32 45.3422L220.701 45.2116L220.048 45.2786L219.369 45.4861L218.853 44.7396L218.157 45.0677L217.528 44.9907L216.955 44.5522L216.306 44.6091L215.68 44.5086L215.06 44.3781L214.431 44.2877L213.795 44.2743L213.129 44.4886L212.536 44.1505L211.947 43.7354L211.321 43.6282L210.598 44.445L210.039 43.6918L209.38 43.953L208.714 44.3279L208.114 43.9094L207.462 44.2107L206.869 43.5914L206.213 44.0768L205.607 43.4475L204.958 44.0467L204.345 43.2433L203.712 43.183L203.076 43.5981L202.444 43.6015L201.814 43.6082L201.172 43.2968L200.566 43.9128L199.946 44.0099L199.29 43.7354L198.627 43.4575L198.025 43.8257L197.402 43.9596L196.816 44.3747L196.177 44.3647L195.548 44.4116L194.811 43.819L194.323 44.7564L193.563 44.1069L193.05 44.8099L192.344 44.5187L191.748 44.7831L191.169 45.0911L190.587 45.3924L189.914 45.302L189.418 45.928L188.679 45.5865L187.962 45.3589L187.413 45.7707L186.814 45.9916L186.282 46.4301L185.723 46.7883L184.919 46.2996L184.35 46.6176L183.932 47.421L183.212 47.2369L182.593 47.3808L181.86 47.1733L181.475 48.0369L180.869 48.2177L180.119 47.9767L179.704 48.7165L179.041 48.7433L178.542 49.2353L177.836 49.1282L177.334 49.6136L176.731 49.8044L176.018 49.6973L175.242 49.4128L174.937 50.4304L174.053 49.858L173.678 50.6815L173.093 50.9225L172.38 50.8221L171.985 51.5719L171.101 51.0129L170.796 52.0104L170.177 52.1611L169.42 51.9468L168.945 52.4891L168.085 51.9903L167.616 52.5494L167.087 52.9578L166.307 52.6665L165.952 53.5469L165.239 53.4365L164.817 54.1395L164.138 54.1261L163.415 53.9922L162.832 54.2466L162.143 54.2064L161.594 54.5512L160.951 54.6349L160.459 55.1437L159.88 55.4115L159.381 55.917L158.645 55.7228L158.253 56.553L157.493 56.2886L156.793 56.1881L156.328 56.8141L155.635 56.7304L155.224 57.5372L154.447 57.1824L153.851 57.4066L153.309 57.8083L152.77 58.2335L151.899 57.5205L151.347 57.892L150.919 58.7155L150.249 58.682L149.62 58.7992L148.873 58.4611L148.304 58.7825L147.775 59.2846L147.153 59.4118L146.584 59.7834L145.994 60.0579L145.208 59.4654L144.595 59.6361L144.066 60.2018L143.454 60.3826L142.794 60.3257L142.245 60.8613L141.475 60.175L140.963 60.9349L140.267 60.6336L139.584 60.3658L139.018 60.8814L138.385 60.9282L137.823 61.5475L137.187 61.6044L136.451 60.7742L135.871 61.3366L135.266 61.6848L134.576 61.0789L133.98 61.5944L133.357 61.8387L132.675 61.099L132.065 61.5442L131.449 62.0496L130.793 61.196L130.167 61.5509L129.535 61.437L128.902 61.4873L128.279 61.1492L127.623 61.8521L126.994 61.6982L126.351 61.8387L125.762 61.1324L125.099 61.514L124.466 61.4672L123.867 61.0755L123.171 61.6781L122.548 61.4973L121.973 60.9717L121.276 61.4203L120.687 61.022L120.001 61.3601L119.385 61.1626L118.802 60.7742L118.163 60.7508L117.547 60.5935L116.948 60.3458L116.299 60.3725L115.739 59.9039L115.003 60.3826L114.36 60.3658L113.734 60.2654L113.252 59.4553L112.563 59.6662L111.92 59.6361L111.281 59.5993L110.638 59.5557L110.199 58.6218L109.587 58.4678L108.77 59.1942L108.271 58.5414L107.625 58.5147L107.09 58.0326L106.306 58.585L105.834 57.8351L105.104 58.1565L104.586 57.6142L103.863 57.9088L103.417 57.0719L102.621 57.6477L102.098 57.1288L101.543 56.7438L100.964 56.4626L100.227 56.7806L99.581 56.7572L99.0186 56.3957L98.3324 56.5296L97.837 55.9036L97.2177 55.773L96.5549 55.8065L95.949 55.6224L95.3364 55.4517L94.7606 55.1504L94.071 55.301L93.5354 54.8224L92.8324 55.0265L92.347 54.3336L91.6407 54.5679L91.0884 54.1428L90.4322 54.1595L89.7092 54.4742L89.1401 54.1227L88.6279 53.5202L87.9484 53.644L87.2822 53.7277L86.683 53.4967L86.1072 53.1519L85.5382 52.7737L84.8921 52.7636L84.2996 52.4891L83.5297 53.1118L83.0844 52.0807L82.4317 52.1008L81.6885 52.6398L81.0558 52.5862L80.5068 52.0439L79.921 51.6958L79.3051 51.525L78.6356 51.6757L78.0263 51.4681L77.3167 51.9267L76.7275 51.5786L76.1417 51.1568L75.4253 51.7493L74.7926 51.7426L74.1867 51.4547L73.5842 51.1468L72.9649 50.9727L72.3222 51.0095L71.7296 50.5107L71.0534 50.9894L70.4208 50.9426L69.7914 50.8221L69.1353 51.2338L68.5428 50.3501L67.8766 51.0698L67.2507 50.879L66.6247 50.5107L65.9853 50.9124L65.356 50.3099L64.7199 50.5676L64.0806 50.3166L63.4479 50.5375L62.8286 50.9861L62.1926 50.956L61.5565 50.8555L60.887 50.3668L60.2744 50.725L59.6886 51.3075L58.989 50.6179L58.3496 50.6513L57.7872 51.3108L57.1445 51.2807L56.5353 51.4949L55.8088 50.879L55.3 51.7828L54.6171 51.515L53.9577 51.4146L53.412 51.977L52.6856 51.515L52.0764 51.7326L51.5843 52.5159L50.8545 52.0908L50.2921 52.5126L49.7364 52.941L48.9966 52.5159L48.3874 52.7L47.7748 52.8574L47.1823 53.1084L46.5061 53.0113L46.014 53.6708L45.2876 53.3595L44.685 53.5704L44.0523 53.6507L43.4933 54.0156L42.9376 54.3939L42.1342 53.8348L41.7493 54.8592L41.063 54.7387L40.5241 55.1671L39.8077 54.9562L39.1315 54.8826L38.472 54.886L37.8661 55.0667L37.4912 56.0743L36.7748 55.8701L36.1087 55.8433L35.6133 56.4091L34.9437 56.3756L34.214 56.1212L33.6047 56.2919L33.0792 56.7706L32.4364 56.8242L31.7435 56.707L31.3385 57.5974L30.602 57.3163L29.9794 57.4502L29.4136 57.7816L28.8881 58.2569L28.1215 57.8619L27.529 58.0996L26.8863 58.1531L26.4712 59.0402L25.872 59.2645L25.2527 59.3984L24.6468 59.6026L23.9538 59.462L23.2843 59.4051L22.5947 59.2679L22.0089 59.5357L21.5737 60.4094L20.921 60.4261L20.1912 60.1114L19.6456 60.5533L18.9393 60.3156L18.417 60.8847L17.7241 60.6972L17.1651 61.1123L16.4353 60.7408L15.8863 61.2027L15.2971 61.4806L14.7046 61.7651L14.0786 61.8756L13.4192 61.8153L12.8334 62.1501L12.1137 61.7182L11.5044 61.9157L10.8851 62.0664L10.3529 62.7694L9.72018 62.833L9.00381 62.3275L8.39456 62.5618L7.77862 62.7493L7.09907 62.4179L6.47978 62.5719L5.83036 62.4647L5.28137 63.315L4.61186 63.007L3.97584 62.9936L3.35989 63.3083L2.7406 63.5862L2.09453 63.4422L1.4518 63.3853L0.792341 62.7761L0.166356 62.9669L-0.449586 63.6364L-1.09566 63.1008L-1.72834 63.1075L-2.36102 62.9736L-2.9937 63.0941L-3.62973 63.1376L-4.2758 63.4723L-4.89844 63.1644L-5.50434 62.7125L-6.16046 63.0807L-6.79649 63.0773L-7.4593 63.3117L-8.05181 62.8832L-8.74474 63.3284L-9.25357 62.3275L-9.92307 62.5652L-10.5524 62.4982L-11.2018 62.5283L-11.878 62.7292L-12.5007 62.5853L-12.9894 61.7685L-13.7895 62.5384L-14.3117 61.9258L-14.8674 61.5007L-15.5034 61.4571L-16.2633 61.9291L-16.8223 61.5241L-17.4952 61.5944L-17.8935 60.5935L-18.7471 61.3534L-19.3463 61.1358L-19.9154 60.801L-20.3707 60.078L-20.9465 59.7901L-21.7599 60.3223L-22.2051 59.5926L-22.811 59.4185L-23.5877 59.78L-24.2237 59.6863L-24.7861 59.3683L-25.2848 58.8494L-25.7736 58.3071L-26.3728 58.1063L-27.1762 58.5113L-27.7218 58.1498L-28.465 58.3607L-28.9738 57.8853L-29.4324 57.2794L-30.1655 57.4502L-30.6677 56.9748L-31.2133 56.6166L-31.7422 56.2149L-32.4318 56.2685L-33.021 56.0275L-33.8511 56.4626L-34.1926 55.5488L-35.0328 56.0074L-35.5651 55.6191L-36.2045 55.5186L-36.5928 54.7387L-37.2121 54.588L-37.7878 54.3135L-38.6046 54.7018L-38.9026 53.6775L-39.5453 53.5838L-40.0641 53.1586L-40.8441 53.4465L-41.3228 52.9109L-42.1463 53.316L-42.5614 52.6063L-43.184 52.4623L-43.8937 52.5594L-44.5297 52.4557L-44.9247 51.6757L-45.698 51.9636L-46.3541 51.9201L-46.786 51.2271L-47.2647 50.6681L-47.8505 50.4137L-48.5233 50.417L-49.1326 50.2396L-49.6581 49.8011L-50.4482 50.176L-51.0842 50.089L-51.6097 49.6437L-52.3362 49.8513L-52.8852 49.4764L-53.3203 48.7232L-54.1137 49.1617L-54.7029 48.9173L-55.3724 48.9608L-55.9481 48.6663L-56.4302 48.0369L-57.1398 48.2277L-57.5884 47.4511L-58.2445 47.4344L-58.8939 47.4109L-59.6103 47.6654L-60.2664 47.6888L-60.715 46.8285L-61.4849 47.354L-62.0138 46.805L-62.5628 46.3397L-63.2357 46.4435L-63.9621 46.8385L-64.5446 46.5372L-65.0567 45.8075L-65.7195 45.8845L-66.3355 45.7171L-67.0016 45.8644L-67.5741 45.389L-68.267 45.7405L-68.8595 45.369L-69.5089 45.456L-70.1717 45.6635L-70.781 45.3823L-71.7216 45.2351L-71.0086 45.9682L-71.8321 46.5975L-71.3835 47.2235L-71.4672 47.8495L-71.7016 48.4754L-70.9685 49.1014L-71.8656 49.7274L-71.5944 50.3534L-71.5241 50.9827L-71.6145 51.6087L-71.3668 52.2347L-71.6848 52.8607L-71.2329 53.49L-70.935 54.116L-71.6145 54.742L-71.0488 55.368L-70.9718 55.994L-71.8555 56.6166L-71.7786 57.2426L-71.3969 57.8719L-71.0287 58.4979L-71.8656 59.1239L-71.5074 59.7499L-71.1291 60.3759L-71.2898 61.0052L-71.8422 61.6312L-70.9885 62.2572L-71.8355 62.8832L-71.5241 63.5125L-71.0488 64.1385L-70.9685 64.7678L-71.879 65.3938L-71.0823 66.0231L-71.0789 66.6491L-71.0187 67.2751L-71.5877 67.9045L-71.0856 68.5304L-71.9058 69.1598L-70.9383 69.7891L-71.012 70.4151L-71.7417 71.0444L-71.8087 71.6771L-71.5442 72.4403L-70.781 72.5876L-70.1483 72.7082L-69.5156 72.2763L-68.8829 72.0018L-68.2503 72.3433L-67.6176 71.811L-66.9849 72.2361L-66.3522 72.5106L-65.7195 72.5039L-65.0869 72.5876L-64.4542 72.196L-63.8215 72.4839L-63.1888 72.5977L-62.5561 72.2964L-61.9235 72.2462L-61.2908 71.8411L-60.6581 71.9382L-60.0254 72.0554L-59.3927 72.4169L-58.76 72.7784L-58.1274 72.0688L-57.4947 72.1993L-56.862 71.8512L-56.2293 72.5542L-55.5966 72.5776L-54.964 71.8947L-54.3313 71.878L-53.6986 72.206L-53.0659 72.1859L-52.4332 72.6144L-51.8006 72.6412L-51.1679 72.4571L-50.5318 72.6613L-49.8992 72.5441L-49.2665 72.5809L-48.6338 72.6445L-48.0011 72.4303L-47.3684 72.5508L-46.7358 72.5073L-46.1031 72.0822L-45.4704 72.4537L-44.8377 72.7517L-44.205 72.3433L-43.5723 72.6613L-42.9397 72.2495L-42.307 72.3198L-41.6743 72.4337L-41.0416 71.9951L-40.4089 72.591L-39.7763 72.6278L-39.1436 72.514L-38.5109 72.0453L-37.8782 71.8244L-37.2455 72.2529L-36.6129 72.0956L-35.9802 72.4872L-35.3475 72.2864L-34.7148 72.0554L-34.0821 72.5274L-33.4461 72.6847L-32.8134 72.745L-32.1807 71.8043L-31.5481 72.3567L-30.9154 72.6579L-30.2827 72.4203L-29.65 72.5106L-29.0173 72.3332L-28.3846 71.8077L-27.7486 72.4872L-27.1159 72.0453L-26.4833 72.6445L-25.8506 71.8512L-25.2179 72.514L-24.5852 72.1725L-23.9492 72.7082L-23.3165 72.6646L-22.6838 71.8713L-22.0511 72.5006L-21.4185 72.1859L-20.7824 72.5173L-20.1497 72.5508L-19.5171 72.5374L-18.8844 72.4337L-18.2484 72.4872L-17.6157 72.3131L-16.983 72.3935L-16.3503 72.1424L-15.7143 72.3567L-15.0816 72.7215L-14.4489 72.2696L-13.8129 72.36L-13.1802 71.9114L-12.5475 71.9617L-11.9115 72.2462L-11.2788 72.6077L-10.6461 71.9382L-10.0101 71.9717L-9.37742 72.5542L-8.7414 72.3399L-8.10871 72.745L-7.47603 72.7684L-6.84 71.8579L-6.20732 72.4537L-5.57129 72.6312L-4.93861 72.524L-4.30258 72.7148L-3.6699 72.0319L-3.03722 72.0587L-2.40119 72.3399L-1.76851 72.6747L-1.13583 72.1089L-0.499797 71.9215L0.132884 72.1525L0.768911 72.2864L1.40159 72.5977L2.03427 72.7483L2.66695 72.7584L3.30298 72.4839L3.93567 72.1592L4.56835 72.1391L5.20438 72.4504L5.83706 72.437L6.46974 72.2295L7.10242 72.3901L7.73845 72.1993L8.37113 72.5676L9.00381 71.8512L9.63649 72.5006L10.2725 71.8847L10.9052 72.7282L11.5379 72.6312L12.1706 72.524L12.8032 72.4939L13.4393 72.1491L14.072 72.4604L14.7046 72.5676L15.3373 72.7985L15.97 72.3131L16.6027 72.2763L17.2387 72.2629L17.8714 72.4906L18.5041 72.2596L19.1368 72.5374L19.7694 72.0822L20.4021 72.196L21.0348 72.4805L21.6708 72.6378L22.3035 72.3332L22.9362 72.3701L23.5689 71.9683L24.2016 72.0286L24.8342 72.1625L25.4669 72.5207L26.1029 72.5475L26.7356 72.2027L27.3683 72.4504L28.001 72.7784L28.6337 71.9918L29.2664 72.283L29.899 71.8679L30.5317 72.1926L31.1644 72.1725L31.8004 72.4504L32.4331 72.0654L33.0658 71.8478L33.6985 72.6613L34.3311 71.9014L34.9638 72.1558L35.5965 72.1089L36.2292 72.0186L36.8652 72.6144L37.4979 72.5341L38.1306 72.1257L38.7633 72.2897L39.3959 72.5106L40.0286 72.1993L40.6613 71.955L41.2973 72.8052L41.93 72.4102L42.5627 72.591L43.1954 72.3232L43.8281 71.9014L44.4607 72.3533L45.0968 72.0956L45.7295 72.4504L46.3621 72.6948L46.9948 72.5676L47.6275 72.2696L48.2635 71.9784L48.8962 72.3433L49.5289 72.8086L50.1616 71.9349L50.7942 72.4035L51.4303 72.1257L52.063 72.2596L52.6956 72.1424L53.3283 71.9951L53.9644 72.7416L54.597 72.7483L55.2297 72.2462L55.8658 72.7115L56.4984 71.965L57.1311 72.437L57.7671 71.9717L58.3998 72.0219L59.0325 72.3768L59.6685 72.8019L60.3012 71.8278L60.9339 72.1725L61.5699 72.0353L62.2026 71.9918L62.8386 72.7048L63.4713 72.7584L64.104 71.9215L64.74 72.447L65.3727 71.9516L66.0087 72.2161L66.6414 72.0587L67.2774 71.8144L67.9101 71.8746L68.5461 72.0721L69.1788 72.0286L69.8149 72.042L70.4475 71.9148L71.0802 72.4906L71.7163 71.9248L72.3489 72.7483L72.985 72.3667L73.6177 72.0587L74.2503 72.3165L74.8864 72.668L75.519 72.0152L76.1517 72.3165L76.7878 72.3834L77.4204 72.36L78.0531 72.5274L78.6891 71.9282L79.3218 72.7316L79.9545 71.8813L80.5872 71.8646L81.2232 72.0487L81.8559 72.0621L82.4886 72.6747L83.1246 72.7115L83.7573 72.7885L84.39 72.2596L85.0226 72.3533L85.6587 72.0822L86.2914 72.2696L86.924 71.9148L87.5567 72.6847L88.1927 72.1391L88.8254 72.2797L89.4581 72.0587L90.0908 72.3399L90.7235 72.3768L91.3595 71.8914L91.9922 71.9851L92.6249 71.8077L93.2575 72.1826L93.8902 72.1357L94.5263 71.9282L95.1589 72.0621L95.7916 71.9951L96.4243 72.1123L97.0603 72.591L97.693 72.2161L98.3257 71.9851L98.9584 72.5542L99.5911 72.1491L100.227 71.9683L100.86 72.5475L101.492 72.2696L102.125 71.8512L102.758 71.965L103.394 72.4805L104.027 72.4906L104.659 72.7416L105.292 71.8278L105.928 72.1893L106.561 72.5374L107.193 72.6412L107.826 72.1023L108.462 72.7684L109.095 72.8052L109.727 72.0353L110.363 72.7584L110.996 72.2328L111.629 72.5274L112.261 71.8311L112.897 72.5776L113.53 71.8947L114.163 72.2897L114.799 72.6981L115.432 72.052L116.068 72.0554L116.7 72.7584L117.333 72.0052L117.969 72.052L118.602 71.9817L119.238 72.5809L119.87 72.0386L120.503 71.975L121.139 72.4537L121.772 71.975L122.408 72.4738L123.04 72.601L123.676 72.7349L124.309 71.9114L124.945 72.7885L125.578 72.3533L126.214 72.3198L126.847 72.3968L127.483 72.6948L128.115 72.2361L128.751 72.3165L129.384 72.8052L130.017 72.1491L130.653 72.0755L131.285 72.7416L131.921 72.7718L132.554 72.0721L133.187 72.3801L133.823 72.6479L134.455 72.5542L135.088 72.3366L135.724 72.4705L136.357 72.4169L136.99 72.3633L137.626 72.1424H138.258L138.891 71.9985L139.527 72.6546L140.16 72.3868L140.792 72.5475L141.428 72.5173L142.061 72.7851L142.694 72.0755L143.326 72.524L143.962 72.0353L144.595 72.0755L145.228 72.4102L145.864 72.1156L146.497 71.8579L147.129 72.7148L147.762 72.6278L148.398 72.4638L149.031 72.1859L149.663 72.4203L150.299 72.1893L150.932 72.7985L151.565 72.4906L152.197 72.4772L152.833 72.4169L153.466 72.7818L154.099 72.4169L154.735 71.9248L155.367 72.1625L156 71.8679L156.636 72.6312L157.269 72.5307L157.902 72.6044L158.538 71.9683L159.17 72.35L159.803 72.3968L160.439 72.7784L161.072 72.0353L161.704 72.0018L162.34 72.7818L162.973 71.9181L163.609 71.9047L164.242 72.7952L164.878 71.965L165.51 72.2228L166.143 72.0353L166.779 72.5374L167.412 71.8043L168.048 72.0989L168.681 72.3834L169.317 72.6245L169.953 72.755L170.585 72.5374L171.221 72.1391L171.854 72.4303L172.49 71.9617L173.123 72.6646L173.759 72.5542L174.391 72.0353L175.024 72.3834L175.66 72.0755L176.293 72.5274L176.929 72.6044L177.562 72.3165L178.198 72.0855L178.83 72.2462L179.463 72.2027L180.099 72.4002L180.732 72.3901L181.364 72.5274L182 72.5307L182.633 72.514L183.266 72.35L183.902 72.1324L184.534 72.2562L185.17 72.5374L185.803 72.427L186.436 72.7416L187.072 72.4303L187.704 72.4805L188.337 71.8512L188.973 71.8043L189.606 72.7082L190.239 71.8746L190.875 72.1659L191.507 72.0386L192.14 71.8411L192.776 72.0119L193.409 72.7015L194.041 72.6981L194.677 72.1792L195.31 71.8579L195.943 72.5809L196.579 72.4337L197.211 72.5809L197.847 72.2495L198.48 72.3801L199.113 71.8914L199.749 72.5642L200.382 72.2161L201.018 71.9918L201.65 71.811L202.286 72.0487L202.919 72.0052L203.555 71.8043L204.188 71.8077L204.824 72.524L205.456 72.7148L206.092 71.8144L206.725 72.5876L207.361 71.9516L207.994 71.9851L208.63 72.7249L209.263 72.7751L209.899 72.3734L210.531 71.8244L211.167 72.6512L211.8 72.1525L212.436 72.36L213.069 71.8813L213.705 72.5207L214.337 72.427L214.97 72.3633L215.606 72.2663L216.239 72.7651L216.875 72.2964L217.507 72.1558L218.14 72.3299L218.776 72.3768L219.409 72.052L220.045 72.2897L220.678 72.3701L221.31 71.955L221.946 72.4102L222.579 71.8679L223.215 72.7517L223.848 71.8211L224.48 72.7651L225.116 72.5274L225.749 72.3834L226.382 72.7818L227.014 72.6412L227.647 71.8746L228.28 72.0654L228.916 72.6512L229.548 72.5374L230.181 72.3968L230.814 72.6211L231.45 72.1458L232.083 71.8545L232.715 71.955L233.351 72.2997L233.984 72.2027L234.62 72.1725L235.253 71.9416L235.889 72.4805L236.521 72.3165L237.157 72.5508L237.79 72.2629L238.426 72.0186L239.059 72.0487L239.695 72.0956L240.328 72.0721L240.964 72.3567L241.596 72.2395L242.229 72.5542L242.865 72.6345L243.498 72.7015L244.13 72.0253L244.766 72.0286L245.399 72.0487L246.032 72.4102L246.664 72.2997L247.297 72.6914L247.933 72.2997L248.566 71.9148L249.198 72.6546L249.831 72.5676L250.464 72.3901L251.096 72.2261L251.729 72.4169L252.362 72.2395L252.995 71.9449L253.627 72.4571L254.263 71.9181L254.896 72.591L255.529 72.129L256.161 72.3433L256.794 72.514L257.427 72.3366L258.059 72.1759L258.692 72.2596L259.325 72.4738L259.957 72.601L260.59 72.4571L261.223 72.6378L261.855 72.3935L262.488 72.196L263.121 72.3299L263.753 72.2864L264.386 72.1391L265.019 71.8746L265.652 72.7215L266.284 72.6278L266.917 71.955L267.55 72.2462L268.182 72.6747L268.815 72.2094L269.448 71.8512L270.084 72.5575L270.716 71.8144L271.349 72.6044L271.982 71.8043L272.614 72.119L273.25 71.9918L273.883 72.0085L274.516 71.9416L275.148 72.5508L275.784 71.9617L276.417 72.6713L277.05 72.2328L277.686 72.5307L278.319 72.524L278.955 72.4537L279.587 71.8144L280.223 72.3667L280.856 71.8177L281.492 72.6445L282.128 72.5709L282.761 72.0052L283.397 72.2897L284.033 72.4069L284.665 71.975L285.301 72.7851L285.934 72.0018L286.57 71.8244L287.203 71.9181L287.839 72.5341L288.472 72.7952L289.108 72.0788L289.74 72.4638L290.373 72.4136L291.009 71.9851L291.642 72.6579L292.274 72.2629L292.907 72.0219L293.543 72.0989L294.176 72.0956L294.808 72.6378L295.444 72.1357L296.077 72.3433L296.71 72.2462L297.343 71.9382L297.975 72.7115L298.611 72.2663L299.244 72.4671L299.877 72.3366L300.509 72.4102L301.145 72.3935L301.778 72.7818L302.411 72.5073L303.043 72.3801L303.679 72.1893L304.312 72.4236L304.945 72.447L305.577 72.4437L306.213 72.2194L306.846 72.7818L307.479 71.9483L308.115 72.4973L308.747 72.8019L309.384 72.1391L310.016 72.7985L310.652 72.2696L311.285 72.042L311.921 72.2763L312.554 72.3232L313.19 72.2027L313.822 72.6144L314.458 72.3165L315.094 72.4504L315.73 72.668L316.363 71.9951L316.999 71.8244L317.635 72.7015L318.268 72.1859L318.904 72.7148L319.537 72.6512L320.173 72.3901L320.805 71.975L321.441 72.2462L322.074 72.4102L322.71 72.5374L323.343 72.4203L323.979 72.0554L324.611 72.1692L325.244 72.5575L325.88 72.7818L326.513 72.5207L327.145 72.2228L327.781 72.4102L328.414 72.8019L329.05 72.1659L329.683 72.4604L330.316 72.2462L330.952 72.4705L331.584 71.9817L332.22 72.3165L332.853 72.119L333.486 72.6278L334.122 72.2295L334.754 72.7316L335.39 71.9349L336.026 72.6613L336.659 72.5073L337.295 72.1223L337.928 72.1625L338.564 71.975L339.2 72.5207L339.836 71.8043L340.472 72.427L341.105 72.5173L341.741 72.2964L342.377 71.8713L343.009 72.591L343.645 71.9583L344.278 72.2428L344.914 71.9516L345.55 72.3935L346.183 71.9282L346.819 71.9081L347.452 71.8579L348.088 72.2495L348.72 71.8278L349.356 72.7249L349.989 72.5876L350.625 72.3131L351.258 72.5809L351.894 72.6445L352.526 72.5943L353.162 72.3768L353.795 71.9784H354.431L355.064 71.8813L355.7 72.7383L356.336 71.8612L356.969 72.2964L357.605 71.8278L358.241 72.5776L358.877 71.8244L359.513 72.6847L360.145 72.2194L360.781 71.9817L361.417 72.7082L362.05 72.2964L362.686 72.4772L363.322 72.1926L363.955 72.5441L364.591 72.4671L365.223 72.5408L365.86 72.1558L366.496 72.2462L367.128 72.2261L367.764 72.3667L368.397 72.0152L369.033 72.6814L369.669 72.6412L370.302 72.5374L370.938 72.5843L371.574 72.3901L372.21 72.7048L372.846 71.9014L373.478 72.4136L374.115 72.6713L374.751 72.2495L375.387 72.7784L376.019 72.5943L376.655 72.2462L377.291 72.6312L377.924 72.6077L378.56 72.7918L379.196 72.196L379.829 72.5408L380.465 72.6412L381.101 72.7015L381.733 72.4437L382.37 71.8545L383.006 72.4973L383.642 72.4571L384.278 72.437L384.91 72.7751L385.546 72.1692L386.182 72.1257L386.818 72.3031L387.454 72.1659L388.087 72.3801L388.723 71.8445L389.359 72.1759L389.992 72.4236L390.628 72.7885L391.264 72.7383L391.9 71.8947L392.533 72.6847L393.169 72.0018L393.805 72.1424L394.441 71.8211L395.077 72.7584L395.713 71.8813L396.345 72.3332L396.978 71.9851L397.611 72.6211L398.247 72.0755L398.879 72.2361L399.516 72.2663L400.152 72.7818L400.788 72.2763L401.424 72.2997L402.056 71.8378L402.692 72.4169L403.328 72.1725L403.961 72.0889L404.597 72.6211L405.23 72.5642L405.866 72.5542L406.498 72.678L407.134 71.8914L407.767 72.2562L408.4 72.5173L409.036 72.4772L409.669 71.8512L410.305 71.9349L410.941 72.2931L411.573 72.5575L412.209 72.3232L412.845 71.955L413.481 72.6245L414.117 72.0688L414.753 72.2797L415.389 72.5742L416.022 72.1491L416.658 71.878L417.291 72.4906L417.927 72.2161L418.563 71.8344L419.196 71.9416L419.832 71.9315L420.468 72.427L421.104 71.8144L421.74 72.6144L422.376 72.2261L423.012 72.2663L423.648 72.7215L424.284 72.4002L424.917 72.8052L425.553 72.5709L426.189 71.8646L426.825 72.2864L427.461 72.0253L428.097 71.8713L428.733 72.3533L429.369 72.2295L430.005 71.9717L430.641 72.3768L431.277 72.4738L431.913 71.9047L432.549 72.1156L433.185 72.7349L433.821 72.4604L434.457 72.2997L435.093 72.6077L435.729 72.1056L436.365 71.9851L437.001 72.2529L437.637 72.3768L438.273 72.2194L438.912 72.4504L439.549 72.5374L440.185 71.811L440.817 71.8545L441.453 72.4169L442.089 72.5542L442.725 72.1525L443.361 72.5441L443.997 72.3232L444.633 72.283L445.269 72.4035L445.905 71.878L446.541 72.7617L447.178 72.5173L447.814 71.9349L448.453 72.2395L449.089 72.4403L449.725 72.0286L450.364 72.5106L451 72.283L451.64 72.2127L452.276 72.7517L452.912 71.9315L453.551 72.0654L454.187 72.1759L454.827 72.524L455.463 72.0788L456.102 72.1089L456.741 72.2763L457.565 72.4906L457.562 71.6738L457.347 71.0377L457.525 70.4051L457.307 69.7724L457.317 69.1397L457.856 68.507L457.776 67.871L457.203 67.2383L457.464 66.6056L457.297 65.9696L457.2 65.3369L457.3 64.7042L457.639 64.0682L456.989 63.4355L457.418 62.7995L457.1 62.1668L457.143 61.5308L457.488 60.8981L457.367 60.2654L457.464 59.6294L457.233 58.9967L457.625 58.364L456.946 57.728L457.223 57.0953L457.726 56.4626L456.932 55.8266L457.485 55.1939L457.1 54.5612L457.776 53.9252L457.762 53.2925L457.438 52.6599L457.096 52.0238L456.949 51.3911L456.932 50.7551L457.414 50.1224L456.919 49.4864L457.351 48.8537L457.334 48.2177L457.833 47.585L457.525 46.9523L456.996 46.3163L457.2 45.6836L457.327 45.0509L457.397 44.4149L457.213 43.7822L457.528 43.1462L457.277 42.5135L457.642 41.8775L457.17 41.2448L457.377 40.6088L457.471 39.9761L457.495 39.3434L457.408 38.7107L457.481 38.0781L457.354 37.4454L457.324 36.8127L457.441 36.1767L456.925 35.544L457.836 34.9113L457.769 34.2753L457.264 33.6392L457.347 33.0066L457.143 32.3739L456.996 31.7412L456.895 31.1052L457.381 30.4725L457.662 29.8398L457.853 29.2071L457.762 28.5744L457.772 27.9418L457.22 27.3091L457.786 26.6764L457.036 26.0437L456.989 25.4077L457.863 24.775L457.317 24.1423L457.786 23.5063L457.679 22.8736L457.468 22.2376L457.059 21.6016L456.972 20.9689L457.739 20.3362L457.287 19.7002L456.889 19.0675L457.24 18.4348L457.498 17.8021L457.799 17.1661L457.377 16.5334L457.474 15.8974L457.709 15.2647L457.883 14.6287L457.069 13.9926L457.053 13.36L457.739 12.7239L457.759 12.0913L457.736 11.4586L456.895 10.8225L457.863 10.1899L457.712 9.55383L457.103 8.92115L457.039 8.28512L456.912 7.64909L456.972 7.01306L457.274 6.38038L457.009 5.74436L457.18 5.11167L457.866 4.47565L457.337 3.83962L457.649 3.20694L456.895 2.57091L457.505 1.93488L457.3 1.3022L457.665 0.666166L457.156 0.0301365L457.23 -0.602543L456.952 -1.23857L457.585 -1.8746L457.602 -2.51063L457.046 -3.14331L457.716 -3.77934L457.357 -4.41537L457.705 -5.04805L457.156 -5.68073L457.083 -6.31676L457.307 -6.94944L457.049 -7.58547L457.029 -8.2215L457.799 -8.85418L457.669 -9.49021L457.394 -10.1262L456.962 -10.7623L457.267 -11.3949L457.401 -12.031L457.853 -12.667L457.588 -13.303L457.381 -13.9391L457.555 -14.5751L457.116 -15.2111L457.354 -15.8472L457.32 -16.4832L457.823 -17.1226L456.989 -17.7552L457.381 -18.3913L457.394 -19.0306L457.558 -19.6667L457.079 -20.3027L457.699 -20.9856L457.213 -21.5212Z" fill="#303F5D"/>
</g>
<path d="M274.187 37.3282L277 38.7357L276.962 38.8001C276.645 38.9422 274.083 39.6748 274.045 39.828C274.034 39.8768 274.054 39.9412 274.065 39.9901C274.136 40.292 274.334 40.736 274.451 41.0402C274.704 41.704 275.033 42.3811 275.264 43.0472C275.284 43.1071 275.382 43.3957 275.35 43.4268C275.313 43.4312 275.282 43.4268 275.246 43.4112C275.113 43.3513 274.687 42.9517 274.525 42.8296C274.129 42.5343 273.71 42.2279 273.301 41.9504C273.13 41.835 272.831 41.6041 272.662 41.5264C272.433 41.4198 272.356 41.6352 272.227 41.8061C271.507 42.7719 270.904 43.853 270.215 44.8432C270.047 45.0119 270.044 44.71 270.029 44.5835C269.913 43.6377 269.891 42.6609 269.816 41.7107C269.794 41.4398 269.811 40.6761 269.683 40.4874C269.516 40.2432 269.059 40.2765 268.79 40.2876C267.978 40.3275 267.169 40.463 266.341 40.4741C266.217 40.4741 265.937 40.5562 266.013 40.3053C266.039 40.2143 266.184 40.2143 266.257 40.1766C266.843 39.8835 268.67 38.8534 269.043 38.4116C269.085 38.3605 269.172 38.2606 269.176 38.1962C269.183 38.1096 268.932 37.8521 268.859 37.7722C268.288 37.1528 267.591 36.6266 267.012 36.0006C266.958 35.9428 266.694 35.6675 266.703 35.6187C266.741 35.5632 266.788 35.5787 266.843 35.5854C267.123 35.6187 267.52 35.7941 267.811 35.8696C268.273 35.9895 268.766 36.1027 269.232 36.2048C269.376 36.2359 269.965 36.3846 270.058 36.338C270.107 36.3136 270.187 36.025 270.204 35.9539C270.426 35.0903 270.522 34.1423 270.757 33.2876C270.784 33.1877 270.839 32.8724 270.972 33.0567C271.35 33.8448 271.658 34.6663 272.029 35.4566C272.12 35.6498 272.265 35.9828 272.376 36.1493C272.431 36.2337 272.507 36.2514 272.586 36.1804L274.593 34.0646C274.7 33.9891 274.944 33.7383 274.942 34.0113C274.818 34.3888 274.662 34.7551 274.547 35.1347C274.389 35.6476 274.294 36.1626 274.216 36.691C274.198 36.8087 274.123 37.2616 274.189 37.3282H274.187Z" fill="#FAFAFA"/>
<path d="M305.598 38.0084L307.376 40.3322L307.509 40.3232C307.645 40.1966 307.832 40.1001 307.97 39.9886C308.326 39.7053 308.911 39.0633 309.272 38.8704C309.345 38.8312 309.426 38.8101 309.507 38.7981C309.513 38.8975 309.507 38.991 309.492 39.0874C309.387 39.6631 309.064 40.3563 308.983 40.8898C308.953 41.0978 308.986 41.1219 309.203 41.143C310.044 41.2274 311.02 41.2003 311.837 41.3269C311.904 41.3359 311.958 41.363 312 41.4143C311.937 41.4715 311.885 41.5409 311.819 41.5921C311.204 42.0472 310.387 42.4029 309.821 42.846C309.622 43.0027 309.522 43.0449 309.658 43.286C309.975 43.8436 310.514 44.4193 310.858 44.9739C310.951 45.1246 311.087 45.3416 311.096 45.5134C310.984 45.6249 309.592 44.9679 309.36 44.8835C309.161 44.8111 308.793 44.6604 308.603 44.6273C308.54 44.6152 308.492 44.6032 308.431 44.6363L306.921 47.2133L306.837 47.1531C306.816 46.8637 306.756 46.5804 306.722 46.291C306.674 45.8721 306.674 45.4079 306.611 44.995C306.602 44.9377 306.575 44.8533 306.517 44.8352C306.201 44.7328 304.73 45.6732 304.347 45.8329C304.287 45.857 304.227 45.8872 304.157 45.8781C304.145 45.8148 304.166 45.7666 304.185 45.7093C304.408 45.0523 304.941 44.3168 305.209 43.6296C305.318 43.3493 305.447 43.1896 305.14 43.0358C304.489 42.7133 303.705 42.5325 303.054 42.1949L303 42.0864C303.419 42.0261 303.796 41.8393 304.194 41.7097C304.414 41.6373 305.435 41.3691 305.526 41.2364C305.571 41.1732 305.571 41.0616 305.568 40.9863C305.535 40.0579 305.279 39.1447 305.348 38.2043C305.363 37.9993 305.381 37.9782 305.598 38.0144V38.0084Z" fill="#BCC5C2"/>
<path d="M204.998 52.7212L204.985 52.8205C204.787 53.0612 204.624 53.3041 204.392 53.5174C204.246 53.6505 204.041 53.773 203.898 53.9081C203.811 53.9884 203.631 54.1679 203.697 54.2862C203.86 54.5227 204.003 54.774 204.157 55.0148C204.219 55.1098 204.734 55.7941 204.671 55.8553C204.138 55.8046 203.629 55.642 203.108 55.5301C203.036 55.5216 202.979 55.5766 202.939 55.6272C202.89 55.6906 202.816 55.8532 202.768 55.9377C202.514 56.3897 202.309 57.0655 202.035 57.4562C201.904 57.6399 201.908 57.397 201.874 57.321C201.724 56.9725 201.642 56.6199 201.52 56.2587C201.49 56.1742 201.313 55.6547 201.279 55.6378C201.234 55.6167 201.19 55.623 201.146 55.6315C200.966 55.6653 200.725 55.7814 200.54 55.8363C200.181 55.944 199.819 56.0539 199.456 56.132C199.448 56.0707 199.463 56.0264 199.484 55.9694C199.648 55.5575 200.014 55.1267 200.17 54.7064C200.221 54.5692 200.257 54.453 200.166 54.3221C200.119 54.2545 199.868 53.9926 199.8 53.9292C199.693 53.8342 199 53.3295 199 53.2386C199 53.1711 199.137 53.2218 199.165 53.2218C199.602 53.1985 200.018 53.1732 200.457 53.1267C200.546 53.1162 200.647 53.1394 200.734 53.1267C200.968 53.0887 200.89 52.831 200.899 52.66C200.907 52.4572 200.924 52.2545 200.926 52.0539C200.928 51.8722 200.922 51.6906 200.926 51.509C200.97 51.4984 200.977 51.528 201.002 51.547C201.308 51.7814 201.551 52.1975 201.862 52.434C201.976 52.5206 202.02 52.5206 202.096 52.3875C202.271 52.0771 202.385 51.6822 202.542 51.3654C202.565 51.3062 202.725 51 202.759 51C202.829 51 202.846 51.1626 202.861 51.2006C203.021 51.5998 203.097 51.9419 203.196 52.358C203.241 52.548 203.161 52.7381 203.444 52.7698C203.669 52.7951 204.943 52.6515 205 52.7212H204.998Z" fill="#F2EFD2"/>
<path d="M45.0849 61.073L45.0765 61.1394C44.9436 61.3006 44.8347 61.4632 44.6791 61.606C44.5816 61.6951 44.4444 61.7771 44.3483 61.8676C44.2903 61.9214 44.1701 62.0415 44.214 62.1207C44.3228 62.2791 44.419 62.4473 44.5222 62.6085C44.5632 62.6722 44.9082 63.1303 44.8658 63.1713C44.5095 63.1374 44.1687 63.0285 43.8195 62.9535C43.7714 62.9479 43.7332 62.9846 43.7063 63.0186C43.6738 63.061 43.6243 63.1699 43.5918 63.2264C43.4221 63.529 43.285 63.9815 43.1012 64.2431C43.0135 64.3661 43.0163 64.2035 42.9937 64.1526C42.8933 63.9193 42.8382 63.6831 42.7562 63.4414C42.7364 63.3848 42.6176 63.037 42.595 63.0257C42.5653 63.0115 42.5356 63.0158 42.5059 63.0214C42.3857 63.044 42.2245 63.1218 42.1001 63.1586C41.8597 63.2307 41.6179 63.3042 41.3747 63.3565C41.3691 63.3155 41.379 63.2858 41.3931 63.2476C41.5034 62.9719 41.748 62.6835 41.8527 62.4021C41.8866 62.3102 41.9106 62.2324 41.8498 62.1448C41.8187 62.0995 41.6505 61.9242 41.6052 61.8818C41.5331 61.8181 41.0693 61.4802 41.0693 61.4194C41.0693 61.3742 41.1612 61.4081 41.1796 61.4081C41.4723 61.3925 41.7509 61.3756 42.045 61.3445C42.1043 61.3374 42.1722 61.353 42.2302 61.3445C42.3871 61.319 42.3348 61.1465 42.3405 61.032C42.3461 60.8962 42.3574 60.7605 42.3589 60.6262C42.3603 60.5046 42.356 60.383 42.3589 60.2614C42.3885 60.2543 42.3928 60.2741 42.4098 60.2868C42.6148 60.4438 42.7774 60.7223 42.9852 60.8807C43.0616 60.9387 43.0913 60.9387 43.1422 60.8496C43.2595 60.6417 43.3359 60.3773 43.4405 60.1652C43.4561 60.1256 43.5635 59.9206 43.5862 59.9206C43.6328 59.9206 43.6441 60.0295 43.654 60.0549C43.7615 60.3222 43.8124 60.5512 43.8788 60.8298C43.9085 60.957 43.8548 61.0843 44.0443 61.1055C44.1956 61.1225 45.0482 61.0263 45.0864 61.073H45.0849Z" fill="#FAFAFA"/>
</g>
<defs>
<clipPath id="clip0_4335_2547">
<rect width="375" height="70" fill="white"/>
</clipPath>
</defs>
</svg>
