<?xml version="1.0" encoding="UTF-8"?>
<svg id="_レイヤー_1" data-name="レイヤー_1" xmlns="http://www.w3.org/2000/svg" version="1.1" viewBox="0 0 375 14">
  <!-- Generator: Adobe Illustrator 29.4.0, SVG Export Plug-In . SVG Version: 2.1.0 Build 152)  -->
  <defs>
    <style>
      .st0 {
        fill: #303f5d;
      }

      .st1 {
        fill: #787e88;
      }
    </style>
  </defs>
  <polygon class="st0" points="375 1.5 374.4 1.7 373.8 1.9 373.1 1.4 372.5 1.9 371.9 2.1 371.3 2.4 370.6 2 370 2.5 369.3 2.3 368.7 1.9 368 2 367.4 2.4 366.9 2.8 366.1 2 365.5 2.6 364.9 2.4 364.2 2.4 363.7 3.2 363 2.9 362.4 2.9 361.8 3.2 361.1 3 360.5 3 360 3.8 359.3 3.6 358.7 3.9 357.9 3.3 357.4 4.1 356.7 3.5 356.1 4 355.4 3.9 354.8 4.2 354.3 4.9 353.7 4.7 353 4.6 352.3 4.5 351.9 5.5 351.2 5.2 350.6 5.7 350 6 349.3 5.5 348.7 5.9 348 5.7 347.4 5.7 346.8 6 346.2 6.3 345.6 6.7 344.9 6.5 344.5 7.4 343.9 7.5 343.3 7.6 342.6 7.4 341.8 7.1 341.4 8.1 340.7 7.8 340.1 8.2 339.4 7.8 338.8 8 338.1 8 337.6 8.5 337 8.9 336.3 8.5 335.8 9.3 335.2 9.3 334.5 9 333.8 9 333.3 9.8 332.6 9.6 331.9 9.2 331.4 9.8 330.7 9.3 330.1 10.1 329.5 9.8 328.9 10.4 328.2 10.2 327.5 9.8 327 10.7 326.4 10.5 325.6 10 325.1 10.4 324.4 10.2 323.8 10.2 323.2 10.8 322.5 10.7 321.9 11 321.3 11 320.6 10.7 320 11.1 319.4 11.3 318.7 10.6 318.1 11.3 317.5 11.5 316.8 11 316.2 11.7 315.6 10.7 314.9 10.9 314.3 11.4 313.7 10.9 313 11.1 312.4 10.9 311.8 11 311.1 11.5 310.5 10.9 309.9 11 309.2 11.7 308.6 11.7 308 11.3 307.3 11.8 306.7 11.5 306 10.9 305.4 11.8 304.8 11.3 304.1 11.2 303.5 11.4 302.9 11.5 302.2 11.4 301.6 11.7 301 11.4 300.3 11.5 299.7 11.1 299 11.3 298.4 11.7 297.8 11 297.2 10.9 296.5 11 295.9 11.5 295.3 10.8 294.6 10.9 293.9 11.5 293.3 11.4 292.7 11 292.1 11.1 291.5 10.4 290.8 10.7 290.2 10.6 289.5 10.9 288.9 10.7 288.3 10.2 287.6 10.8 287 10.6 286.4 9.9 285.8 9.8 285.1 10.3 284.5 10.2 283.9 9.9 283.2 10 282.6 9.7 281.9 10 281.4 9.3 280.7 9.4 280.1 9.2 279.5 9.2 278.8 9.6 278.1 9.5 277.6 9 277 8.5 276.3 8.9 275.6 8.9 275.1 8.4 274.5 8.1 273.9 8 273.2 8 272.7 7.3 272.1 7.4 271.5 7.2 270.8 7.3 270.1 7.6 269.6 6.8 269 6.7 268.4 6.3 267.8 6.2 267 6.5 266.5 6.3 265.9 5.9 265.3 5.5 264.5 6.1 263.9 6 263.3 5.7 262.9 5 262.1 5.4 261.4 5.5 260.9 5 260.3 4.7 259.6 4.8 259 4.7 258.5 4 257.9 4 257.1 4.6 256.5 4.3 255.9 4.1 255.3 4.1 254.8 3.2 254 3.9 253.4 3.8 252.7 3.7 252.2 3.2 251.6 2.7 250.9 3.3 250.3 3.3 249.8 2.3 249.1 2.6 248.4 2.7 247.8 2.3 247.1 2.7 246.5 2.8 245.9 2.1 245.3 2.4 244.7 1.8 244 2.5 243.4 1.9 242.8 1.5 242.1 2.2 241.5 1.5 240.8 2.3 240.2 2 239.6 1.5 239 1.4 238.3 1.9 237.7 2.1 237 2 236.4 1.8 235.8 1.7 235.2 1.2 234.5 1.4 233.9 1.9 233.3 1.1 232.6 1.6 232 1.1 231.3 1.7 230.7 1.4 230.1 1.5 229.4 1.6 228.8 1 228.2 .9 227.5 1.4 226.9 1.7 226.3 .9 225.6 1.8 225 1.3 224.4 1.7 223.7 1.4 223.1 1.2 222.4 1.5 221.8 1.2 221.2 1.2 220.5 1.2 219.9 1.3 219.3 1.6 218.6 1.3 218 1.2 217.3 1.4 216.7 2 216.1 1.6 215.5 1.7 214.8 1.7 214.2 1.3 213.5 1.3 212.9 2.1 212.3 2 211.7 2.4 211 1.9 210.4 2.5 209.7 2 209.1 2.1 208.5 2.2 207.9 2.7 207.2 2.1 206.7 2.9 206 2.9 205.3 2.6 204.8 3.1 204 2.5 203.5 3 202.8 3 202.1 2.7 201.6 3.5 200.9 3.1 200.3 3.6 199.6 3.3 199 3.3 198.4 3.4 197.9 4.3 197.1 3.8 196.5 3.9 196 4.7 195.2 4 194.8 4.9 194.1 4.7 193.4 4.7 192.9 5.4 192.1 4.7 191.5 4.9 190.9 5.2 190.3 5.2 189.7 5.6 189.1 5.8 188.4 5.6 188 6.5 187.3 6.4 186.7 6.6 186 6.4 185.5 7.1 184.7 6.6 184.1 6.8 183.6 7.4 183.1 7.8 182.2 7.1 181.7 7.5 181.1 7.6 180.5 7.9 179.9 8.2 179.4 8.7 178.6 8.1 178.1 8.7 177.4 8.7 176.8 8.9 176.2 8.9 175.5 9.1 174.9 8.9 174.3 9.2 173.6 8.9 173 9.5 172.4 9.6 171.8 9.7 171.1 9.6 170.5 9.5 169.8 9.6 169.3 10.5 168.7 10.4 168 10.4 167.4 10.7 166.8 10.6 166.2 10.9 165.5 10.5 164.9 10.8 164.3 11 163.6 10.4 163 11 162.4 11.1 161.7 10.6 161.1 11 160.4 10.5 159.8 10.9 159.2 10.7 158.5 10.7 157.9 11.1 157.3 11.5 156.6 10.9 156 11.4 155.4 11.5 154.7 10.8 154.1 11.1 153.5 11.5 152.8 11.1 152.2 11.2 151.6 10.9 150.9 11.4 150.3 11.2 149.7 11.6 149 11.9 148.4 11.5 147.7 11.2 147.1 11.3 146.5 11.5 145.8 11.4 145.2 11.8 144.6 11.7 143.9 10.9 143.3 11.2 142.7 11.3 142 11.6 141.4 11 140.7 11.7 140.1 11.5 139.5 11.6 138.8 11.4 138.2 11.7 137.6 10.9 136.9 10.8 136.3 11.1 135.7 10.9 135 11 134.4 10.5 133.8 10.8 133.1 11.3 132.5 10.4 131.9 10.4 131.3 10.5 130.6 10.3 130 10.8 129.3 10.8 128.7 10.4 128 10.8 127.4 10.7 126.8 10.4 126.1 10.6 125.5 10.6 124.9 10.3 124.3 9.5 123.6 10 123 10.2 122.4 9.6 121.7 9.7 121.1 9.5 120.6 9 119.9 9.1 119.3 8.7 118.7 8.9 117.9 9.2 117.5 8.3 116.8 8.5 116.2 8.3 115.5 8.5 114.9 8.4 114.2 8.3 113.6 8.2 113.1 7.4 112.3 8 111.9 7.3 111.3 6.9 110.5 7.5 110.1 6.6 109.3 6.9 108.8 6.4 108.1 6.6 107.5 6.5 106.8 6.7 106.2 6.4 105.6 6.1 105 6.1 104.4 5.7 103.9 5.2 103.1 5.7 102.6 5.2 101.9 5.3 101.3 5.2 100.7 4.8 100 4.9 99.5 4.3 98.9 4.1 98.2 4.2 97.6 4 97 3.8 96.5 3.4 95.7 4.2 95.1 3.5 94.4 3.9 93.8 3.7 93.3 3 92.7 2.9 92 3 91.3 3.1 90.8 2.7 90.1 3.2 89.5 2.8 88.8 3 88.3 2.1 87.6 2.8 86.9 2.6 86.3 2.6 85.7 2.7 85.1 1.8 84.5 1.7 83.8 2 83.2 1.9 82.6 1.8 81.9 2.1 81.3 2.2 80.6 1.9 80 2.2 79.4 1.8 78.7 1.9 78.1 1.6 77.5 1.7 76.8 2 76.2 1.5 75.6 2 75 1.2 74.3 1.2 73.7 1.5 73.1 1.2 72.4 1.2 71.8 1 71.1 1.7 70.5 1.7 69.9 1.1 69.2 1.3 68.6 1.1 68 .9 67.3 1.1 66.7 1.3 66 1.6 65.4 1.8 64.8 1.5 64.1 1.7 63.5 1.7 62.9 1 62.2 1.9 61.6 1.1 61 1.3 60.3 1.1 59.7 1.1 59 1.4 58.4 1.7 57.8 1.3 57.1 1.6 56.5 1.4 55.9 1.7 55.3 2 54.6 1.5 54 1.9 53.4 2.3 52.7 2.3 52.1 2.1 51.5 2.4 50.8 2.3 50.2 2.5 49.6 2.6 48.9 2.3 48.3 2.8 47.7 2.6 47 2.5 46.4 2.6 45.7 2.3 45.1 2.8 44.5 3.1 43.9 3 43.3 3.3 42.6 3.4 42 3.2 41.4 3.5 40.8 3.9 40.1 3.3 39.5 3.7 38.9 4.1 38.2 3.8 37.7 4.3 37 4.4 36.3 4 35.6 3.9 35.1 4.7 34.5 4.5 33.9 4.9 33.3 5.2 32.7 5.2 31.9 4.9 31.4 5.4 30.8 5.8 30.1 5.2 29.5 5.5 28.9 5.9 28.3 6.1 27.6 5.9 27.1 6.5 26.5 6.7 25.9 6.9 25.2 6.9 24.7 7.4 24.1 7.5 23.4 7.6 22.8 7.5 22.1 7.6 21.7 8.3 21 8.4 20.2 7.9 19.7 8.3 19.1 8.3 18.5 8.6 17.8 8.4 17.2 8.8 16.5 8.4 16 9.2 15.2 8.7 14.6 8.8 14 9.1 13.5 9.9 12.8 9.7 12.2 9.8 11.6 9.9 11 10.4 10.3 9.9 9.6 9.7 9.1 10.3 8.5 10.7 7.8 9.9 7.2 10.2 6.5 10.2 5.9 10.3 5.2 10.1 4.7 10.8 4 10.3 3.4 11 2.8 11 2.2 11.3 1.5 11.1 .9 11.4 .2 11.3 0 11 0 14 375 14 375 1.5"/>
  <path class="st1" d="M41.2,2.8l3.1,1.5h0c-.4.2-3.2,1-3.2,1.2,0,0,0,.1,0,.2,0,.3.3.8.4,1.2.3.7.6,1.5.9,2.2,0,0,.1.4,0,.4,0,0,0,0-.1,0-.1,0-.6-.5-.8-.6-.4-.3-.9-.7-1.3-1-.2-.1-.5-.4-.7-.5-.3-.1-.3.1-.5.3-.8,1.1-1.5,2.3-2.2,3.3-.2.2-.2-.1-.2-.3-.1-1-.2-2.1-.2-3.2,0-.3,0-1.1-.1-1.3-.2-.3-.7-.2-1-.2-.9,0-1.8.2-2.7.2-.1,0-.4,0-.4-.2,0-.1.2-.1.3-.1.6-.3,2.7-1.5,3.1-1.9,0,0,.1-.2.1-.2,0,0-.3-.4-.4-.5-.6-.7-1.4-1.3-2-2,0,0-.4-.4-.3-.4,0,0,0,0,.2,0,.3,0,.7.2,1.1.3.5.1,1.1.3,1.6.4.2,0,.8.2.9.1,0,0,.1-.3.2-.4.2-1,.3-2,.6-2.9,0-.1,0-.5.2-.3.4.9.8,1.8,1.2,2.6.1.2.3.6.4.8,0,0,.1.1.2,0l2.2-2.3c.1,0,.4-.4.4,0-.1.4-.3.8-.4,1.2-.2.6-.3,1.1-.4,1.7,0,.1-.1.6,0,.7h0Z"/>
  <path class="st0" d="M131.8,4.3h0c-.2.3-.3.5-.5.7-.1.1-.3.2-.4.3,0,0-.2.2-.2.3.1.2.3.4.4.6,0,0,.5.7.4.7-.4,0-.9-.2-1.3-.3,0,0-.1,0-.1,0,0,0-.1.2-.1.3-.2.4-.4,1-.6,1.3-.1.2-.1,0-.1-.1-.1-.3-.2-.6-.3-.9,0,0-.2-.5-.2-.5,0,0,0,0-.1,0-.1,0-.4.1-.5.2-.3,0-.6.2-.9.3,0,0,0,0,0-.1.1-.3.4-.7.6-1.1,0-.1,0-.2,0-.3,0,0-.3-.3-.3-.3,0,0-.7-.5-.7-.6s.1,0,.1,0c.4,0,.7,0,1.1,0,0,0,.2,0,.2,0,.2,0,.1-.2.1-.4,0-.2,0-.3,0-.5,0-.2,0-.3,0-.5,0,0,0,0,0,0,.3.2.5.5.7.7,0,0,.1,0,.2,0,.1-.3.2-.6.4-.9,0,0,.2-.3.2-.3,0,0,0,.1,0,.2.1.3.2.6.3,1,0,.2,0,.3.2.3.2,0,1.3-.1,1.3,0h0Z"/>
</svg>