<?xml version="1.0" encoding="UTF-8"?>
<svg id="_レイヤー_1" data-name="レイヤー_1" xmlns="http://www.w3.org/2000/svg" version="1.1" viewBox="0 0 375 23">
  <!-- Generator: Adobe Illustrator 29.4.0, SVG Export Plug-In . SVG Version: 2.1.0 Build 152)  -->
  <defs>
    <style>
      .st0 {
        fill: #303f5d;
      }

      .st1 {
        fill: #f2efd2;
      }

      .st2 {
        fill: #f5f3ed;
      }
    </style>
  </defs>
  <polygon class="st0" points="-1.7 14.2 -1 14.5 -.4 14.3 .2 14.1 .9 14.6 1.5 14.1 2.1 13.9 2.7 13.6 3.4 14 4 13.5 4.7 13.7 5.3 14.1 6 14 6.6 13.6 7.1 13.1 7.9 14 8.5 13.4 9.1 13.6 9.8 13.6 10.3 12.8 11 13.1 11.6 13.1 12.2 12.8 12.9 13 13.5 13 14 12.2 14.7 12.4 15.3 12.1 16.1 12.7 16.6 11.9 17.3 12.5 17.9 12 18.6 12.1 19.2 11.8 19.7 11.1 20.3 11.3 21 11.4 21.7 11.5 22.1 10.5 22.8 10.8 23.4 10.3 24 10 24.7 10.5 25.3 10.1 26 10.3 26.6 10.3 27.2 10 27.8 9.7 28.4 9.3 29.1 9.4 29.5 8.6 30.1 8.5 30.7 8.3 31.4 8.6 32.2 8.9 32.6 7.9 33.3 8.1 33.9 7.8 34.6 8.2 35.2 8 35.9 8 36.4 7.5 37 7.1 37.7 7.5 38.2 6.7 38.8 6.7 39.5 7 40.2 7 40.7 6.2 41.4 6.4 42.1 6.8 42.6 6.2 43.3 6.7 43.9 5.9 44.5 6.1 45.1 5.6 45.8 5.8 46.5 6.2 47 5.3 47.6 5.5 48.4 6 48.9 5.6 49.6 5.8 50.2 5.8 50.8 5.2 51.5 5.3 52.1 5 52.7 5 53.4 5.3 54 4.9 54.6 4.7 55.3 5.4 55.9 4.7 56.5 4.5 57.2 5 57.8 4.3 58.4 5.3 59.1 5.1 59.7 4.6 60.3 5.1 61 4.9 61.6 5.1 62.2 5 62.9 4.5 63.5 5 64.1 5 64.8 4.3 65.4 4.3 66 4.7 66.7 4.2 67.3 4.5 68 5 68.6 4.2 69.2 4.7 69.9 4.8 70.5 4.6 71.1 4.5 71.8 4.6 72.4 4.3 73 4.6 73.7 4.5 74.3 4.9 75 4.7 75.6 4.3 76.2 5 76.8 5.1 77.5 5 78.1 4.5 78.7 5.2 79.4 5.1 80.1 4.5 80.7 4.6 81.3 5 81.9 4.9 82.5 5.6 83.2 5.3 83.8 5.4 84.5 5.1 85.1 5.3 85.7 5.8 86.4 5.2 87 5.4 87.6 6.1 88.2 6.1 88.9 5.7 89.5 5.8 90.1 6.1 90.8 6 91.4 6.3 92.1 6 92.6 6.7 93.3 6.6 93.9 6.8 94.5 6.8 95.2 6.4 95.9 6.5 96.4 7 97 7.5 97.7 7.1 98.4 7.1 98.9 7.5 99.5 7.9 100.1 8 100.8 8 101.3 8.7 101.9 8.6 102.5 8.8 103.2 8.7 103.9 8.4 104.4 9.2 105 9.2 105.6 9.7 106.2 9.8 107 9.5 107.5 9.7 108.1 10.1 108.7 10.4 109.5 9.9 110.1 10 110.7 10.3 111.1 11 111.9 10.6 112.6 10.5 113.1 11 113.7 11.3 114.4 11.2 115 11.3 115.5 11.9 116.1 12 116.9 11.4 117.5 11.7 118.1 11.9 118.7 11.9 119.2 12.8 120 12.1 120.6 12.2 121.3 12.2 121.8 12.8 122.4 13.3 123.1 12.7 123.7 12.7 124.2 13.6 124.9 13.4 125.6 13.3 126.2 13.7 126.9 13.3 127.5 13.2 128.1 13.9 128.7 13.6 129.3 14.2 130 13.5 130.6 14.1 131.2 14.5 131.9 13.8 132.5 14.5 133.2 13.7 133.8 14 134.4 14.5 135 14.6 135.7 14.1 136.3 13.9 137 14 137.6 14.1 138.2 14.3 138.8 14.8 139.5 14.6 140.1 14.1 140.7 14.8 141.4 14.4 142 14.9 142.7 14.3 143.3 14.6 143.9 14.5 144.6 14.4 145.2 15 145.8 15.1 146.5 14.6 147.1 14.3 147.7 15.1 148.4 14.2 149 14.7 149.6 14.3 150.3 14.6 150.9 14.8 151.6 14.5 152.2 14.8 152.8 14.8 153.5 14.8 154.1 14.7 154.7 14.4 155.4 14.7 156 14.8 156.7 14.6 157.3 14 157.9 14.4 158.5 14.3 159.2 14.3 159.8 14.7 160.5 14.7 161.1 13.9 161.7 14 162.3 13.6 163 14.1 163.6 13.5 164.3 14 164.9 13.9 165.5 13.8 166.1 13.2 166.8 13.9 167.3 13 168 13.1 168.7 13.4 169.2 12.9 170 13.5 170.5 13 171.2 13 171.9 13.3 172.4 12.5 173.1 12.9 173.7 12.3 174.4 12.7 175 12.7 175.6 12.6 176.1 11.7 176.9 12.2 177.5 12.1 178 11.3 178.8 12 179.2 11.1 179.9 11.3 180.6 11.3 181.1 10.6 181.9 11.3 182.5 11.1 183.1 10.8 183.7 10.7 184.3 10.4 184.9 10.2 185.6 10.4 186 9.4 186.7 9.6 187.3 9.4 188 9.6 188.5 8.9 189.3 9.4 189.9 9.2 190.4 8.5 190.9 8.2 191.8 8.9 192.3 8.5 192.9 8.4 193.5 8.1 194.1 7.8 194.6 7.3 195.4 7.9 195.9 7.3 196.6 7.3 197.2 7.1 197.8 7.1 198.5 6.9 199.1 7.1 199.7 6.8 200.4 7.1 201 6.5 201.6 6.4 202.2 6.3 202.9 6.4 203.5 6.4 204.2 6.4 204.7 5.5 205.3 5.6 206 5.6 206.6 5.3 207.2 5.4 207.8 5.1 208.5 5.4 209.1 5.2 209.7 5 210.4 5.5 211 5 211.6 4.9 212.3 5.4 212.9 5 213.6 5.5 214.2 5.1 214.8 5.3 215.5 5.3 216.1 4.9 216.7 4.5 217.4 5.1 218 4.6 218.6 4.4 219.3 5.2 219.9 4.9 220.5 4.5 221.2 4.9 221.8 4.8 222.4 5.1 223.1 4.6 223.7 4.8 224.3 4.4 225 4.1 225.6 4.5 226.3 4.7 226.9 4.7 227.5 4.5 228.2 4.6 228.8 4.2 229.4 4.3 230.1 5.1 230.7 4.8 231.3 4.7 232 4.3 232.6 5 233.3 4.3 233.9 4.5 234.5 4.4 235.2 4.6 235.8 4.3 236.4 5.1 237.1 5.2 237.7 4.9 238.3 5.1 239 5 239.6 5.5 240.2 5.2 240.9 4.7 241.5 5.6 242.1 5.6 242.7 5.5 243.4 5.7 244 5.2 244.7 5.2 245.3 5.6 246 5.2 246.6 5.2 247.2 5.5 247.9 5.4 248.5 5.4 249.1 5.7 249.7 6.5 250.4 6 251 5.8 251.6 6.4 252.3 6.3 252.9 6.5 253.4 7 254.1 6.9 254.7 7.3 255.3 7.1 256.1 6.8 256.5 7.7 257.2 7.5 257.8 7.7 258.5 7.5 259.1 7.6 259.8 7.7 260.4 7.8 260.9 8.6 261.7 7.9 262.1 8.7 262.7 9.1 263.5 8.5 263.9 9.4 264.7 9.1 265.2 9.6 265.9 9.4 266.5 9.5 267.2 9.3 267.8 9.6 268.4 9.9 269 9.9 269.6 10.3 270.1 10.7 270.9 10.3 271.4 10.8 272.1 10.7 272.7 10.8 273.3 11.2 274 11.1 274.5 11.7 275.1 11.9 275.8 11.8 276.4 12 277 12.2 277.5 12.6 278.3 11.8 278.9 12.4 279.6 12.1 280.2 12.3 280.7 13 281.3 13.1 282 13 282.7 12.9 283.2 13.3 283.9 12.8 284.5 13.1 285.2 13 285.7 13.9 286.4 13.2 287.1 13.4 287.7 13.4 288.3 13.3 288.9 14.2 289.5 14.3 290.2 14 290.8 14.1 291.4 14.2 292.1 13.9 292.7 13.7 293.4 14.1 294 13.7 294.6 14.2 295.3 14.1 295.9 14.3 296.5 14.3 297.2 14 297.8 14.5 298.4 14 299 14.8 299.7 14.8 300.3 14.5 301 14.8 301.6 14.8 302.2 15 302.9 14.3 303.5 14.3 304.1 14.9 304.8 14.7 305.4 14.8 306 15.1 306.7 14.9 307.3 14.7 308 14.4 308.6 14.2 309.2 14.5 309.9 14.3 310.5 14.2 311.1 15 311.8 14.1 312.4 14.9 313 14.7 313.7 14.9 314.3 14.9 315 14.6 315.6 14.3 316.2 14.7 316.9 14.4 317.5 14.6 318.1 14.3 318.7 14 319.4 14.5 320 14.1 320.6 13.7 321.3 13.7 321.9 13.9 322.5 13.6 323.2 13.7 323.8 13.5 324.4 13.4 325.1 13.7 325.7 13.2 326.3 13.4 327 13.5 327.6 13.4 328.3 13.7 328.9 13.1 329.5 12.9 330.1 13 330.7 12.7 331.4 12.6 332 12.8 332.6 12.5 333.2 12.1 334 12.7 334.5 12.3 335.1 11.9 335.8 12.2 336.3 11.7 337 11.5 337.7 12 338.4 12.1 338.9 11.3 339.5 11.5 340.1 11.1 340.7 10.8 341.3 10.8 342.1 11 342.6 10.6 343.2 10.2 343.9 10.7 344.5 10.5 345.1 10.1 345.7 9.9 346.4 10 346.9 9.5 347.5 9.3 348.1 9.1 348.8 9.1 349.3 8.6 349.9 8.5 350.6 8.4 351.2 8.5 351.9 8.4 352.3 7.7 353 7.6 353.8 8.1 354.3 7.7 354.9 7.7 355.5 7.4 356.2 7.6 356.8 7.2 357.5 7.6 358 6.8 358.8 7.3 359.4 7.2 360 6.8 360.5 6.1 361.2 6.3 361.8 6.2 362.4 6.1 363 5.6 363.7 6.1 364.4 6.3 364.9 5.6 365.5 5.3 366.2 6.1 366.8 5.8 367.5 5.8 368.1 5.7 368.8 5.9 369.3 5.2 370 5.7 370.6 5 371.2 5 371.8 4.7 372.5 4.9 373.1 4.6 373.8 4.7 374.4 5.3 375 5.1 375 0 -2 0 -2 14.2 -1.7 14.2"/>
  <path class="st2" d="M.1,11.3l1.4,1.9h.1c.1-.1.3-.2.4-.3.3-.2.8-.7,1.1-.9,0,0,.1,0,.2,0,0,0,0,.2,0,.2,0,.5-.3,1-.4,1.5,0,.2,0,.2.2.2.7,0,1.5,0,2.1.1,0,0,0,0,.1,0,0,0,0,.1-.1.1-.5.4-1.2.7-1.6,1-.2.1-.2.2-.1.4.3.5.7.9,1,1.4,0,.1.2.3.2.4,0,0-1.2-.4-1.4-.5-.2,0-.5-.2-.6-.2,0,0,0,0-.1,0l-1.2,2.1h0c0-.3,0-.5,0-.7,0-.3,0-.7,0-1.1,0,0,0-.1,0-.1-.3,0-1.4.7-1.8.8,0,0,0,0-.2,0,0,0,0,0,0-.1.2-.5.6-1.1.8-1.7,0-.2.2-.4,0-.5-.5-.3-1.2-.4-1.7-.7h0c.3-.1.6-.3,1-.4.2,0,1-.3,1.1-.4,0,0,0-.1,0-.2,0-.8-.2-1.5-.2-2.3,0-.2,0-.2.2-.2h0Z"/>
  <path class="st1" d="M241,7.6l1.4,1.9h.1c.1-.1.3-.2.4-.3.3-.2.8-.7,1.1-.9,0,0,.1,0,.2,0,0,0,0,.2,0,.2,0,.5-.3,1-.4,1.5,0,.2,0,.2.2.2.7,0,1.5,0,2.1.1,0,0,0,0,.1,0,0,0,0,.1-.1.1-.5.4-1.2.7-1.6,1-.2.1-.2.2-.1.4.3.5.7.9,1,1.4,0,.1.2.3.2.4,0,0-1.2-.4-1.4-.5-.2,0-.5-.2-.6-.2,0,0,0,0-.1,0l-1.2,2.1h0c0-.3,0-.5,0-.7,0-.3,0-.7,0-1.1,0,0,0-.1,0-.1-.3,0-1.4.7-1.8.8,0,0,0,0-.2,0,0,0,0,0,0-.1.2-.5.6-1.1.8-1.7,0-.2.2-.4,0-.5-.5-.3-1.2-.4-1.7-.7h0c.3-.1.6-.3,1-.4.2,0,1-.3,1.1-.4,0,0,0-.1,0-.2,0-.8-.2-1.5-.2-2.3,0-.2,0-.2.2-.2h0Z"/>
  <path class="st0" d="M56.8,10c0,0,0,0,0,.1,0,.2-.6.7-.6.8,0,0,0,.2,0,.3,0,.2.4.5.5.7,0,0,0,0,0,.1,0,0-1.2-.4-1.3-.3-.1,0-.3,1.5-.5,1.6,0,0,0,0,0,0-.2-.2-.4-1.3-.5-1.3,0,0,0,0-.1,0-.2,0-.5.4-.7.5,0,0,0,0-.1,0,0,0,0-.2,0-.2,0-.3.1-.7.1-1,0-.2-.4-.2-.6-.3,0,0-.5-.2-.5-.2l1.3-.8c0-.1,0-.8,0-1,0,0,0-.4.1-.5h.1c0,0,1,1,1,1,0,0,0,0,0,0,.1-.1.3-.6.4-.6,0,0,.1,0,.2.1.1.3,0,.7.2,1,0,0,0,.1.1.1.1,0,.7-.2.9-.1h0Z"/>
</svg>