<?xml version="1.0" encoding="UTF-8"?><svg id="b" xmlns="http://www.w3.org/2000/svg" viewBox="0 0 1440 53.77"><g id="c"><g id="d"><polygon points="1440 26.18 1438.33 25.1 1436.37 25.1 1434.1 26.33 1432.47 25.02 1430.53 24.97 1428.9 23.67 1426.95 23.62 1424.91 23.96 1423.7 20.91 1421.79 20.72 1419.53 22 1418.14 19.61 1415.82 21.19 1414.19 19.78 1412.12 20.32 1410.46 19.05 1408.69 18.22 1406.78 18.03 1404.7 18.74 1402.81 18.52 1401.22 16.76 1399.25 16.91 1397.4 16.45 1395.43 16.67 1393.52 16.55 1391.84 15.08 1390.03 14.31 1387.91 15.58 1385.99 15.54 1384.35 13.63 1382.43 13.64 1380.56 13.26 1378.49 14.44 1376.54 14.69 1374.88 12.61 1372.8 14.1 1371.02 12.88 1369 13.95 1367.26 12.35 1365.48 11 1363.4 12.86 1361.5 12.85 1359.78 10.51 1357.89 10.25 1355.93 10.98 1353.94 12.12 1352.04 12.15 1350.2 11.03 1348.35 10.09 1346.46 9.65 1344.45 11.77 1342.59 10.85 1340.67 11.02 1338.74 11.94 1336.93 9.42 1334.97 11.2 1333.13 8.88 1331.18 10.32 1329.25 11.49 1327.36 11.26 1325.45 11.52 1323.58 9.28 1321.66 10.43 1319.76 8.79 1317.85 8.96 1315.93 9.98 1314.03 10.79 1312.13 10.92 1310.23 9.99 1308.32 9.27 1306.41 8.8 1304.54 11.09 1302.6 8.99 1300.72 10.34 1298.84 11.03 1296.91 9.89 1295.05 11.11 1293.09 9.4 1291.26 11.29 1289.38 11.88 1287.48 11.83 1285.56 11.26 1283.66 11.26 1281.7 10.3 1279.85 11.14 1277.97 11.52 1275.97 10.02 1274.19 11.73 1272.32 12.17 1270.49 13.09 1268.5 12.06 1266.73 13.51 1264.75 12.73 1262.74 11.66 1260.85 11.9 1259.07 13.14 1257.32 14.47 1255.11 12 1253.41 13.74 1251.43 13.24 1249.49 13.12 1247.92 15.63 1245.85 14.57 1243.92 14.56 1242.13 15.41 1240.13 14.96 1238.2 14.94 1236.7 17.45 1234.62 16.59 1232.91 17.73 1230.59 15.74 1229.16 18.31 1226.87 16.54 1225.21 17.91 1223.19 17.54 1221.42 18.38 1219.94 20.49 1217.9 20.04 1215.84 19.59 1213.85 19.43 1212.57 22.27 1210.42 21.48 1208.82 22.91 1207.1 23.87 1204.81 22.53 1203.15 23.72 1201.02 23.02 1199.06 23.03 1197.29 23.77 1195.6 24.8 1193.92 25.87 1191.88 25.53 1190.58 28.13 1188.66 28.28 1186.84 28.82 1184.72 28.14 1182.54 27.15 1181.28 30.04 1179.18 29.42 1177.49 30.53 1175.25 29.21 1173.44 29.8 1171.54 29.96 1169.89 31.27 1168.2 32.48 1166.06 31.44 1164.57 33.66 1162.67 33.86 1160.56 32.93 1158.6 32.72 1157.11 35.19 1155.08 34.58 1152.96 33.4 1151.34 35.22 1149.19 33.74 1147.64 36.18 1145.61 35.39 1143.94 37.17 1141.93 36.46 1139.88 35.35 1138.27 37.83 1136.32 37.45 1134.22 35.83 1132.46 37.11 1130.48 36.33 1128.6 36.47 1126.86 38.17 1124.93 37.83 1123.11 38.78 1121.21 38.85 1119.25 38.03 1117.43 39.14 1115.57 39.82 1113.53 37.52 1111.76 39.73 1109.89 40.27 1107.9 38.71 1106.1 40.82 1104.08 38.07 1102.2 38.48 1100.37 40.13 1098.42 38.49 1096.54 39.1 1094.63 38.6 1092.74 38.8 1090.88 40.33 1088.95 38.69 1087.05 38.75 1085.18 41.03 1083.28 40.94 1081.37 39.81 1079.47 41.1 1077.56 40.39 1075.66 38.68 1073.75 41.36 1071.86 39.61 1069.96 39.48 1068.05 40.11 1066.14 40.36 1064.25 39.94 1062.33 40.88 1060.44 40.11 1058.53 40.36 1056.67 39.17 1054.75 39.63 1052.8 40.93 1050.98 38.97 1049.1 38.61 1047.18 38.88 1045.21 40.3 1043.42 38.22 1041.51 38.41 1039.49 40.32 1037.6 39.99 1035.78 38.76 1033.85 39.19 1032.13 36.97 1030.15 37.81 1028.26 37.61 1026.28 38.41 1024.42 37.91 1022.66 36.48 1020.55 38.36 1018.71 37.63 1017.04 35.67 1015.16 35.4 1013.09 36.65 1011.18 36.54 1009.4 35.52 1007.44 35.79 1005.66 34.82 1003.58 35.78 1001.97 33.88 1000 34.15 998.19 33.46 996.26 33.48 994.12 34.58 992.23 34.3 990.57 32.89 988.93 31.44 986.74 32.65 984.81 32.58 983.16 31.21 981.47 30.08 979.55 29.96 977.63 29.81 976.13 27.91 974.15 28.03 972.32 27.51 970.32 27.69 968.16 28.57 966.78 26.2 964.84 26.13 963.2 24.89 961.31 24.6 959.13 25.52 957.38 24.7 955.72 23.52 954.02 22.54 951.62 24.32 949.75 24.01 948.04 23.03 946.63 20.8 944.4 21.98 942.35 22.4 940.75 20.96 939 20.09 937.04 20.18 935.11 20.12 933.62 18.06 931.71 17.94 929.41 19.69 927.68 18.72 925.85 18.2 923.93 18.14 922.48 15.62 920.2 17.52 918.32 17.3 916.43 17.16 914.78 15.56 913.09 14.09 910.9 15.83 908.98 15.89 907.48 12.99 905.44 13.86 903.51 14.01 901.74 12.89 899.69 14.05 897.75 14.35 896.08 12.27 894.08 13.11 892.36 11.34 890.24 13.46 888.52 11.64 886.71 10.54 884.64 12.5 882.92 10.35 880.82 12.84 879 11.9 877.2 10.34 875.32 10.04 873.31 11.74 871.39 12.12 869.5 11.97 867.63 11.49 865.76 10.98 863.91 9.64 861.99 10.23 860.05 11.62 858.22 9.41 856.28 10.86 854.42 9.16 852.48 11.07 850.6 10.11 848.7 10.44 846.8 10.63 844.91 8.96 843.01 8.64 841.1 10.24 839.19 11.06 837.29 8.75 835.4 11.4 833.49 9.83 831.6 11.12 829.69 10.19 827.77 9.55 825.89 10.43 823.97 9.56 822.06 9.5 820.16 9.52 818.27 9.94 816.4 10.85 814.46 9.97 812.54 9.54 810.67 10.2 808.85 11.94 806.9 10.86 805.01 11.14 803.1 10.98 801.12 9.84 799.22 9.95 797.48 12.21 795.56 11.96 793.76 13.11 791.72 11.57 789.97 13.33 787.95 12.04 786.06 12.24 784.17 12.5 782.45 14.19 780.33 12.35 778.71 14.77 776.77 14.5 774.76 13.76 773.05 15.3 770.86 13.4 769.16 14.94 767.22 14.84 765.18 14.09 763.64 16.48 761.49 15.14 759.86 16.88 757.72 15.69 755.81 15.84 753.92 16.09 752.5 18.72 750.27 17.25 748.39 17.55 746.99 20.09 744.59 17.94 743.23 20.62 741.17 20.06 739.22 20.07 737.76 22.19 735.27 19.92 733.49 20.68 731.74 21.52 729.81 21.65 728.1 22.64 726.32 23.36 724.22 22.77 722.95 25.54 720.87 25.04 719.1 25.75 716.99 25.15 715.54 27.12 713.23 25.68 711.41 26.22 709.95 28.23 708.24 29.19 705.79 27.15 704.17 28.48 702.25 28.6 700.56 29.67 698.82 30.57 697.19 31.98 694.87 30.28 693.32 32.07 691.33 31.83 689.56 32.64 687.61 32.58 685.78 33.08 683.77 32.67 682.02 33.59 679.92 32.59 678.32 34.49 676.41 34.56 674.55 34.92 672.6 34.74 670.65 34.5 668.75 34.54 667.24 37.42 665.25 36.91 663.37 37.18 661.53 37.8 659.61 37.76 657.79 38.53 655.76 37.49 653.95 38.36 652.09 38.83 650.03 37.2 648.29 38.94 646.4 39.13 644.37 37.59 642.56 38.73 640.56 37.25 638.75 38.5 636.81 37.86 634.92 37.97 633.08 39.13 631.25 40.4 629.26 38.59 627.42 39.98 625.54 40.48 623.56 38.3 621.7 39.08 619.84 40.34 617.91 39.12 616.02 39.39 614.1 38.52 612.23 40 610.32 39.34 608.44 40.51 606.54 41.43 604.63 40.33 602.73 39.59 600.82 39.82 598.92 40.39 597.02 40.06 595.11 41.2 593.2 40.99 591.33 38.67 589.42 39.49 587.51 39.78 585.59 40.77 583.73 38.95 581.78 40.81 579.9 40.19 577.97 40.76 576.1 39.95 574.15 40.93 572.36 38.46 570.47 38.37 568.53 39.12 566.66 38.54 564.75 38.79 562.93 37.48 560.99 38.13 558.96 39.84 557.28 36.98 555.37 37.08 553.45 37.34 551.6 36.84 549.56 38.25 547.64 38.32 545.86 37.08 543.81 38.31 541.92 38.09 540.11 37.2 538.12 37.75 536.21 37.65 534.39 36.86 532.83 34.32 530.69 35.8 528.65 36.55 527 34.78 525.06 34.88 523.22 34.33 521.58 32.73 519.56 33.21 517.89 31.83 515.83 32.53 513.7 33.53 512.32 30.79 510.26 31.37 508.44 30.81 506.41 31.25 504.5 31.1 502.65 30.67 500.73 30.5 499.36 27.99 496.93 30.03 495.52 27.76 493.86 26.55 491.48 28.28 490.15 25.77 487.97 26.64 486.42 25.02 484.32 25.58 482.4 25.44 480.29 26.06 478.56 25.18 476.86 24.17 474.9 24.24 473.25 23 471.64 21.65 469.36 22.98 467.76 21.54 465.75 21.8 463.88 21.48 462.21 20.32 460.21 20.55 458.68 18.73 456.87 18.09 454.82 18.63 453.05 17.83 451.22 17.29 449.51 16.17 447.14 18.38 445.56 16.56 443.44 17.63 441.62 17.08 440.07 14.9 438.2 14.52 436.22 14.91 434.24 15.3 432.52 13.93 430.38 15.47 428.61 14.49 426.65 14.84 425.1 12.12 422.91 14.31 421.08 13.71 419.17 13.69 417.22 14.14 415.62 11.27 413.75 10.91 411.74 11.97 409.86 11.72 408 11.23 406.02 12.26 404.09 12.69 402.27 11.65 400.3 12.7 398.5 11.21 396.57 11.62 394.71 10.89 392.8 11.16 390.86 11.99 389.04 10.34 387.07 12.01 385.27 9.52 383.37 9.46 381.44 10.47 379.57 9.53 377.67 9.46 375.78 8.93 373.83 11.15 371.94 11.08 370.07 9.31 368.16 9.75 366.26 9.41 364.36 8.59 362.45 9.22 360.54 9.76 358.65 10.85 356.75 11.43 354.84 10.32 352.95 11.03 351.05 11.18 349.11 8.83 347.27 11.58 345.31 9.26 343.42 9.93 341.5 9.35 339.59 9.17 337.72 10.18 335.86 10.97 333.91 9.92 332.05 10.84 330.11 10.15 328.26 11.16 326.42 12.06 324.41 10.35 322.59 11.58 320.77 12.73 318.88 12.85 316.94 12.33 315.11 13.18 313.17 12.77 311.32 13.33 309.45 13.6 307.46 12.81 305.72 14.36 303.75 13.75 301.78 13.33 299.92 13.69 297.87 12.72 296.19 14.49 294.37 15.16 292.42 14.97 290.64 15.88 288.74 16.02 286.76 15.65 284.96 16.45 283.23 17.56 280.98 15.76 279.27 16.93 277.57 18.17 275.48 17.33 273.86 18.93 272 19.26 269.8 18.01 267.78 17.66 266.33 19.93 264.26 19.37 262.58 20.57 260.86 21.58 258.89 21.5 256.76 20.74 255.14 22.16 253.49 23.39 251.11 21.66 249.34 22.44 247.65 23.53 245.86 24.17 243.8 23.75 242.24 25.34 240.48 26.11 238.63 26.5 236.68 26.49 235.15 28.18 233.24 28.38 231.35 28.65 229.32 28.32 227.44 28.58 226.02 30.81 224.13 31.07 221.81 29.45 220.19 30.89 218.25 30.85 216.46 31.55 214.4 30.99 212.72 32.2 210.57 31.1 209.12 33.58 206.88 31.89 205.02 32.22 203.29 33.3 201.75 35.53 199.71 34.85 197.87 35.35 195.96 35.47 194.26 36.91 192.13 35.48 190.14 34.95 188.49 36.89 186.72 37.97 184.5 35.48 182.7 36.43 180.79 36.32 178.94 36.86 176.97 36.22 175.28 38.3 173.24 36.78 171.53 38.81 169.62 38.84 167.79 39.7 165.85 39.24 163.99 39.89 162.07 39.61 160.06 37.88 158.2 38.51 156.3 38.63 154.37 38.03 152.57 39.92 150.65 39.58 148.7 38.19 146.89 40.51 144.97 39.73 143.05 39.11 141.14 38.44 139.3 40.99 137.35 38.71 135.49 40.92 133.58 40.36 131.67 39.17 129.78 40.17 127.89 41.33 125.98 41.41 124.07 38.96 122.17 38.86 120.25 41.19 118.34 41.1 116.44 39.77 114.53 40.61 112.6 41.42 110.75 38.48 108.79 41.08 106.89 40.59 105 40 103.07 40.74 101.18 40.22 99.28 40.12 97.46 38.12 95.44 40.78 93.54 40.45 91.68 39.52 89.72 40.44 87.86 39.66 86.1 37.48 84.09 38.96 82.16 39.23 80.27 39.07 78.48 37.58 76.47 38.75 74.5 39.28 72.75 37.63 70.98 36.19 68.87 38.07 66.9 38.43 65.15 37 63.19 37.3 61.48 35.68 59.58 35.54 57.74 35.01 55.58 36.69 54 34.33 52.04 34.64 50.02 35.25 48.3 33.96 46.25 34.72 44.54 33.42 42.72 32.86 40.84 32.55 38.88 32.69 36.78 33.47 35.02 32.55 33 32.95 31.24 32.03 29.6 30.64 27.38 31.86 26.04 29.17 23.81 30.37 22.28 28.54 20.3 28.66 18.52 27.95 16.33 28.93 14.56 28.15 12.8 27.35 10.9 27.12 9.04 26.75 7.64 24.53 5.31 26.01 3.39 25.89 2.07 23.38 0 25.28 0 53.77 1440 53.77 1440 26.18" style="fill:#303f5d;"/><path d="M284.56,14.25l9.26,4.63-.12.21c-1.05.47-9.47,2.88-9.6,3.38-.04.16.03.38.07.54.24.99.89,2.45,1.27,3.46.84,2.18,1.91,4.42,2.68,6.61.07.19.39,1.14.28,1.25-.13.01-.23,0-.35-.05-.44-.2-1.84-1.51-2.38-1.91-1.3-.97-2.68-1.98-4.03-2.89-.56-.38-1.55-1.14-2.1-1.4-.76-.35-1.01.36-1.43.92-2.37,3.18-4.36,6.73-6.62,10-.55.56-.57-.44-.62-.86-.38-3.11-.46-6.33-.7-9.46-.07-.89-.02-3.41-.44-4.03-.55-.8-2.05-.7-2.93-.65-2.68.13-5.34.58-8.06.61-.41,0-1.33.27-1.08-.55.09-.3.56-.3.8-.42,1.93-.97,7.94-4.36,9.17-5.81.14-.16.42-.5.44-.71.02-.29-.81-1.13-1.05-1.4-1.88-2.04-4.17-3.77-6.08-5.83-.18-.19-1.05-1.1-1.02-1.26.13-.19.28-.13.46-.11.92.11,2.23.69,3.18.94,1.52.39,3.15.77,4.68,1.1.48.1,2.41.59,2.72.44.16-.08.42-1.03.48-1.27.73-2.84,1.04-5.96,1.82-8.78.09-.33.27-1.37.71-.76,1.24,2.59,2.26,5.3,3.48,7.9.3.63.77,1.73,1.14,2.28.19.28.43.34.69.11l6.61-6.97c.35-.25,1.16-1.08,1.15-.17-.41,1.24-.92,2.45-1.3,3.7-.52,1.69-.84,3.38-1.09,5.13-.06.39-.3,1.88-.09,2.1Z" style="fill:#787e88;"/><path d="M555.15,18.75l-.03.25c-.5.61-.91,1.22-1.5,1.76-.37.34-.89.65-1.25.99-.22.2-.67.65-.51.96.41.6.77,1.23,1.16,1.84.15.24,1.45,1.97,1.29,2.12-1.34-.13-2.63-.54-3.94-.82-.18-.02-.33.12-.43.25-.12.16-.31.57-.43.78-.64,1.14-1.16,2.84-1.85,3.83-.33.47-.32-.15-.4-.34-.38-.88-.59-1.77-.89-2.68-.07-.22-.52-1.52-.61-1.56-.11-.06-.22-.04-.34-.02-.45.09-1.06.38-1.53.52-.9.27-1.81.55-2.73.75-.02-.16.01-.27.07-.41.42-1.04,1.34-2.12,1.73-3.19.13-.34.22-.64-.01-.97-.12-.17-.75-.83-.92-.99-.27-.25-2.01-1.52-2.01-1.75,0-.17.35-.04.41-.04,1.1-.06,2.15-.12,3.26-.24.22-.02.48.03.7,0,.59-.09.4-.74.42-1.18.02-.51.06-1.02.07-1.53,0-.46-.01-.92,0-1.37.11-.03.13.05.19.09.77.59,1.39,1.64,2.17,2.23.28.22.4.22.59-.12.44-.78.73-1.78,1.12-2.58.07-.14.47-.91.56-.91.17,0,.22.41.26.51.4,1.01.6,1.87.84,2.92.11.48-.09.96.62,1.04.57.06,3.78-.3,3.92-.12Z" style="fill:#303f5d;"/><path d="M1296.6,29.94c.02.15-.03.26-.1.38-.26.48-1.75,1.98-1.8,2.3-.02.11.08.74.13.88.22.67,1.17,1.52,1.44,2.15.06.14.08.27.07.41-.2.2-3.6-1.09-4.03-.83-.37.22-.93,4.59-1.62,4.86-.16.06-.13-.09-.18-.16-.5-.65-1.34-3.88-1.52-4-.12-.08-.23-.04-.35,0-.63.23-1.49,1.15-2.11,1.39-.12.05-.22.07-.34.05,0-.26-.09-.48-.09-.74.01-.94.34-2.05.35-2.99,0-.65-1.18-.74-1.68-.93-.24-.09-1.55-.58-1.55-.72l3.84-2.29c.23-.4.06-2.41.1-3.05.01-.24.1-1.33.3-1.35l.39.21,2.87,2.92c.15.04.2-.03.29-.12.38-.36.96-1.73,1.34-1.91.26-.12.41.1.5.33.32.87.28,2.24.66,3.11.05.12.19.34.31.4.36.16,2.23-.53,2.8-.31Z" style="fill:#f5f3ed;"/><path d="M41.12,25.03c.04.21-.05.36-.14.54-.37.68-2.49,2.81-2.56,3.27-.03.16.12,1.05.18,1.26.31.96,1.66,2.17,2.05,3.05.09.19.12.38.09.59-.29.29-5.12-1.55-5.73-1.18-.52.31-1.33,6.53-2.3,6.91-.23.09-.18-.13-.26-.23-.71-.93-1.91-5.51-2.16-5.68-.17-.12-.33-.05-.5.01-.9.33-2.11,1.64-3,1.98-.17.07-.31.1-.49.07,0-.37-.13-.68-.13-1.05.02-1.34.48-2.92.49-4.25,0-.92-1.67-1.06-2.39-1.32-.33-.12-2.21-.82-2.21-1.03l5.46-3.25c.33-.57.08-3.43.14-4.34.02-.34.14-1.89.43-1.91l.55.3,4.08,4.15c.22.06.28-.04.41-.17.54-.5,1.36-2.46,1.9-2.71.38-.17.58.14.71.47.45,1.23.4,3.18.94,4.41.08.18.27.49.44.56.51.23,3.16-.76,3.98-.44Z" style="fill:#f5f3ed;"/></g></g></svg>