<?xml version="1.0" encoding="UTF-8"?>
<svg id="b" xmlns="http://www.w3.org/2000/svg" version="1.1" viewBox="0 0 1440 67.4">
  <!-- Generator: Adobe Illustrator 29.6.0, SVG Export Plug-In . SVG Version: 2.1.1 Build 207)  -->
  <defs>
    <style>
      .st0 {
        fill: #fafafa;
      }
    </style>
  </defs>
  <g id="c">
    <g id="d">
      <polygon class="st0" points="0 27.6 1.7 28.7 3.6 28.7 5.9 27.4 7.5 28.8 9.5 28.8 11.1 30.1 13.1 30.1 15.1 29.8 16.3 32.9 18.2 33 20.5 31.8 21.9 34.2 24.2 32.6 25.8 34 27.9 33.4 29.5 34.7 31.3 35.5 33.2 35.7 35.3 35 37.2 35.2 38.8 37 40.8 36.9 42.6 37.3 44.6 37.1 46.5 37.2 48.2 38.7 50 39.5 52.1 38.2 54 38.2 55.7 40.1 57.6 40.1 59.4 40.5 61.5 39.3 63.5 39.1 65.1 41.2 67.2 39.7 69 40.9 71 39.8 72.7 41.4 74.5 42.8 76.6 40.9 78.5 40.9 80.2 43.3 82.1 43.5 84.1 42.8 86.1 41.7 88 41.6 89.8 42.7 91.7 43.7 93.5 44.1 95.6 42 97.4 42.9 99.3 42.8 101.3 41.8 103.1 44.3 105 42.6 106.9 44.9 108.8 43.5 110.8 42.3 112.6 42.5 114.6 42.2 116.4 44.5 118.3 43.3 120.2 45 122.2 44.8 124.1 43.8 126 43 127.9 42.8 129.8 43.8 131.7 44.5 133.6 45 135.5 42.7 137.4 44.8 139.3 43.4 141.2 42.7 143.1 43.9 144.9 42.7 146.9 44.4 148.7 42.5 150.6 41.9 152.5 41.9 154.4 42.5 156.3 42.5 158.3 43.5 160.1 42.6 162 42.2 164 43.8 165.8 42 167.7 41.6 169.5 40.7 171.5 41.7 173.3 40.3 175.2 41 177.3 42.1 179.1 41.9 180.9 40.6 182.7 39.3 184.9 41.8 186.6 40 188.6 40.5 190.5 40.7 192.1 38.1 194.1 39.2 196.1 39.2 197.9 38.4 199.9 38.8 201.8 38.8 203.3 36.3 205.4 37.2 207.1 36 209.4 38 210.8 35.5 213.1 37.2 214.8 35.9 216.8 36.2 218.6 35.4 220.1 33.3 222.1 33.7 224.2 34.2 226.1 34.3 227.4 31.5 229.6 32.3 231.2 30.9 232.9 29.9 235.2 31.2 236.9 30 239 30.7 240.9 30.7 242.7 30 244.4 29 246.1 27.9 248.1 28.2 249.4 25.6 251.3 25.5 253.2 25 255.3 25.6 257.5 26.6 258.7 23.7 260.8 24.4 262.5 23.2 264.8 24.6 266.6 24 268.5 23.8 270.1 22.5 271.8 21.3 273.9 22.3 275.4 20.1 277.3 19.9 279.4 20.8 281.4 21 282.9 18.6 284.9 19.2 287 20.4 288.7 18.5 290.8 20 292.4 17.6 294.4 18.4 296.1 16.6 298.1 17.3 300.1 18.4 301.7 15.9 303.7 16.3 305.8 17.9 307.5 16.7 309.5 17.4 311.4 17.3 313.1 15.6 315.1 15.9 316.9 15 318.8 14.9 320.8 15.7 322.6 14.6 324.4 13.9 326.5 16.2 328.2 14 330.1 13.5 332.1 15.1 333.9 12.9 335.9 15.7 337.8 15.3 339.6 13.6 341.6 15.3 343.5 14.7 345.4 15.2 347.3 15 349.1 13.4 351 15.1 353 15 354.8 12.7 356.7 12.8 358.6 14 360.5 12.7 362.4 13.4 364.3 15.1 366.2 12.4 368.1 14.2 370 14.3 372 13.7 373.9 13.4 375.8 13.8 377.7 12.9 379.6 13.7 381.5 13.4 383.3 14.6 385.2 14.1 387.2 12.8 389 14.8 390.9 15.2 392.8 14.9 394.8 13.5 396.6 15.6 398.5 15.4 400.5 13.4 402.4 13.8 404.2 15 406.1 14.6 407.9 16.8 409.9 16 411.7 16.1 413.7 15.4 415.6 15.9 417.3 17.3 419.5 15.4 421.3 16.1 423 18.1 424.8 18.4 426.9 17.1 428.8 17.2 430.6 18.2 432.6 18 434.3 19 436.4 18 438 19.9 440 19.6 441.8 20.3 443.7 20.3 445.9 19.2 447.8 19.5 449.4 20.9 451.1 22.3 453.3 21.1 455.2 21.2 456.8 22.6 458.5 23.7 460.5 23.8 462.4 24 463.9 25.9 465.9 25.7 467.7 26.3 469.7 26.1 471.8 25.2 473.2 27.6 475.2 27.6 476.8 28.9 478.7 29.2 480.9 28.2 482.6 29.1 484.3 30.2 486 31.2 488.4 29.5 490.2 29.8 492 30.7 493.4 33 495.6 31.8 497.6 31.4 499.2 32.8 501 33.7 503 33.6 504.9 33.6 506.4 35.7 508.3 35.8 510.6 34.1 512.3 35 514.2 35.6 516.1 35.6 517.5 38.2 519.8 36.2 521.7 36.5 523.6 36.6 525.2 38.2 526.9 39.7 529.1 37.9 531 37.9 532.5 40.8 534.6 39.9 536.5 39.8 538.3 40.9 540.3 39.7 542.2 39.4 543.9 41.5 545.9 40.7 547.6 42.4 549.8 40.3 551.5 42.1 553.3 43.2 555.4 41.3 557.1 43.4 559.2 40.9 561 41.9 562.8 43.4 564.7 43.7 566.7 42 568.6 41.7 570.5 41.8 572.4 42.3 574.2 42.8 576.1 44.1 578 43.5 580 42.1 581.8 44.4 583.7 42.9 585.6 44.6 587.5 42.7 589.4 43.7 591.3 43.3 593.2 43.1 595.1 44.8 597 45.1 598.9 43.5 600.8 42.7 602.7 45 604.6 42.4 606.5 43.9 608.4 42.7 610.3 43.6 612.2 44.2 614.1 43.3 616 44.2 617.9 44.3 619.8 44.2 621.7 43.8 623.6 42.9 625.5 43.8 627.5 44.2 629.3 43.6 631.2 41.8 633.1 42.9 635 42.6 636.9 42.8 638.9 43.9 640.8 43.8 642.5 41.6 644.4 41.8 646.2 40.7 648.3 42.2 650 40.4 652 41.7 653.9 41.5 655.8 41.3 657.5 39.6 659.7 41.4 661.3 39 663.2 39.3 665.2 40 667 38.5 669.1 40.4 670.8 38.8 672.8 38.9 674.8 39.7 676.4 37.3 678.5 38.6 680.1 36.9 682.3 38.1 684.2 37.9 686.1 37.7 687.5 35 689.7 36.5 691.6 36.2 693 33.7 695.4 35.8 696.8 33.2 698.8 33.7 700.8 33.7 702.2 31.6 704.7 33.8 706.5 33.1 708.3 32.2 710.2 32.1 711.9 31.1 713.7 30.4 715.8 31 717 28.2 719.1 28.7 720.9 28 723 28.6 724.5 26.6 726.8 28.1 728.6 27.5 730 25.5 731.8 24.6 734.2 26.6 735.8 25.3 737.8 25.2 739.4 24.1 741.2 23.2 742.8 21.8 745.1 23.5 746.7 21.7 748.7 21.9 750.4 21.1 752.4 21.2 754.2 20.7 756.2 21.1 758 20.2 760.1 21.2 761.7 19.3 763.6 19.2 765.5 18.9 767.4 19 769.3 19.3 771.2 19.2 772.8 16.4 774.8 16.9 776.6 16.6 778.5 16 780.4 16 782.2 15.2 784.2 16.3 786 15.4 787.9 14.9 790 16.6 791.7 14.8 793.6 14.6 795.6 16.2 797.4 15 799.4 16.5 801.2 15.3 803.2 15.9 805.1 15.8 806.9 14.6 808.8 13.4 810.7 15.2 812.6 13.8 814.5 13.3 816.4 15.5 818.3 14.7 820.2 13.4 822.1 14.6 824 14.4 825.9 15.2 827.8 13.8 829.7 14.4 831.6 13.3 833.5 12.3 835.4 13.4 837.3 14.2 839.2 13.9 841.1 13.4 843 13.7 844.9 12.6 846.8 12.8 848.7 15.1 850.6 14.3 852.5 14 854.4 13 856.3 14.8 858.2 13 860.1 13.6 862 13 863.9 13.8 865.8 12.8 867.6 15.3 869.5 15.4 871.5 14.6 873.3 15.2 875.2 15 877.1 16.3 879 15.6 881 13.9 882.7 16.8 884.6 16.7 886.5 16.4 888.4 16.9 890.4 15.5 892.4 15.4 894.1 16.7 896.2 15.5 898.1 15.7 899.9 16.6 901.9 16 903.8 16.1 905.6 16.9 907.2 19.5 909.3 18 911.3 17.2 913 19 914.9 18.9 916.8 19.4 918.4 21 920.4 20.6 922.1 21.9 924.2 21.2 926.3 20.2 927.7 23 929.7 22.4 931.6 23 933.6 22.5 935.5 22.7 937.3 23.1 939.3 23.3 940.6 25.8 943.1 23.7 944.5 26 946.1 27.2 948.5 25.5 949.8 28 952 27.1 953.6 28.8 955.7 28.2 957.6 28.3 959.7 27.7 961.4 28.6 963.1 29.6 965.1 29.5 966.8 30.8 968.4 32.1 970.6 30.8 972.2 32.2 974.2 32 976.1 32.3 977.8 33.5 979.8 33.2 981.3 35 983.1 35.7 985.2 35.1 987 35.9 988.8 36.5 990.5 37.6 992.9 35.4 994.4 37.2 996.6 36.1 998.4 36.7 999.9 38.9 1001.8 39.2 1003.8 38.9 1005.8 38.5 1007.5 39.8 1009.6 38.3 1011.4 39.3 1013.3 38.9 1014.9 41.7 1017.1 39.5 1018.9 40 1020.8 40.1 1022.8 39.6 1024.4 42.5 1026.2 42.9 1028.3 41.8 1030.1 42 1032 42.5 1034 41.5 1035.9 41.1 1037.7 42.1 1039.7 41.1 1041.5 42.6 1043.4 42.2 1045.3 42.9 1047.2 42.6 1049.1 41.8 1051 43.4 1052.9 41.8 1054.7 44.2 1056.6 44.3 1058.6 43.3 1060.4 44.2 1062.3 44.3 1064.2 44.8 1066.2 42.6 1068.1 42.7 1069.9 44.5 1071.8 44 1073.7 44.4 1075.6 45.2 1077.6 44.5 1079.5 44 1081.3 42.9 1083.2 42.3 1085.2 43.5 1087.1 42.7 1088.9 42.6 1090.9 44.9 1092.7 42.2 1094.7 44.5 1096.6 43.8 1098.5 44.4 1100.4 44.6 1102.3 43.6 1104.1 42.8 1106.1 43.8 1107.9 42.9 1109.9 43.6 1111.7 42.6 1113.6 41.7 1115.6 43.4 1117.4 42.2 1119.2 41 1121.1 40.9 1123.1 41.4 1124.9 40.6 1126.8 41 1128.7 40.4 1130.6 40.2 1132.5 41 1134.3 39.4 1136.2 40 1138.2 40.4 1140.1 40.1 1142.1 41 1143.8 39.3 1145.6 38.6 1147.6 38.8 1149.4 37.9 1151.3 37.7 1153.2 38.1 1155 37.3 1156.8 36.2 1159 38 1160.7 36.8 1162.4 35.6 1164.5 36.4 1166.1 34.8 1168 34.5 1170.2 35.8 1172.2 36.1 1173.7 33.8 1175.7 34.4 1177.4 33.2 1179.1 32.2 1181.1 32.3 1183.2 33 1184.9 31.6 1186.5 30.4 1188.9 32.1 1190.7 31.3 1192.3 30.2 1194.1 29.6 1196.2 30 1197.8 28.4 1199.5 27.7 1201.4 27.3 1203.3 27.3 1204.8 25.6 1206.8 25.4 1208.7 25.1 1210.7 25.5 1212.6 25.2 1214 23 1215.9 22.7 1218.2 24.3 1219.8 22.9 1221.8 22.9 1223.5 22.2 1225.6 22.8 1227.3 21.6 1229.4 22.7 1230.9 20.2 1233.1 21.9 1235 21.5 1236.7 20.5 1238.2 18.2 1240.3 18.9 1242.1 18.4 1244 18.3 1245.7 16.9 1247.9 18.3 1249.9 18.8 1251.5 16.9 1253.3 15.8 1255.5 18.3 1257.3 17.3 1259.2 17.5 1261.1 16.9 1263 17.5 1264.7 15.5 1266.8 17 1268.5 14.9 1270.4 14.9 1272.2 14.1 1274.2 14.5 1276 13.9 1277.9 14.2 1279.9 15.9 1281.8 15.3 1283.7 15.1 1285.6 15.7 1287.4 13.8 1289.3 14.2 1291.3 15.6 1293.1 13.3 1295 14 1296.9 14.7 1298.9 15.3 1300.7 12.8 1302.7 15.1 1304.5 12.9 1306.4 13.4 1308.3 14.6 1310.2 13.6 1312.1 12.4 1314 12.4 1315.9 14.8 1317.8 14.9 1319.8 12.6 1321.7 12.7 1323.6 14 1325.5 13.2 1327.4 12.4 1329.2 15.3 1331.2 12.7 1333.1 13.2 1335 13.8 1336.9 13 1338.8 13.6 1340.7 13.6 1342.5 15.6 1344.6 13 1346.5 13.3 1348.3 14.2 1350.3 13.3 1352.1 14.1 1353.9 16.3 1355.9 14.8 1357.8 14.5 1359.7 14.7 1361.5 16.2 1363.5 15 1365.5 14.5 1367.2 16.1 1369 17.6 1371.1 15.7 1373.1 15.3 1374.8 16.8 1376.8 16.5 1378.5 18.1 1380.4 18.2 1382.3 18.8 1384.4 17.1 1386 19.4 1388 19.1 1390 18.5 1391.7 19.8 1393.8 19 1395.5 20.4 1397.3 20.9 1399.2 21.2 1401.1 21.1 1403.2 20.3 1405 21.2 1407 20.8 1408.8 21.7 1410.4 23.1 1412.6 21.9 1414 24.6 1416.2 23.4 1417.7 25.2 1419.7 25.1 1421.5 25.8 1423.7 24.8 1425.4 25.6 1427.2 26.4 1429.1 26.6 1431 27 1432.4 29.2 1434.7 27.8 1436.6 27.9 1437.9 30.4 1440 28.5 1440 0 0 0 0 27.6"/>
      <path class="st0" d="M1371.4,53.1l5.3,2.7h0c-.6.4-5.4,1.8-5.5,2.1,0,0,0,.2,0,.3.1.6.5,1.4.7,2,.5,1.2,1.1,2.5,1.5,3.8,0,.1.2.7.2.7,0,0-.1,0-.2,0-.2-.1-1.1-.9-1.4-1.1-.8-.6-1.5-1.1-2.3-1.7-.3-.2-.9-.7-1.2-.8-.4-.2-.6.2-.8.5-1.4,1.8-2.5,3.9-3.8,5.7-.3.3-.3-.2-.3-.5-.2-1.8-.3-3.6-.4-5.4,0-.5,0-2-.2-2.3-.3-.5-1.2-.4-1.7-.4-1.5,0-3.1.3-4.6.3-.2,0-.8.2-.6-.3,0-.2.3-.2.5-.2,1.1-.5,4.6-2.5,5.3-3.3,0,0,.2-.3.2-.4,0-.2-.5-.7-.6-.8-1.1-1.2-2.4-2.2-3.5-3.3,0-.1-.6-.6-.6-.7,0-.1.2,0,.3,0,.5,0,1.3.4,1.8.5.9.2,1.8.4,2.7.6.3,0,1.4.3,1.6.2,0,0,.2-.6.3-.7.4-1.6.6-3.4,1-5,0-.2.2-.8.4-.4.7,1.5,1.3,3,2,4.5.2.4.4,1,.7,1.3.1.2.2.2.4,0l3.8-4c.2-.1.7-.6.7,0-.2.7-.5,1.4-.8,2.1-.3,1-.5,1.9-.6,2.9,0,.2-.2,1.1,0,1.2h0Z"/>
      <path class="st0" d="M161.7,33.8l4.3,5.6h.3c.3-.3.8-.6,1.1-.8.9-.7,2.3-2.2,3.1-2.7.2,0,.4-.2.6-.2,0,.2,0,.5,0,.7-.2,1.4-1,3.1-1.2,4.4,0,.5,0,.6.5.6,2,.2,4.4.1,6.4.4.2,0,.3,0,.4.2-.1.1-.3.3-.4.4-1.5,1.1-3.5,2-4.8,3-.5.4-.7.5-.4,1.1.8,1.3,2.1,2.7,2.9,4.1.2.4.6.9.6,1.3-.3.3-3.6-1.3-4.2-1.5-.5-.2-1.4-.5-1.8-.6-.1,0-.3,0-.4,0l-3.7,6.2-.2-.2c0-.7-.2-1.4-.3-2.1-.1-1-.1-2.1-.3-3.2,0-.1,0-.3-.2-.4-.8-.2-4.3,2-5.3,2.4-.1,0-.3.1-.5.1,0-.2,0-.3,0-.4.5-1.6,1.8-3.4,2.5-5,.3-.7.6-1.1-.2-1.4-1.6-.8-3.5-1.2-5.1-2v-.3c.9-.2,1.8-.6,2.8-.9.5-.2,3-.8,3.2-1.2s.1-.4.1-.6c0-2.2-.7-4.5-.5-6.7,0-.5,0-.5.6-.5h0Z"/>
      <path class="st0" d="M881.3,22.6l4.3,5.6h.3c.3-.3.8-.6,1.1-.8.9-.7,2.3-2.2,3.2-2.7.2-.1.4-.1.6-.2,0,.2,0,.5,0,.7-.2,1.4-1,3.1-1.2,4.4,0,.5,0,.6.5.6,2,.2,4.4.1,6.4.4.2,0,.3,0,.4.2-.2.1-.3.3-.4.4-1.5,1.1-3.5,2-4.8,3-.5.4-.7.5-.4,1.1.8,1.3,2.1,2.7,2.9,4.1.2.4.5.9.6,1.3-.3.3-3.6-1.3-4.2-1.5-.5-.2-1.4-.5-1.8-.6-.2,0-.3,0-.4,0l-3.7,6.2-.2-.2c0-.7-.2-1.4-.3-2.1-.1-1-.1-2.1-.3-3.2,0-.1,0-.3-.2-.4-.8-.2-4.3,2-5.3,2.4-.2,0-.3.1-.5.1,0-.2,0-.3,0-.4.5-1.6,1.8-3.4,2.5-5,.3-.7.6-1.1-.2-1.4-1.6-.8-3.5-1.2-5.1-2v-.3c.9-.2,1.8-.6,2.8-.9.5-.2,3-.8,3.2-1.1s.1-.4,0-.6c0-2.2-.7-4.5-.5-6.7,0-.5,0-.5.6-.5h0Z"/>
      <path class="st0" d="M331,29.7c0,.1,0,.3-.1.4-.3.5-1.8,2-1.8,2.3,0,.1,0,.7.1.9.2.7,1.2,1.5,1.4,2.2,0,.1,0,.3,0,.4-.2.2-3.6-1.1-4-.8-.4.2-.9,4.6-1.6,4.9-.2,0-.1,0-.2-.2-.5-.7-1.3-3.9-1.5-4-.1,0-.2,0-.4,0-.6.2-1.5,1.2-2.1,1.4-.1,0-.2,0-.3,0,0-.3,0-.5,0-.7,0-.9.3-2,.4-3,0-.7-1.2-.7-1.7-.9-.2,0-1.5-.6-1.5-.7l3.8-2.3c.2-.4,0-2.4.1-3,0-.2.1-1.3.3-1.4l.4.2,2.9,2.9c.1,0,.2,0,.3-.1.4-.4,1-1.7,1.3-1.9.3-.1.4.1.5.3.3.9.3,2.2.7,3.1,0,.1.2.3.3.4.4.2,2.2-.5,2.8-.3h0Z"/>
    </g>
  </g>
</svg>