<svg width="71" height="71" viewBox="0 0 71 71" fill="none" xmlns="http://www.w3.org/2000/svg">
<path d="M54.3 35C48.8 35 45.3 28.26 45.3 23.63C45.3 23.35 45.08 23.13 44.8 23.13C44.52 23.13 44.3 23.35 44.3 23.63C44.3 27.64 46.6 32.85 50.51 35H16.7C16.42 35 16.2 35.22 16.2 35.5C16.2 35.78 16.42 36 16.7 36H50.52C46.6 38.15 44.31 43.37 44.31 47.37C44.31 47.65 44.53 47.87 44.81 47.87C45.09 47.87 45.31 47.65 45.31 47.37C45.31 42.73 48.82 36 54.31 36C54.59 36 54.81 35.78 54.81 35.5C54.81 35.22 54.59 35 54.31 35H54.3Z" fill="#787878"/>
<path d="M35.5 0C15.93 0 0 15.92 0 35.5C0 55.08 15.93 71 35.5 71C55.07 71 71 55.08 71 35.5C71 15.92 55.07 0 35.5 0ZM35.5 70C16.48 70 1 54.52 1 35.5C1 16.48 16.48 1 35.5 1C54.52 1 70 16.48 70 35.5C70 54.52 54.52 70 35.5 70Z" fill="#787878"/>
</svg>
