<svg width="32" height="32" viewBox="0 0 32 32" fill="none" xmlns="http://www.w3.org/2000/svg">
<path d="M6.66666 20.1547V8C6.66666 7.12978 6.91688 6.43022 7.41732 5.90133C7.91777 5.37244 8.5951 4.96711 9.44932 4.68533C10.3035 4.40356 11.2969 4.21956 12.4293 4.13333C13.5618 4.04711 14.752 4.00267 16 4C17.296 4 18.5084 4.044 19.6373 4.132C20.7662 4.22 21.7542 4.40489 22.6013 4.68667C23.4484 4.96844 24.1155 5.37333 24.6027 5.90133C25.0898 6.42933 25.3333 7.12889 25.3333 8V20.1547C25.3333 21.2258 24.96 22.1347 24.2133 22.8813C23.4675 23.6271 22.5591 24 21.488 24L23.488 26V26.6667H22.3587L19.692 24H12.308L9.64132 26.6667H8.51332V26L10.5133 24C9.44132 24 8.53243 23.6267 7.78666 22.88C7.03999 22.1351 6.66666 21.2267 6.66666 20.1547ZM16 5.33333C13.3875 5.33333 11.4858 5.50667 10.2947 5.85333C9.10355 6.19911 8.38488 6.70978 8.13866 7.38533H23.892C23.6609 6.69911 22.9484 6.18578 21.7547 5.84533C20.5609 5.504 18.6427 5.33333 16 5.33333ZM7.99999 14.6667H15.3333V8.71867H7.99999V14.6667ZM21.488 16H7.99999H24H21.488ZM16.6667 14.6667H24V8.71867H16.6667V14.6667ZM11.3333 20.8213C11.7573 20.8213 12.1111 20.6791 12.3947 20.3947C12.6782 20.1102 12.8204 19.7564 12.8213 19.3333C12.8222 18.9102 12.68 18.5564 12.3947 18.272C12.1093 17.9876 11.7555 17.8453 11.3333 17.8453C10.9111 17.8453 10.5573 17.9876 10.272 18.272C9.98666 18.5564 9.84443 18.9102 9.84532 19.3333C9.84621 19.7564 9.98843 20.1102 10.272 20.3947C10.5555 20.6791 10.9093 20.8213 11.3333 20.8213ZM20.6667 20.8213C21.0907 20.8213 21.4444 20.6791 21.728 20.3947C22.0115 20.1102 22.1538 19.7564 22.1547 19.3333C22.1555 18.9102 22.0133 18.5564 21.728 18.272C21.4427 17.9876 21.0889 17.8453 20.6667 17.8453C20.2444 17.8453 19.8907 17.9876 19.6053 18.272C19.32 18.5564 19.1778 18.9102 19.1787 19.3333C19.1795 19.7564 19.3218 20.1102 19.6053 20.3947C19.8889 20.6791 20.2427 20.8213 20.6667 20.8213ZM10.5133 22.6667H21.4867C22.1844 22.6667 22.7778 22.4222 23.2667 21.9333C23.7555 21.4444 24 20.8511 24 20.1533V16H7.99999V20.1547C7.99999 20.8516 8.24443 21.4444 8.73332 21.9333C9.22221 22.4222 9.81555 22.6667 10.5133 22.6667ZM16 7.38533H23.892H8.13866H16Z" fill="#303F5D"/>
</svg>
