<svg width="32" height="32" viewBox="0 0 32 32" fill="none" xmlns="http://www.w3.org/2000/svg">
<path d="M6.64 23V25C6.64 25.1893 6.57644 25.3476 6.44933 25.4747C6.32222 25.6018 6.164 25.6658 5.97467 25.6667H5.66667C5.47733 25.6667 5.31911 25.6027 5.192 25.4747C5.06489 25.3467 5.00089 25.1884 5 25V15.2053L7.64667 7.66667C7.71156 7.45511 7.83644 7.29067 8.02133 7.17333C8.20711 7.05778 8.41378 7 8.64133 7H22.7947C22.9964 7 23.18 7.06133 23.3453 7.184C23.5107 7.30667 23.6249 7.46756 23.688 7.66667L26.3333 15.2053V25C26.3333 25.1893 26.2693 25.3476 26.1413 25.4747C26.0133 25.6018 25.8551 25.6658 25.6667 25.6667H25.36C25.1707 25.6667 25.012 25.6027 24.884 25.4747C24.756 25.3467 24.692 25.1884 24.692 25V23H6.64ZM6.888 13.872H24.4467L22.4827 8.33333H8.852L6.888 13.872ZM9.57067 19.9227C9.98489 19.9227 10.3351 19.7778 10.6213 19.488C10.9084 19.1973 11.052 18.8444 11.052 18.4293C11.052 18.0151 10.9067 17.6649 10.616 17.3787C10.3253 17.0916 9.97289 16.948 9.55867 16.948C9.14356 16.948 8.79244 17.0933 8.50533 17.384C8.22 17.6747 8.07733 18.0271 8.07733 18.4413C8.07733 18.8564 8.22222 19.2076 8.512 19.4947C8.80267 19.78 9.15644 19.9227 9.57067 19.9227ZM21.776 19.9227C22.1902 19.9227 22.5404 19.7778 22.8267 19.488C23.1129 19.1973 23.256 18.8444 23.256 18.4293C23.256 18.0151 23.1111 17.6649 22.8213 17.3787C22.5307 17.0916 22.1782 16.948 21.764 16.948C21.3489 16.948 20.9978 17.0933 20.7107 17.384C20.4253 17.6747 20.2827 18.0271 20.2827 18.4413C20.2827 18.8564 20.4276 19.2076 20.7173 19.4947C21.008 19.78 21.3609 19.9227 21.776 19.9227ZM6.33333 21.6667H25V15.2053H6.33333V21.6667Z" fill="#303F5D"/>
</svg>
