<svg width="15" height="15" viewBox="0 0 15 15" fill="none" xmlns="http://www.w3.org/2000/svg">
<path d="M7.5 7.5C7.84375 7.5 8.13812 7.37771 8.38312 7.13313C8.62812 6.88854 8.75042 6.59417 8.75 6.25C8.74958 5.90583 8.62729 5.61167 8.38312 5.3675C8.13896 5.12333 7.84458 5.00083 7.5 5C7.15542 4.99917 6.86125 5.12167 6.6175 5.3675C6.37375 5.61333 6.25125 5.9075 6.25 6.25C6.24875 6.5925 6.37125 6.88688 6.6175 7.13313C6.86375 7.37938 7.15792 7.50167 7.5 7.5ZM7.5 12.0938C8.77083 10.9271 9.71354 9.86729 10.3281 8.91438C10.9427 7.96146 11.25 7.115 11.25 6.375C11.25 5.23958 10.8881 4.31 10.1644 3.58625C9.44062 2.8625 8.5525 2.50042 7.5 2.5C6.4475 2.49958 5.55958 2.86167 4.83625 3.58625C4.11292 4.31083 3.75083 5.24042 3.75 6.375C3.75 7.11458 4.05729 7.96104 4.67187 8.91438C5.28646 9.86771 6.22917 10.9275 7.5 12.0938ZM7.5 13.75C5.82292 12.3229 4.57042 10.9975 3.7425 9.77375C2.91458 8.55 2.50042 7.41708 2.5 6.375C2.5 4.8125 3.00271 3.56771 4.00812 2.64063C5.01354 1.71354 6.1775 1.25 7.5 1.25C8.8225 1.25 9.98667 1.71354 10.9925 2.64063C11.9983 3.56771 12.5008 4.8125 12.5 6.375C12.5 7.41667 12.086 8.54958 11.2581 9.77375C10.4302 10.9979 9.1775 12.3233 7.5 13.75Z" fill="#FAFAFA"/>
</svg>
