<svg width="18" height="18" viewBox="0 0 18 18" fill="none" xmlns="http://www.w3.org/2000/svg">
<path d="M11.4002 13.5162C11.4722 13.6242 11.5874 13.6817 11.7025 13.6817C11.7673 13.6817 11.8393 13.6601 11.8968 13.6242C12.0624 13.5162 12.1128 13.2931 12.0048 13.1275C10.4646 10.7597 10.623 7.97441 12.3862 6.14634L12.4582 6.07437C12.6022 5.93043 12.6022 5.70012 12.4582 5.55618C12.3143 5.41224 12.0768 5.41224 11.94 5.55618L11.8681 5.62815C10.04 7.39144 7.2475 7.54978 4.88685 6.0096C4.72131 5.90164 4.4982 5.95202 4.39024 6.11755C4.28229 6.28309 4.32547 6.5062 4.4982 6.61415C5.70732 7.40584 7.02439 7.79448 8.29828 7.79448C8.85966 7.79448 9.41383 7.71531 9.94642 7.56417L0.107957 17.3738C-0.0359856 17.5178 -0.0359856 17.7481 0.107957 17.892C0.179928 17.964 0.273491 18 0.367053 18C0.460616 18 0.554178 17.964 0.62615 17.892L10.4574 8.06078C9.96082 9.79528 10.2631 11.7601 11.4002 13.509V13.5162Z" fill="#303F5D"/>
<path d="M0.690924 0V10.4718C0.690924 10.6733 0.84926 10.8317 1.05078 10.8317C1.2523 10.8317 1.41064 10.6733 1.41064 10.4718V0.719712H17.2803V16.5894H7.52819C7.32667 16.5894 7.16833 16.7477 7.16833 16.9492C7.16833 17.1507 7.32667 17.3091 7.52819 17.3091H18V0H0.690924Z" fill="#303F5D"/>
</svg>
