<?xml version="1.0" encoding="UTF-8"?>
<svg id="_レイヤー_1" data-name="レイヤー_1" xmlns="http://www.w3.org/2000/svg" xmlns:xlink="http://www.w3.org/1999/xlink" version="1.1" viewBox="0 0 145 40">
  <!-- Generator: Adobe Illustrator 29.4.0, SVG Export Plug-In . SVG Version: 2.1.0 Build 152)  -->
  <defs>
    <style>
      .st0 {
        fill: none;
      }

      .st1 {
        fill: #303f5d;
      }

      .st2 {
        clip-path: url(#clippath);
      }
    </style>
    <clipPath id="clippath">
      <rect class="st0" width="144.4" height="40"/>
    </clipPath>
  </defs>
  <g class="st2">
    <g>
      <path class="st1" d="M23.2,30.7c0,.7-.3,1.4-.7,1.4s0-.3,0-.3c-.4,0-1.1.2-2,.1-.6,0-1.2-.2-2-.2s-1.3,0-2,0c-.6,0-1.3.3-2,.4,0,0,0-.3,0-.3-.4,0-.1-1.4.3-1.4,1.4-.2,2.5-.7,2.1-1.8-.4-1-.5-.9-.9-1.9-.4-1,.2-1.5-.7-2-.9-.6-1.2.1-2.3.1s-1.1,0-2.2,0-1.1,0-2.2,0-1.3-.7-2.2,0c-.9.7-.6,1-1,2.1s-.1,1.2-.5,2.3c-.3.9.4.7,2.2.8.6,0,.3,2.2-.3,2.2s0-.1,0-.1c-.8,0-1.5-.1-2.1-.1-.7,0-1.4,0-2.1,0-.6,0-1.3-.1-2.1,0-.2,0,0-.1,0-.4,0-.5,0-1.3.3-1.3,1-.3,1.7-.3,2.2-1.5.4-1,.2-1.1.6-2.1.4-1,.5-1,.9-2,.4-1,.3-1.1.7-2.1.4-1,.2-1.1.6-2.1.4-1,.4-1,.8-2,.4-1,.6-.9,1-2,.4-1,.2-1.1.6-2.1.4-1,.3-1,.7-2.1.4-1,.4-1,.8-2,.4-1,.4-1,.8-2,.3-.7,1.3-1.5,2-1.5s.8.2.9.6c.4,1.1.4,1.1.8,2.2.4,1.1.3,1.1.7,2.2.4,1.1.6,1,1,2.1.4,1.1.4,1.1.8,2.2.4,1.1.5,1.1.9,2.2.4,1.1.2,1.2.7,2.3.4,1.1.4,1.1.8,2.2.4,1.1.6,1,1,2.1.4,1.1.4,1.1.8,2.2.4,1.1.2,1.2.6,2.3.4.9,1,.7,1.8.8.2,0,.3.5.3.9h0ZM14.3,22.5c.7-.8-.5-.9-.8-1.9-.4-1-.1-1.1-.5-2.1-.4-1-.6-.9-1-1.9-.4-1-.2-1.1-.6-2-.4-1,.2-2.1-.8-2.1s-.2,1.2-.6,2.2c-.4,1-.7.9-1,1.9-.4,1-.3,1-.7,2-.4,1-.4,1-.8,2-.4,1-1.3,1.2-.6,2,.8.9,1.2.1,2.4.1s1.3-.4,2.5-.1c1.3.3,1.6.9,2.4,0h0Z"/>
      <path class="st1" d="M48.4,27.4c0,.3,0,.5-.1.8-.4.5-1,.9-1.6,1.4-.5.5-.9,1.1-1.5,1.4-.6.3-1.3.5-2,.7-.6.2-1.3.3-2,.4-.6,0-1.3.4-2.1.4s-1.5-.4-2.3-.6c-.8-.2-1.5-.3-2.2-.7-.7-.3-1.3-.7-1.9-1.2-.6-.5-1.3-.8-1.8-1.4-.5-.6-.8-1.3-1.2-2-.3-.7-.8-1.3-1-2.1-.2-.7-.4-1.4-.5-2.2,0-.7,0-1.5,0-2.3s0-1.5.1-2.2c0-.7.4-1.4.6-2.1.2-.7.2-1.5.5-2.2.3-.7.7-1.3,1.1-2,.4-.6.9-1.2,1.4-1.7.5-.5,1.2-.9,1.9-1.3.6-.4,1.3-.7,2-.9.7-.2,1.4-.5,2.2-.6.7-.1,1.5,0,2.2,0s1.6.1,2.3.3c.8.1,1.7,0,2.3.3.9.3,1.5,1,1.9,1.3.4.3.7.5.8,1.1.1.5.1,1.3.2,2.2,0,.8.3,1.6.3,2.2,0,.5-1.2,1-1.4.6-.3-.7-.6-1.3-1-1.8-.4-.6-.6-1.3-1.1-1.8-.5-.5-1.1-.8-1.7-1.1-.6-.3-1.2-.5-1.9-.7-.6-.1-1.3-.3-2-.3s-1.4,0-2,.3c-.6.2-1.1.7-1.6,1.2-.5.5-.8,1-1.1,1.6-.3.6-.6,1.2-.8,1.9-.2.6-.4,1.3-.5,2,0,.7,0,1.3,0,2.1s0,1.5,0,2.2c0,.8.2,1.5.4,2.1.2.8.2,1.5.5,2.1.3.7.7,1.4,1.1,1.9.5.6,1.1,1,1.7,1.4.6.5,1.2.8,1.9,1s1.4.6,2.1.6,1.3-.4,1.9-.6c.6-.2,1.2-.4,1.8-.7s1.1-.6,1.6-1.1c.5-.4.8-1,1.2-1.5.2-.2,1.2.5,1.2,1.3h0Z"/>
      <path class="st1" d="M74.7,27.4c0,.3,0,.5-.1.8-.4.5-1,.9-1.6,1.4-.5.5-.9,1.1-1.5,1.4-.6.3-1.3.5-2,.7-.6.2-1.3.3-2,.4-.6,0-1.3.4-2.1.4s-1.5-.4-2.3-.6c-.8-.2-1.5-.3-2.2-.7-.7-.3-1.3-.7-1.9-1.2-.6-.5-1.3-.8-1.8-1.4-.5-.6-.8-1.3-1.2-2-.3-.7-.8-1.3-1-2.1-.2-.7-.4-1.4-.5-2.2,0-.7,0-1.5,0-2.3s0-1.5.1-2.2c0-.7.4-1.4.6-2.1.2-.7.2-1.5.5-2.2.3-.7.7-1.3,1.1-2,.4-.6.9-1.2,1.4-1.7.5-.5,1.2-.9,1.9-1.3.6-.4,1.3-.7,2-.9.7-.2,1.4-.5,2.2-.6.7-.1,1.5,0,2.2,0s1.6.1,2.3.3c.8.1,1.7,0,2.3.3.9.3,1.5,1,1.9,1.3.4.3.7.5.8,1.1.1.5.1,1.3.2,2.2,0,.8.3,1.6.3,2.2,0,.5-1.2,1-1.4.6-.3-.7-.6-1.3-1-1.8-.4-.6-.6-1.3-1.1-1.8-.5-.5-1.1-.8-1.7-1.1-.6-.3-1.2-.5-1.9-.7-.6-.1-1.3-.3-2-.3s-1.4,0-2,.3c-.6.2-1.1.7-1.6,1.2-.5.5-.8,1-1.1,1.6-.3.6-.6,1.2-.8,1.9-.2.6-.4,1.3-.5,2,0,.7,0,1.3,0,2.1s0,1.5,0,2.2c0,.8.2,1.5.4,2.1.2.8.2,1.5.5,2.1.3.7.7,1.4,1.1,1.9.5.6,1.1,1,1.7,1.4.6.5,1.2.8,1.9,1,.7.2,1.4.6,2.1.6s1.3-.4,1.9-.6c.6-.2,1.2-.4,1.8-.7s1.1-.6,1.6-1.1c.5-.4.8-1,1.2-1.5.2-.2,1.2.5,1.2,1.3h0Z"/>
      <path class="st1" d="M99.9,25.6c0,0,0,.1,0,.2-.3,1.3-.6,1.2-.9,2.5-.3,1.3-.1,1.3-.4,2.6-.3.9-.8,1-1.3,1-.8,0-1.5,0-2.4,0s-1.6.3-2.4.3-1.6-.3-2.4-.3c-.8,0-1.6,0-2.4,0s-1.6,0-2.4,0c-.9,0-1.6.2-2.4.2-.9,0-1.7,0-2.3,0-.5,0-.2-1.5.2-1.6,1-.3,1.9-.5,1.9-1.7s0-1.1,0-2.2v-2.2c0-1.1.2-1.1.2-2.2s-.3-1.1-.3-2.2v-2.2c0-1.1,0-1.1,0-2.2s.1-1.1.1-2.2,0-1.1,0-2.2-.9-1-2.1-1.1c-.2,0-.2-.4-.2-.8s.2-1.1.6-1.1c.7,0,1.5-.2,2.3-.2.8,0,1.5.3,2.3.3s1.5-.2,2.3-.2,1.5.1,2.3.1,1.5-.1,2.3-.1,1.5-.2,2.3-.2,1.5,0,2.3,0c.3,0,.5.5.5.7.1,1.1.3,1.1.5,2.2.1,1.1.2,1.1.4,2.2.1.9-1.2,1.6-1.4.9-.4-1-.8-1.7-1.3-2.2-.8-.9-1.5-1.1-2.1-1.2-.5,0-1.3-.1-2.1-.2-.7,0-1.4,0-2.2,0-.7,0-1.5,0-2.2.1-.3,1.1.2,1.1.2,2.2s0,1.1,0,2.2,0,1.1,0,2.2-.9,1.4-.2,2.3c.7.7,1,0,2,0s1-.2,2-.2,1,0,2,0,1.6-1,1.9-2.4c0-.4,1.2-.4,1.2.2,0,1,0,1,0,2s0,1,0,2,.2,1,.2,2-1.6.4-1.7.1c-.2-1.4-.7-2-2.1-2s-1.3,0-2.6,0-1.7-.8-2.6.1c-.9.9,0,1.3,0,2.5s.2,1.3.2,2.5-.1,1.3-.1,2.5.1,1.1,1.1,1.2c.8,0,1.4,0,2,0s1.4-.1,2-.1c.8,0,1.4.1,2,0,.7-.1,1.3-.7,1.9-1.2.5-.4,1-1,1.4-1.7.3-.6.6-1.3,1-2,.2-.5,1.5,0,1.5.8h0Z"/>
      <path class="st1" d="M111.5,15.8c1.1.5,1.1.4,2.2.9,1.1.5,1,.7,2.1,1.2,1.1.5,1.2.3,2.3.8.7.3,1.1.8,1.6,1.2.5.5.9,1,1.2,1.5.3.6.8,1.1,1,1.7.2.7-.1,1.4-.1,2s0,1.4-.2,2.1c-.1.7-.4,1.3-.8,1.9-.3.6-.6,1.2-1.2,1.7-.5.4-1.1.7-1.8,1-.6.3-1.2.6-2,.7-.6.1-1.3.2-2.1.2s-1.3-.1-2-.2c-.7,0-1.4-.2-2-.4-.8-.2-1.4-.6-1.8-.9-.7-.4-1.3-.4-1.7-.7-.5-.4-.8-.9-.8-1.7s0-.3,0-.7c0-.7.1-1.5.2-2.3,0-.8.2-1.7.3-2.3,0-.5,1.2-.5,1.3-.3.2.8.2,1.5.4,2.1.3.7.5,1.4.9,1.9.4.5,1,.8,1.6,1.3.7.6,1.3,1.3,2,1.5.7.2,1.6.1,2.5.1s1.8-.2,2.3-.6c.7-.5,1.1-1.3,1.3-2,.2-.8,0-1.6-.3-2.3-.3-.7-.7-1.3-1.5-1.7-1-.5-.9-.7-1.9-1.2-1-.5-1.1-.3-2.1-.8-1-.5-1.1-.4-2.1-.9-.7-.3-1.3-.7-1.8-1.1-.6-.4-1-1-1.4-1.6-.4-.6-.7-1.2-.9-1.9-.1-.6-.2-1.4-.2-2.1s.2-1.7.4-2.4.8-1.4,1.3-2.1c.5-.6,1-1.3,1.7-1.7.7-.4,1.5-.6,2.3-.8.7-.2,1.5-.3,2.4-.3s1.3.3,2,.4c.7.1,1.3.3,1.9.5.7.2,1.4.3,1.9.6.4.3.5.8.7,2.4,0,.6-.2,1.5,0,2.5,0,.5-.9,1.2-1.2.7-.4-.7-.7-1.3-1-1.8-.4-.6-.8-1.2-1.3-1.6-.5-.5-1.2-.6-1.9-.9-.6-.2-1.3-.3-2-.3s-1.7,0-2.3.5c-.6.5-1,1.3-1.2,2.1-.2.8,0,1.6.3,2.3.3.7.8,1.3,1.6,1.6h0Z"/>
      <path class="st1" d="M134.1,15.8c1.1.5,1.1.4,2.2.9,1.1.5,1,.7,2.1,1.2,1.1.5,1.2.3,2.3.8.7.3,1.1.8,1.6,1.2.5.5.9,1,1.2,1.5.3.6.8,1.1,1,1.7.2.7-.1,1.4-.1,2s0,1.4-.2,2.1c-.1.7-.4,1.3-.8,1.9-.3.6-.6,1.2-1.2,1.7-.5.4-1.1.7-1.8,1-.6.3-1.2.6-2,.7-.6.1-1.3.2-2.1.2s-1.3-.1-2-.2c-.7,0-1.4-.2-2-.4-.8-.2-1.4-.6-1.8-.9-.7-.4-1.3-.4-1.7-.7-.5-.4-.8-.9-.8-1.7s0-.3,0-.7c0-.7.1-1.5.2-2.3,0-.8.2-1.7.3-2.3,0-.5,1.2-.5,1.3-.3.2.8.2,1.5.4,2.1.3.7.5,1.4.9,1.9.4.5,1,.8,1.6,1.3.7.6,1.3,1.3,2,1.5.7.2,1.6.1,2.5.1s1.8-.2,2.3-.6c.7-.5,1.1-1.3,1.3-2,.2-.8,0-1.6-.3-2.3-.3-.7-.7-1.3-1.5-1.7-1-.5-.9-.7-1.9-1.2-1-.5-1.1-.3-2.1-.8-1-.5-1.1-.4-2.1-.9-.7-.3-1.3-.7-1.8-1.1-.6-.4-1-1-1.4-1.6-.4-.6-.7-1.2-.9-1.9-.1-.6-.2-1.4-.2-2.1s.2-1.7.4-2.4c.2-.7.8-1.4,1.3-2.1.5-.6,1-1.3,1.7-1.7.7-.4,1.5-.6,2.3-.8.7-.2,1.5-.3,2.4-.3s1.3.3,2,.4c.7.1,1.3.3,1.9.5.7.2,1.4.3,1.9.6.4.3.5.8.7,2.4,0,.6-.2,1.5,0,2.5,0,.5-.9,1.2-1.2.7-.4-.7-.7-1.3-1-1.8-.4-.6-.8-1.2-1.3-1.6-.5-.5-1.2-.6-1.9-.9-.6-.2-1.3-.3-2-.3s-1.7,0-2.3.5c-.6.5-1,1.3-1.2,2.1-.2.8,0,1.6.3,2.3.3.7.8,1.3,1.6,1.6h0Z"/>
    </g>
  </g>
</svg>