<svg width="244" height="40" viewBox="0 0 244 40" fill="none" xmlns="http://www.w3.org/2000/svg">
<path d="M20.83 25.6002C20.83 25.6802 20.8967 25.7202 20.8833 25.8002C20.55 27.0802 20.2832 27.0135 19.9499 28.2935C19.6165 29.5735 19.8432 29.6402 19.5098 30.9202C19.2564 31.8535 18.7097 31.8802 18.2429 31.8802C17.4828 31.8669 16.696 31.7869 15.8825 31.7869C15.0691 31.7869 14.3089 32.0535 13.5221 32.0535C12.7353 32.0535 11.9486 31.7202 11.1618 31.7069C10.375 31.6935 9.56149 31.7469 8.80137 31.7469C7.9879 31.7469 7.18777 31.7069 6.44098 31.7202C5.58751 31.7202 4.80071 31.9069 4.08059 31.9202C3.14711 31.9335 2.34698 31.8402 1.73354 31.8535C1.28014 31.8535 1.54685 30.3069 1.93358 30.2269C2.9204 29.9735 3.82722 29.7602 3.82722 28.5202C3.82722 27.4135 3.8939 27.4135 3.8939 26.3069C3.8939 25.2002 3.8939 25.2002 3.8939 24.0935C3.8939 22.9869 4.09393 22.9869 4.09393 21.8802C4.09393 20.7735 3.78721 20.7735 3.78721 19.6535C3.78721 18.5335 3.78721 18.5469 3.78721 17.4402C3.78721 16.3335 3.74721 16.3335 3.74721 15.2135C3.74721 14.0935 3.86723 14.0935 3.86723 12.9869C3.86723 11.8802 3.8939 11.8669 3.8939 10.7602C3.8939 9.65354 3.01375 9.74688 1.74688 9.70688C1.53351 9.70688 1.52017 9.32021 1.52017 8.93354C1.52017 8.38688 1.6802 7.85354 2.13361 7.85354C2.8804 7.86688 3.64052 7.61354 4.40065 7.62687C5.16077 7.64021 5.90756 7.97354 6.65435 7.97354C7.40114 7.97354 8.16126 7.77354 8.92139 7.77354C9.68151 7.77354 10.4283 7.88021 11.1884 7.88021C11.9486 7.88021 12.6953 7.77354 13.4555 7.76021C14.2156 7.74688 14.9624 7.58687 15.7225 7.57354C16.4826 7.56021 17.2294 7.56021 17.9895 7.54688C18.2696 7.54688 18.4429 8.01354 18.483 8.26688C18.6296 9.38688 18.803 9.36021 18.9497 10.4669C19.0964 11.5735 19.1631 11.5735 19.3098 12.6802C19.4164 13.5335 18.0696 14.2669 17.8695 13.6269C17.4561 12.6269 17.0561 11.9202 16.616 11.3869C15.8292 10.4402 15.0691 10.2802 14.4823 10.2002C13.9355 10.1202 13.2021 10.0535 12.3353 10.0269C11.6685 10.0135 10.9351 9.96021 10.1749 10.0002C9.46814 10.0402 8.69468 10.0002 7.97457 10.1069C7.65451 11.1602 8.1746 11.2135 8.1746 12.3202C8.1746 13.4269 8.10792 13.4269 8.10792 14.5202C8.10792 15.6135 8.16126 15.6269 8.16126 16.7335C8.16126 17.8402 7.22778 18.1602 7.97457 18.9869C8.64134 19.7202 9.01474 18.9869 10.0149 18.9869C11.0151 18.9869 11.0151 18.7602 12.0019 18.7602C12.9887 18.7602 13.0021 18.7869 13.9889 18.7869C14.949 18.7869 15.5491 17.7469 15.8425 16.4269C15.9092 16.0402 17.0694 16.0535 17.0694 16.6135C17.0694 17.6269 17.0027 17.6269 17.0027 18.6535C17.0027 19.6802 16.9094 19.6669 16.9094 20.6935C16.9094 21.7202 17.0694 21.7069 17.0694 22.7335C17.0694 23.5869 15.4425 23.1735 15.4024 22.8802C15.1891 21.4402 14.7223 20.9202 13.2821 20.9202C11.9619 20.9202 11.9619 20.9735 10.655 20.9735C9.34812 20.9735 8.97473 20.1735 8.02791 21.0802C7.08109 21.9869 7.9479 22.3335 7.9479 23.5869C7.9479 24.8402 8.12126 24.8402 8.12126 26.1069C8.12126 27.3735 8.00124 27.3602 8.00124 28.6269C8.00124 29.3469 8.12126 29.7469 9.10809 29.7869C9.86821 29.8135 10.535 29.8269 11.1351 29.8269C11.9085 29.8269 12.5753 29.7202 13.1621 29.7069C13.9222 29.6802 14.5756 29.8135 15.2024 29.7202C15.9492 29.6135 16.4826 29.0535 17.0561 28.5202C17.5228 28.0802 18.0295 27.5602 18.4563 26.8269C18.7897 26.2535 19.0697 25.5735 19.4164 24.8269C19.6298 24.3602 20.8967 24.8535 20.8967 25.6135L20.83 25.6002Z" fill="#303F5D"/>
<path d="M47.8743 30.6405C47.8743 31.1872 47.5809 32.0938 47.1542 32.0938C47.1142 32.0938 47.1275 31.8272 47.0875 31.8138C46.8475 31.8005 46.1273 31.9872 44.9671 31.9472C44.3804 31.9338 43.6736 31.7472 42.8601 31.7472C42.22 31.7472 41.5132 31.7072 40.7398 31.7205C40.0863 31.7338 39.3929 32.0538 38.6328 32.0938C38.5928 32.0938 38.5928 31.7738 38.5528 31.7738C38.206 31.7738 38.4727 30.5338 38.8861 30.4538C40.6598 30.1605 41.0465 29.6938 40.273 28.5072C39.5796 27.4672 39.4329 27.5738 38.7395 26.5472C38.046 25.5205 38.1394 25.4405 37.4459 24.4138C36.7525 23.3872 37.1925 22.6538 35.9657 22.4405C34.9788 22.2672 35.4723 23.2672 34.8988 24.0938C34.3254 24.9205 34.2721 24.8805 33.6986 25.6938C33.1252 26.5072 33.1252 26.5205 32.5518 27.3338C31.9783 28.1472 31.8183 28.0405 31.2449 28.8538C30.7115 29.6138 31.6183 29.8538 33.2852 29.8938C33.8453 29.8938 33.6319 32.1072 32.9652 32.1072C32.9252 32.1072 32.9252 32.1472 32.8852 32.1472C32.0717 32.0938 31.2849 31.9472 30.5248 31.9205C29.6846 31.8938 28.8978 31.8672 28.1511 31.8805C27.2842 31.8938 26.4974 31.9872 25.7907 32.0538C25.6173 32.0538 25.6573 31.7472 25.6573 31.4938C25.6573 30.9872 25.804 30.3738 26.084 30.3338C27.1376 30.1605 27.5109 29.8538 28.2844 28.7472C28.8978 27.8938 29.1646 28.0805 29.778 27.2405C30.3914 26.4005 30.2314 26.2672 30.8448 25.4272C31.4583 24.5872 31.5516 24.6405 32.165 23.7872C32.7785 22.9338 32.6985 22.8805 33.3252 22.0272C33.952 21.1738 34.4054 21.3872 34.4054 20.3338C34.4054 19.2272 33.832 19.5072 33.2185 18.5872C32.6051 17.6672 32.8051 17.5338 32.1917 16.6138C31.5783 15.6938 31.4316 15.7872 30.8182 14.8672C30.2047 13.9472 30.1514 13.9738 29.5246 13.0538C28.8978 12.1338 28.9378 12.1072 28.3244 11.1872C27.5109 9.96051 26.8442 9.76051 26.0307 9.68051C25.4706 9.64051 25.684 7.52051 26.3508 7.52051C26.3908 7.52051 26.3908 7.52051 26.4308 7.52051C27.0575 7.56051 27.7377 7.66717 28.4444 7.68051C29.0979 7.69384 29.778 7.85384 30.4581 7.85384C31.1382 7.85384 31.805 7.64051 32.4851 7.62717C33.1652 7.61384 33.8587 7.64051 34.5121 7.60051C34.9655 7.60051 34.7121 9.49384 34.3254 9.53384C32.6585 9.70717 32.3117 9.72051 32.8051 10.4805C33.3652 11.3205 33.3652 11.3205 33.9253 12.1472C34.4854 12.9738 34.6588 12.8672 35.2189 13.7072C35.779 14.5472 35.7523 14.5738 36.3124 15.4138C36.8725 16.2538 36.3124 17.2805 37.3392 17.3072C38.3661 17.3338 37.766 16.2405 38.3261 15.4405C38.8861 14.6405 38.9395 14.6672 39.4996 13.8538C40.0597 13.0405 40.1397 13.0938 40.6998 12.2805C41.2599 11.4672 41.1398 11.3872 41.6866 10.5605C42.0733 9.96051 41.7266 9.70717 39.993 9.70717C39.4329 9.70717 39.6463 7.85384 40.313 7.85384C40.3531 7.85384 40.3397 7.80051 40.3797 7.80051C41.1398 7.85384 41.9133 7.78717 42.6868 7.80051C43.4602 7.81384 44.2204 7.90717 44.9938 7.88051C45.7673 7.85384 46.5274 7.65384 47.3009 7.60051C47.7543 7.60051 47.4742 9.29384 47.0875 9.37384C45.7139 9.62717 45.2072 9.86717 44.3537 11.0938C43.8825 11.7694 43.4113 12.4405 42.9401 13.1072C42.2334 14.1205 42.3134 14.1738 41.5933 15.1738C40.8731 16.1738 40.7131 16.0672 40.0063 17.0805C39.2995 18.0938 38.8728 17.9605 38.8195 19.2005C38.7661 20.3072 39.3396 20.1205 39.953 21.0405C40.5664 21.9605 40.6198 21.9338 41.2332 22.8538C41.8466 23.7738 41.7666 23.8405 42.3801 24.7605C42.9935 25.6805 43.1535 25.5872 43.7669 26.5072C44.3804 27.4272 44.127 27.6005 44.7404 28.5338C45.5139 29.7205 46.434 30.0538 47.4876 30.1872C47.6609 30.1872 47.8343 30.2938 47.8343 30.6405H47.8743Z" fill="#303F5D"/>
<path d="M71.8783 15.9198C71.8783 16.7065 71.8783 17.5065 71.6782 18.2265C71.4782 18.9465 70.9315 19.5732 70.5181 20.2132C70.1047 20.8532 69.7846 21.5732 69.1578 22.0532C68.5844 22.5065 67.8376 22.7332 67.0775 23.0265C66.4107 23.2798 65.6773 23.4132 64.8638 23.5332C64.157 23.6398 63.4102 23.9732 62.5968 23.9465C61.8766 23.9332 61.1565 23.5465 60.3431 23.4265C59.983 23.3465 60.2897 22.2665 60.7164 22.2265C61.4632 22.1865 62.17 22.1332 62.7968 21.9865C63.5302 21.8265 64.1303 21.4265 64.6904 21.1198C65.3305 20.7732 65.944 20.4265 66.3574 19.8932C66.7708 19.3598 66.9441 18.6798 67.1308 17.9732C67.2909 17.3598 67.3175 16.6932 67.3309 15.9465C67.3309 15.0665 67.2909 14.2532 67.0775 13.5198C66.8375 12.6932 66.4507 11.9732 65.944 11.3732C65.4372 10.7732 64.8371 10.1065 64.037 9.79984C63.3302 9.51984 62.4767 9.66651 61.5566 9.66651C60.4231 9.66651 59.7963 9.75984 59.2229 10.0532C58.9828 11.0798 59.2629 11.0665 59.2629 12.1198C59.2629 13.1732 59.1429 13.1732 59.1429 14.2265C59.1429 15.2798 59.1162 15.2798 59.1162 16.3332C59.1162 17.3865 59.1695 17.3865 59.1695 18.4398C59.1695 19.4932 58.9962 19.4932 58.9962 20.5465C58.9962 21.5998 58.9295 21.5998 58.9295 22.6532C58.9295 23.7065 59.2095 23.7065 59.2095 24.7732C59.2095 25.8398 58.8895 25.8265 58.8895 26.8932C58.8895 27.9598 59.1029 27.9465 59.1029 29.0132C59.1029 29.5332 59.5696 29.8398 60.6498 29.9465C61.1699 29.9998 61.8233 29.9198 62.6234 29.9332C63.1835 29.9332 62.9702 32.1332 62.3034 32.1332C62.2634 32.1332 62.2634 32.1332 62.2234 32.1198C61.5699 32.0798 60.7698 31.7998 59.8763 31.7732C59.1295 31.7598 58.3161 31.9198 57.5159 31.9198C56.7158 31.9198 55.9157 31.9865 55.1555 32.0132C54.2887 32.0398 53.4753 32.0132 52.8085 32.0665C52.6351 32.0665 52.4751 31.7465 52.4751 31.4532C52.4751 30.9865 52.7151 30.1332 52.9685 30.0932C54.0354 29.8398 54.8888 29.7598 54.8888 28.5332C54.8888 27.4265 54.9555 27.4265 54.9555 26.3198C54.9555 25.2132 55.1022 25.2132 55.1022 24.1065C55.1022 22.9998 54.9022 22.9998 54.9022 21.8932C54.9022 20.7865 54.9688 20.7865 54.9688 19.6665C54.9688 18.5465 54.9155 18.5598 54.9155 17.4532C54.9155 16.3465 55.1155 16.3465 55.1155 15.2265C55.1155 14.1065 55.1155 14.1065 55.1155 12.9998C55.1155 11.8932 54.9022 11.8798 54.9022 10.7732C54.9022 9.66651 54.142 9.78651 52.9018 9.74651C52.6885 9.74651 52.7418 9.33317 52.7418 8.94651C52.7418 8.39984 52.8485 7.50651 53.3019 7.54651C54.142 7.57317 54.8755 7.65318 55.5423 7.66651C56.3957 7.66651 57.1292 7.74651 57.796 7.73318C58.6361 7.70651 59.3562 7.50651 60.0363 7.46651C60.9565 7.42651 61.85 7.46651 62.8368 7.46651C63.6769 7.46651 64.4237 7.78651 65.1438 7.91984C65.9706 8.05318 66.7041 8.21318 67.3709 8.50651C68.131 8.82651 68.8244 9.14651 69.3845 9.63984C69.9446 10.1332 70.3714 10.8132 70.7581 11.5065C71.1448 12.1998 71.5449 12.8398 71.7183 13.6398C71.8783 14.3598 71.9049 15.1598 71.9049 15.9865L71.8783 15.9198Z" fill="#303F5D"/>
<path d="M97.6161 25.6002C97.6161 25.6802 97.6828 25.7202 97.6695 25.8002C97.3361 27.0802 97.0694 27.0135 96.736 28.2935C96.4026 29.5735 96.6293 29.6402 96.2959 30.9202C96.0425 31.8535 95.4958 31.8802 95.0291 31.8802C94.2689 31.8669 93.4821 31.7869 92.6687 31.7869C91.8552 31.7869 91.0951 32.0535 90.3083 32.0535C89.5215 32.0535 88.7347 31.7202 87.9479 31.7069C87.1611 31.6935 86.3476 31.7469 85.5875 31.7469C84.774 31.7469 83.9739 31.7069 83.2271 31.7202C82.3736 31.7202 81.5868 31.9069 80.8667 31.9202C79.9332 31.9335 79.1331 31.8402 78.5197 31.8535C78.0663 31.8535 78.333 30.3069 78.7197 30.2269C79.7065 29.9735 80.6134 29.7602 80.6134 28.5202C80.6134 27.4135 80.68 27.4135 80.68 26.3069C80.68 25.2002 80.68 25.2002 80.68 24.0935C80.68 22.9869 80.8801 22.9869 80.8801 21.8802C80.8801 20.7735 80.5733 20.7735 80.5733 19.6535C80.5733 18.5335 80.5733 18.5469 80.5733 17.4402C80.5733 16.3335 80.5333 16.3335 80.5333 15.2135C80.5333 14.0935 80.6534 14.0935 80.6534 12.9869C80.6534 11.8802 80.68 11.8669 80.68 10.7602C80.68 9.65354 79.7999 9.74688 78.533 9.70688C78.3196 9.70688 78.3063 9.32021 78.3063 8.93354C78.3063 8.38688 78.4663 7.85354 78.9197 7.85354C79.6665 7.86688 80.4267 7.61354 81.1868 7.62687C81.9469 7.64021 82.6937 7.97354 83.4405 7.97354C84.1873 7.97354 84.9474 7.77354 85.7075 7.77354C86.4676 7.77354 87.2144 7.88021 87.9746 7.88021C88.7347 7.88021 89.4815 7.77354 90.2416 7.76021C91.0017 7.74688 91.7485 7.58687 92.5086 7.57354C93.2688 7.56021 94.0155 7.56021 94.7757 7.54688C95.0557 7.54688 95.2291 8.01354 95.2691 8.26688C95.4158 9.38688 95.5891 9.36021 95.7358 10.4669C95.8825 11.5735 95.9492 11.5735 96.0959 12.6802C96.2026 13.5335 94.8557 14.2669 94.6557 13.6269C94.2423 12.6269 93.8422 11.9202 93.4021 11.3869C92.6153 10.4402 91.8552 10.2802 91.2684 10.2002C90.7217 10.1202 89.9882 10.0535 89.1214 10.0269C88.4546 10.0135 87.7212 9.96021 86.9611 10.0002C86.2543 10.0402 85.4808 10.0002 84.7607 10.1069C84.4406 11.1602 84.9607 11.2135 84.9607 12.3202C84.9607 13.4269 84.8941 13.4269 84.8941 14.5202C84.8941 15.6135 84.9474 15.6269 84.9474 16.7335C84.9474 17.8402 84.0139 18.1602 84.7607 18.9869C85.4275 19.7202 85.8009 18.9869 86.801 18.9869C87.8012 18.9869 87.8012 18.7602 88.788 18.7602C89.7749 18.7602 89.7882 18.7869 90.775 18.7869C91.7352 18.7869 92.3353 17.7469 92.6287 16.4269C92.6953 16.0402 93.8555 16.0535 93.8555 16.6135C93.8555 17.6269 93.7888 17.6269 93.7888 18.6535C93.7888 19.6802 93.6955 19.6669 93.6955 20.6935C93.6955 21.7202 93.8555 21.7069 93.8555 22.7335C93.8555 23.5869 92.2286 23.1735 92.1886 22.8802C91.9752 21.4402 91.5085 20.9202 90.0682 20.9202C88.748 20.9202 88.748 20.9735 87.4411 20.9735C86.1343 20.9735 85.7609 20.1735 84.814 21.0802C83.8672 21.9869 84.734 22.3335 84.734 23.5869C84.734 24.8402 84.9074 24.8402 84.9074 26.1069C84.9074 27.3735 84.7874 27.3602 84.7874 28.6269C84.7874 29.3469 84.9074 29.7469 85.8942 29.7869C86.6543 29.8135 87.3211 29.8269 87.9212 29.8269C88.6947 29.8269 89.3614 29.7202 89.9482 29.7069C90.7083 29.6802 91.3618 29.8135 91.9886 29.7202C92.7353 29.6135 93.2688 29.0535 93.8422 28.5202C94.3089 28.0802 94.8157 27.5602 95.2424 26.8269C95.5758 26.2535 95.8559 25.5735 96.2026 24.8269C96.4159 24.3602 97.6828 24.8535 97.6828 25.6135L97.6161 25.6002Z" fill="#303F5D"/>
<path d="M124.514 29.8001C124.514 29.9735 124.54 30.2668 124.46 30.3601C123.98 30.9468 123.1 31.2801 122.327 31.6801C121.553 32.0801 120.74 32.5868 120.006 32.5868C119.366 32.5868 118.873 32.2268 118.393 31.8935C117.953 31.5868 117.619 31.1335 117.206 30.6268C116.579 29.8135 116.352 29.9868 115.726 29.1601C115.099 28.3335 115.366 28.1468 114.739 27.3201C114.112 26.4935 114.085 26.5201 113.459 25.7068C112.832 24.8935 112.858 24.8535 112.245 24.0401C111.632 23.2268 111.512 23.2935 110.858 22.4935C110.431 22.1068 110.898 20.9335 111.432 20.9735C112.338 21.0801 113.125 20.9335 113.805 20.8401C114.712 20.7201 115.379 20.3868 115.912 19.9201C116.499 19.4268 116.912 18.8268 117.139 17.9868C117.326 17.3068 117.406 16.5335 117.406 15.6401C117.406 14.7468 117.473 13.9735 117.259 13.2935C117.006 12.4935 116.366 11.9735 115.886 11.4135C115.366 10.8135 114.779 10.3868 114.085 10.0801C113.392 9.77346 112.672 9.65346 111.885 9.65346C111.098 9.65346 110.418 9.61346 109.671 9.88012C109.351 10.9068 109.645 10.9335 109.645 12.0135C109.645 13.0935 109.698 13.0935 109.698 14.1735C109.698 15.2535 109.525 15.2535 109.525 16.3335C109.525 17.4135 109.458 17.4135 109.458 18.4935C109.458 19.5735 109.738 19.5735 109.738 20.6535C109.738 21.7335 109.418 21.7335 109.418 22.8135C109.418 23.8935 109.631 23.8935 109.631 24.9735C109.631 26.0535 109.525 26.0535 109.525 27.1468C109.525 28.2401 109.631 28.2268 109.631 29.3201C109.631 30.0001 110.351 29.8135 112.365 29.8668C112.925 29.8668 112.712 32.1601 111.965 32.1201C111.218 32.0801 110.511 31.8135 109.831 31.7868C109.085 31.7601 108.364 31.9201 107.684 31.9201C106.938 31.9201 106.231 31.9868 105.537 32.0001C104.804 32.0268 104.097 32.0001 103.404 32.0535C102.95 32.0935 103.204 30.2668 103.59 30.1868C104.577 29.9335 105.404 29.7468 105.404 28.5201C105.404 27.4135 105.404 27.4135 105.404 26.3068C105.404 25.2001 105.471 25.2001 105.471 24.0935C105.471 22.9868 105.617 22.9868 105.617 21.8801C105.617 20.7735 105.417 20.7735 105.417 19.6535C105.417 18.5335 105.484 18.5468 105.484 17.4401C105.484 16.3335 105.431 16.3335 105.431 15.2135C105.431 14.0935 105.631 14.0935 105.631 12.9868C105.631 11.8801 105.631 11.8668 105.631 10.7601C105.631 9.65346 104.644 9.81346 103.377 9.77346C103.164 9.77346 102.95 9.32012 102.95 8.93346C102.95 8.38679 103.31 7.81346 103.764 7.85346C104.63 7.90679 105.377 7.60012 106.044 7.60012C106.911 7.60012 107.631 7.64012 108.324 7.60012C109.111 7.56012 109.831 7.60012 110.591 7.53346C111.272 7.49346 112.005 7.29346 112.858 7.29346C113.645 7.29346 114.392 7.42679 115.059 7.52012C115.846 7.64012 116.486 8.08012 117.113 8.30679C117.859 8.58679 118.473 8.88012 119.006 9.29346C119.606 9.76012 120.153 10.2268 120.526 10.8268C120.9 11.4268 121.1 12.1601 121.273 12.8668C121.447 13.5735 121.687 14.2801 121.687 15.0135C121.687 15.7468 121.513 16.4001 121.393 17.0401C121.26 17.7335 121.02 18.3468 120.713 18.9335C120.406 19.5201 120.02 20.0668 119.5 20.5335C119.033 20.9601 118.526 21.4135 117.859 21.7068C117.286 21.9601 116.472 22.1735 115.752 22.3201C116.072 23.3201 116.632 23.0268 117.286 23.8401C117.939 24.6535 117.859 24.7201 118.513 25.5468C119.166 26.3735 119.193 26.3468 119.86 27.1468C120.58 27.9735 121.087 28.5601 121.647 28.8401C122.353 29.2001 123.073 29.0535 124.074 28.9601C124.327 28.9201 124.487 29.4268 124.487 29.7601L124.514 29.8001Z" fill="#303F5D"/>
<path d="M138.73 30.7338C138.73 31.2805 138.476 32.0938 138.049 32.0938C138.009 32.0938 138.023 31.8272 137.983 31.8138C137.689 31.8005 136.903 32.0005 135.836 31.9605C135.209 31.9472 134.475 31.7472 133.689 31.7472C133.009 31.7472 132.275 31.6938 131.542 31.7205C130.808 31.7472 130.128 32.0672 129.408 32.1072C128.955 32.1072 129.261 30.5072 129.648 30.4138C131.102 30.1605 131.995 29.7338 131.995 28.5072C131.995 27.4005 132.035 27.4005 132.035 26.2938C132.035 25.1872 131.862 25.1872 131.862 24.0805C131.862 22.9738 131.982 22.9738 131.982 21.8672C131.982 20.7605 131.835 20.7605 131.835 19.6405C131.835 18.5205 131.782 18.5338 131.782 17.4272C131.782 16.3205 131.848 16.3205 131.848 15.2005C131.848 14.0805 131.848 14.0805 131.848 12.9738C131.848 11.8672 132.048 11.8538 132.048 10.7472C132.048 9.64051 130.968 9.80051 129.421 9.76051C129.208 9.76051 128.955 9.34717 128.955 8.93384C128.955 8.33384 129.355 7.52051 129.741 7.52051C129.781 7.52051 129.781 7.64051 129.821 7.64051C130.061 7.65384 130.848 7.72051 131.955 7.76051C132.582 7.77384 133.315 7.74717 134.102 7.74717C134.782 7.74717 135.516 7.92051 136.249 7.89384C136.983 7.86717 137.689 7.90717 138.396 7.86717C138.85 7.86717 138.596 9.45384 138.196 9.53384C136.743 9.78717 135.716 9.92051 135.716 11.1472C135.716 12.2538 135.929 12.2538 135.929 13.3605C135.929 14.4672 135.822 14.4672 135.822 15.5738C135.822 16.6805 135.929 16.6805 135.929 17.7872C135.929 18.8938 136.089 18.8938 136.089 20.0138C136.089 21.1338 136.076 21.1205 136.076 22.2272C136.076 23.3338 135.836 23.3338 135.836 24.4538C135.836 25.5738 136.009 25.5738 136.009 26.6805C136.009 27.7872 136.062 27.8005 136.062 28.9072C136.062 30.0138 136.836 29.9072 138.383 29.9472C138.596 29.9472 138.743 30.3472 138.743 30.7338H138.73Z" fill="#303F5D"/>
<path d="M163.827 25.6002C163.827 25.6802 163.894 25.7202 163.88 25.8002C163.547 27.0802 163.28 27.0135 162.947 28.2935C162.614 29.5735 162.84 29.6402 162.507 30.9202C162.253 31.8535 161.707 31.8802 161.24 31.8802C160.48 31.8669 159.693 31.7869 158.88 31.7869C158.066 31.7869 157.306 32.0535 156.519 32.0535C155.732 32.0535 154.946 31.7202 154.159 31.7069C153.372 31.6935 152.559 31.7469 151.798 31.7469C150.985 31.7469 150.185 31.7069 149.438 31.7202C148.585 31.7202 147.798 31.9069 147.078 31.9202C146.144 31.9335 145.344 31.8402 144.731 31.8535C144.277 31.8535 144.544 30.3069 144.931 30.2269C145.917 29.9735 146.824 29.7602 146.824 28.5202C146.824 27.4135 146.891 27.4135 146.891 26.3069C146.891 25.2002 146.891 25.2002 146.891 24.0935C146.891 22.9869 147.091 22.9869 147.091 21.8802C147.091 20.7735 146.784 20.7735 146.784 19.6535C146.784 18.5335 146.784 18.5469 146.784 17.4402C146.784 16.3335 146.744 16.3335 146.744 15.2135C146.744 14.0935 146.864 14.0935 146.864 12.9869C146.864 11.8802 146.891 11.8669 146.891 10.7602C146.891 9.65354 146.011 9.74688 144.744 9.70688C144.531 9.70688 144.517 9.32021 144.517 8.93354C144.517 8.38688 144.677 7.85354 145.131 7.85354C145.877 7.86688 146.638 7.61354 147.398 7.62687C148.158 7.64021 148.905 7.97354 149.651 7.97354C150.398 7.97354 151.158 7.77354 151.918 7.77354C152.679 7.77354 153.425 7.88021 154.186 7.88021C154.946 7.88021 155.692 7.77354 156.453 7.76021C157.213 7.74688 157.959 7.58687 158.72 7.57354C159.48 7.56021 160.226 7.56021 160.987 7.54688C161.267 7.54688 161.44 8.01354 161.48 8.26688C161.627 9.38688 161.8 9.36021 161.947 10.4669C162.093 11.5735 162.16 11.5735 162.307 12.6802C162.414 13.5335 161.067 14.2669 160.867 13.6269C160.453 12.6269 160.053 11.9202 159.613 11.3869C158.826 10.4402 158.066 10.2802 157.479 10.2002C156.933 10.1202 156.199 10.0535 155.332 10.0269C154.666 10.0135 153.932 9.96021 153.172 10.0002C152.465 10.0402 151.692 10.0002 150.972 10.1069C150.652 11.1602 151.172 11.2135 151.172 12.3202C151.172 13.4269 151.105 13.4269 151.105 14.5202C151.105 15.6135 151.158 15.6269 151.158 16.7335C151.158 17.8402 150.225 18.1602 150.972 18.9869C151.638 19.7202 152.012 18.9869 153.012 18.9869C154.012 18.9869 154.012 18.7602 154.999 18.7602C155.986 18.7602 155.999 18.7869 156.986 18.7869C157.946 18.7869 158.546 17.7469 158.84 16.4269C158.906 16.0402 160.066 16.0535 160.066 16.6135C160.066 17.6269 160 17.6269 160 18.6535C160 19.6802 159.906 19.6669 159.906 20.6935C159.906 21.7202 160.066 21.7069 160.066 22.7335C160.066 23.5869 158.44 23.1735 158.4 22.8802C158.186 21.4402 157.719 20.9202 156.279 20.9202C154.959 20.9202 154.959 20.9735 153.652 20.9735C152.345 20.9735 151.972 20.1735 151.025 21.0802C150.078 21.9869 150.945 22.3335 150.945 23.5869C150.945 24.8402 151.118 24.8402 151.118 26.1069C151.118 27.3735 150.998 27.3602 150.998 28.6269C150.998 29.3469 151.118 29.7469 152.105 29.7869C152.865 29.8135 153.532 29.8269 154.132 29.8269C154.906 29.8269 155.572 29.7202 156.159 29.7069C156.919 29.6802 157.573 29.8135 158.199 29.7202C158.946 29.6135 159.48 29.0535 160.053 28.5202C160.52 28.0802 161.027 27.5602 161.453 26.8269C161.787 26.2535 162.067 25.5735 162.414 24.8269C162.627 24.3602 163.894 24.8535 163.894 25.6135L163.827 25.6002Z" fill="#303F5D"/>
<path d="M193.205 8.25316C193.205 8.75983 192.965 9.57316 192.725 9.61316C191.058 9.8665 190.165 10.0265 190.098 11.0398C190.071 12.1598 190.338 12.1598 190.338 13.2798C190.338 14.3998 190.165 14.3998 190.165 15.5332C190.165 16.6665 190.111 16.6532 190.111 17.7732C190.111 18.8932 190.405 18.8932 190.405 20.0132C190.405 21.1332 190.085 21.1332 190.085 22.2665C190.085 23.3998 190.138 23.3865 190.138 24.5065C190.138 25.6265 190.098 25.6265 190.111 26.7598C190.125 27.8932 190.285 27.8932 190.285 29.0132C190.285 30.1332 190.165 30.1465 190.165 31.2665C190.165 31.9465 188.751 32.6665 187.938 32.6665C187.724 32.6665 187.471 32.6398 187.404 32.5065C186.804 31.6265 186.857 31.5865 186.257 30.7065C185.657 29.8265 185.657 29.8265 185.057 28.9598C184.457 28.0932 184.617 27.9732 184.017 27.0932C183.417 26.2132 183.163 26.3865 182.563 25.5065C181.963 24.6265 181.963 24.6265 181.363 23.7465C180.763 22.8665 180.736 22.8932 180.136 21.9998C179.536 21.1065 179.63 21.0532 179.029 20.1732C178.429 19.2932 178.443 19.2798 177.843 18.3998C177.242 17.5198 177.202 17.5465 176.602 16.6665C176.002 15.7865 176.149 15.6798 175.549 14.7998C174.949 13.9198 175.189 12.4932 174.202 12.9332C173.148 13.4132 174.389 14.2265 174.389 15.3865C174.389 16.5465 174.069 16.5465 174.069 17.7065C174.069 18.8665 174.282 18.8665 174.282 20.0265C174.282 21.1865 174.175 21.1865 174.175 22.3465C174.175 23.5065 174.282 23.5065 174.282 24.6665C174.282 25.8265 174.442 25.8265 174.442 26.9865C174.442 28.1465 174.429 28.1465 174.429 29.3065C174.429 29.5998 174.975 29.8932 177.442 29.9332C177.936 29.9332 177.723 32.0665 176.976 32.0265C176.109 31.9732 175.282 31.9998 174.442 31.9865C173.602 31.9732 172.775 31.9332 171.908 31.9465C171.095 31.9598 170.255 31.9732 169.374 32.0132C169.201 32.0132 168.948 31.7332 168.948 31.4265C168.948 30.9198 169.308 30.0265 169.561 29.9865C171.148 29.7332 171.708 29.6532 171.708 28.4132C171.708 27.3065 171.855 27.3065 171.855 26.1998C171.855 25.0932 171.655 25.0932 171.655 23.9998C171.655 22.9065 171.722 22.8932 171.722 21.7865C171.722 20.6798 171.668 20.6798 171.668 19.5732C171.668 18.4665 171.868 18.4665 171.868 17.3598C171.868 16.2532 171.868 16.2532 171.868 15.1465C171.868 14.0398 171.655 14.0398 171.655 12.9332C171.655 11.8265 171.695 11.8265 171.695 10.7198C171.695 9.61316 171.255 9.4665 169.841 9.4265C169.281 9.4265 169.481 7.49316 170.161 7.49316C170.201 7.49316 170.201 7.55983 170.241 7.55983C171.201 7.59983 172.108 7.69316 172.988 7.69316C173.869 7.69316 174.709 7.53316 175.495 7.49316C175.669 7.49316 175.869 7.69316 175.976 7.8265C176.642 8.7865 176.416 8.9465 177.069 9.9065C177.723 10.8665 177.776 10.8398 178.443 11.8132C179.109 12.7865 179.203 12.7198 179.856 13.6932C180.51 14.6665 180.443 14.7065 181.11 15.6798C181.777 16.6532 181.91 16.5598 182.577 17.5198C183.243 18.4798 183.137 18.5598 183.804 19.5198C184.47 20.4798 184.43 20.5198 185.097 21.4798C185.764 22.4398 185.764 22.4532 186.431 23.4265C187.097 24.3998 186.684 25.6932 187.791 25.3065C188.898 24.9198 187.964 24.1465 187.964 22.9332C187.964 21.7198 187.697 21.7332 187.697 20.5198C187.697 19.3065 187.804 19.3198 187.804 18.1198C187.804 16.9198 187.751 16.9198 187.751 15.7065C187.751 14.4932 187.858 14.4932 187.858 13.2932C187.858 12.0932 187.671 12.0798 187.671 10.8798C187.671 10.1732 187.457 9.73316 186.657 9.6265C186.204 9.57316 185.59 9.55983 184.857 9.5465C184.297 9.5465 184.497 7.81316 185.177 7.81316C185.217 7.81316 185.217 7.57316 185.257 7.57316C186.137 7.63983 186.964 7.63983 187.804 7.6665C188.644 7.69316 189.444 7.71983 190.351 7.69316C191.138 7.6665 191.992 7.87983 192.925 7.83983C193.098 7.83983 193.205 7.9065 193.205 8.19983V8.25316Z" fill="#303F5D"/>
<path d="M218.689 27.4267C218.689 27.6801 218.716 27.9734 218.542 28.2267C218.169 28.7734 217.516 29.1334 216.982 29.6267C216.502 30.0801 216.102 30.6934 215.462 31.0667C214.902 31.4001 214.195 31.5334 213.488 31.7734C212.875 31.9867 212.195 32.0934 211.475 32.2001C210.835 32.2934 210.154 32.6401 209.408 32.6401C208.661 32.6401 207.914 32.2401 207.154 32.0801C206.394 31.9201 205.687 31.7334 204.994 31.4267C204.3 31.1201 203.687 30.7067 203.073 30.2401C202.46 29.7734 201.806 29.4001 201.3 28.8001C200.82 28.2267 200.5 27.5334 200.126 26.84C199.779 26.1867 199.353 25.5467 199.126 24.7734C198.913 24.0801 198.686 23.3334 198.579 22.5334C198.486 21.8134 198.486 21.0267 198.486 20.2267C198.486 19.4801 198.526 18.7334 198.619 18.0001C198.713 17.2667 199.046 16.5734 199.233 15.8667C199.419 15.1601 199.393 14.3467 199.686 13.6667C199.979 12.9867 200.366 12.3201 200.78 11.7067C201.193 11.0934 201.673 10.4801 202.206 9.96005C202.74 9.44005 203.42 9.08005 204.06 8.69338C204.7 8.30672 205.367 8.01338 206.087 7.76005C206.754 7.52005 207.474 7.29338 208.247 7.17338C208.941 7.06672 209.701 7.17338 210.474 7.17338C211.301 7.17338 212.048 7.32005 212.768 7.44005C213.608 7.58672 214.435 7.52005 215.102 7.74672C216.035 8.06672 216.595 8.72005 217.036 9.02672C217.396 9.28005 217.689 9.54672 217.836 10.1334C217.942 10.6001 217.969 11.4534 218.076 12.3201C218.169 13.0934 218.342 13.8801 218.369 14.5067C218.409 15.0534 217.129 15.5201 216.942 15.1334C216.635 14.4667 216.329 13.8667 215.982 13.3201C215.582 12.6934 215.355 12.0134 214.902 11.5467C214.395 11.0267 213.755 10.7334 213.182 10.4001C212.608 10.0667 211.955 9.86672 211.275 9.70672C210.634 9.56005 209.981 9.44005 209.261 9.44005C208.541 9.44005 207.887 9.53338 207.261 9.77338C206.634 10.0134 206.154 10.4667 205.647 10.9734C205.194 11.4267 204.82 11.9467 204.5 12.6134C204.22 13.1867 203.927 13.7867 203.74 14.5067C203.58 15.1334 203.313 15.7734 203.247 16.5067C203.18 17.1601 203.34 17.8534 203.34 18.5867C203.34 19.3601 203.3 20.0801 203.367 20.7601C203.447 21.5334 203.607 22.2267 203.753 22.8934C203.927 23.6534 203.953 24.4134 204.207 25.0401C204.514 25.7601 204.874 26.4134 205.274 26.9601C205.727 27.5867 206.38 27.9467 206.927 28.3601C207.527 28.8134 208.114 29.1467 208.794 29.3734C209.474 29.6001 210.168 29.9601 210.901 29.9601C211.581 29.9601 212.181 29.5467 212.808 29.3734C213.435 29.2001 214.035 29.0134 214.622 28.6934C215.209 28.3734 215.755 28.0667 216.262 27.6267C216.769 27.1867 217.076 26.6134 217.489 26.0934C217.662 25.8801 218.662 26.6267 218.662 27.4401L218.689 27.4267Z" fill="#303F5D"/>
<path d="M243.934 25.6002C243.934 25.6802 244 25.7202 243.987 25.8002C243.653 27.0802 243.387 27.0135 243.053 28.2935C242.72 29.5735 242.947 29.6402 242.613 30.9202C242.36 31.8535 241.813 31.8802 241.346 31.8802C240.586 31.8669 239.8 31.7869 238.986 31.7869C238.173 31.7869 237.412 32.0535 236.626 32.0535C235.839 32.0535 235.052 31.7202 234.265 31.7069C233.478 31.6935 232.665 31.7469 231.905 31.7469C231.091 31.7469 230.291 31.7069 229.544 31.7202C228.691 31.7202 227.904 31.9069 227.184 31.9202C226.251 31.9335 225.45 31.8402 224.837 31.8535C224.384 31.8535 224.65 30.3069 225.037 30.2269C226.024 29.9735 226.931 29.7602 226.931 28.5202C226.931 27.4135 226.997 27.4135 226.997 26.3069C226.997 25.2002 226.997 25.2002 226.997 24.0935C226.997 22.9869 227.197 22.9869 227.197 21.8802C227.197 20.7735 226.891 20.7735 226.891 19.6535C226.891 18.5335 226.891 18.5469 226.891 17.4402C226.891 16.3335 226.851 16.3335 226.851 15.2135C226.851 14.0935 226.971 14.0935 226.971 12.9869C226.971 11.8802 226.997 11.8669 226.997 10.7602C226.997 9.65354 226.117 9.74688 224.85 9.70688C224.637 9.70688 224.624 9.32021 224.624 8.93354C224.624 8.38688 224.784 7.85354 225.237 7.85354C225.984 7.86688 226.744 7.61354 227.504 7.62687C228.264 7.64021 229.011 7.97354 229.758 7.97354C230.505 7.97354 231.265 7.77354 232.025 7.77354C232.785 7.77354 233.532 7.88021 234.292 7.88021C235.052 7.88021 235.799 7.77354 236.559 7.76021C237.319 7.74688 238.066 7.58687 238.826 7.57354C239.586 7.56021 240.333 7.56021 241.093 7.54688C241.373 7.54688 241.546 8.01354 241.586 8.26688C241.733 9.38688 241.907 9.36021 242.053 10.4669C242.2 11.5735 242.267 11.5735 242.413 12.6802C242.52 13.5335 241.173 14.2669 240.973 13.6269C240.56 12.6269 240.16 11.9202 239.719 11.3869C238.933 10.4402 238.173 10.2802 237.586 10.2002C237.039 10.1202 236.306 10.0535 235.439 10.0269C234.772 10.0135 234.039 9.96021 233.278 10.0002C232.572 10.0402 231.798 10.0002 231.078 10.1069C230.758 11.1602 231.278 11.2135 231.278 12.3202C231.278 13.4269 231.211 13.4269 231.211 14.5202C231.211 15.6135 231.265 15.6269 231.265 16.7335C231.265 17.8402 230.331 18.1602 231.078 18.9869C231.745 19.7202 232.118 18.9869 233.118 18.9869C234.119 18.9869 234.119 18.7602 235.105 18.7602C236.092 18.7602 236.106 18.7869 237.092 18.7869C238.053 18.7869 238.653 17.7469 238.946 16.4269C239.013 16.0402 240.173 16.0535 240.173 16.6135C240.173 17.6269 240.106 17.6269 240.106 18.6535C240.106 19.6802 240.013 19.6669 240.013 20.6935C240.013 21.7202 240.173 21.7069 240.173 22.7335C240.173 23.5869 238.546 23.1735 238.506 22.8802C238.293 21.4402 237.826 20.9202 236.386 20.9202C235.065 20.9202 235.065 20.9735 233.759 20.9735C232.452 20.9735 232.078 20.1735 231.131 21.0802C230.185 21.9869 231.051 22.3335 231.051 23.5869C231.051 24.8402 231.225 24.8402 231.225 26.1069C231.225 27.3735 231.105 27.3602 231.105 28.6269C231.105 29.3469 231.225 29.7469 232.212 29.7869C232.972 29.8135 233.638 29.8269 234.239 29.8269C235.012 29.8269 235.679 29.7202 236.266 29.7069C237.026 29.6802 237.679 29.8135 238.306 29.7202C239.053 29.6135 239.586 29.0535 240.16 28.5202C240.626 28.0802 241.133 27.5602 241.56 26.8269C241.893 26.2535 242.173 25.5735 242.52 24.8269C242.733 24.3602 244 24.8535 244 25.6135L243.934 25.6002Z" fill="#303F5D"/>
</svg>
