<svg width="130" height="40" viewBox="0 0 130 40" fill="none" xmlns="http://www.w3.org/2000/svg">
<g clip-path="url(#clip0_4370_3371)">
<path d="M19.2398 12.6133C19.2398 12.6133 19.3331 12.68 19.3331 12.7467C19.3331 13.5067 18.2931 13.92 18.0398 13.4C17.5998 12.5733 17.0265 12.04 16.6265 11.52C16.1198 10.8667 15.6531 10.2933 14.8531 10.0533C14.2398 9.86667 13.4798 9.72 12.5065 9.72C11.7331 9.72 10.9731 10.0133 10.2265 10.04C9.42646 10.0667 8.49312 9.93334 7.78646 10.0667C7.46646 11.16 7.82646 11.2533 7.82646 12.4C7.82646 13.5467 7.78646 13.5467 7.78646 14.6933C7.78646 15.84 7.95979 15.84 7.95979 16.9867C7.95979 18.1333 6.99979 18.6267 7.87979 19.36C8.93312 20.24 9.31979 19.2267 10.6798 19.2267C12.0398 19.2267 12.0531 19.16 13.4131 19.1467C14.5465 19.1467 14.8931 17.6667 15.1065 16.7333C15.2131 16.2267 16.3465 16.44 16.3865 17C16.3998 18.1067 16.1865 18.1067 16.1865 19.2133C16.1865 20.32 16.4931 20.32 16.4931 21.44C16.4931 22.56 16.4931 22.5467 16.4931 23.6667C16.4931 24.2667 14.8531 24.0667 14.7865 23.52C14.5731 21.8267 13.9465 21.5333 12.8931 21.5333C11.6531 21.5333 11.6531 21.5067 10.4265 21.5067C9.19979 21.5067 8.87979 20.64 8.01312 21.52C7.14646 22.4 7.86646 22.7333 7.86646 24.0133C7.86646 25.2933 7.79979 25.2933 7.79979 26.5733C7.79979 27.8533 8.07979 27.8533 8.07979 29.1333C8.07979 29.6533 8.43979 30.0667 9.61312 30.1733C10.1598 30.2267 10.8531 30.0267 11.6931 30.04C12.2531 30.04 12.0398 31.88 11.3731 31.88C11.3331 31.88 11.3331 31.9867 11.3065 31.9867C10.6131 31.9467 9.78646 32.0667 8.91979 32.0533C8.14646 32.04 7.33312 32.0133 6.51979 32.0133C5.70646 32.0133 4.87979 31.7733 4.11979 31.8C3.22646 31.8267 2.41312 32.0267 1.73312 32.0667C1.27979 32.0667 1.51979 30.2133 1.90646 30.1333C2.89312 29.88 3.81312 29.7733 3.81312 28.5467C3.81312 27.44 3.83979 27.44 3.83979 26.3333C3.83979 25.2267 3.73312 25.2267 3.73312 24.12C3.73312 23.0133 3.73312 23.0133 3.73312 21.9067C3.73312 20.8 3.79979 20.8 3.79979 19.68C3.79979 18.56 3.94646 18.5733 3.94646 17.4667C3.94646 16.36 3.74646 16.36 3.74646 15.24C3.74646 14.12 3.81312 14.12 3.81312 13.0133C3.81312 11.9067 3.75979 11.8933 3.75979 10.7867C3.75979 9.68 2.98646 9.62667 1.71979 9.58667C1.50646 9.58667 1.45312 9.34667 1.45312 8.97334C1.45312 8.42667 1.63979 7.58667 2.10646 7.58667C2.86646 7.6 3.61312 7.65334 4.37312 7.66667C5.13312 7.68 5.87979 7.96 6.63979 7.97334C7.39979 7.98667 8.15979 7.65334 8.90646 7.66667C9.65312 7.68 10.4131 7.73334 11.1731 7.73334C11.9331 7.73334 12.6798 7.81334 13.4398 7.81334C14.1998 7.81334 14.9465 7.64 15.7065 7.62667C16.4665 7.61334 17.2131 7.66667 17.9731 7.65334C18.2265 7.65334 18.2798 8.08 18.3065 8.33334C18.4798 9.42667 18.5198 9.42667 18.7198 10.5067C18.9198 11.5867 19.0531 11.5733 19.2265 12.6667L19.2398 12.6133Z" fill="#FAFAFA"/>
<path d="M43.3731 25.1333C43.3731 25.1333 43.4532 25.2533 43.4265 25.3466C43.1465 26.28 42.8931 26.2133 42.6265 27.1466C42.3598 28.08 42.5865 28.16 42.3198 29.0933C42.0532 30.0266 41.8798 29.9866 41.5998 30.92C41.3465 31.72 41.0665 31.8266 40.7865 31.8266C40.0932 31.8266 39.3998 32.1066 38.7465 32.0933C38.0531 32.0933 37.3732 31.76 36.7065 31.7466C35.9998 31.7466 35.3198 31.7733 34.6665 31.7733C33.9598 31.7733 33.2798 31.72 32.6265 31.72C31.9065 31.72 31.2265 31.8933 30.5998 31.8933C29.8798 31.8933 29.1998 31.7733 28.5865 31.7733C27.8132 31.7733 27.1465 31.9333 26.5865 31.9333C25.5598 31.9466 24.8798 32.0266 24.5998 32.0533C24.1465 32.0533 24.4132 30.3066 24.7998 30.2266C25.7865 29.9733 26.7465 29.7466 26.7465 28.52C26.7465 27.4133 26.9465 27.4133 26.9465 26.3066C26.9465 25.2 26.6398 25.2 26.6398 24.0933C26.6398 22.9866 26.6398 22.9866 26.6398 21.88C26.6398 20.7733 26.5998 20.7733 26.5998 19.6533C26.5998 18.5333 26.7198 18.5466 26.7198 17.44C26.7198 16.3333 26.7465 16.3333 26.7465 15.2133C26.7465 14.0933 26.6932 14.0933 26.6932 12.9866C26.6932 11.88 26.8665 11.8666 26.8665 10.76C26.8665 9.6533 25.8665 9.50663 24.5998 9.46663C24.3865 9.46663 24.1465 9.31996 24.1465 8.94663C24.1465 8.39996 24.4798 7.90663 24.9065 7.90663C24.9465 7.90663 24.9465 7.6933 24.9731 7.6933C25.2265 7.70663 26.0131 7.8533 27.1865 7.8933C27.8265 7.90663 28.5731 7.8133 29.4131 7.8133C30.1065 7.8133 30.8398 7.63996 31.6265 7.62663C32.3331 7.6133 33.0798 7.58663 33.8531 7.54663C34.3065 7.54663 34.0265 9.23996 33.6398 9.3333C32.9331 9.43996 32.3598 9.70663 31.8932 9.8933C31.2398 10.1466 30.9731 10.44 30.9731 11.1466C30.9731 12.24 30.9198 12.24 30.9198 13.32C30.9198 14.4 30.8932 14.4133 30.8932 15.4933C30.8932 16.5733 30.9998 16.5866 30.9998 17.6666C30.9998 18.7466 30.9998 18.76 30.9998 19.84C30.9998 20.92 30.9332 20.9333 30.9332 22.0133C30.9332 23.0933 30.7865 23.1066 30.7865 24.2C30.7865 25.2933 30.9865 25.2933 30.9865 26.3866C30.9865 27.48 30.9198 27.48 30.9198 28.5733C30.9198 29.3333 31.7465 29.6133 33.0532 29.6133C34.5865 29.6133 34.5865 29.8133 36.1332 29.8133C36.8665 29.8133 37.5465 29.6666 38.1731 29.3733C38.7465 29.0933 39.1332 28.5333 39.6532 27.9466C40.0532 27.4933 40.4665 26.9733 40.8531 26.2933C41.1731 25.7466 41.7198 25.2533 42.0398 24.56C42.2932 24.0133 43.3998 24.4933 43.3998 25.1333H43.3731Z" fill="#FAFAFA"/>
<path d="M59.8001 32.6799C58.9735 32.6799 58.1735 32.6799 57.4401 32.5466C56.6401 32.3999 55.9735 31.9066 55.2801 31.5999C54.5468 31.2799 53.7468 31.0933 53.1335 30.6266C52.5201 30.1599 52.0668 29.4799 51.5735 28.8666C51.0801 28.2533 50.7201 27.5999 50.3468 26.8933C49.9735 26.1866 49.4401 25.5866 49.2001 24.8266C48.9601 24.0666 49.1335 23.2533 49.0135 22.4666C48.8935 21.6799 48.8135 20.9466 48.8135 20.1466C48.8135 19.3466 48.8935 18.6533 48.9735 17.9199C49.0535 17.1866 49.0135 16.3999 49.2001 15.6933C49.3868 14.9866 49.7468 14.2933 50.0401 13.6133C50.3335 12.9333 50.5735 12.1999 51.0001 11.5866C51.4268 10.9733 51.8801 10.3466 52.4268 9.83994C52.9735 9.33327 53.6135 8.93327 54.2668 8.5466C54.8935 8.1866 55.5735 7.8666 56.3201 7.6266C57.0001 7.39994 57.7601 7.42661 58.5335 7.30661C59.2401 7.19994 59.9601 6.85327 60.7468 6.85327C60.8001 6.85327 60.8001 6.85327 60.8535 6.85327C61.6801 6.85327 62.4935 6.9066 63.2401 7.05327C64.0401 7.21327 64.7868 7.58661 65.4801 7.89327C66.2135 8.22661 66.8801 8.66661 67.4935 9.13327C68.1068 9.59994 68.7201 10.1466 69.2268 10.7599C69.7335 11.3733 70.0135 12.1199 70.3735 12.8266C70.7335 13.5333 70.9735 14.2533 71.2135 15.0133C71.4535 15.7733 71.8935 16.4666 72.0135 17.2399C72.1335 18.0133 71.8668 18.8266 71.8668 19.6133C71.8668 20.3599 72.0268 21.1066 71.9335 21.8533C71.8401 22.5999 71.5868 23.3066 71.4001 24.0266C71.2135 24.7466 71.0401 25.4799 70.7335 26.1599C70.4268 26.8399 70.1735 27.5866 69.7468 28.1866C69.3201 28.7866 68.7868 29.3733 68.2268 29.8799C67.6668 30.3866 66.9335 30.6266 66.2801 31.0133C65.6535 31.3733 65.0401 31.8399 64.3068 32.0799C63.6268 32.3066 62.8935 32.5333 62.1201 32.6533C61.4135 32.7599 60.6535 32.7599 59.8668 32.7599C59.8268 32.7599 59.8268 32.7066 59.7868 32.7066L59.8001 32.6799ZM67.3468 20.8399C67.3468 20.0933 67.2001 19.3733 67.0935 18.6399C66.9868 17.9066 67.0935 17.1066 66.8935 16.4133C66.6935 15.7199 66.1868 15.0666 65.8801 14.4266C65.5468 13.7333 65.3201 13.0133 64.8935 12.4266C64.4401 11.8133 63.9601 11.1999 63.4135 10.7466C62.8268 10.2533 62.0535 10.1199 61.3735 9.85327C60.6935 9.58661 60.0135 9.11994 59.2668 9.11994C58.5201 9.11994 57.8135 9.27994 57.2135 9.47994C56.5468 9.70661 55.9068 10.0666 55.4135 10.5333C54.9468 10.9733 54.6801 11.6533 54.3735 12.3199C54.1068 12.8799 53.7601 13.4933 53.6001 14.2266C53.4535 14.8399 53.4935 15.5466 53.4268 16.2666C53.3735 16.9066 53.4001 17.5866 53.4001 18.3066C53.4001 19.0266 53.4001 19.8266 53.4801 20.5866C53.5601 21.3466 53.7335 22.0933 53.9201 22.8266C54.1068 23.5599 54.1868 24.3733 54.4801 25.0666C54.7735 25.7599 55.4135 26.3199 55.8401 26.9333C56.2801 27.5866 56.7601 28.1333 57.3201 28.6266C57.8801 29.1199 58.5201 29.4666 59.2401 29.7466C59.9601 30.0266 60.6001 30.2533 61.4135 30.2533C62.1601 30.2533 62.8268 30.1466 63.4401 29.8799C64.0535 29.6133 64.6001 29.1866 65.0935 28.6533C65.5468 28.1733 66.0668 27.6933 66.3868 27.0133C66.6668 26.4266 66.9601 25.7599 67.1335 25.0266C67.2935 24.3866 67.1335 23.6533 67.2001 22.9066C67.2668 22.2399 67.3735 21.5599 67.3735 20.8133L67.3468 20.8399Z" fill="#FAFAFA"/>
<path d="M89.8802 32.6799C89.0536 32.6799 88.2536 32.6799 87.5202 32.5466C86.7202 32.3999 86.0536 31.9066 85.3602 31.5999C84.6269 31.2799 83.8269 31.0933 83.2136 30.6266C82.6002 30.1599 82.1469 29.4799 81.6536 28.8666C81.1602 28.2533 80.8002 27.5999 80.4269 26.8933C80.0536 26.1866 79.5202 25.5866 79.2802 24.8266C79.0402 24.0666 79.2136 23.2533 79.0936 22.4666C78.9736 21.6799 78.8936 20.9466 78.8936 20.1466C78.8936 19.3466 78.9736 18.6533 79.0536 17.9199C79.1336 17.1866 79.0936 16.3999 79.2802 15.6933C79.4669 14.9866 79.8269 14.2933 80.1202 13.6133C80.4136 12.9333 80.6536 12.1999 81.0802 11.5866C81.5069 10.9733 81.9602 10.3466 82.5069 9.83994C83.0536 9.33327 83.6936 8.93327 84.3469 8.5466C84.9736 8.1866 85.6536 7.8666 86.4002 7.6266C87.0802 7.39994 87.8402 7.42661 88.6136 7.30661C89.3202 7.19994 90.0402 6.85327 90.8269 6.85327C90.8802 6.85327 90.8802 6.85327 90.9336 6.85327C91.7602 6.85327 92.5736 6.9066 93.3202 7.05327C94.1202 7.21327 94.8669 7.58661 95.5602 7.89327C96.2936 8.22661 96.9602 8.66661 97.5736 9.13327C98.1869 9.59994 98.8002 10.1466 99.3069 10.7599C99.8136 11.3733 100.094 12.1199 100.454 12.8266C100.814 13.5333 101.054 14.2533 101.294 15.0133C101.534 15.7733 101.974 16.4666 102.094 17.2399C102.214 18.0133 101.947 18.8266 101.947 19.6133C101.947 20.3599 102.107 21.1066 102.014 21.8533C101.92 22.5999 101.667 23.3066 101.48 24.0266C101.294 24.7466 101.12 25.4799 100.814 26.1599C100.507 26.8399 100.254 27.5866 99.8269 28.1866C99.4002 28.7866 98.8669 29.3733 98.3069 29.8799C97.7469 30.3866 97.0136 30.6266 96.3602 31.0133C95.7336 31.3733 95.1202 31.8399 94.3869 32.0799C93.7069 32.3066 92.9736 32.5333 92.2002 32.6533C91.4936 32.7599 90.7336 32.7599 89.9469 32.7599C89.9069 32.7599 89.9069 32.7066 89.8669 32.7066L89.8802 32.6799ZM97.4269 20.8399C97.4269 20.0933 97.2802 19.3733 97.1736 18.6399C97.0669 17.9066 97.1736 17.1066 96.9736 16.4133C96.7736 15.7199 96.2669 15.0666 95.9602 14.4266C95.6269 13.7333 95.4002 13.0133 94.9736 12.4266C94.5202 11.8133 94.0402 11.1999 93.4936 10.7466C92.9069 10.2533 92.1336 10.1199 91.4536 9.85327C90.7736 9.58661 90.0936 9.11994 89.3469 9.11994C88.6002 9.11994 87.8936 9.27994 87.2936 9.47994C86.6269 9.70661 85.9869 10.0666 85.4936 10.5333C85.0269 10.9733 84.7602 11.6533 84.4536 12.3199C84.1869 12.8799 83.8402 13.4933 83.6802 14.2266C83.5336 14.8399 83.5736 15.5466 83.5069 16.2666C83.4536 16.9066 83.4802 17.5866 83.4802 18.3066C83.4802 19.0266 83.4802 19.8266 83.5602 20.5866C83.6402 21.3466 83.8136 22.0933 84.0002 22.8266C84.1869 23.5599 84.2669 24.3733 84.5602 25.0666C84.8536 25.7599 85.4936 26.3199 85.9202 26.9333C86.3602 27.5866 86.8402 28.1333 87.4002 28.6266C87.9602 29.1199 88.6002 29.4666 89.3202 29.7466C90.0402 30.0266 90.6802 30.2533 91.4936 30.2533C92.2402 30.2533 92.9069 30.1466 93.5202 29.8799C94.1336 29.6133 94.6802 29.1866 95.1736 28.6533C95.6269 28.1733 96.1469 27.6933 96.4669 27.0133C96.7469 26.4266 97.0402 25.7599 97.2136 25.0266C97.3736 24.3866 97.2136 23.6533 97.2802 22.9066C97.3469 22.2399 97.4536 21.5599 97.4536 20.8133L97.4269 20.8399Z" fill="#FAFAFA"/>
<path d="M129.934 29.7999C129.934 29.9732 129.96 30.2666 129.88 30.3599C129.4 30.9466 128.52 31.2799 127.747 31.6799C126.974 32.0799 126.16 32.5866 125.427 32.5866C124.787 32.5866 124.294 32.2266 123.814 31.8932C123.374 31.5866 123.04 31.1332 122.627 30.6265C122 29.8132 121.774 29.9866 121.147 29.1599C120.52 28.3332 120.787 28.1465 120.16 27.3199C119.534 26.4932 119.507 26.5199 118.88 25.7066C118.254 24.8932 118.28 24.8532 117.667 24.0399C117.054 23.2265 116.934 23.2932 116.28 22.4932C115.854 22.1066 116.32 20.9332 116.854 20.9732C117.76 21.0799 118.547 20.9332 119.227 20.8399C120.134 20.7199 120.8 20.3865 121.334 19.9199C121.92 19.4265 122.334 18.8265 122.56 17.9865C122.747 17.3065 122.827 16.5332 122.827 15.6399C122.827 14.7465 122.894 13.9732 122.68 13.2932C122.427 12.4932 121.787 11.9732 121.307 11.4132C120.787 10.8132 120.2 10.3865 119.507 10.0799C118.814 9.77321 118.094 9.65321 117.307 9.65321C116.52 9.65321 115.84 9.61321 115.094 9.87988C114.774 10.9065 115.067 10.9332 115.067 12.0132C115.067 13.0932 115.12 13.0932 115.12 14.1732C115.12 15.2532 114.947 15.2532 114.947 16.3332C114.947 17.4132 114.88 17.4132 114.88 18.4932C114.88 19.5732 115.16 19.5732 115.16 20.6532C115.16 21.7332 114.84 21.7332 114.84 22.8132C114.84 23.8932 115.054 23.8932 115.054 24.9732C115.054 26.0532 114.947 26.0532 114.947 27.1466C114.947 28.2399 115.054 28.2265 115.054 29.3199C115.054 29.9999 115.774 29.8132 117.787 29.8665C118.347 29.8665 118.134 32.1599 117.387 32.1199C116.64 32.0799 115.934 31.8132 115.254 31.7866C114.507 31.7599 113.787 31.9199 113.107 31.9199C112.36 31.9199 111.654 31.9866 110.96 31.9999C110.227 32.0266 109.52 31.9999 108.827 32.0532C108.374 32.0932 108.627 30.2665 109.014 30.1865C110 29.9332 110.827 29.7465 110.827 28.5199C110.827 27.4132 110.827 27.4132 110.827 26.3065C110.827 25.1999 110.894 25.1999 110.894 24.0932C110.894 22.9865 111.04 22.9865 111.04 21.8799C111.04 20.7732 110.84 20.7732 110.84 19.6532C110.84 18.5332 110.907 18.5465 110.907 17.4399C110.907 16.3332 110.854 16.3332 110.854 15.2132C110.854 14.0932 111.054 14.0932 111.054 12.9865C111.054 11.8799 111.054 11.8665 111.054 10.7599C111.054 9.65321 110.067 9.81321 108.8 9.77321C108.587 9.77321 108.374 9.31988 108.374 8.93321C108.374 8.38655 108.734 7.81321 109.187 7.85321C110.054 7.90655 110.8 7.59988 111.467 7.59988C112.334 7.59988 113.054 7.63988 113.747 7.59988C114.534 7.55988 115.254 7.59988 116.014 7.53321C116.694 7.49321 117.427 7.29321 118.28 7.29321C119.067 7.29321 119.814 7.42655 120.48 7.51988C121.267 7.63988 121.907 8.07988 122.534 8.30655C123.28 8.58655 123.894 8.87988 124.427 9.29321C125.027 9.75988 125.574 10.2265 125.947 10.8265C126.32 11.4265 126.52 12.1599 126.694 12.8665C126.867 13.5732 127.107 14.2799 127.107 15.0132C127.107 15.7465 126.934 16.3999 126.814 17.0399C126.68 17.7332 126.44 18.3465 126.134 18.9332C125.827 19.5199 125.44 20.0665 124.92 20.5332C124.454 20.9599 123.947 21.4132 123.28 21.7065C122.707 21.9599 121.894 22.1732 121.174 22.3199C121.494 23.3199 122.054 23.0265 122.707 23.8399C123.36 24.6532 123.28 24.7199 123.934 25.5465C124.587 26.3732 124.614 26.3466 125.28 27.1466C126 27.9732 126.507 28.5599 127.067 28.8399C127.774 29.1999 128.494 29.0532 129.494 28.9599C129.747 28.9199 129.907 29.4265 129.907 29.7599L129.934 29.7999Z" fill="#FAFAFA"/>
</g>
<defs>
<clipPath id="clip0_4370_3371">
<rect width="129.933" height="40" fill="white"/>
</clipPath>
</defs>
</svg>
